<svg width="80" height="80" viewBox="0 0 80 80" fill="none" xmlns="http://www.w3.org/2000/svg">
<circle opacity="0.2" cx="40" cy="40" r="40" fill="#C6C6D7"/>
<path d="M36.1798 63.5216C36.7205 63.2448 37.2226 62.9036 37.7439 62.5947C38.0014 62.4402 38.2589 62.2921 38.5228 62.1505C38.6129 62.099 38.7094 62.054 38.7996 62.0089C38.8382 61.9896 38.8768 61.9703 38.9154 61.951C38.9154 61.951 38.9991 61.9124 38.954 61.9317C38.9154 61.951 38.9733 61.9253 38.9798 61.9188C38.9991 61.9124 39.0377 61.9059 39.057 61.8931C39.0055 61.9253 38.9154 61.8351 38.8317 61.8158C38.8124 61.8094 38.8317 61.8416 38.8253 61.8094C38.8253 61.8287 38.8446 61.8609 38.8446 61.8802C38.8639 61.951 38.8768 62.0218 38.8897 62.0926C38.9347 62.3629 38.954 62.6397 39.0506 62.8972C39.1214 63.0903 39.2373 63.277 39.4432 63.3349C39.6814 63.3993 39.8809 63.277 40.0547 63.1289C40.3315 62.8843 40.5954 62.6204 40.885 62.3887C41.046 62.26 41.2198 62.1441 41.4 62.0411C41.4837 61.9961 41.5738 61.951 41.6639 61.9124C41.6961 61.8995 41.9664 61.8351 41.9728 61.8223C41.9535 61.8158 41.9407 61.8094 41.9214 61.803C41.8634 61.7643 41.857 61.7772 41.8956 61.8287C41.902 61.8802 41.9664 61.9961 41.9922 62.0476C42.0436 62.1698 42.1016 62.2857 42.1531 62.408C42.2625 62.6462 42.3655 62.8908 42.4749 63.1289C42.5457 63.2834 42.8032 63.3478 42.9383 63.2512C43.6078 62.7749 44.2965 62.3308 45.011 61.9253C45.1204 61.8609 45.3264 61.6935 45.4615 61.7257C45.5774 61.7515 45.6675 61.9639 45.719 62.054C45.9121 62.3887 46.0601 62.7492 46.1631 63.1225C46.279 63.5473 46.9484 63.3671 46.8261 62.9423C46.6974 62.4788 46.5107 62.0282 46.2597 61.6227C46.0022 61.2108 45.6289 60.9211 45.1268 61.1078C44.6763 61.2752 44.2579 61.5777 43.8588 61.8287C43.434 62.099 43.0092 62.3823 42.5972 62.6719C42.7517 62.7105 42.9062 62.7556 43.0606 62.7942C42.8675 62.363 42.6873 61.9188 42.4813 61.494C42.2561 61.0306 41.7862 61.1529 41.3935 61.3138C41.0267 61.4683 40.6984 61.6871 40.3894 61.9381C40.2349 62.0604 40.0933 62.1956 39.9453 62.3243C39.868 62.3951 39.6235 62.6912 39.5333 62.6848C39.5913 62.6977 39.6428 62.717 39.7007 62.7298C39.6621 62.7105 39.6299 62.5303 39.6106 62.4595C39.5848 62.3308 39.5591 62.1956 39.5398 62.0604C39.5076 61.8545 39.4754 61.6292 39.3595 61.4554C39.1214 61.0949 38.7223 61.3138 38.4327 61.4618C38.0078 61.6871 37.5959 61.9446 37.1968 62.2085C36.7463 62.4981 36.2892 62.8006 35.9224 63.1933C35.7679 63.3735 35.9738 63.631 36.1798 63.5216Z" fill="#363E49"/>
<path d="M36.1798 59.2669C36.7205 58.9901 37.2226 58.649 37.7439 58.34C37.995 58.192 38.246 58.0439 38.5035 57.9088C38.6 57.8573 38.703 57.8058 38.7996 57.7543C38.8382 57.735 38.8768 57.7157 38.9154 57.6964C39.0055 57.6513 38.9025 57.6964 38.9798 57.6706C38.9991 57.6642 39.0313 57.6577 39.0506 57.6449C39.0248 57.6577 38.9347 57.6063 38.8446 57.5805C38.8189 57.5741 38.8253 57.5483 38.8446 57.6191C38.8639 57.6835 38.8768 57.7479 38.8897 57.8122C38.9412 58.1083 38.9605 58.4108 39.0763 58.6941C39.1471 58.8678 39.263 59.0288 39.4497 59.0803C39.6878 59.1446 39.8938 59.0288 40.0611 58.8743C40.3444 58.6232 40.6083 58.3529 40.9108 58.1212C41.0653 57.9989 41.2326 57.883 41.4129 57.7865C41.4965 57.7414 41.5866 57.6964 41.6768 57.6577C41.7089 57.6449 41.9793 57.5805 41.9857 57.5676C41.9535 57.5548 41.9214 57.5419 41.8827 57.529C41.8892 57.5419 41.8956 57.5612 41.902 57.5741C41.9085 57.632 41.9728 57.7414 41.9986 57.7929C42.0501 57.9152 42.108 58.0311 42.1595 58.1534C42.2689 58.3915 42.3719 58.6361 42.4813 58.8743C42.5521 59.0288 42.8096 59.0931 42.9448 58.9966C43.6142 58.5203 44.3029 58.0761 45.0174 57.6706C45.1268 57.6063 45.3328 57.4389 45.468 57.4711C45.5838 57.4968 45.6739 57.7092 45.7254 57.7994C45.9185 58.1341 46.0666 58.4945 46.1696 58.8678C46.2854 59.2927 46.9548 59.1124 46.8325 58.6876C46.7038 58.2242 46.5171 57.7736 46.2661 57.3681C46.0086 56.9561 45.6353 56.6665 45.1333 56.8532C44.6827 57.0205 44.2643 57.323 43.8652 57.5741C43.4404 57.8444 43.0156 58.1276 42.6036 58.4173C42.7581 58.4559 42.9126 58.501 43.0671 58.5396C42.874 58.1083 42.6938 57.6642 42.4878 57.2394C42.2625 56.7759 41.7926 56.8982 41.4 57.0591C41.0331 57.2136 40.7048 57.4325 40.3959 57.6835C40.2414 57.8058 40.0998 57.941 39.9517 58.0697C39.8745 58.1405 39.6299 58.4366 39.5398 58.4301C39.5977 58.443 39.6492 58.4623 39.7071 58.4752C39.6685 58.4559 39.6299 58.2692 39.617 58.1984C39.5913 58.0761 39.572 57.9603 39.5526 57.838C39.5205 57.6256 39.4883 57.3874 39.3724 57.2072C39.1278 56.8403 38.7223 57.0656 38.4262 57.22C37.995 57.4453 37.583 57.7092 37.1775 57.9731C36.7334 58.2628 36.2892 58.5524 35.9288 58.9451C35.7679 59.1124 35.9738 59.3699 36.1798 59.2669Z" fill="#363E49"/>
<path d="M71.4851 41.4373C70.217 39.5835 67.372 39.0493 65.5183 40.3173C63.8318 41.4759 62.9758 43.8189 60.9997 44.3531C59.0236 44.8874 57.0798 43.2331 56.1915 41.3858C55.3097 39.5385 55.0586 37.4337 54.0996 35.625C52.3359 32.3037 48.0426 30.5657 44.4638 31.7244C40.885 32.883 38.4198 36.7965 38.9347 40.5233C40.8271 39.3518 42.9705 39.1265 44.1227 40.5362C45.2749 41.9458 46.588 48.3503 46.6394 50.5774C46.6909 52.8045 47.8367 57.4003 49.1626 59.1897C50.6495 61.1979 52.9731 62.7234 55.8761 62.3694C59.8604 61.5584 61.5597 58.0118 61.5597 58.0118C61.5597 58.0118 65.2801 59.0481 68.7817 54.8385C72.2832 50.6225 70.0497 47.3333 70.0497 47.3333C70.0497 47.3333 73.2101 45.4731 71.4851 41.4373Z" fill="#363E49"/>
<path d="M53.5782 40.6456C53.5589 40.2787 53.4623 39.9247 53.3658 39.5706C53.2692 39.1973 53.1662 38.824 53.0504 38.4507C52.8315 37.7233 52.5612 37.0088 52.2458 36.3266C51.6987 35.1358 50.9456 34.0094 49.9479 33.1468C49.0532 32.3744 48.0233 31.8852 46.8454 31.7629C45.7319 31.6535 44.5797 31.8402 43.5305 32.22C42.9383 32.4324 42.3462 32.7027 41.8184 33.0567C41.5673 33.2241 41.3227 33.43 41.0975 33.6296C40.8722 33.8291 40.6404 34.0351 40.5182 34.3054C40.4409 34.4792 40.6083 34.7045 40.8014 34.5887C41.0138 34.4535 41.1811 34.2797 41.3678 34.1188C41.5545 33.9579 41.754 33.8098 41.9664 33.6811C42.4105 33.4107 42.8482 33.1468 43.3245 32.9473C44.2965 32.5418 45.365 32.3101 46.4206 32.3422C46.9162 32.3551 47.4054 32.4324 47.8753 32.5933C48.3902 32.7671 48.8601 33.0567 49.2849 33.3786C50.2569 34.1188 51.0035 35.1293 51.5635 36.2043C51.9368 36.9252 52.2265 37.6847 52.4904 38.4507C52.6191 38.8304 52.7479 39.2102 52.8637 39.59C52.9796 39.9697 53.089 40.3688 53.2757 40.7228C53.3465 40.8709 53.5911 40.8065 53.5782 40.6456Z" fill="#EAE1F9"/>
<path d="M68.0607 45.3379C67.5394 45.9237 66.5932 45.8142 66.0332 45.325C65.3123 44.7007 65.5311 43.6708 66.1684 43.0722C66.9021 42.377 67.9771 42.4285 68.7623 43.0271C69.612 43.6837 69.9338 44.7651 69.7214 45.8014C69.2515 48.0928 66.9086 49.3029 64.8167 49.7792C62.8663 50.2169 60.813 50.0624 58.9271 49.4252C57.0347 48.788 55.3161 47.6487 54.0416 46.1103C53.8872 45.9237 53.7327 45.7241 53.5911 45.5246C53.3465 45.177 52.78 45.5117 53.0246 45.8593C54.3442 47.7324 56.2365 49.1291 58.38 49.9273C60.4912 50.719 62.847 50.9121 65.0484 50.3972C67.4557 49.8372 70.069 48.3181 70.4101 45.6404C70.5711 44.3982 70.0754 43.1752 69.0456 42.4414C68.0672 41.7462 66.7863 41.7462 65.8723 42.538C65.0612 43.2331 64.675 44.5205 65.3702 45.4345C65.9302 46.1747 67.0244 46.4901 67.8741 46.0974C68.0801 46.0009 68.2603 45.8593 68.4083 45.6855C68.5886 45.4409 68.2667 45.1062 68.0607 45.3379Z" fill="#EAE1F9"/>
<path d="M56.2237 44.4754C56.7129 45.634 57.9423 46.3614 59.088 46.7283C60.5298 47.1917 62.0489 47.3526 63.5358 47.0244C64.4047 46.8313 65.2415 46.4772 65.9881 45.9881C66.2971 45.7885 66.0074 45.2865 65.6985 45.4924C64.4691 46.3035 63.0079 46.709 61.5404 46.651C60.8581 46.6253 60.1822 46.4772 59.5193 46.3035C58.9721 46.1619 58.4379 45.9752 57.9487 45.6791C57.6848 45.5182 57.4467 45.3315 57.2278 45.1191C56.9703 44.8681 56.7451 44.5784 56.4876 44.3274C56.3846 44.218 56.1593 44.321 56.2237 44.4754Z" fill="#EAE1F9"/>
<path d="M59.9055 55.6238C59.1846 54.8514 59.7188 53.4031 60.768 53.2937C61.3602 53.2293 61.9588 53.5383 62.3321 53.9889C62.7376 54.4845 62.802 55.1604 62.6346 55.759C62.2162 57.2201 60.6843 57.8509 59.2747 57.7543C57.7106 57.6514 56.2559 56.7309 55.0586 55.7847C52.7157 53.9245 50.9842 51.382 50.1088 48.5241C49.1498 45.3895 48.9824 41.6626 46.5751 39.1845C45.5516 38.1353 44.1613 37.3951 42.6744 37.4015C41.4129 37.408 40.0483 37.8972 39.3724 39.03C39.2115 39.3004 39.1021 39.5964 39.0313 39.899C38.954 40.253 39.4947 40.401 39.5784 40.047C39.8745 38.7082 41.1618 38.0388 42.4492 37.968C43.9875 37.8907 45.3907 38.676 46.3884 39.8089C47.5084 41.0833 48.1006 42.7697 48.4932 44.3918C48.918 46.1619 49.1755 47.9899 49.8256 49.702C50.9327 52.6114 52.9345 55.1539 55.5092 56.9047C56.8867 57.838 58.5151 58.5847 60.2209 58.3594C61.7592 58.1534 63.1238 57.0849 63.3362 55.4886C63.4263 54.7677 63.2332 54.0468 62.7505 53.4997C62.2999 52.9912 61.6176 52.6565 60.9353 52.6629C60.2917 52.6694 59.7124 52.9912 59.3583 53.5254C59.0365 54.0211 58.9271 54.684 59.1138 55.244C59.2103 55.5208 59.3648 55.7525 59.5965 55.9328C59.8153 56.113 60.1114 55.8426 59.9055 55.6238Z" fill="#EAE1F9"/>
<path d="M53.6104 42.847C53.1276 42.8856 52.735 42.4801 52.6577 42.0231C52.5676 41.5081 52.9538 41.0897 53.398 40.9031C54.3828 40.4911 55.4577 41.0383 55.992 41.9008C56.5069 42.7311 56.5455 43.8318 55.8632 44.5849C55.226 45.2865 54.1639 45.589 53.2564 45.2929C52.2394 44.9646 51.7244 43.9026 51.4155 42.9628C51.0486 41.8557 50.8233 40.7164 50.2762 39.6737C49.1819 37.5882 47.1801 35.9855 44.9015 35.3804C44.6312 35.3096 44.3544 35.2517 44.0712 35.2066C43.7622 35.1616 43.4404 35.1616 43.125 35.1551C42.6487 35.1422 42.1724 35.1422 41.6961 35.2002C40.8786 35.3096 40.132 35.6765 39.6041 36.3202C39.4368 36.5261 39.2887 36.7321 39.1471 36.9574C39.0313 37.1505 39.2887 37.3243 39.4432 37.1891C40.1062 36.6163 40.7048 35.9919 41.5802 35.831C42.0436 35.7473 42.5328 35.7602 43.0092 35.773C43.3246 35.7795 43.6528 35.7666 43.9618 35.8181C44.2707 35.8696 44.5733 35.9404 44.8694 36.0241C47.2187 36.7128 49.2527 38.5473 50.0959 40.858C50.5143 42.0038 50.6946 43.2396 51.2803 44.321C51.8403 45.3508 52.8315 46.0911 54.0416 46.0524C55.1359 46.0203 56.2623 45.4152 56.7451 44.4111C57.26 43.3426 56.9768 42.081 56.2301 41.1992C55.4641 40.2916 54.1704 39.9054 53.0761 40.4461C52.5612 40.7035 52.1364 41.2056 52.1235 41.8042C52.1106 42.332 52.4132 42.9178 52.8959 43.1495C53.1405 43.2718 53.398 43.2911 53.649 43.1945C53.8357 43.1237 53.8228 42.8277 53.6104 42.847Z" fill="#EAE1F9"/>
<path d="M19.5345 61.3396C24.5745 62.5046 33.9527 57.9732 35.8966 55.4178C37.937 52.7401 36.875 47.5071 36.875 47.5071C37.2741 46.0975 40.3379 44.1858 41.1876 43.9541C41.9471 43.7417 44.6248 44.3596 44.6248 44.3596C44.6248 44.3596 45.365 43.2846 44.805 41.6819C44.245 40.0792 40.4087 35.9726 40.4087 35.9726C40.4087 35.9726 36.6304 31.8209 35.0727 31.1322C33.515 30.4435 32.3886 31.1 32.3886 31.1C32.3886 31.1 32.7877 33.8163 32.5173 34.5565C32.2148 35.3804 30.065 38.2833 28.6296 38.5666C28.6296 38.5666 23.4995 37.0926 20.6674 38.9077C17.964 40.6392 12.6923 49.6248 13.4519 54.742C13.0979 54.684 11.4372 54.4459 10.2722 54.9672C10.2722 54.9672 10.1241 55.6109 14.2629 60.0973C18.4017 64.5837 19.0582 64.4871 19.0582 64.4871C19.6697 63.3736 19.5667 61.7 19.5345 61.3396Z" fill="#BA96D6"/>
<path d="M26.8981 31.8466C30.213 36.629 34.0557 41.109 38.4584 44.9324C39.0699 45.4666 39.6878 45.9944 40.3251 46.4965C40.9816 47.0178 41.6317 47.5714 42.3784 47.9576C42.5586 48.0477 42.7452 47.8417 42.6036 47.6808C42.1402 47.1273 41.5738 46.6703 41.0395 46.1875C40.5053 45.6983 39.9646 45.2156 39.4304 44.7199C38.394 43.748 37.3706 42.7632 36.3729 41.7526C34.3582 39.7058 32.453 37.5366 30.67 35.2773C29.6723 34.0093 28.7133 32.7155 27.7993 31.3831C27.6448 31.1578 27.3809 31.0291 27.117 31.1643C26.8981 31.2801 26.7372 31.6213 26.8981 31.8466Z" fill="#363E49"/>
<path d="M40.0032 48.7815C39.4432 48.273 38.8704 47.7838 38.3104 47.2689C37.2226 46.2583 36.1541 45.2349 35.1371 44.1535C33.1031 41.9973 31.1528 39.7122 29.4792 37.292C28.5202 35.9081 27.619 34.4856 26.7887 33.0245C26.5827 32.6641 26.1257 32.4903 25.746 32.6898C25.3855 32.8765 25.2053 33.3721 25.4112 33.7325C28.4429 39.0299 32.35 43.954 37.0617 47.8546C37.7182 48.4018 38.3876 48.9296 39.0699 49.4445C39.411 49.702 39.7715 49.9337 40.1319 50.1654C40.486 50.3907 40.8529 50.6031 41.2584 50.7125C41.445 50.764 41.6768 50.5516 41.5545 50.3585C41.1489 49.7406 40.5439 49.2771 40.0032 48.7815Z" fill="#363E49"/>
<path d="M27.1685 38.7789C26.2738 37.4143 25.4563 36.0047 24.7161 34.5564C24.5359 34.196 23.9759 34.4856 24.1625 34.8396C26.8144 40.0147 30.4576 44.7264 34.9118 48.4725C36.1734 49.5346 37.5058 50.4937 38.8961 51.3755C38.9991 51.4399 39.0892 51.2918 38.9927 51.221C34.4162 47.7581 30.3224 43.5871 27.1685 38.7789Z" fill="#363E49"/>
<path d="M28.2691 63.9206C27.9409 63.631 27.619 63.3349 27.2843 63.0517C26.6213 62.4981 25.9712 61.9253 25.3276 61.346C24.0209 60.1745 22.7722 58.9451 21.5557 57.6835C20.3263 56.409 19.1612 55.0702 18.0348 53.7056C16.9406 52.3797 15.8721 50.9636 14.9388 49.5926C13.8188 47.9512 12.7825 46.2584 11.8298 44.5205C11.6239 44.1407 11.1089 43.9412 10.7227 44.1664C10.343 44.3853 10.1434 44.8745 10.3687 45.2735C12.113 48.4211 14.1342 51.4206 16.3999 54.2141C18.6656 57.0012 21.2081 59.5437 23.9823 61.8223C24.7418 62.4466 25.5142 63.0452 26.3059 63.6245C26.7179 63.9206 27.1363 64.2039 27.5675 64.4678C27.7735 64.5965 27.9859 64.7381 28.2112 64.8218C28.4429 64.9119 28.694 64.9634 28.9321 65.0149C29.0029 65.0277 29.0866 64.9569 29.0415 64.8861C28.8098 64.5321 28.5845 64.2039 28.2691 63.9206Z" fill="#363E49"/>
<path d="M21.5235 65.8645C21.3111 65.6328 21.1308 65.3947 20.8863 65.1951C20.6352 64.9827 20.3906 64.7639 20.1332 64.5515C19.6955 64.1846 19.2578 63.8048 18.8329 63.4122C17.9318 62.5818 17.0242 61.7708 16.1617 60.8761C14.4496 59.1125 12.879 57.2008 11.4887 55.1796C11.1025 54.6197 10.7935 54.1433 10.4524 53.5962C10.2786 53.3066 10.1048 53.0105 9.93101 52.7144C9.71216 52.3411 9.54481 51.9098 9.15217 51.6845C8.7016 51.4271 8.02575 51.6395 8.00644 52.2316C8 52.4762 8.01931 52.6758 8.12873 52.9011C8.1931 53.0298 8.27678 53.1585 8.34758 53.2873C8.50206 53.5576 8.66298 53.8215 8.8239 54.0918C9.17791 54.6711 9.54481 55.244 9.92457 55.8104C10.6197 56.8403 11.36 57.8444 12.1452 58.8099C13.748 60.786 15.5695 62.5883 17.507 64.2296C18.0284 64.6738 18.5884 65.0793 19.1483 65.4783C19.4444 65.6908 19.7405 65.8903 20.043 66.0834C20.3649 66.2894 20.6867 66.4181 21.0407 66.5661C21.4462 66.7335 21.8067 66.1864 21.5235 65.8645Z" fill="#363E49"/>
<path d="M24.4007 59.254C25.0701 59.8719 25.7653 60.4641 26.4733 61.0434C27.1749 61.6162 27.9022 62.2148 28.7004 62.6461C28.7454 62.6719 28.7969 62.6139 28.7648 62.5689C28.2305 61.9574 27.5933 61.4231 27.0011 60.8696C26.4282 60.3289 25.8554 59.7882 25.2954 59.2347C24.1497 58.0954 23.0297 56.9496 21.9612 55.7395C19.8306 53.3193 17.8546 50.7833 16.1038 48.067C15.1254 46.5479 14.2114 44.9838 13.3746 43.3811C13.1236 42.9048 12.3769 43.2845 12.628 43.7673C15.6597 49.5346 19.6182 54.8062 24.4007 59.254Z" fill="#363E49"/>
<path d="M37.6281 58.5395C37.1775 58.7648 36.7012 58.945 36.2378 59.1317C35.7936 59.3119 35.3366 59.4535 34.8732 59.5565C33.9205 59.7754 32.9357 59.8333 31.9638 59.7432C31.4939 59.6981 31.0369 59.6144 30.5863 59.4857C30.2194 59.3827 29.8461 59.2411 29.5822 58.945C29.4985 58.8485 29.4535 58.7777 29.447 58.6876C29.447 58.6747 29.447 58.6425 29.4664 58.6103C29.505 58.5395 29.5307 58.5266 29.6015 58.5009C29.9427 58.385 30.419 58.5524 30.7666 58.6554C32.7233 59.2411 34.8603 59.1381 36.7784 58.443C37.8469 58.0568 38.9219 57.4903 39.5784 56.5248C40.2028 55.6044 40.2607 54.3042 39.5333 53.4288C38.8961 52.6757 37.8662 52.5598 36.9651 52.7658C36.0511 52.9718 35.2336 53.4417 34.3776 53.8021C32.5173 54.581 30.5284 54.935 28.5137 54.9607C27.9988 54.9672 27.4774 54.9478 26.9625 54.9028C26.4797 54.8577 25.9712 54.8191 25.5271 54.6196C25.1731 54.4587 24.8834 54.1433 24.8577 53.7378C24.8384 53.3644 25.1602 53.1778 25.4885 53.152C25.9391 53.1134 26.3832 53.2614 26.808 53.3966C27.2972 53.5511 27.7864 53.6669 28.2949 53.7506C29.3054 53.9115 30.3353 53.9051 31.3459 53.7442C32.3886 53.5768 33.6309 53.3258 34.3969 52.5534C35.1242 51.8196 35.3366 50.6095 34.5707 49.8242C33.7403 48.981 32.5367 49.0711 31.4682 49.2707C30.4061 49.4702 29.3312 49.6247 28.2563 49.7213C26.1322 49.9144 23.9759 49.8307 21.8711 49.4831C21.3819 49.4059 20.8798 49.3222 20.4035 49.1677C20.1847 49.0969 19.9594 49.0068 19.7791 48.8523C19.8049 48.878 19.6955 48.7558 19.6697 48.73C19.6568 48.7043 19.5925 48.6077 19.5989 48.6141C19.5925 48.6013 19.5539 48.4983 19.5474 48.4918C19.541 48.4597 19.5281 48.4275 19.5281 48.3953C19.5281 48.376 19.5217 48.3567 19.5217 48.3502C19.5217 48.2987 19.5217 48.2473 19.5474 48.2022C19.5796 48.1378 19.5989 48.1314 19.6311 48.0992C19.8499 47.8997 19.7663 47.9447 19.7083 48.0027C19.7148 47.9962 19.7727 47.9447 19.7856 47.9254C19.9336 47.8289 20.0945 47.7967 20.2619 47.7516C20.2941 47.7452 20.2941 47.7388 20.3134 47.7388C20.3713 47.7388 20.4292 47.7452 20.4872 47.7516C20.6095 47.7645 20.7318 47.7774 20.8541 47.7967C21.369 47.8868 21.8453 48.0799 22.3474 48.2215C22.8816 48.3696 23.4223 48.4918 23.9759 48.582C25.025 48.7558 26.1386 48.9102 27.2006 48.8072C28.2112 48.7107 29.2668 48.2473 29.7303 47.2882C30.1551 46.4128 29.8976 45.4473 29.2733 44.7393C28.591 43.9733 27.6062 43.6579 26.6085 43.5742C25.4563 43.4777 24.2784 43.6064 23.1262 43.6579C21.8775 43.7158 20.6288 43.7544 19.3865 43.7931C18.7686 43.8124 18.1507 43.8317 17.5327 43.851C17.0693 43.8639 16.5737 43.8961 16.1231 43.7802C15.9043 43.7287 15.7433 43.6708 15.5695 43.5549C15.4537 43.4777 15.2863 43.3039 15.2284 43.2073C15.1833 43.1301 15.1383 43.0528 15.1125 42.9692C15.1447 43.0593 15.0868 42.7761 15.0868 42.8211C15.0868 42.7761 15.0868 42.7181 15.0997 42.6731C15.119 42.6151 15.1705 42.5057 15.1833 42.4864C15.7884 41.714 17.153 42.1324 17.9769 42.2225C19.0647 42.3384 20.1653 42.3577 21.2531 42.2547C22.1929 42.1646 23.2099 42.0358 23.9952 41.463C24.7096 40.948 25.025 39.9439 24.317 39.2681C23.5768 38.5536 22.3989 38.8497 21.5042 39.0106C19.586 39.3646 17.6422 39.1329 15.8399 38.3991C14.9645 38.0451 14.1663 37.5559 13.4068 36.9959C13.1815 36.835 12.8404 36.938 12.6988 37.1633C12.5443 37.4143 12.6409 37.704 12.8661 37.8713C14.4689 39.0428 16.4578 39.7251 18.421 39.9182C19.4122 40.0147 20.3906 40.034 21.3819 39.9053C21.8518 39.8474 22.3152 39.7251 22.7915 39.7186C23.1005 39.7122 23.6025 39.7122 23.757 40.0405C23.8793 40.3108 23.6991 40.5297 23.4867 40.7099C23.2099 40.9416 22.8494 41.0897 22.5019 41.1733C21.4527 41.4244 20.3327 41.4694 19.2578 41.4051C18.7428 41.3729 18.2343 41.2828 17.7323 41.1605C17.1723 41.0317 16.6059 40.8644 16.0266 40.8837C15.4537 40.8966 14.8937 41.0639 14.456 41.4501C14.0054 41.8492 13.793 42.4221 13.8574 43.0142C13.9732 44.0377 14.8808 44.7972 15.8463 45.0096C16.9727 45.2542 18.17 45.0289 19.3028 44.9324C20.5709 44.8229 21.8324 44.7199 23.1005 44.6298C24.2526 44.5526 25.4306 44.3917 26.5827 44.456C27.4774 44.5075 28.4236 44.7908 28.9321 45.5889C29.151 45.9365 29.2733 46.3613 29.1638 46.7668C29.048 47.2238 28.694 47.6036 28.2949 47.8417C27.368 48.3889 26.145 48.3245 25.1152 48.2279C23.9952 48.125 22.8816 47.8546 21.826 47.4877C21.3626 47.3268 20.9313 47.1015 20.4421 47.005C20.4035 46.9985 20.2941 46.947 20.4035 46.9985C20.3456 46.9728 20.3005 46.9535 20.2361 46.9342C20.1138 46.8955 19.9787 46.8762 19.8499 46.8569C19.6247 46.8312 19.3929 46.8376 19.1741 46.902C18.5884 47.0693 18.2343 47.6358 18.1957 48.2279C18.1635 48.7558 18.3953 49.3029 18.7493 49.6826C19.541 50.5258 20.8734 50.6417 21.9483 50.8026C23.0168 50.9635 24.0982 51.0601 25.1731 51.0858C27.3873 51.1438 29.5693 50.9056 31.7192 50.3842C32.1826 50.2748 32.6783 50.1461 33.161 50.2169C33.5665 50.2748 34.0235 50.5194 34.0943 50.9571C34.2617 52.0192 32.9679 52.5663 32.1633 52.8173C31.1978 53.1198 30.1551 53.2099 29.1445 53.1456C28.636 53.1134 28.134 53.0426 27.6383 52.9267C27.1749 52.8173 26.7243 52.6435 26.2544 52.5534C25.8232 52.4633 25.3726 52.386 24.9414 52.5277C24.5101 52.6693 24.1497 53.0104 24.0338 53.461C23.7506 54.5488 24.6517 55.4049 25.5979 55.7138C26.1257 55.8876 26.6986 55.9648 27.2521 56.0356C27.7542 56.1 28.2563 56.1386 28.7583 56.1515C29.8139 56.1644 30.8824 56.0614 31.9187 55.8683C32.9679 55.6688 33.9849 55.3598 34.9697 54.9607C35.4139 54.7805 35.8451 54.5616 36.2828 54.375C36.6561 54.2141 36.9587 54.1046 37.4028 54.0274C37.6216 53.9888 37.6023 53.9888 37.8405 54.0017C37.892 54.0017 37.9435 54.0081 37.995 54.0145C38.0078 54.0145 38.0014 54.0145 38.0078 54.0145C38.0207 54.021 38.0143 54.021 38.04 54.0274C38.0786 54.0403 38.1173 54.0467 38.1559 54.0596C38.1688 54.066 38.2331 54.0982 38.2524 54.1046C38.3039 54.1304 38.349 54.1626 38.394 54.1948C38.3812 54.1948 38.5163 54.3299 38.5228 54.3235C38.6451 54.4973 38.6837 54.6389 38.6966 54.8191C38.7288 55.2246 38.5871 55.6044 38.2975 55.952C37.9692 56.3382 37.5122 56.6214 37.0681 56.8531C35.4074 57.7414 33.3927 58.0568 31.5197 57.6641C30.6185 57.4775 29.3248 57.0205 28.6553 57.9409C28.0181 58.8163 28.8034 59.7174 29.608 60.0779C30.0199 60.2581 30.464 60.3289 30.9017 60.4062C31.3974 60.4898 31.8994 60.5285 32.4015 60.5285C33.3863 60.5285 34.3711 60.3869 35.3109 60.0908C35.7679 59.9492 36.212 59.7754 36.6433 59.5694C37.0617 59.3699 37.4414 59.0738 37.8019 58.7841C37.9435 58.6811 37.7826 58.4623 37.6281 58.5395Z" fill="#363E49"/>
<path d="M44.1098 43.6708C43.6593 43.2009 43.2023 42.7375 42.7452 42.274C41.8119 41.3343 40.8979 40.3817 39.9839 39.429C38.1688 37.5431 36.3729 35.6121 34.6929 33.5974C34.2231 33.031 33.7532 32.4581 33.2898 31.8852C33.0516 31.5891 32.8199 31.2995 32.5817 31.0034C32.3564 30.7202 32.1633 30.3983 31.8608 30.1988C31.6677 30.0701 31.4875 30.2954 31.5583 30.482C31.6677 30.7845 31.893 31.0034 32.099 31.248C32.3178 31.5119 32.5302 31.7822 32.7491 32.0461C33.161 32.5482 33.5794 33.0503 33.9978 33.5523C34.8474 34.5629 35.6906 35.5863 36.5596 36.5776C38.2911 38.5536 40.0611 40.4911 41.9149 42.3513C42.4363 42.8726 42.9641 43.3876 43.5112 43.8896C44.0519 44.3853 44.5926 44.9066 45.2234 45.2864C45.3135 45.3443 45.4615 45.2349 45.3907 45.1319C45.0174 44.5912 44.5604 44.1342 44.1098 43.6708Z" fill="#363E49"/>
<path d="M19.4895 61.2494C18.5175 60.5865 17.552 59.9363 16.6831 59.1253C15.827 58.3272 15.0675 57.426 14.4303 56.4412C14.2565 56.1773 14.0955 55.9005 13.9411 55.6238C13.8574 55.4757 13.7801 55.3277 13.7029 55.1732C13.6321 55.0316 13.5806 54.8707 13.4583 54.7677C13.3875 54.7033 13.2588 54.7419 13.2588 54.8514C13.2652 55.1088 13.4647 55.3856 13.587 55.6045C13.7351 55.8748 13.8896 56.1387 14.0505 56.3962C14.3659 56.8982 14.7199 57.381 15.0932 57.838C15.8463 58.7584 16.7088 59.5759 17.6615 60.2775C18.215 60.683 18.8008 61.0563 19.4316 61.3267C19.5024 61.3589 19.5474 61.2816 19.4895 61.2494Z" fill="#363E49"/>
<path d="M41.4 24.9916C41.5287 24.9529 42.4234 28.094 42.3269 28.1262C42.2303 28.1584 39.6878 26.1437 39.7071 26.0536C39.7264 25.9635 42.771 26.1309 42.8354 26.2274C42.8997 26.324 40.2156 27.9846 40.1577 27.9074C40.0933 27.8237 41.2712 25.0302 41.4 24.9916Z" fill="#BA96D6"/>
<path d="M55.9984 21.7347C56.1078 21.7025 56.8738 24.393 56.7901 24.4188C56.7064 24.4509 54.5308 22.7195 54.5437 22.6422C54.5566 22.565 57.1699 22.7066 57.2214 22.7903C57.2793 22.874 54.9814 24.2965 54.9235 24.2257C54.8784 24.1613 55.889 21.7668 55.9984 21.7347Z" fill="#BA96D6"/>
<path d="M26.6664 17.6409C26.7629 17.7182 24.8834 20.1384 24.7998 20.0804C24.7161 20.0225 24.8384 16.9844 24.9156 16.9458C24.9929 16.9072 26.557 19.308 26.5184 19.411C26.4797 19.514 23.7313 18.4005 23.7635 18.3104C23.7956 18.2202 26.5698 17.5701 26.6664 17.6409Z" fill="#BA96D6"/>
<path d="M34.1651 15.0661C34.1265 15.1048 33.2576 14.1264 33.2898 14.0942C33.3219 14.062 34.5835 14.3517 34.59 14.3903C34.5964 14.4225 33.47 14.8923 33.4314 14.8666C33.3927 14.8409 34.0686 13.7788 34.1072 13.7981C34.1458 13.8239 34.2038 15.034 34.1651 15.0661Z" fill="#BA96D6"/>
<path d="M28.8034 25.4358C28.7519 25.4036 29.608 24.1613 29.6466 24.187C29.6852 24.2128 29.7174 25.7061 29.6788 25.7254C29.6401 25.7447 28.8098 24.6119 28.8227 24.5604C28.8356 24.5089 30.213 24.9788 30.2066 25.0238C30.1937 25.0689 28.8549 25.4679 28.8034 25.4358Z" fill="#BA96D6"/>
<path d="M37.4672 16.0124C37.435 15.9674 38.4777 15.1885 38.5035 15.2207C38.5292 15.2529 38.143 16.4887 38.1044 16.4952C38.0658 16.5016 37.6924 15.343 37.7182 15.3044C37.7439 15.2658 38.7481 16.0317 38.7288 16.0639C38.7159 16.0897 37.4993 16.051 37.4672 16.0124Z" fill="#BA96D6"/>
<path d="M28.0632 19.6299C28.0889 19.5848 29.1831 20.2993 29.1638 20.3315C29.1445 20.3701 27.8507 20.428 27.8314 20.3958C27.8121 20.3636 28.7776 19.617 28.8227 19.6299C28.8677 19.6427 28.4944 20.8464 28.4558 20.8399C28.4107 20.8271 28.0374 19.6749 28.0632 19.6299Z" fill="#BA96D6"/>
<path d="M29.0158 27.3152C29.0351 27.3474 28.237 27.8173 28.2176 27.7916C28.1983 27.7658 28.5781 26.9226 28.6038 26.9226C28.6296 26.9226 28.7969 27.7723 28.7776 27.798C28.7583 27.8237 28.1082 27.1994 28.1275 27.1801C28.1468 27.1543 28.9965 27.2831 29.0158 27.3152Z" fill="#BA96D6"/>
<path d="M24.8706 32.162C24.9092 32.1298 25.6172 33.1404 25.585 33.1661C25.5529 33.1919 24.4007 32.7864 24.3942 32.7477C24.3878 32.7156 25.4949 32.4002 25.5335 32.4259C25.5657 32.4517 24.8191 33.3785 24.7869 33.3528C24.7483 33.3335 24.8255 32.1942 24.8706 32.162Z" fill="#BA96D6"/>
<path d="M39.3724 22.0436C39.3209 22.0242 39.8809 20.8399 39.9195 20.8528C39.9582 20.8656 40.1899 22.1401 40.1641 22.1658C40.132 22.1852 39.263 21.3355 39.2694 21.2905C39.2759 21.2454 40.5182 21.4514 40.5182 21.49C40.5117 21.5351 39.4239 22.0693 39.3724 22.0436Z" fill="#BA96D6"/>
<path d="M46.324 19.1664C46.3434 19.102 47.8624 19.5655 47.856 19.617C47.8431 19.6685 46.3498 20.177 46.3176 20.1448C46.2854 20.1126 47.1608 18.9089 47.2123 18.9089C47.2702 18.9089 47.2445 20.4473 47.193 20.4473C47.1351 20.4537 46.3047 19.2308 46.324 19.1664Z" fill="#BA96D6"/>
<path d="M37.3577 14.4418C37.3384 14.5126 35.5812 14.0299 35.5941 13.972C35.607 13.914 37.2998 13.2897 37.3384 13.3219C37.377 13.354 36.4115 14.7572 36.3472 14.7637C36.2828 14.7637 36.2699 13.0065 36.3279 13C36.3858 12.9936 37.377 14.3646 37.3577 14.4418Z" fill="#BA96D6"/>
<path d="M41.0138 15.2271C40.9494 15.195 41.6961 13.6437 41.7476 13.663C41.7991 13.6823 42.0951 15.3687 42.0565 15.3945C42.0179 15.4202 40.8722 14.2938 40.8786 14.2359C40.885 14.178 42.5264 14.4547 42.5264 14.5127C42.52 14.5642 41.0781 15.2529 41.0138 15.2271Z" fill="#BA96D6"/>
<path d="M33.1546 14.6993C32.9422 14.7508 32.7362 14.8473 32.5367 14.9246C32.041 15.1241 31.5583 15.3365 31.0755 15.5554C30.0006 16.0446 28.9192 16.5273 27.8443 17.0165C27.5997 17.1259 27.3487 17.2418 27.1041 17.3512C26.8981 17.4478 27.0783 17.7503 27.2843 17.6537C27.9602 17.3448 28.6296 17.0294 29.3054 16.7204C30.3739 16.2248 31.4617 15.7549 32.5109 15.2078C32.7491 15.0855 33.0001 14.9761 33.2189 14.8152C33.264 14.7765 33.2318 14.68 33.1546 14.6993Z" fill="#BA96D6"/>
<path d="M34.5449 14.2488C34.5449 14.2488 34.5127 14.2423 34.532 14.2488H34.5385C34.5449 14.2488 34.5513 14.2488 34.5578 14.2552C34.59 14.2616 34.6221 14.2681 34.6543 14.2681C34.7251 14.2616 34.7959 14.2423 34.8667 14.2295C34.9826 14.1973 35.1049 14.1651 35.2208 14.1329C35.2465 14.1265 35.2723 14.12 35.298 14.1136C35.3881 14.0878 35.4525 13.9913 35.4203 13.8947C35.3945 13.8046 35.298 13.7403 35.2014 13.7724C35.1306 13.7918 35.0598 13.8239 34.989 13.8432C34.8603 13.8883 34.7187 13.9269 34.5964 13.9913C34.5642 14.0106 34.5385 14.0299 34.5127 14.0557C34.5063 14.0621 34.4998 14.0685 34.4934 14.075C34.487 14.0814 34.4612 14.1007 34.4934 14.075C34.4612 14.1007 34.4355 14.1393 34.4484 14.178C34.4612 14.223 34.4998 14.2488 34.5449 14.2488Z" fill="#BA96D6"/>
<path d="M40.885 14.5513C40.8014 14.532 40.7241 14.5577 40.6469 14.577C40.4731 14.6156 40.3057 14.6736 40.132 14.7379C39.7458 14.886 39.3595 15.034 38.9733 15.1821C38.8832 15.2143 38.7931 15.2529 38.703 15.2851C38.6129 15.3172 38.555 15.4009 38.5807 15.5039C38.6065 15.5876 38.7094 15.6648 38.7996 15.6262C39.0442 15.5296 39.2887 15.4267 39.5333 15.3237C39.9131 15.1692 40.3251 15.034 40.6855 14.8216C40.7692 14.7701 40.8722 14.7315 40.9301 14.6478C40.943 14.6092 40.9237 14.5577 40.885 14.5513Z" fill="#BA96D6"/>
<path d="M40.1899 20.6533C40.2736 20.4988 40.3122 20.325 40.3637 20.1512C40.486 19.7457 40.589 19.3338 40.6855 18.9218C40.9044 17.9949 41.1232 17.0745 41.3485 16.1476C41.4 15.9288 41.4515 15.7163 41.503 15.4975C41.5545 15.2787 41.2133 15.1821 41.1618 15.4009C41.0267 15.9996 40.8915 16.5917 40.7628 17.1839C40.5568 18.1044 40.3122 19.0312 40.1577 19.9646C40.1191 20.1834 40.0611 20.4023 40.0676 20.6211C40.0676 20.6855 40.1577 20.7177 40.1899 20.6533Z" fill="#BA96D6"/>
<path d="M42.4041 15.2464C42.4878 15.3944 42.6101 15.5232 42.7195 15.6519C42.9834 15.9673 43.2602 16.2698 43.5434 16.5659C44.1742 17.2353 44.805 17.8983 45.4358 18.5677C45.5838 18.7222 45.7254 18.8767 45.8735 19.0312C46.028 19.1921 46.279 18.9475 46.1245 18.7801C45.719 18.3553 45.3135 17.9369 44.9015 17.5185C44.2643 16.862 43.6528 16.1797 42.977 15.5682C42.8225 15.4266 42.6744 15.2657 42.4942 15.1563C42.4363 15.1177 42.3719 15.1885 42.4041 15.2464Z" fill="#BA96D6"/>
<path d="M47.8174 20.1641C48.0105 20.2864 48.2229 20.3701 48.4288 20.4666C48.918 20.6919 49.4072 20.8979 49.9028 21.0974C51.0357 21.5544 52.1621 22.0179 53.295 22.4749C53.5589 22.5779 53.8163 22.6873 54.0803 22.7903C54.2927 22.8739 54.3828 22.5328 54.1768 22.4491C53.4688 22.1659 52.7543 21.8827 52.0463 21.6059C50.9263 21.1618 49.8127 20.6855 48.6799 20.2928C48.416 20.2027 48.1456 20.0869 47.8753 20.0354C47.798 20.0289 47.753 20.119 47.8174 20.1641Z" fill="#BA96D6"/>
<path d="M40.8593 25.4614C40.885 25.3649 40.8593 25.2619 40.8529 25.1653C40.8271 24.9272 40.7821 24.689 40.7306 24.4508C40.6147 23.923 40.5053 23.3952 40.3894 22.8674C40.3637 22.7451 40.3379 22.6164 40.3057 22.4941C40.2542 22.2752 39.9195 22.3654 39.9646 22.5906C40.0418 22.9253 40.1191 23.2601 40.2028 23.5948C40.3251 24.1097 40.4216 24.6439 40.5954 25.146C40.634 25.2619 40.6662 25.397 40.7434 25.4936C40.7756 25.5322 40.8464 25.5129 40.8593 25.4614Z" fill="#BA96D6"/>
<path d="M37.023 14.68C37.023 14.6994 37.023 14.7187 37.0166 14.7444C37.0166 14.7315 37.023 14.7187 37.023 14.7058C37.0166 14.738 37.0166 14.7637 37.0295 14.7959C37.0295 14.8023 37.0359 14.8152 37.0359 14.8217C37.0423 14.8474 37.0616 14.8796 37.0745 14.9053C37.0938 14.9311 37.1131 14.9697 37.1325 15.0083C37.1646 15.0662 37.1968 15.1306 37.2354 15.1885C37.2419 15.2014 37.2483 15.2143 37.2548 15.2272C37.2805 15.2658 37.3127 15.298 37.3577 15.3108C37.4028 15.3237 37.4543 15.3173 37.4929 15.2915C37.5701 15.24 37.6088 15.1371 37.5573 15.0534C37.5508 15.0469 37.538 15.0212 37.5315 15.0148C37.538 15.0276 37.5508 15.0405 37.5573 15.0534C37.5251 15.0083 37.4929 14.9568 37.4543 14.9118C37.4285 14.8731 37.3964 14.8345 37.3706 14.7959C37.3384 14.7508 37.3062 14.7058 37.2676 14.6672C37.2419 14.6414 37.2161 14.6286 37.1904 14.6157C37.1839 14.6157 37.1775 14.6092 37.1711 14.6092C37.1646 14.6028 37.1518 14.6028 37.1453 14.5964C37.1196 14.5835 37.0874 14.5964 37.0617 14.6157C37.0359 14.6221 37.023 14.6479 37.023 14.68Z" fill="#BA96D6"/>
<path d="M28.1597 28.0684C28.0438 28.1649 27.9537 28.3001 27.8572 28.4224C27.6255 28.7185 27.4131 29.021 27.2006 29.33C26.7243 30.0251 26.248 30.7203 25.7717 31.409C25.6623 31.5699 25.5464 31.7373 25.437 31.8982C25.3083 32.0849 25.6172 32.2587 25.7395 32.0784C26.0356 31.6343 26.3317 31.1902 26.6278 30.7525C27.0912 30.0573 27.5868 29.375 28.0052 28.6541C28.1018 28.4868 28.2176 28.3258 28.2756 28.1392C28.2949 28.0619 28.2112 28.0297 28.1597 28.0684Z" fill="#BA96D6"/>
<path d="M28.5073 21.1489C28.4815 21.239 28.5009 21.3356 28.5073 21.4257C28.5266 21.651 28.5652 21.8763 28.6103 22.0951C28.7133 22.5907 28.8163 23.0864 28.9192 23.5755C28.945 23.6914 28.9643 23.8073 28.99 23.9231C29.0351 24.142 29.3762 24.0519 29.3312 23.8266C29.2604 23.5112 29.1896 23.2022 29.1188 22.8868C29.0094 22.4041 28.9257 21.902 28.7583 21.4321C28.7197 21.3227 28.694 21.194 28.6167 21.1039C28.5845 21.0781 28.5202 21.1039 28.5073 21.1489Z" fill="#BA96D6"/>
<path d="M29.2218 25.6417C29.1831 25.6868 29.1381 25.7319 29.1059 25.7833C29.0608 25.8542 29.0222 25.9378 28.99 26.0151C28.9192 26.1695 28.842 26.3305 28.7712 26.4849C28.7519 26.5171 28.739 26.5558 28.7197 26.5879C28.6811 26.6716 28.694 26.781 28.7841 26.8261C28.8613 26.8647 28.9836 26.8518 29.0222 26.7617C29.0673 26.6523 29.1123 26.5429 29.1574 26.4335C29.2282 26.2597 29.3054 26.0923 29.3569 25.9121C29.3762 25.8413 29.3762 25.7705 29.3827 25.6997C29.3891 25.6289 29.2733 25.5838 29.2218 25.6417Z" fill="#BA96D6"/>
</svg>
