<svg width="80" height="80" viewBox="0 0 80 80" fill="none" xmlns="http://www.w3.org/2000/svg">
<circle opacity="0.2" cx="40" cy="40" r="40" fill="#C6C6D7"/>
<path d="M46.6601 31.9137C45.0054 30.2591 39.9862 30.4528 39.9862 30.4528C39.9862 30.4528 34.9669 30.2591 33.3122 31.9137C31.6576 33.5684 28.8242 40.8898 29.4717 44.3153C30.1192 47.7408 32.4821 50.3417 32.6592 54.2376C32.8363 58.1335 34.015 63.5125 39.9806 63.6896C45.9462 63.5125 47.1249 58.1391 47.302 54.2376C47.4791 50.3417 49.8421 47.7408 50.4896 44.3153C51.1481 40.8898 48.3092 33.5628 46.6601 31.9137Z" fill="#BA96D6"/>
<path d="M35.1108 47.3866C35.1108 47.3866 35.9962 41.8803 31.2591 42.5887C31.2591 42.5887 30.2354 47.3423 35.1108 47.3866Z" fill="#EAE1F9"/>
<path d="M34.0981 45.4663C34.0593 45.4663 34.0261 45.4608 33.9874 45.4497L32.3106 44.9849C32.0892 44.924 31.962 44.6916 32.0228 44.4702C32.0837 44.2488 32.3106 44.116 32.5375 44.1824L34.2143 44.6473C34.4356 44.7082 34.5629 44.9406 34.502 45.1619C34.4467 45.3446 34.2807 45.4663 34.0981 45.4663Z" fill="#363E49"/>
<path d="M44.856 47.3866C44.856 47.3866 43.9706 41.8803 48.7076 42.5887C48.7076 42.5887 49.7314 47.3423 44.856 47.3866Z" fill="#EAE1F9"/>
<path d="M45.8687 45.4663C45.9075 45.4663 45.9407 45.4608 45.9794 45.4497L47.6562 44.9849C47.8776 44.924 48.0048 44.6916 47.944 44.4702C47.8831 44.2488 47.6562 44.116 47.4293 44.1824L45.7525 44.6473C45.5312 44.7082 45.4039 44.9406 45.4648 45.1619C45.5201 45.3446 45.6861 45.4663 45.8687 45.4663Z" fill="#363E49"/>
<path d="M42.9358 56.8939C42.1389 57.6299 39.9806 57.9288 39.9806 57.9288C39.9806 57.9288 37.8224 57.6355 37.0255 56.8939C37.0255 56.8939 36.2009 58.3438 37.0255 59.0798C37.8501 59.8158 39.9806 59.7882 39.9806 60.5574C39.9806 59.7882 42.1057 59.8214 42.9358 59.0798C43.7658 58.3438 42.9358 56.8939 42.9358 56.8939Z" fill="#363E49"/>
<path d="M39.9862 59.8988C39.9364 60.1146 39.9308 60.336 39.9198 60.5573C39.9087 60.8949 39.8921 61.238 39.881 61.5756C39.8755 61.6641 39.8423 61.8246 39.9585 61.8523C40.0802 61.8855 40.0913 61.7416 40.0913 61.6531C40.0968 61.3321 40.0968 61.0111 40.1024 60.6902C40.1024 60.4245 40.119 60.1589 40.0692 59.8988C40.0636 59.8545 39.9917 59.8545 39.9862 59.8988Z" fill="#363E49"/>
<path d="M44.4188 61.3543C44.1034 61.5812 43.8156 61.8247 43.4615 61.9962C43.0907 62.1733 42.6812 62.2729 42.2717 62.3006C41.8843 62.3227 41.4914 62.2729 41.1151 62.1678C40.7222 62.0571 40.3901 61.8745 40.0415 61.6642C39.9308 61.5978 39.798 61.7583 39.9032 61.8468C40.534 62.367 41.4969 62.5939 42.2938 62.5385C42.7199 62.5109 43.135 62.3891 43.5168 62.201C43.8821 62.0239 44.2694 61.7749 44.5019 61.4373C44.5295 61.3875 44.4687 61.3211 44.4188 61.3543Z" fill="#363E49"/>
<path d="M35.4705 61.4373C35.7029 61.7749 36.0903 62.0239 36.4555 62.201C36.8374 62.3891 37.2524 62.5053 37.6785 62.5385C38.4754 62.5939 39.4438 62.367 40.0692 61.8468C40.1688 61.7638 40.0415 61.5978 39.9308 61.6642C39.5933 61.8689 39.2668 62.0515 38.8849 62.1622C38.5031 62.2729 38.1046 62.3282 37.7062 62.3006C37.3022 62.2784 36.9038 62.1788 36.5385 62.0073C36.1733 61.8357 35.88 61.5867 35.5535 61.3543C35.4981 61.3211 35.4373 61.3875 35.4705 61.4373Z" fill="#363E49"/>
<path d="M31.1706 36.933C31.1706 36.933 32.6758 36.4737 34.5352 35.1898C36.3946 33.9059 37.4129 31.6923 37.4129 31.6923C37.4129 31.6923 35.2878 25.0461 27.7562 25.356C20.2245 25.6659 15.4874 33.7288 16.0629 40.2423L17.6567 46.6229H25.8968C25.8968 46.6229 25.3212 37.8627 26.9371 36.7503C28.553 35.6325 31.1706 36.933 31.1706 36.933Z" fill="#363E49"/>
<path d="M17.6069 33.3082C18.1714 33.9889 18.7912 34.6253 19.4497 35.2119C20.7779 36.3906 22.272 37.3757 23.8879 38.1117C24.5907 38.4382 25.3212 38.7204 26.0683 38.9473C26.0849 38.8422 26.1015 38.7426 26.1181 38.6485C24.6738 38.2002 23.2847 37.586 21.9953 36.7835C20.5178 35.8594 19.1786 34.7194 18.0275 33.4078C17.8504 33.2086 17.6789 32.9983 17.5128 32.7936C17.4741 32.8766 17.4354 32.9596 17.3966 33.0426C17.463 33.1311 17.535 33.2197 17.6069 33.3082Z" fill="#BA96D6"/>
<path d="M25.8137 44.6638C23.1464 45.2504 20.3739 44.9461 17.6955 44.4646C17.4907 44.4259 17.2915 44.3871 17.0867 44.3484L17.1421 44.5808C17.2306 44.5974 17.3191 44.6196 17.4077 44.6362C18.1935 44.7966 18.9904 44.935 19.7873 45.0401C21.3534 45.2449 22.9472 45.3168 24.5188 45.1287C24.956 45.0789 25.3876 45.0069 25.8137 44.9129C25.8193 44.8354 25.8193 44.7524 25.8137 44.6638Z" fill="#BA96D6"/>
<path d="M36.4444 29.761C36.3946 29.6891 36.3504 29.6116 36.295 29.5397C36.0681 29.9658 35.8302 30.3864 35.559 30.7848C35.144 31.388 34.6902 31.9635 34.1921 32.5003C33.2016 33.5684 32.0616 34.5092 30.7998 35.2396C30.4678 35.4333 30.1247 35.6104 29.776 35.7709C29.4274 35.9314 29.0622 36.0476 28.708 36.2025C28.6582 36.2247 28.6471 36.2579 28.6416 36.2966C28.8297 36.3021 29.0179 36.3187 29.206 36.3464C29.4108 36.2745 29.6156 36.1859 29.8092 36.0974C30.1302 35.9535 30.4457 35.793 30.7556 35.6215C31.392 35.2673 32.0007 34.8523 32.5762 34.3985C33.7549 33.4743 34.8009 32.3675 35.6531 31.1334C35.9464 30.7018 36.2231 30.2425 36.4444 29.761Z" fill="#BA96D6"/>
<path d="M28.1103 36.3242C28.2487 36.3076 28.387 36.2965 28.5254 36.2965C28.6305 36.1637 28.7301 36.0253 28.8297 35.887C29.0622 35.566 29.2835 35.234 29.4938 34.8964C29.931 34.2047 30.3239 33.4853 30.6781 32.7437C31.3975 31.2606 31.9786 29.689 32.3383 28.0731C32.4323 27.6414 32.5098 27.2042 32.5651 26.7671C32.5873 26.6121 32.6039 26.4572 32.6205 26.2967C32.5596 26.269 32.4987 26.2358 32.4379 26.2081C32.4213 26.3409 32.4047 26.4738 32.3825 26.601C32.3217 26.9773 32.2497 27.3537 32.1612 27.7244C31.9786 28.5047 31.7572 29.2739 31.4916 30.0265C30.9437 31.5816 30.2354 33.0813 29.3776 34.4869C29.1507 34.8577 28.9127 35.2229 28.6637 35.5771C28.5364 35.7542 28.4092 35.9313 28.2819 36.1028C28.2321 36.1803 28.1712 36.2522 28.1103 36.3242Z" fill="#BA96D6"/>
<path d="M27.4407 35.4499C27.485 35.068 27.5182 34.6862 27.5514 34.2988C27.6123 33.4908 27.6455 32.6774 27.651 31.8694C27.6621 30.2535 27.5569 28.6376 27.3411 27.0493C27.2692 26.5015 27.1806 25.9481 27.0699 25.4058C26.9925 25.4113 26.9205 25.4279 26.8431 25.439C26.915 25.8761 26.9869 26.3133 27.0533 26.756C27.164 27.5529 27.2526 28.3554 27.3079 29.1633C27.4186 30.7571 27.4241 32.3619 27.3134 33.9557C27.2802 34.4039 27.2415 34.8522 27.1972 35.2949C27.1696 35.5273 27.1474 35.7542 27.1142 35.9811C27.0865 36.1969 27.0423 36.4183 27.0478 36.6397C27.0478 36.6563 27.0533 36.6618 27.0589 36.6784C27.1364 36.6341 27.2138 36.5899 27.2913 36.5511C27.3245 36.4072 27.3466 36.2523 27.3632 36.1029C27.3909 35.887 27.4131 35.6657 27.4407 35.4499Z" fill="#BA96D6"/>
<path d="M18.5255 40.1648C20.3462 40.8676 22.2665 41.2992 24.2144 41.432C24.7512 41.4708 25.2936 41.4819 25.8303 41.4708C25.8359 41.3767 25.8359 41.2826 25.8414 41.1886C25.4872 41.1941 25.1386 41.1941 24.7844 41.183C23.8105 41.1498 22.842 41.0391 21.8846 40.8565C19.9644 40.4857 18.116 39.8272 16.3839 38.9141C16.2622 38.8477 16.1404 38.7758 16.0187 38.7094C16.0131 38.7979 16.0131 38.8864 16.0076 38.975C16.8211 39.4343 17.6623 39.8327 18.5255 40.1648Z" fill="#BA96D6"/>
<path d="M22.1392 28.4716C22.2831 29.4123 22.5432 30.331 22.842 31.233C23.3345 32.705 23.8935 34.1992 24.8176 35.4609C25.3046 36.125 25.8968 36.7061 26.594 37.1488C26.6438 37.0602 26.6992 36.9828 26.7545 36.9164C25.4983 36.125 24.6516 34.8688 24.0318 33.5462C23.7164 32.8711 23.4508 32.1682 23.2073 31.4654C22.9084 30.6021 22.6317 29.7388 22.4436 28.8479C22.3384 28.3332 22.2665 27.813 22.2333 27.2873C22.2333 27.2486 22.2333 27.2098 22.2333 27.1766C22.1669 27.2209 22.1005 27.2652 22.0341 27.3095C22.0507 27.6968 22.0839 28.0842 22.1392 28.4716Z" fill="#BA96D6"/>
<path d="M32.0118 37.8904C32.0118 37.8904 29.5768 34.9685 27.8945 33.9945C26.2122 33.0205 21.868 33.2861 21.868 33.2861C21.868 33.2861 23.7275 37.8074 25.7197 38.6928C27.7119 39.5782 30.9492 40.2423 30.9492 40.2423L32.0118 37.8904Z" fill="#BA96D6"/>
<path d="M30.8994 37.6247C30.7334 37.7243 30.6117 37.9236 30.5121 38.0785C30.3848 38.2667 30.2796 38.4659 30.1856 38.6706C30.0915 38.8643 30.0085 39.0691 29.931 39.2683C29.8923 39.3734 29.8535 39.4731 29.8203 39.5782C29.7871 39.6778 29.7373 39.7885 29.7373 39.8936C29.7373 39.9988 29.8701 40.0264 29.9255 39.9434C29.9753 39.8604 29.9974 39.7608 30.0251 39.6667C30.0583 39.5671 30.086 39.4675 30.1192 39.3734C30.1911 39.1632 30.2741 38.9529 30.3626 38.7481C30.4512 38.5544 30.5453 38.3607 30.6504 38.1726C30.7445 38.001 30.8828 37.8295 30.9437 37.6469C30.9492 37.6358 30.9216 37.6137 30.8994 37.6247Z" fill="#363E49"/>
<path d="M22.4491 33.8562C22.9029 34.3155 23.5282 34.5036 24.148 34.6309C24.7734 34.7582 25.4042 34.8578 26.0074 35.0736C27.1585 35.4776 28.2044 36.1804 28.9902 37.1156C29.4495 37.658 29.7705 38.2667 30.0417 38.9197C30.097 39.0581 30.3239 39.0083 30.2741 38.8533C29.8978 37.7022 29.0788 36.6785 28.1325 35.9425C27.1142 35.1566 25.93 34.6973 24.6682 34.4981C23.9101 34.3763 23.1187 34.2823 22.4823 33.8119C22.4602 33.7953 22.4325 33.834 22.4491 33.8562Z" fill="#363E49"/>
<path d="M25.775 37.8849C25.9853 38.145 26.3837 38.2999 26.6881 38.4106C27.0423 38.5323 27.4075 38.6098 27.7783 38.6762C28.542 38.8035 29.3112 38.8588 30.0583 39.0691C30.1966 39.1079 30.2575 38.8865 30.1192 38.8478C29.3887 38.6486 28.6361 38.5821 27.889 38.477C27.5293 38.4217 27.164 38.3553 26.8154 38.2501C26.6328 38.1948 26.4557 38.1284 26.2786 38.0564C26.1181 37.9845 25.9632 37.8849 25.8027 37.8351C25.775 37.8185 25.7584 37.8627 25.775 37.8849Z" fill="#363E49"/>
<path d="M8 46.6173C8 46.6173 8.83562 41.836 12.4272 40.2367C16.0242 38.6374 23.412 43.2914 25.8912 46.6173C28.3704 49.9377 28.5918 53.662 25.8912 55.6542C23.1907 57.6465 19.8758 54.8297 18.758 52.2011C17.6457 49.5669 15.5815 43.9168 13.1466 43.7839C10.7116 43.6511 8 46.6173 8 46.6173Z" fill="#363E49"/>
<path d="M18.1714 45.5327C19.0679 44.6583 19.8758 43.6899 20.562 42.644C20.6395 42.5222 20.7115 42.3949 20.7834 42.2677C20.7225 42.2289 20.6616 42.1902 20.6008 42.157C20.2189 42.7104 19.815 43.2527 19.3888 43.7674C18.603 44.7192 17.7287 45.5936 16.7768 46.3738C16.6163 46.5067 16.4503 46.6284 16.2843 46.7557C16.3341 46.8442 16.3894 46.9383 16.4393 47.0324C16.5444 46.9494 16.6495 46.8664 16.7492 46.7889C17.2417 46.3904 17.7176 45.9754 18.1714 45.5327Z" fill="#BA96D6"/>
<path d="M27.568 50.7234C27.6178 50.6515 27.6621 50.574 27.7119 50.5021C27.6897 50.3748 27.6565 50.2475 27.6233 50.1202C27.5957 50.17 27.568 50.2198 27.5348 50.2641C27.0478 51.0112 26.4834 51.7029 25.8469 52.3338C24.5243 53.6398 22.8974 54.6304 21.1376 55.2225C21.1265 55.2281 21.1154 55.2281 21.1044 55.2336C21.2095 55.3166 21.3147 55.3941 21.4198 55.466C22.1558 55.2059 22.8642 54.885 23.5393 54.4976C25.1441 53.5623 26.5332 52.2563 27.568 50.7234Z" fill="#BA96D6"/>
<path d="M14.1427 44.1381C14.2257 44.1934 14.3142 44.2543 14.3972 44.3207C14.5356 43.9278 14.6518 43.5349 14.7403 43.1309C14.9562 42.1514 15.0392 41.1387 14.9617 40.137C14.9562 40.0817 14.9506 40.0264 14.9451 39.971C14.8621 39.96 14.7791 39.9489 14.6961 39.9434C14.7237 40.4193 14.7237 40.9007 14.6905 41.3822C14.6297 42.323 14.447 43.2471 14.1427 44.1381Z" fill="#BA96D6"/>
<path d="M20.8498 49.8325C22.272 48.9803 23.5614 47.8901 24.6073 46.6007C24.8176 46.3406 25.0169 46.075 25.2105 45.7983C25.1552 45.7374 25.0943 45.671 25.0335 45.6101C24.8896 45.8038 24.7457 45.9975 24.5963 46.1856C24.0816 46.8165 23.5227 47.4031 22.914 47.9399C21.691 49.019 20.2798 49.9044 18.769 50.5187C18.5698 50.6017 18.3651 50.6737 18.1603 50.7456C18.199 50.8452 18.2378 50.9393 18.2821 51.0334C19.173 50.7235 20.0363 50.3195 20.8498 49.8325Z" fill="#BA96D6"/>
<path d="M9.89814 42.3119C9.83726 42.3894 9.78192 42.4668 9.72659 42.5498C9.79299 42.6218 9.86493 42.6882 9.93134 42.7601C10.3575 43.2305 10.7393 43.7452 11.0381 44.3096C11.1322 44.2654 11.2207 44.2156 11.3148 44.1768C10.9441 43.4906 10.446 42.8653 9.89814 42.3119Z" fill="#BA96D6"/>
<path d="M16.1349 40.2699C17.5018 40.862 18.8742 41.432 20.1691 42.1736C21.4641 42.9206 22.6871 43.7839 23.8215 44.7634C24.137 45.0346 24.4413 45.3168 24.7402 45.6046C25.039 45.8924 25.3157 46.2299 25.6367 46.4956C25.7418 46.5841 25.941 46.4679 25.8469 46.3351C25.6367 46.0307 25.3434 45.7706 25.0777 45.5105C24.8176 45.256 24.5465 45.0069 24.2753 44.7634C23.7053 44.2599 23.1132 43.7839 22.5044 43.3357C21.2704 42.4337 19.9533 41.6423 18.5643 41.0004C18.1935 40.8288 17.8172 40.6683 17.4354 40.5134C17.0259 40.3529 16.6274 40.2256 16.2013 40.1149C16.1072 40.0928 16.0408 40.2311 16.1349 40.2699Z" fill="white"/>
<path d="M48.8294 36.933C48.8294 36.933 47.3242 36.4737 45.4648 35.1898C43.6054 33.9059 42.5871 31.6923 42.5871 31.6923C42.5871 31.6923 44.7121 25.0461 52.2438 25.356C59.7755 25.6659 64.5126 33.7288 63.937 40.2423L62.3433 46.6174H54.1032C54.1032 46.6174 54.6788 37.8571 53.0629 36.7448C51.4469 35.6325 48.8294 36.933 48.8294 36.933Z" fill="#363E49"/>
<path d="M62.3931 33.3082C61.8286 33.9889 61.2088 34.6253 60.5503 35.2119C59.2221 36.3906 57.728 37.3757 56.1121 38.1117C55.4092 38.4382 54.6788 38.7204 53.9317 38.9473C53.9151 38.8422 53.8985 38.7426 53.8819 38.6485C55.3262 38.2002 56.7153 37.586 58.0047 36.7835C59.4822 35.8594 60.8214 34.7194 61.9725 33.4078C62.1496 33.2086 62.3211 32.9983 62.4872 32.7936C62.5259 32.8766 62.5646 32.9596 62.6034 33.0426C62.537 33.1311 62.465 33.2197 62.3931 33.3082Z" fill="#BA96D6"/>
<path d="M54.1862 44.6638C56.8536 45.2504 59.6261 44.9461 62.3045 44.4646C62.5093 44.4259 62.7085 44.3871 62.9133 44.3484L62.8579 44.5808C62.7694 44.5974 62.6808 44.6196 62.5923 44.6362C61.8065 44.7966 61.0096 44.935 60.2127 45.0401C58.6466 45.2449 57.0528 45.3168 55.4812 45.1287C55.044 45.0789 54.6124 45.0069 54.1862 44.9129C54.1807 44.8354 54.1807 44.7524 54.1862 44.6638Z" fill="#BA96D6"/>
<path d="M43.5555 29.761C43.6054 29.6891 43.6496 29.6116 43.705 29.5397C43.9319 29.9658 44.1698 30.3864 44.441 30.7848C44.856 31.388 45.3098 31.9635 45.8079 32.5003C46.7984 33.5684 47.9384 34.5092 49.2002 35.2396C49.5322 35.4333 49.8753 35.6104 50.2239 35.7709C50.5726 35.9314 50.9378 36.0476 51.292 36.2025C51.3418 36.2247 51.3529 36.2579 51.3584 36.2966C51.1702 36.3021 50.9821 36.3187 50.7939 36.3464C50.5892 36.2745 50.3844 36.1859 50.1907 36.0974C49.8698 35.9535 49.5543 35.793 49.2444 35.6215C48.608 35.2673 47.9993 34.8523 47.4238 34.3985C46.245 33.4743 45.1991 32.3675 44.3469 31.1334C44.0536 30.7018 43.7769 30.2425 43.5555 29.761Z" fill="#BA96D6"/>
<path d="M51.8897 36.3242C51.7513 36.3076 51.613 36.2965 51.4746 36.2965C51.3695 36.1637 51.2699 36.0253 51.1702 35.887C50.9378 35.566 50.7165 35.234 50.5062 34.8964C50.069 34.2047 49.6761 33.4853 49.3219 32.7437C48.6025 31.2606 48.0214 29.689 47.6617 28.0731C47.5677 27.6414 47.4902 27.2042 47.4348 26.7671C47.4127 26.6121 47.3961 26.4572 47.3795 26.2967C47.4404 26.269 47.5012 26.2358 47.5621 26.2081C47.5787 26.3409 47.5953 26.4738 47.6175 26.601C47.6783 26.9773 47.7503 27.3537 47.8388 27.7244C48.0214 28.5047 48.2428 29.2739 48.5084 30.0265C49.0563 31.5816 49.7646 33.0813 50.6224 34.4869C50.8493 34.8577 51.0872 35.2229 51.3363 35.5771C51.4635 35.7542 51.5908 35.9313 51.7181 36.1028C51.7679 36.1803 51.8288 36.2522 51.8897 36.3242Z" fill="#BA96D6"/>
<path d="M52.5593 35.4499C52.515 35.068 52.4818 34.6862 52.4486 34.2988C52.3877 33.4908 52.3545 32.6774 52.349 31.8694C52.3379 30.2535 52.4431 28.6376 52.6589 27.0493C52.7364 26.5015 52.8194 25.9481 52.93 25.4058C53.0075 25.4113 53.0795 25.4279 53.1569 25.439C53.085 25.8761 53.0131 26.3133 52.9466 26.756C52.836 27.5529 52.7474 28.3554 52.6921 29.1633C52.5814 30.7571 52.5759 32.3619 52.6866 33.9557C52.7198 34.4039 52.7585 34.8522 52.8028 35.2949C52.8304 35.5273 52.8526 35.7542 52.8858 35.9811C52.9134 36.2025 52.9577 36.4183 52.9522 36.6397C52.9522 36.6563 52.9466 36.6618 52.9411 36.6784C52.8636 36.6341 52.7862 36.5899 52.7087 36.5511C52.6755 36.4072 52.6534 36.2523 52.6367 36.1029C52.6091 35.887 52.5869 35.6657 52.5593 35.4499Z" fill="#BA96D6"/>
<path d="M61.4744 40.1648C59.6538 40.8676 57.7335 41.2992 55.7856 41.432C55.2488 41.4708 54.7064 41.4819 54.1696 41.4708C54.1641 41.3767 54.1641 41.2826 54.1586 41.1886C54.5127 41.1941 54.8614 41.1941 55.2156 41.183C56.1895 41.1498 57.158 41.0391 58.1153 40.8565C60.0356 40.4857 61.884 39.8272 63.6161 38.9141C63.7378 38.8477 63.8596 38.7758 63.9813 38.7094C63.9869 38.7979 63.9868 38.8864 63.9924 38.975C63.1789 39.4343 62.3377 39.8327 61.4744 40.1648Z" fill="#BA96D6"/>
<path d="M57.8608 28.4716C57.7169 29.4123 57.4568 30.331 57.158 31.233C56.6654 32.705 56.1065 34.1992 55.1824 35.4609C54.6954 36.125 54.1088 36.7061 53.406 37.1488C53.3562 37.0602 53.3008 36.9828 53.2455 36.9164C54.5017 36.125 55.3484 34.8688 55.9682 33.5462C56.2836 32.8711 56.5492 32.1682 56.7927 31.4654C57.0916 30.6021 57.3683 29.7388 57.5564 28.8479C57.6616 28.3332 57.7335 27.813 57.7667 27.2873C57.7667 27.2486 57.7667 27.2098 57.7667 27.1766C57.8331 27.2209 57.8995 27.2652 57.9659 27.3095C57.9493 27.6968 57.9161 28.0842 57.8608 28.4716Z" fill="#BA96D6"/>
<path d="M72 46.6173C72 46.6173 71.1644 41.836 67.5729 40.2367C63.9758 38.6374 56.588 43.2914 54.1088 46.6173C51.6296 49.9377 51.4082 53.662 54.1088 55.6542C56.8093 57.6465 60.1242 54.8297 61.242 52.2011C62.3599 49.5669 64.424 43.9168 66.859 43.7839C69.2884 43.6511 72 46.6173 72 46.6173Z" fill="#363E49"/>
<path d="M61.8286 45.5327C60.9321 44.6583 60.1242 43.6899 59.438 42.644C59.3605 42.5222 59.2886 42.3949 59.2166 42.2677C59.2775 42.2289 59.3384 42.1902 59.3992 42.157C59.7811 42.7104 60.1851 43.2527 60.6112 43.7674C61.397 44.7192 62.2713 45.5936 63.2232 46.3738C63.3837 46.5067 63.5497 46.6284 63.7157 46.7557C63.6659 46.8442 63.6106 46.9383 63.5608 47.0324C63.4556 46.9494 63.3505 46.8664 63.2509 46.7889C62.7583 46.3904 62.2824 45.9754 61.8286 45.5327Z" fill="#BA96D6"/>
<path d="M52.432 50.7234C52.3822 50.6515 52.3379 50.574 52.2881 50.5021C52.3103 50.3748 52.3435 50.2475 52.3767 50.1202C52.4043 50.17 52.432 50.2198 52.4652 50.2641C52.9522 51.0112 53.5167 51.7029 54.1531 52.3338C55.4757 53.6398 57.1026 54.6304 58.8624 55.2225C58.8735 55.2281 58.8846 55.2281 58.8956 55.2336C58.7905 55.3166 58.6854 55.3941 58.5802 55.466C57.8442 55.2059 57.1358 54.885 56.4607 54.4976C54.8559 53.5623 53.4668 52.2563 52.432 50.7234Z" fill="#BA96D6"/>
<path d="M65.8573 44.1381C65.7743 44.1934 65.6858 44.2543 65.6028 44.3207C65.4644 43.9278 65.3482 43.5349 65.2597 43.1309C65.0438 42.1514 64.9608 41.1387 65.0383 40.137C65.0438 40.0817 65.0494 40.0264 65.0549 39.971C65.1379 39.96 65.2209 39.9489 65.3039 39.9434C65.2763 40.4193 65.2763 40.9007 65.3095 41.3822C65.3703 42.323 65.553 43.2471 65.8573 44.1381Z" fill="#BA96D6"/>
<path d="M59.1502 49.8325C57.728 48.9803 56.4386 47.8901 55.3927 46.6007C55.1824 46.3406 54.9831 46.075 54.7895 45.7983C54.8448 45.7374 54.9057 45.671 54.9665 45.6101C55.1104 45.8038 55.2543 45.9975 55.4037 46.1856C55.9184 46.8165 56.4773 47.4031 57.086 47.9399C58.309 49.019 59.7202 49.9044 61.231 50.5187C61.4302 50.6017 61.6349 50.6737 61.8397 50.7456C61.801 50.8452 61.7567 50.9393 61.7179 51.0334C60.827 50.7235 59.9637 50.3195 59.1502 49.8325Z" fill="#BA96D6"/>
<path d="M70.1019 42.3119C70.1627 42.3894 70.2181 42.4668 70.2734 42.5498C70.207 42.6218 70.1351 42.6882 70.0687 42.7601C69.6426 43.2305 69.2607 43.7452 68.9619 44.3096C68.8678 44.2654 68.7793 44.2156 68.6852 44.1768C69.056 43.4906 69.554 42.8653 70.1019 42.3119Z" fill="#BA96D6"/>
<path d="M63.8042 40.1149C63.4279 40.209 63.0682 40.3197 62.703 40.458C62.3654 40.5909 62.0334 40.7292 61.7069 40.8731C61.0041 41.183 60.3234 41.5427 59.6593 41.9245C58.3422 42.6827 57.0971 43.5681 55.9516 44.5642C55.6361 44.8354 55.3318 45.1176 55.0329 45.4054C54.7341 45.6931 54.4021 45.9864 54.1586 46.3295C54.0645 46.4624 54.2582 46.5786 54.3689 46.49C54.6566 46.2576 54.8946 45.9588 55.1602 45.6987C55.4203 45.4441 55.6915 45.1951 55.9626 44.9516C56.5271 44.4535 57.1137 43.9776 57.7224 43.5349C58.9288 42.6605 60.2182 41.9024 61.563 41.266C61.9448 41.0834 62.3322 40.9118 62.7251 40.7513C63.107 40.5964 63.4888 40.4304 63.8651 40.2643C63.9536 40.2311 63.8928 40.0928 63.8042 40.1149Z" fill="white"/>
<path d="M47.9606 37.8904C47.9606 37.8904 50.3955 34.9685 52.0778 33.9945C53.7601 33.0205 58.1043 33.2861 58.1043 33.2861C58.1043 33.2861 56.2449 37.8018 54.2527 38.6873C52.2604 39.5727 49.0231 40.2368 49.0231 40.2368L47.9606 37.8904Z" fill="#BA96D6"/>
<path d="M49.0286 37.658C49.0895 37.8351 49.2223 38.0011 49.3108 38.1671C49.416 38.3608 49.5156 38.5545 49.6041 38.7592C49.6927 38.9585 49.7702 39.1632 49.8421 39.368C49.8753 39.4676 49.9085 39.5672 49.9417 39.6613C49.9749 39.7609 49.9915 39.866 50.0469 39.9546C50.0967 40.0376 50.235 40.0044 50.235 39.9048C50.235 39.7996 50.1907 39.7 50.1575 39.6059C50.1243 39.5008 50.0856 39.3956 50.0469 39.296C49.9694 39.0857 49.8808 38.881 49.7868 38.6818C49.6927 38.4825 49.5931 38.2888 49.4713 38.1007C49.3662 37.9402 49.2389 37.7299 49.0729 37.6303C49.0508 37.6137 49.0231 37.6358 49.0286 37.658Z" fill="#363E49"/>
<path d="M57.4845 33.8119C56.9145 34.2325 56.2283 34.3487 55.5476 34.4594C54.9112 34.5645 54.2914 34.6807 53.6827 34.9131C52.5261 35.3559 51.4802 36.0808 50.7109 37.0492C50.2848 37.586 49.9085 38.2003 49.6982 38.8533C49.6484 39.0027 49.8698 39.0581 49.9306 38.9197C50.1686 38.3386 50.4508 37.7853 50.8438 37.2872C51.2145 36.8113 51.6572 36.3852 52.1498 36.031C52.6423 35.6713 53.1846 35.3725 53.7546 35.1511C54.3467 34.9187 54.961 34.7914 55.5863 34.6752C56.2836 34.5479 57.0141 34.3708 57.5287 33.8562C57.5398 33.834 57.5121 33.7953 57.4845 33.8119Z" fill="#363E49"/>
<path d="M54.1586 37.8295C54.0036 37.8793 53.8542 37.9734 53.7048 38.0398C53.5332 38.1173 53.3506 38.1837 53.1735 38.239C52.8138 38.3497 52.4431 38.4216 52.0778 38.4714C51.3307 38.5821 50.5781 38.643 49.8476 38.8422C49.7093 38.881 49.7646 39.1023 49.9085 39.0636C50.6556 38.8533 51.4248 38.798 52.1885 38.6707C52.5593 38.6098 52.9245 38.5268 53.2787 38.405C53.5886 38.2999 53.987 38.1449 54.1918 37.8793C54.2084 37.8627 54.1973 37.8184 54.1586 37.8295Z" fill="#363E49"/>
<path d="M50.6722 20.9287C50.7607 20.8623 52.349 23.0261 52.2826 23.0814C52.2162 23.1368 49.6816 22.3122 49.6706 22.2403C49.6595 22.1683 52.0557 21.4213 52.1332 21.4766C52.2106 21.5319 50.6224 23.585 50.5504 23.5352C50.4785 23.4854 50.5837 20.9896 50.6722 20.9287Z" fill="#BA96D6"/>
<path d="M37.6619 16.0036C37.7283 15.915 39.8865 17.5088 39.8367 17.5807C39.7869 17.6527 37.1251 17.6139 37.0919 17.5475C37.0587 17.4811 39.1284 16.0589 39.2169 16.0921C39.3055 16.1253 38.3924 18.5492 38.3094 18.527C38.2264 18.5049 37.5955 16.0921 37.6619 16.0036Z" fill="#BA96D6"/>
<path d="M18.8078 18.9808C18.8742 18.9144 20.4292 20.6133 20.3794 20.6631C20.3296 20.7184 18.0939 20.2481 18.0773 20.1872C18.0607 20.1263 20.0308 19.2685 20.1027 19.3073C20.1747 19.346 19.0125 21.2442 18.9461 21.211C18.8797 21.1833 18.7414 19.0472 18.8078 18.9808Z" fill="#BA96D6"/>
<path d="M47.0253 16.7451C47.0917 16.6897 48.4309 18.289 48.3811 18.3333C48.3313 18.3776 46.3281 17.8629 46.3115 17.8076C46.3004 17.7522 48.121 17.055 48.1819 17.0937C48.2428 17.1324 47.1139 18.8037 47.053 18.7705C47.0032 18.7428 46.9645 16.8004 47.0253 16.7451Z" fill="#BA96D6"/>
<path d="M20.4403 19.9437C20.9273 19.9713 21.4364 19.8883 21.9179 19.8219C22.438 19.75 22.9582 19.6725 23.4784 19.6006C24.5354 19.4456 25.5869 19.2796 26.6438 19.1136C28.7689 18.7815 30.8939 18.444 33.0245 18.1175C34.1755 17.9404 35.3321 17.7965 36.4832 17.6083C36.6769 17.5751 36.6326 17.2376 36.4389 17.2597C35.4207 17.3759 34.408 17.5475 33.3952 17.6969C32.3383 17.8574 31.2868 18.0234 30.2354 18.1894C28.1048 18.5325 25.9798 18.8756 23.8547 19.2077C23.2792 19.2962 22.7092 19.3847 22.1337 19.4733C21.5692 19.5618 20.966 19.6227 20.4182 19.8109C20.3462 19.833 20.3628 19.9381 20.4403 19.9437Z" fill="#BA96D6"/>
<path d="M39.9972 17.2708C40.1799 17.3427 40.4123 17.3095 40.606 17.3151C40.8439 17.3206 41.0819 17.3206 41.3254 17.3206C41.8456 17.3206 42.3658 17.3206 42.8859 17.3151C43.7769 17.3095 44.6734 17.3095 45.5644 17.3095C45.747 17.3095 45.9296 17.3095 46.1178 17.3095C46.3391 17.3095 46.3391 16.9664 46.1178 16.9664C44.5683 16.9664 43.0243 16.9664 41.4748 17.0052C41.2036 17.0107 40.9325 17.0218 40.6613 17.0384C40.4455 17.0494 40.1743 17.0328 39.9751 17.1269C39.9087 17.1546 39.9364 17.2487 39.9972 17.2708Z" fill="#BA96D6"/>
<path d="M48.525 18.7705C48.5416 18.8535 48.597 18.9255 48.6412 18.9974C48.7464 19.169 48.8626 19.335 48.9843 19.4955C49.261 19.8663 49.5377 20.237 49.8144 20.6078C49.8808 20.6964 49.9417 20.7794 50.0081 20.8679C50.0579 20.9288 50.1299 20.962 50.2073 20.9177C50.2682 20.8845 50.307 20.7849 50.2572 20.7185C50.0745 20.4805 49.8919 20.2426 49.7038 20.0101C49.4271 19.656 49.1614 19.2631 48.8405 18.931C48.7685 18.8535 48.7021 18.7595 48.608 18.7097C48.5638 18.6875 48.514 18.7263 48.525 18.7705Z" fill="#BA96D6"/>
<path d="M36.6879 37.3867C36.6824 37.1764 36.6658 37.0104 36.7875 36.8278C36.8982 36.6617 37.0698 36.5566 37.2635 36.54C37.7671 36.4957 38.1655 36.8776 38.3979 37.2815C38.6802 37.7685 38.8517 38.3274 39.0177 38.8642C39.1948 39.4453 39.3442 40.0374 39.4715 40.6296C39.5434 40.9671 39.6154 41.3102 39.6818 41.6533C39.715 41.8138 39.7427 41.9743 39.7759 42.1348C39.8091 42.323 39.8257 42.5111 39.9696 42.655C40.0802 42.7601 40.3127 42.7601 40.3846 42.5996C40.4676 42.4115 40.4344 42.2621 40.3957 42.0629C40.3569 41.8692 40.3182 41.681 40.2795 41.4873C40.2131 41.1442 40.1411 40.8067 40.0636 40.4691C39.9032 39.7718 39.7261 39.0745 39.4992 38.3994C39.2889 37.7685 39.062 37.0934 38.6137 36.5898C38.2208 36.1471 37.5568 35.8482 36.9702 36.0641C36.6824 36.1692 36.45 36.3906 36.3227 36.6728C36.2065 36.9329 36.1788 37.3037 36.4057 37.514C36.5108 37.5914 36.6879 37.5306 36.6879 37.3867Z" fill="#363E49"/>
<path d="M43.9097 37.503C44.3303 37.11 43.9429 36.4017 43.5556 36.1527C43.0243 35.8151 42.327 36.0309 41.8788 36.4072C41.3696 36.8389 41.1262 37.503 40.9103 38.1172C40.6668 38.7924 40.4787 39.4841 40.3127 40.1814C40.2186 40.5743 40.1356 40.9672 40.0581 41.3601C40.0194 41.5538 39.9806 41.7419 39.9419 41.9356C39.8976 42.1681 39.8312 42.3728 39.9308 42.5997C40.0028 42.7602 40.2352 42.7602 40.3459 42.655C40.5562 42.4503 40.5562 42.0574 40.606 41.7862C40.6613 41.4874 40.7222 41.1886 40.7886 40.8897C40.9159 40.2976 41.0542 39.7055 41.2258 39.1189C41.3863 38.571 41.5523 38.001 41.8124 37.4919C42.0282 37.0602 42.3602 36.6231 42.8749 36.5566C43.1073 36.529 43.3397 36.5954 43.4947 36.778C43.6552 36.9717 43.6441 37.1598 43.6386 37.3978C43.6275 37.5306 43.8101 37.5915 43.9097 37.503Z" fill="#363E49"/>
</svg>
