<svg width="80" height="80" viewBox="0 0 80 80" fill="none" xmlns="http://www.w3.org/2000/svg">
<circle opacity="0.2" cx="40" cy="40" r="40" fill="#C6C6D7"/>
<path d="M53.4549 50.9014C48.5526 41.9731 41.732 42.8375 40.0801 42.8375C38.4342 42.8375 31.6077 41.9671 26.7053 50.9014C24.7101 53.9091 32.5668 61.4343 40.0801 62.1685C47.5935 61.4343 55.4502 53.9091 53.4549 50.9014Z" fill="#363E49"/>
<path d="M51.3827 48.2194C51.3827 48.2194 51.282 44.7854 54.7516 43.2401C54.7516 43.2401 53.378 41.5231 54.2365 38.6693C54.2365 38.6693 49.05 32.6599 44.3786 31.902C43.7273 31.902 47.5402 28.7404 51.7616 32.0737C51.7616 32.0737 52.0695 28.2608 45.6811 26.6445C45.6811 26.6445 50.9387 24.1341 55.3673 28.2963C59.796 32.4526 59.2157 36.5083 59.2157 36.5083C59.2157 36.5083 62.7563 40.937 58.2862 45.786C58.2862 45.786 57.8007 50.8008 53.751 51.7126L51.3827 48.2194Z" fill="#363E49"/>
<path d="M53.2063 52.4941C53.2063 52.4941 59.1506 49.5278 59.5592 49.7706C59.9736 50.0133 60.246 51.6948 60.1098 52.0027C59.9736 52.3106 52.6734 54.8091 52.6734 54.8091L53.2063 52.4941Z" fill="#363E49"/>
<path d="M59.423 50.0784C59.423 50.0784 63.5437 49.0838 64.9173 50.0784C65.2963 50.2501 64.8463 51.6474 64.6983 51.6237C64.5503 51.6 62.0517 51.1086 60.0032 51.7954L59.423 50.0784Z" fill="#363E49"/>
<path d="M64.9529 50.3508C65.7522 50.4219 70.465 53.6309 70.1512 54.0394C69.8729 54.4006 64.6805 51.3041 64.6805 51.3041L64.9529 50.3508Z" fill="#363E49"/>
<path d="M51.2584 55.3301C51.2584 55.3301 57.8954 55.0874 58.1737 55.4781C58.452 55.8689 58.002 57.5149 57.7474 57.7398C57.4928 57.9648 49.8197 57.2188 49.8197 57.2188L51.2584 55.3301Z" fill="#363E49"/>
<path d="M57.9191 55.7031C57.9191 55.7031 62.0814 56.5024 62.9221 57.9767C63.1945 58.2905 62.2116 59.3739 62.0873 59.291C61.963 59.2082 59.8907 57.728 57.7415 57.503L57.9191 55.7031Z" fill="#363E49"/>
<path d="M62.8392 58.243C63.5378 58.6397 65.9239 63.6841 65.468 63.921C65.0654 64.1341 62.1998 58.995 62.1998 58.995L62.8392 58.243Z" fill="#363E49"/>
<path d="M49.1151 57.4319C49.1151 57.4319 55.4147 59.5396 55.5331 60.0015C55.6574 60.4633 54.6568 61.8487 54.343 61.9671C54.0292 62.0855 47.1021 58.693 47.1021 58.693L49.1151 57.4319Z" fill="#363E49"/>
<path d="M55.2252 60.1259C55.2252 60.1259 58.8427 62.3343 59.1092 64.0157C59.2572 64.4065 57.9487 65.0755 57.8599 64.9571C57.7711 64.8328 56.356 62.725 54.42 61.76L55.2252 60.1259Z" fill="#363E49"/>
<path d="M58.9375 64.2289C59.4585 64.8446 59.6302 69.3858 59.121 69.4509C58.6711 69.5101 58.0731 64.7085 58.0731 64.7085L58.9375 64.2289Z" fill="#363E49"/>
<path d="M45.5094 60.1259C45.5094 60.1259 50.8676 62.4468 51.1459 63.0625C51.4182 63.6783 50.3525 64.9749 49.8196 64.963C49.2868 64.9512 45.3022 63.4355 43.7213 61.085L45.5094 60.1259Z" fill="#363E49"/>
<path d="M50.7966 63.0625C50.7966 63.0625 53.3721 64.9512 53.5438 67.6333C53.2359 68.3556 51.3709 68.3556 51.3235 68.1839C51.2761 68.0122 50.4176 64.815 49.8137 64.2348L50.7966 63.0625Z" fill="#363E49"/>
<path d="M53.0642 67.5266C53.0642 67.5266 55.0239 72.2335 49.423 71.9908C48.8723 72.0026 51.4656 69.6521 51.6787 67.7338L53.0642 67.5266Z" fill="#363E49"/>
<path d="M44.9351 40.8777C44.9351 40.8777 44.9884 42.4052 43.9167 43.8854" stroke="#363E49" stroke-width="1.8566" stroke-miterlimit="10"/>
<path d="M43.3128 40.3212C43.3128 41.2211 44.0411 41.9494 44.941 41.9494C45.841 41.9494 46.5692 41.2211 46.5692 40.3212C46.5692 39.4212 45.841 38.693 44.941 38.693C44.0411 38.693 43.3128 39.4212 43.3128 40.3212Z" fill="#BA96D6"/>
<path d="M59.1269 36.455C58.2329 36.3307 57.2974 36.4905 56.4626 36.8043C56.0423 36.9642 55.6397 37.1655 55.2607 37.4141C55.0713 37.5385 54.8937 37.6747 54.716 37.8167C54.5799 37.9292 54.3194 38.095 54.2838 38.2726C54.272 38.3378 54.3194 38.3911 54.3904 38.3792C54.5621 38.3437 54.7042 38.1305 54.8344 38.0181C55.0061 37.87 55.1838 37.7339 55.3732 37.6095C55.7403 37.3609 56.1311 37.1536 56.5455 36.9938C57.3744 36.6681 58.2329 36.5675 59.1151 36.5852C59.1802 36.5793 59.198 36.4668 59.1269 36.455Z" fill="#BA96D6"/>
<path d="M58.2743 45.484C58.1027 44.8149 57.5106 44.2288 56.9481 43.8617C56.6521 43.6663 56.3264 43.5183 55.989 43.4177C55.8173 43.3644 55.6397 43.3289 55.4561 43.3052C55.3081 43.2874 55.0772 43.2282 54.9469 43.3111C54.8936 43.3466 54.8936 43.4236 54.9469 43.4591C55.0713 43.5361 55.2666 43.5006 55.4087 43.5183C55.5686 43.5361 55.7285 43.5716 55.8824 43.6131C56.214 43.7078 56.5278 43.8499 56.8179 44.0334C57.1021 44.217 57.3566 44.436 57.5757 44.6906C57.8066 44.957 57.9606 45.2531 58.1441 45.5491C58.1915 45.5965 58.2921 45.555 58.2743 45.484Z" fill="#BA96D6"/>
<path d="M53.7569 51.4225C53.674 51.1146 53.4786 50.8245 53.3188 50.5522C53.1411 50.2502 52.9576 49.9482 52.7681 49.6463C52.5846 49.3562 52.3951 49.072 52.2057 48.7878C52.0162 48.5095 51.8386 48.2076 51.6136 47.9589C51.5426 47.8819 51.4182 47.9826 51.4715 48.0714C51.6373 48.3674 51.8623 48.6398 52.0517 48.9181C52.2412 49.2022 52.4307 49.4864 52.6142 49.7765C52.7977 50.0667 52.9813 50.3568 53.153 50.6469C53.3188 50.9192 53.4609 51.233 53.6799 51.4639C53.7154 51.4995 53.7687 51.4639 53.7569 51.4225Z" fill="#BA96D6"/>
<path d="M60.2045 51.5882C60.2519 51.0376 60.0979 50.4988 59.79 50.043C59.7249 49.9423 59.5651 50.037 59.6302 50.1377C59.9203 50.564 60.0802 51.0791 60.1038 51.5882C60.1038 51.6534 60.1986 51.6534 60.2045 51.5882Z" fill="#BA96D6"/>
<path d="M64.8996 51.2981C64.9233 51.2744 64.9529 51.2567 64.9766 51.2271C64.9943 51.1975 65.0121 51.1679 65.0239 51.1383C65.0535 51.0731 65.0772 51.008 65.095 50.937C65.1127 50.8659 65.1246 50.7949 65.1305 50.7238C65.1364 50.6528 65.1423 50.5758 65.1246 50.5048C65.1127 50.4692 65.0772 50.4455 65.0417 50.4515C65.0002 50.4574 64.9825 50.487 64.9766 50.5284C64.9706 50.564 64.9766 50.5995 64.9766 50.635C64.9766 50.6646 64.9766 50.6942 64.9766 50.7238C64.9706 50.783 64.9647 50.8422 64.9529 50.9074C64.941 50.9666 64.9233 51.0317 64.9055 51.0909C64.8996 51.1205 64.8877 51.1501 64.8759 51.1797C64.8641 51.2152 64.8641 51.2448 64.8581 51.2804C64.8522 51.2981 64.8818 51.3159 64.8996 51.2981Z" fill="#BA96D6"/>
<path d="M57.931 57.4083C58.0198 57.3254 58.0671 57.207 58.1086 57.1004C58.156 56.9761 58.1915 56.8517 58.2211 56.7274C58.2803 56.4787 58.3217 56.2064 58.2921 55.9518C58.2803 55.8452 58.1145 55.8393 58.1204 55.9518C58.1204 56.2064 58.1264 56.4491 58.079 56.6978C58.0553 56.8162 58.0316 56.9346 57.9961 57.053C57.9606 57.1655 57.9132 57.278 57.9073 57.3964C57.9014 57.4142 57.9191 57.4201 57.931 57.4083Z" fill="#BA96D6"/>
<path d="M62.4543 59.1193C62.5372 59.0246 62.6083 58.918 62.6793 58.8173C62.7504 58.7167 62.8214 58.6101 62.8925 58.5095C62.9102 58.4858 62.9043 58.4562 62.8925 58.4266C62.8806 58.397 62.851 58.3911 62.8214 58.3851C62.7918 58.3851 62.7681 58.4029 62.7504 58.4266C62.6852 58.5272 62.6201 58.6338 62.555 58.7345C62.4899 58.8351 62.4188 58.9358 62.3655 59.0482C62.3537 59.0719 62.3537 59.1015 62.3774 59.1193C62.401 59.143 62.4366 59.143 62.4543 59.1193Z" fill="#BA96D6"/>
<path d="M54.5976 61.7599C54.7042 61.683 54.793 61.5764 54.8818 61.4757C54.9706 61.3632 55.0535 61.2507 55.1245 61.1323C55.1956 61.0139 55.2607 60.8955 55.314 60.7712C55.3732 60.6468 55.4383 60.5107 55.462 60.3745C55.4739 60.3271 55.4502 60.2798 55.4028 60.262C55.3614 60.2442 55.3022 60.2561 55.2785 60.3034C55.2252 60.4278 55.1897 60.558 55.1423 60.6764C55.089 60.8008 55.0298 60.9192 54.9647 61.0317C54.8996 61.1442 54.8285 61.2507 54.7575 61.3573C54.6805 61.4639 54.5858 61.5645 54.5088 61.677C54.4733 61.7244 54.5443 61.8014 54.5976 61.7599Z" fill="#BA96D6"/>
<path d="M58.2625 64.8505C58.3336 64.8327 58.3987 64.8091 58.4638 64.7794C58.523 64.7498 58.5822 64.7025 58.6355 64.661C58.748 64.5722 58.8546 64.4775 58.9434 64.365C58.9789 64.3236 58.9789 64.2703 58.9375 64.2347C58.896 64.1992 58.8428 64.217 58.8131 64.2584C58.7362 64.3591 58.6415 64.4538 58.5467 64.5308C58.4994 64.5722 58.4401 64.6077 58.3928 64.6433C58.3395 64.6847 58.2921 64.7262 58.2388 64.7617C58.1915 64.8031 58.2152 64.8623 58.2625 64.8505Z" fill="#BA96D6"/>
<path d="M50.2578 64.6611C50.3111 64.6551 50.3584 64.6196 50.3999 64.59C50.4472 64.5545 50.4946 64.519 50.536 64.4716C50.6189 64.3828 50.6959 64.294 50.7669 64.1933C50.909 63.9979 51.0156 63.7907 51.0985 63.5657C51.1399 63.4473 50.9505 63.394 50.909 63.5124C50.838 63.7197 50.7373 63.915 50.613 64.0927C50.5538 64.1815 50.4887 64.2644 50.4176 64.3473C50.3821 64.3887 50.3466 64.4301 50.317 64.4657C50.2814 64.5071 50.2341 64.5486 50.2222 64.6018C50.2104 64.6314 50.2282 64.6611 50.2578 64.6611Z" fill="#BA96D6"/>
<path d="M51.7794 68.2076C51.8741 68.2549 52.0044 68.2608 52.111 68.2608C52.2353 68.2549 52.3537 68.2431 52.478 68.2135C52.5965 68.1839 52.7089 68.1483 52.8155 68.0951C52.9221 68.0477 53.0523 67.9885 53.1293 67.9056C53.2004 67.8286 53.1116 67.728 53.0227 67.7694C52.9695 67.7931 52.928 67.8286 52.8806 67.8582C52.8333 67.8878 52.7859 67.9174 52.7326 67.9411C52.6379 67.9885 52.5313 68.0299 52.4307 68.0595C52.3241 68.0891 52.2175 68.1128 52.111 68.1247C52.0044 68.1365 51.886 68.1306 51.7853 68.1602C51.7616 68.1543 51.7557 68.1957 51.7794 68.2076Z" fill="#BA96D6"/>
<path d="M43.9404 61.156C44.3134 61.0554 44.6805 60.9133 45.0417 60.7712C45.7699 60.4751 46.4745 60.1436 47.1613 59.7647C49.0085 58.7522 50.761 57.4497 52.0576 55.7741C52.8451 54.7558 53.4786 53.5716 53.7687 52.3105C53.7924 52.198 53.6207 52.1448 53.5911 52.2632C53.2951 53.3881 52.8096 54.4301 52.1346 55.3774C51.4893 56.2774 50.7018 57.0767 49.8433 57.7812C48.446 58.9298 46.8534 59.8476 45.1956 60.5817C44.7811 60.7653 44.3549 60.9547 43.9167 61.0909C43.8812 61.1027 43.899 61.1679 43.9404 61.156Z" fill="#BA96D6"/>
<path d="M28.7776 48.2194C28.7776 48.2194 28.8782 44.7854 25.4087 43.2401C25.4087 43.2401 26.7823 41.5231 25.9238 38.6693C25.9238 38.6693 31.1103 32.6599 35.7817 31.902C36.433 31.902 32.6201 28.7404 28.3987 32.0737C28.3987 32.0737 28.0908 28.2608 34.4792 26.6445C34.4792 26.6445 29.2216 24.1341 24.793 28.2963C20.3643 32.4526 20.9445 36.5083 20.9445 36.5083C20.9445 36.5083 17.404 40.937 21.8741 45.786C21.8741 45.786 22.3596 50.8008 26.4093 51.7126L28.7776 48.2194Z" fill="#363E49"/>
<path d="M26.9599 52.4941C26.9599 52.4941 21.0156 49.5278 20.6071 49.7706C20.1926 50.0133 19.9203 51.6948 20.0564 52.0027C20.1926 52.3106 27.4928 54.8091 27.4928 54.8091L26.9599 52.4941Z" fill="#363E49"/>
<path d="M20.7432 50.0784C20.7432 50.0784 16.6224 49.0838 15.2488 50.0784C14.8699 50.2501 15.3199 51.6474 15.4679 51.6237C15.6159 51.6 18.1144 51.1086 20.163 51.7954L20.7432 50.0784Z" fill="#363E49"/>
<path d="M15.2133 50.3508C14.414 50.4219 9.70119 53.6309 10.015 54.0394C10.2933 54.4006 15.4857 51.3041 15.4857 51.3041L15.2133 50.3508Z" fill="#363E49"/>
<path d="M28.9019 55.3301C28.9019 55.3301 22.2648 55.0874 21.9866 55.4781C21.7083 55.8689 22.1583 57.5149 22.4129 57.7398C22.6674 57.9648 30.3406 57.2188 30.3406 57.2188L28.9019 55.3301Z" fill="#363E49"/>
<path d="M22.2411 55.7031C22.2411 55.7031 18.0789 56.5024 17.2382 57.9767C16.9658 58.2905 17.9487 59.3739 18.073 59.291C18.1973 59.2082 20.2696 57.728 22.4188 57.503L22.2411 55.7031Z" fill="#363E49"/>
<path d="M17.3211 58.243C16.6224 58.6397 14.2364 63.6841 14.6923 63.921C15.0949 64.1341 17.9605 58.995 17.9605 58.995L17.3211 58.243Z" fill="#363E49"/>
<path d="M31.0452 57.4319C31.0452 57.4319 24.7456 59.5396 24.6272 60.0015C24.5088 60.4633 25.5035 61.8487 25.8172 61.9671C26.131 62.0915 33.0582 58.693 33.0582 58.693L31.0452 57.4319Z" fill="#363E49"/>
<path d="M24.941 60.1259C24.941 60.1259 21.3234 62.3343 21.057 64.0157C20.909 64.4065 22.2175 65.0755 22.3063 64.9571C22.3951 64.8387 23.8101 62.725 25.7462 61.76L24.941 60.1259Z" fill="#363E49"/>
<path d="M21.2228 64.2289C20.7018 64.8446 20.5301 69.3858 21.0393 69.4509C21.4892 69.5101 22.0872 64.7085 22.0872 64.7085L21.2228 64.2289Z" fill="#363E49"/>
<path d="M34.6568 60.1259C34.6568 60.1259 29.2986 62.4468 29.0203 63.0625C28.748 63.6783 29.8137 64.9749 30.3466 64.963C30.8794 64.9512 34.864 63.4355 36.4449 61.085L34.6568 60.1259Z" fill="#363E49"/>
<path d="M29.3637 63.0625C29.3637 63.0625 26.7882 64.9512 26.6165 67.6333C26.9244 68.3556 28.7894 68.3556 28.8368 68.1839C28.8842 68.0122 29.7427 64.815 30.3466 64.2348L29.3637 63.0625Z" fill="#363E49"/>
<path d="M27.0961 67.5266C27.0961 67.5266 25.1364 72.2335 30.7373 71.9908C31.2879 72.0026 28.6947 69.6521 28.4815 67.7338L27.0961 67.5266Z" fill="#363E49"/>
<path d="M35.2252 40.8777C35.2252 40.8777 35.1719 42.4052 36.2435 43.8854" stroke="#363E49" stroke-width="1.8566" stroke-miterlimit="10"/>
<path d="M36.8534 40.3212C36.8534 41.2211 36.1251 41.9494 35.2252 41.9494C34.3252 41.9494 33.597 41.2211 33.597 40.3212C33.597 39.4212 34.3252 38.693 35.2252 38.693C36.1251 38.693 36.8534 39.4212 36.8534 40.3212Z" fill="#BA96D6"/>
<path d="M21.0511 36.5793C21.9333 36.5616 22.7918 36.6681 23.6207 36.9879C24.0292 37.1477 24.4259 37.3549 24.793 37.6036C24.9706 37.722 25.1423 37.8523 25.3081 37.9944C25.4442 38.1128 25.5982 38.3378 25.7758 38.3792C25.8409 38.3911 25.8942 38.3378 25.8824 38.2726C25.8468 38.0891 25.5923 37.9292 25.4502 37.8167C25.2785 37.6747 25.0949 37.5385 24.9055 37.4141C24.5325 37.1655 24.1239 36.9642 23.7036 36.8043C22.8628 36.4905 21.9274 36.3307 21.0393 36.455C20.9623 36.4609 20.9801 36.5793 21.0511 36.5793Z" fill="#BA96D6"/>
<path d="M22.0103 45.5314C22.1879 45.2413 22.3418 44.9512 22.5609 44.6907C22.7859 44.4302 23.0464 44.2052 23.3365 44.0157C23.6207 43.8381 23.9286 43.696 24.2483 43.6013C24.4141 43.5539 24.5798 43.5184 24.7456 43.5006C24.8877 43.4829 25.089 43.5184 25.2074 43.4414C25.2607 43.4059 25.2607 43.3289 25.2074 43.2934C25.0713 43.2105 24.8463 43.2697 24.6983 43.2875C24.5266 43.3112 24.3549 43.3467 24.1891 43.394C23.8457 43.4947 23.5082 43.6486 23.2062 43.8499C22.6438 44.217 22.0517 44.8032 21.88 45.4722C21.8741 45.5551 21.9747 45.5965 22.0103 45.5314Z" fill="#BA96D6"/>
<path d="M26.4804 51.4698C26.6994 51.2389 26.8475 50.9251 27.0073 50.6527C27.1849 50.3626 27.3625 50.0725 27.5461 49.7824C27.7296 49.4923 27.9191 49.2081 28.1086 48.9239C28.298 48.6456 28.523 48.3733 28.6888 48.0773C28.7361 47.9884 28.6177 47.8878 28.5467 47.9648C28.3276 48.2016 28.1559 48.4976 27.9724 48.7641C27.777 49.0542 27.5816 49.3502 27.3922 49.6462C27.2086 49.9363 27.031 50.2265 26.8593 50.5225C26.6935 50.8067 26.4863 51.1027 26.4034 51.4224C26.3916 51.4639 26.4508 51.4994 26.4804 51.4698Z" fill="#BA96D6"/>
<path d="M20.0564 51.5882C20.0801 51.0731 20.24 50.558 20.5301 50.1376C20.5952 50.0429 20.4354 49.9482 20.3702 50.0429C20.0624 50.4988 19.9084 51.0376 19.9558 51.5882C19.9676 51.6533 20.0564 51.6533 20.0564 51.5882Z" fill="#BA96D6"/>
<path d="M15.3021 51.2744C15.2962 51.2389 15.2962 51.2033 15.2844 51.1737C15.2725 51.1441 15.2666 51.1145 15.2548 51.0849C15.237 51.0257 15.2192 50.9606 15.2074 50.9014C15.1956 50.8422 15.1837 50.783 15.1837 50.7178C15.1837 50.6882 15.1837 50.6586 15.1837 50.629C15.1837 50.5935 15.1896 50.558 15.1837 50.5225C15.1778 50.4869 15.16 50.4514 15.1186 50.4455C15.0831 50.4396 15.0475 50.4632 15.0357 50.4988C15.0179 50.5639 15.0239 50.6468 15.0298 50.7178C15.0357 50.7889 15.0475 50.8599 15.0653 50.931C15.0831 51.002 15.1068 51.0672 15.1364 51.1323C15.1541 51.1619 15.166 51.1974 15.1837 51.2211C15.2015 51.2507 15.2311 51.2685 15.2607 51.2921C15.2785 51.3158 15.3081 51.2981 15.3021 51.2744Z" fill="#BA96D6"/>
<path d="M22.2589 57.3964C22.253 57.284 22.2056 57.1715 22.1701 57.0649C22.1346 56.9465 22.105 56.8221 22.0813 56.6978C22.0399 56.4491 22.0399 56.2005 22.0399 55.9518C22.0399 55.8393 21.8741 55.8393 21.8682 55.9518C21.8445 56.2064 21.88 56.4787 21.9392 56.7274C21.9688 56.8517 22.0043 56.982 22.0517 57.1004C22.0932 57.2129 22.1405 57.3254 22.2293 57.4083C22.2412 57.4201 22.2589 57.4142 22.2589 57.3964Z" fill="#BA96D6"/>
<path d="M17.7947 59.0542C17.7414 58.9417 17.6704 58.8411 17.6053 58.7404C17.5401 58.6398 17.475 58.5332 17.4099 58.4326C17.398 58.4089 17.3684 58.3911 17.3388 58.3911C17.3092 58.3911 17.2856 58.403 17.2678 58.4326C17.256 58.4562 17.25 58.4918 17.2678 58.5154C17.3388 58.6161 17.4099 58.7227 17.4809 58.8233C17.552 58.924 17.6171 59.0305 17.7059 59.1253C17.7237 59.143 17.7592 59.149 17.7829 59.1312C17.8066 59.1075 17.8125 59.0779 17.7947 59.0542Z" fill="#BA96D6"/>
<path d="M25.6574 61.677C25.5863 61.5705 25.4916 61.4698 25.4146 61.3632C25.3377 61.2567 25.2666 61.1442 25.1956 61.0317C25.1304 60.9192 25.0712 60.8067 25.0239 60.6883C24.9706 60.5639 24.9351 60.4278 24.8818 60.3034C24.864 60.262 24.7989 60.2442 24.7574 60.262C24.7101 60.2797 24.6923 60.3271 24.6982 60.3745C24.7219 60.5047 24.787 60.6409 24.8403 60.7593C24.8995 60.8896 24.9647 61.0139 25.0357 61.1323C25.1068 61.2507 25.1837 61.3573 25.2725 61.4639C25.3554 61.5705 25.4502 61.677 25.5627 61.7599C25.6219 61.8014 25.687 61.7244 25.6574 61.677Z" fill="#BA96D6"/>
<path d="M21.9333 64.7735C21.88 64.738 21.8326 64.6966 21.7853 64.6551C21.732 64.6137 21.6787 64.5781 21.6254 64.5367C21.5248 64.4538 21.43 64.3591 21.359 64.2584C21.3294 64.217 21.2761 64.1992 21.2346 64.2347C21.1932 64.2703 21.1932 64.3236 21.2287 64.365C21.3175 64.4716 21.4241 64.5722 21.5366 64.661C21.5899 64.7025 21.6432 64.7439 21.7024 64.7735C21.7675 64.809 21.8326 64.8268 21.9037 64.8505C21.951 64.8623 21.9688 64.8031 21.9333 64.7735Z" fill="#BA96D6"/>
<path d="M29.944 64.6078C29.9321 64.5545 29.8907 64.519 29.8552 64.4775C29.8196 64.4361 29.79 64.3946 29.7545 64.3532C29.6775 64.2703 29.6124 64.1874 29.5532 64.0927C29.4289 63.915 29.3282 63.7197 29.2572 63.5124C29.2157 63.394 29.0263 63.4473 29.0677 63.5657C29.1506 63.7907 29.2572 64.0039 29.3993 64.1933C29.4703 64.2881 29.5414 64.3769 29.6243 64.4598C29.6657 64.5012 29.7131 64.5426 29.7604 64.5782C29.8078 64.6137 29.8552 64.6492 29.9084 64.6551C29.9321 64.6611 29.9499 64.6315 29.944 64.6078Z" fill="#BA96D6"/>
<path d="M28.375 68.1483C28.2743 68.1187 28.15 68.1247 28.0434 68.1128C27.9368 68.101 27.8303 68.0832 27.7296 68.0536C27.629 68.024 27.5283 67.9885 27.4277 67.9411C27.3744 67.9174 27.327 67.8878 27.2797 67.8582C27.2323 67.8286 27.1849 67.7872 27.1376 67.7694C27.0487 67.728 26.9599 67.8286 27.031 67.9056C27.108 67.9885 27.2382 68.0477 27.3448 68.0951C27.4573 68.1483 27.5698 68.1839 27.6882 68.2135C27.8007 68.2431 27.9191 68.2549 28.0375 68.2608C28.1441 68.2668 28.2862 68.2608 28.3868 68.2076C28.4105 68.1957 28.4046 68.1543 28.375 68.1483Z" fill="#BA96D6"/>
<path d="M36.3324 61.091C35.9712 60.9785 35.616 60.8186 35.2726 60.6706C34.568 60.3686 33.8753 60.0252 33.2003 59.6582C31.3827 58.6516 29.6657 57.3728 28.3809 55.7268C27.5698 54.6907 26.9896 53.5303 26.658 52.2573C26.6284 52.1448 26.4567 52.1922 26.4804 52.3047C26.9896 54.5427 28.5112 56.4373 30.2578 57.8642C31.6787 59.0306 33.301 59.966 34.9943 60.6765C35.4206 60.8541 35.8587 61.0317 36.3087 61.1502C36.3561 61.1679 36.3738 61.1028 36.3324 61.091Z" fill="#BA96D6"/>
<path d="M52.8214 8.61016C52.8096 8.55095 54.2602 8.249 54.272 8.29636C54.2838 8.34373 53.2892 9.42129 53.2477 9.40945C53.2063 9.39761 53.3839 8.02401 53.4313 8.00033C53.4786 7.97665 54.1418 9.24367 54.1003 9.26735C54.0589 9.29103 52.8333 8.66936 52.8214 8.61016Z" fill="#BA96D6"/>
<path d="M48.2744 23.3586C48.298 23.3112 49.5118 23.9803 49.4881 24.0217C49.4703 24.0631 48.1027 24.2171 48.0849 24.1875C48.0612 24.1579 49.0263 23.2935 49.0737 23.3053C49.121 23.3171 48.8131 24.6138 48.7717 24.6078C48.7303 24.596 48.2507 23.4059 48.2744 23.3586Z" fill="#BA96D6"/>
<path d="M45.8587 15.2827C45.8646 15.2295 47.1376 15.4189 47.1376 15.4604C47.1317 15.5018 46.0008 16.088 45.9712 16.0702C45.9416 16.0465 46.4922 14.9808 46.5396 14.9749C46.587 14.969 46.7468 16.2005 46.7113 16.2123C46.6699 16.2123 45.8528 15.336 45.8587 15.2827Z" fill="#BA96D6"/>
<path d="M42.2886 18.9299C42.2649 18.8529 44.1832 18.2313 44.2069 18.2905C44.2306 18.3497 43.0405 19.9601 42.9872 19.9542C42.9339 19.9423 42.9695 18.0596 43.0287 18.0181C43.0879 17.9767 44.1714 19.5989 44.124 19.6345C44.0648 19.6759 42.3182 19.0069 42.2886 18.9299Z" fill="#BA96D6"/>
<path d="M27.9961 22.7133C27.9783 22.6481 29.6479 22.2218 29.6657 22.2751C29.6835 22.3284 28.5822 23.6369 28.5349 23.625C28.4875 23.6132 28.6237 22.0087 28.671 21.9791C28.7243 21.9495 29.5591 23.3882 29.5177 23.4178C29.4703 23.4474 28.0138 22.7784 27.9961 22.7133Z" fill="#BA96D6"/>
<path d="M37.031 18.9239C37.0369 18.8588 38.5941 19.0068 38.5882 19.0542C38.5882 19.1015 37.2501 19.889 37.2086 19.8653C37.1731 19.8416 37.7711 18.5095 37.8244 18.4976C37.8777 18.4858 38.1559 19.9719 38.1086 19.9837C38.0671 19.9956 37.0251 18.9831 37.031 18.9239Z" fill="#BA96D6"/>
<path d="M38.9789 19.2141C39.0144 19.2259 38.9671 19.2082 39.0085 19.2259C39.044 19.2437 39.0796 19.2555 39.1151 19.2614C39.2098 19.2792 39.2986 19.2792 39.3934 19.2792C39.6243 19.2792 39.8552 19.2733 40.0861 19.2733C40.5775 19.2614 41.0689 19.2555 41.5603 19.2437C41.6373 19.2437 41.7202 19.2378 41.7971 19.2378C41.8386 19.2378 42.0044 19.2259 41.886 19.2318C42.1405 19.2259 42.1405 18.8292 41.886 18.8351C41.9925 18.8351 41.9037 18.8351 41.8682 18.8351C41.8504 18.8351 41.8327 18.8351 41.8149 18.8351C41.7498 18.8351 41.6847 18.8411 41.6195 18.8411C41.4064 18.847 41.1932 18.8529 40.9742 18.8588C40.465 18.8707 39.9558 18.8825 39.4466 18.918C39.2631 18.9299 39.1092 18.9476 38.9375 19.0187C38.8546 19.0542 38.9019 19.1845 38.9789 19.2141Z" fill="#BA96D6"/>
<path d="M47.7415 22.956C47.7474 22.9264 47.7593 22.9442 47.7297 22.9856C47.7474 22.956 47.7533 22.9027 47.7297 22.8731C47.7119 22.8494 47.7001 22.8257 47.6882 22.8021C47.6823 22.7961 47.6705 22.7725 47.6468 22.7369C47.6586 22.7606 47.6053 22.6777 47.5935 22.6659C47.5165 22.5712 47.4336 22.4883 47.3507 22.3995C47.108 22.1508 46.8593 21.914 46.6166 21.6712C46.1133 21.1739 45.6041 20.6765 45.095 20.1792C45.0121 20.0963 44.9292 20.0134 44.8404 19.9365C44.8167 19.9128 44.793 19.8891 44.7693 19.8713C44.7456 19.8476 44.6687 19.7766 44.7397 19.8476C44.5562 19.67 44.2779 19.9483 44.4615 20.1259C44.4082 20.0726 44.4496 20.1141 44.4792 20.1437C44.497 20.1674 44.5147 20.1851 44.5384 20.2029C44.6036 20.268 44.6687 20.3331 44.7397 20.3983C44.9647 20.6173 45.1897 20.8364 45.4147 21.0555C45.9416 21.5706 46.4686 22.0857 47.0073 22.583C47.1139 22.6836 47.2205 22.7843 47.3389 22.879C47.4396 22.9619 47.481 22.9619 47.5757 23.027C47.6053 23.0507 47.6586 23.0448 47.6882 23.027C47.6764 23.033 47.6645 23.033 47.6823 23.033C47.7237 23.027 47.7356 22.9856 47.7415 22.956Z" fill="#BA96D6"/>
<path d="M52.7089 9.26142C52.6261 9.2851 52.6024 9.30286 52.5254 9.35615C52.3892 9.45088 52.2175 9.58706 52.0754 9.71731C51.6255 10.1318 51.1873 10.558 50.7492 10.9843C49.7427 11.9494 48.7421 12.9204 47.7415 13.8914C47.5757 14.0512 47.404 14.217 47.2383 14.3769C47.1909 14.4242 47.1435 14.4657 47.1021 14.5131C47.0902 14.5249 47.0784 14.5427 47.0666 14.5545C47.0369 14.5841 47.0073 14.6137 47.0547 14.5663C46.8712 14.744 47.1494 15.0222 47.333 14.8446C47.3034 14.8742 47.2975 14.8742 47.3448 14.8387C47.3567 14.8268 47.3685 14.8209 47.3744 14.8091C47.4159 14.7736 47.4514 14.738 47.4869 14.7025C47.6231 14.5723 47.7593 14.4361 47.9014 14.3058C48.3454 13.8736 48.7954 13.4414 49.2335 13.0092C50.2282 12.0382 51.2229 11.0731 52.2057 10.0962C52.3715 9.93045 52.5372 9.76468 52.6734 9.57521C52.7267 9.50417 52.7741 9.44496 52.8096 9.35023C52.8214 9.29694 52.7622 9.24366 52.7089 9.26142Z" fill="#BA96D6"/>
<path d="M45.5331 16.3603C45.4976 16.3662 45.616 16.3544 45.5153 16.3662C45.5627 16.3603 45.5213 16.3603 45.4976 16.3662C45.5745 16.3485 45.4502 16.3781 45.4443 16.384C45.4324 16.3899 45.4265 16.3899 45.4147 16.3958C45.3555 16.4314 45.3081 16.4787 45.2607 16.5202C45.1542 16.6267 45.0476 16.7392 44.947 16.8458C44.722 17.0826 44.5029 17.3195 44.2838 17.5563C44.2187 17.6214 44.1003 17.7161 44.0825 17.8109C44.1003 17.7813 44.1181 17.7517 44.1358 17.7221C44.0648 17.799 44.0589 17.9234 44.1358 18.0003C44.2069 18.0714 44.343 18.0773 44.4141 18.0003C44.3845 18.0181 44.3549 18.0359 44.3253 18.0536C44.4141 18.0299 44.4792 17.9352 44.5384 17.8701C44.6332 17.7694 44.7279 17.6629 44.8226 17.5622C45.0476 17.3135 45.2785 17.0708 45.4917 16.8103C45.539 16.7511 45.5982 16.6919 45.6278 16.6267C45.6456 16.5853 45.6693 16.5438 45.6693 16.5024C45.6693 16.4787 45.6634 16.4314 45.6693 16.4846C45.6693 16.461 45.6634 16.5202 45.6693 16.4965C45.6811 16.4136 45.6219 16.3366 45.5331 16.3603Z" fill="#BA96D6"/>
<path d="M30.0979 22.5415C30.1157 22.5415 30.1275 22.5415 30.1453 22.5415C30.169 22.5415 30.2222 22.5296 30.2933 22.5059C30.4532 22.4526 30.6071 22.3875 30.761 22.3224C31.288 22.1092 31.809 21.8843 32.33 21.6534C33.4964 21.1442 34.6509 20.6232 35.8114 20.1021C36.0837 19.9837 36.3501 19.8594 36.6225 19.741C36.8475 19.6403 36.6521 19.3088 36.4271 19.4094C35.6929 19.7351 34.9588 20.0666 34.2305 20.3982C33.0819 20.9192 31.9274 21.4284 30.7906 21.9731C30.6071 22.0619 30.4176 22.1507 30.24 22.2513C30.1749 22.2869 30.1216 22.3224 30.0683 22.3698C30.0209 22.4112 30.0979 22.3283 30.0624 22.3757C30.0565 22.3816 30.0565 22.3816 30.0505 22.3875C29.9795 22.4408 30.015 22.5474 30.0979 22.5415Z" fill="#BA96D6"/>
<path d="M35.3851 48.7286C35.7877 48.622 36.1666 48.5806 36.5751 48.6812C36.96 48.7759 37.327 48.9654 37.6172 49.2318C38.2092 49.7825 38.4224 50.6824 38.1382 51.4403C37.8125 52.3047 36.9363 52.7369 36.0423 52.6836C35.6041 52.6599 35.1601 52.5415 34.8463 52.2159C34.5739 51.9376 34.4141 51.5705 34.3253 51.1975C34.2187 50.7535 34.1713 50.2147 34.3786 49.8002C34.6035 49.3503 35.0713 49.0483 35.4976 48.8174C35.8469 48.6279 35.539 48.101 35.1838 48.2845C34.6983 48.5391 34.2365 48.8766 33.9345 49.3384C33.6089 49.8357 33.597 50.4397 33.6799 51.0021C33.8398 52.0619 34.4792 53.0211 35.5982 53.1987C36.6758 53.3704 37.8658 52.9619 38.4342 51.9968C38.9671 51.0969 38.8546 49.9364 38.2151 49.1253C37.5816 48.326 36.1133 47.6984 35.2134 48.4207C35.0654 48.545 35.2252 48.77 35.3851 48.7286Z" fill="#BA96D6"/>
<path d="M45.0298 48.5096C44.793 48.2194 44.4022 48.0359 44.0707 47.882C43.7391 47.7221 43.4016 47.5741 43.0582 47.4379C42.3714 47.1774 41.661 46.9879 40.9268 46.9051C39.4229 46.7274 37.8303 46.9702 36.4212 47.5208C36.0363 47.6747 35.6574 47.8464 35.2962 48.0477C34.9292 48.249 34.5088 48.4799 34.2187 48.7819C34.0351 48.9773 34.266 49.2911 34.5088 49.1549C34.8226 48.9832 35.1068 48.7405 35.4147 48.5569C35.7284 48.3734 36.0482 48.2076 36.3856 48.0655C37.0547 47.7813 37.7592 47.58 38.4697 47.4616C39.9025 47.2129 41.3294 47.3254 42.703 47.7991C43.0819 47.9293 43.449 48.0773 43.8161 48.2313C44.1772 48.3852 44.5798 48.5984 44.9825 48.6043C45.0417 48.6102 45.0594 48.5451 45.0298 48.5096Z" fill="#BA96D6"/>
<path d="M44.6805 54.6078C44.2779 54.7144 43.899 54.7558 43.4905 54.6551C43.1056 54.5604 42.7385 54.371 42.4484 54.1045C41.8564 53.5539 41.6432 52.654 41.9274 51.8961C42.253 51.0317 43.1293 50.5995 44.0233 50.6528C44.4614 50.6765 44.9055 50.7949 45.2193 51.1205C45.4916 51.3988 45.6515 51.7659 45.7403 52.1389C45.8469 52.5829 45.8942 53.1217 45.687 53.5361C45.462 53.9861 44.9943 54.2881 44.568 54.519C44.2187 54.7084 44.5266 55.2354 44.8818 55.0518C45.3673 54.7972 45.8291 54.4598 46.1311 53.998C46.4567 53.5006 46.4686 52.8967 46.3857 52.3342C46.2258 51.2744 45.5864 50.3153 44.4674 50.1377C43.3898 49.966 42.1998 50.3745 41.6314 51.3396C41.0985 52.2395 41.211 53.4 41.8504 54.2111C42.4839 55.0104 43.9523 55.638 44.8522 54.9157C45.0061 54.7913 44.8463 54.5663 44.6805 54.6078Z" fill="#BA96D6"/>
<path d="M35.0417 54.8269C35.2785 55.117 35.6693 55.3006 36.0008 55.4545C36.3324 55.6143 36.6699 55.7624 37.0132 55.8985C37.7 56.159 38.4105 56.3485 39.1447 56.4314C40.6485 56.609 42.2412 56.3663 43.6503 55.8157C44.0352 55.6617 44.4141 55.49 44.7752 55.2887C45.1423 55.0874 45.5627 54.8565 45.8528 54.5545C46.0364 54.3592 45.8054 54.0454 45.5627 54.1815C45.2489 54.3532 44.9647 54.596 44.6568 54.7795C44.343 54.9631 44.0233 55.1289 43.6858 55.2709C43.0168 55.5551 42.3122 55.7564 41.6018 55.8749C40.169 56.1235 38.7421 56.011 37.3685 55.5374C36.9896 55.4071 36.6225 55.2591 36.2554 55.1052C35.8942 54.9512 35.4916 54.7381 35.089 54.7322C35.0298 54.7262 35.0121 54.7914 35.0417 54.8269Z" fill="#BA96D6"/>
</svg>
