<svg width="80" height="80" viewBox="0 0 80 80" fill="none" xmlns="http://www.w3.org/2000/svg">
<circle opacity="0.2" cx="40" cy="40" r="40" fill="#C6C6D7"/>
<path d="M52.9208 7.99999C53.0057 7.97388 53.6259 10.1346 53.5541 10.1542C53.4888 10.1803 51.7393 8.78987 51.7523 8.73112C51.7654 8.67237 53.8609 8.78334 53.9066 8.84862C53.9523 8.9139 52.1049 10.0563 52.0657 10.0041C52.02 9.94532 52.8295 8.0261 52.9208 7.99999Z" fill="#BA96D6"/>
<path d="M25.8821 11.7274C25.9539 11.7797 24.5765 13.5553 24.5177 13.5161C24.459 13.4769 24.5439 11.2509 24.6026 11.2248C24.6614 11.1987 25.8038 12.9547 25.7776 13.033C25.7515 13.1114 23.7409 12.2954 23.7605 12.2236C23.7801 12.1517 25.8103 11.6752 25.8821 11.7274Z" fill="#BA96D6"/>
<path d="M50.61 11.5251C50.6687 11.4859 51.6283 12.9612 51.5826 13.0004C51.5369 13.033 49.9049 12.3933 49.9049 12.3476C49.8984 12.2954 51.4978 11.9037 51.5434 11.9428C51.5891 11.982 50.4729 13.268 50.4272 13.2354C50.388 13.1962 50.5512 11.5642 50.61 11.5251Z" fill="#BA96D6"/>
<path d="M48.7299 14.8412C48.7952 14.8217 49.1803 16.3623 49.1346 16.3818C49.0889 16.3949 47.8813 15.3765 47.8943 15.3374C47.9074 15.2917 49.3827 15.4222 49.4153 15.4679C49.448 15.5136 48.1163 16.2839 48.0836 16.2448C48.051 16.1991 48.6711 14.8608 48.7299 14.8412Z" fill="#BA96D6"/>
<path d="M32.6255 21.1995C32.5993 21.2778 30.7128 20.5924 30.7324 20.5271C30.7519 20.4683 32.6712 19.9265 32.7038 19.9722C32.7364 20.0179 31.5614 21.4671 31.4896 21.4671C31.4178 21.4671 31.5549 19.5283 31.6202 19.5283C31.6854 19.5283 32.6516 21.1211 32.6255 21.1995Z" fill="#BA96D6"/>
<path d="M42.9918 23.7193C43.0179 23.6931 43.6316 24.3525 43.612 24.3721C43.5924 24.3916 42.7177 24.2154 42.7111 24.1893C42.7046 24.1632 43.4684 23.8237 43.501 23.8433C43.5271 23.8563 43.0767 24.6005 43.0506 24.5875C43.0245 24.5744 42.9657 23.7454 42.9918 23.7193Z" fill="#BA96D6"/>
<path d="M28.4084 13.49C28.3823 13.5161 27.7882 12.8438 27.8078 12.8242C27.8274 12.8046 28.6956 13.0004 28.7022 13.0265C28.7087 13.0527 27.9319 13.3725 27.9058 13.3529C27.8796 13.3334 28.3431 12.6022 28.3692 12.6153C28.3953 12.6349 28.4345 13.4639 28.4084 13.49Z" fill="#BA96D6"/>
<path d="M33.3827 14.3321C33.3696 14.3843 32.162 14.0514 32.1685 14.0122C32.175 13.973 33.3435 13.5422 33.3696 13.5683C33.3958 13.5944 32.7364 14.554 32.6907 14.5605C32.645 14.5605 32.6385 13.3529 32.6777 13.3463C32.7103 13.3398 33.3958 14.2798 33.3827 14.3321Z" fill="#BA96D6"/>
<path d="M36.5683 14.2276C36.5618 14.1623 38.1155 13.9926 38.1285 14.0448C38.135 14.0971 36.9796 15.1285 36.9404 15.1154C36.9013 15.1024 37.2277 13.6727 37.2734 13.6532C37.3256 13.6336 37.8935 15.0306 37.8478 15.0567C37.8021 15.0697 36.5749 14.2864 36.5683 14.2276Z" fill="#BA96D6"/>
<path d="M41.6667 25.7429C41.7058 25.7755 40.8507 26.709 40.818 26.6829C40.7854 26.6568 40.9355 25.4165 40.9682 25.4034C41.0008 25.3904 41.5622 26.4283 41.5426 26.4675C41.523 26.5067 40.4329 25.9583 40.4459 25.9257C40.472 25.88 41.6275 25.7037 41.6667 25.7429Z" fill="#BA96D6"/>
<path d="M37.0645 23.9739C37.0253 24.0261 35.8046 23.1057 35.8307 23.06C35.8568 23.0208 37.3778 23.0535 37.3974 23.0926C37.417 23.1318 36.2289 23.9282 36.1767 23.9151C36.1244 23.8956 36.6597 22.5182 36.7054 22.5312C36.7511 22.5443 37.0971 23.9217 37.0645 23.9739Z" fill="#BA96D6"/>
<path d="M49.6634 12.5499C49.2848 12.563 48.9127 12.6217 48.5406 12.674C47.6397 12.7849 46.7389 12.922 45.838 13.0591C43.8274 13.3724 41.8103 13.6793 39.7997 13.9926C39.3362 14.0644 38.8727 14.1362 38.4092 14.208C38.1807 14.2472 38.2787 14.5932 38.5071 14.554C39.767 14.3582 41.0269 14.1493 42.2868 13.9534C44.2974 13.6336 46.3146 13.3463 48.3121 12.9677C48.7691 12.8829 49.2391 12.8176 49.683 12.687C49.7613 12.6674 49.7483 12.5499 49.6634 12.5499Z" fill="#BA96D6"/>
<path d="M48.0249 16.5777C47.8486 16.7801 47.705 17.0086 47.5549 17.224C47.1958 17.7462 46.8499 18.2815 46.5104 18.8168C45.7401 20.0375 44.9633 21.2583 44.193 22.479C44.0167 22.7597 43.8405 23.0404 43.6642 23.3211C43.5402 23.5169 43.8535 23.6997 43.9776 23.5039C44.4606 22.7336 44.9372 21.9633 45.4137 21.193C46.1709 19.9722 46.9674 18.7646 47.6724 17.5112C47.8356 17.224 48.0184 16.9498 48.1424 16.643C48.1685 16.5777 48.0706 16.5255 48.0249 16.5777Z" fill="#BA96D6"/>
<path d="M41.6144 25.5471C41.6732 25.5863 41.745 25.5406 41.7972 25.5079C41.9082 25.4492 41.9996 25.3839 42.0975 25.3056C42.2999 25.1424 42.4957 24.9727 42.6981 24.8029C42.7438 24.7638 42.7895 24.7246 42.8352 24.6854C42.907 24.6201 42.907 24.4896 42.8352 24.4308C42.7568 24.359 42.6589 24.3656 42.5806 24.4308C42.4565 24.5418 42.3325 24.6593 42.2085 24.7703C42.104 24.8617 42.0061 24.9596 41.9017 25.051C41.8103 25.1359 41.7254 25.2207 41.6536 25.3252C41.634 25.3578 41.6079 25.3839 41.5883 25.4166C41.5687 25.4622 41.5753 25.5145 41.6144 25.5471Z" fill="#BA96D6"/>
<path d="M37.3321 23.9347C37.3974 24.0326 37.4953 24.0914 37.5867 24.1632C37.7956 24.3264 38.0175 24.47 38.2395 24.6136C38.7487 24.9335 39.2579 25.2534 39.767 25.5732C39.8845 25.645 40.002 25.7234 40.1261 25.7952C40.3219 25.9192 40.5047 25.6059 40.3089 25.4818C39.989 25.286 39.6626 25.0902 39.3362 24.8943C38.827 24.5875 38.3244 24.248 37.7891 23.9869C37.665 23.9282 37.541 23.8433 37.4039 23.8237C37.3582 23.8303 37.2995 23.8825 37.3321 23.9347Z" fill="#BA96D6"/>
<path d="M35.6348 22.6618C35.5761 22.5704 35.4847 22.5182 35.3998 22.4529C35.204 22.3028 35.0016 22.1722 34.7927 22.0482C34.3162 21.7609 33.8397 21.4672 33.3631 21.1799C33.2521 21.1147 33.1412 21.0429 33.0302 20.9776C32.8278 20.8601 32.645 21.1734 32.8474 21.2909C33.1477 21.4672 33.4545 21.6434 33.7613 21.8197C34.2379 22.0939 34.7079 22.4072 35.2105 22.6292C35.328 22.6814 35.4521 22.7597 35.5826 22.7662C35.6283 22.7662 35.6609 22.701 35.6348 22.6618Z" fill="#BA96D6"/>
<path d="M25.8494 13.6794C25.9735 13.9078 26.1432 14.1037 26.2999 14.3126C26.672 14.8152 27.0636 15.3048 27.4553 15.7879C28.3497 16.8846 29.2375 17.9878 30.1318 19.0845C30.3407 19.3391 30.543 19.5937 30.7519 19.8483C30.9021 20.031 31.1567 19.7699 31.0065 19.5937C30.4451 18.9082 29.8772 18.2228 29.3158 17.5374C28.4215 16.4537 27.5532 15.344 26.6197 14.2995C26.4043 14.058 26.202 13.8034 25.9604 13.5945C25.9017 13.5488 25.8103 13.6075 25.8494 13.6794Z" fill="#BA96D6"/>
<path d="M27.5989 13.0396C27.5989 13.033 27.5989 13.033 27.5989 13.0396C27.5924 13.0265 27.5859 13.0135 27.5989 13.0396C27.6055 13.0657 27.5924 13.0265 27.5924 13.0265C27.5859 13.0069 27.5728 12.9939 27.5598 12.9743C27.5337 12.9482 27.488 12.9351 27.4553 12.9221C27.3313 12.8568 27.2073 12.8111 27.0767 12.7719C26.7895 12.6871 26.5022 12.6022 26.215 12.5173C26.1432 12.4978 26.0779 12.4782 26.0061 12.4586C25.7842 12.3933 25.6862 12.7458 25.9082 12.8046C26.091 12.8568 26.2803 12.9025 26.4631 12.9482C26.7503 13.02 27.0506 13.131 27.3509 13.144C27.4292 13.1506 27.5141 13.1701 27.5793 13.1114C27.5989 13.0918 27.6055 13.0592 27.5989 13.0396Z" fill="#BA96D6"/>
<path d="M31.9204 13.9013C31.8356 13.836 31.7377 13.8099 31.6332 13.7773C31.4047 13.7055 31.1697 13.6467 30.9347 13.5945C30.3929 13.477 29.8576 13.366 29.3158 13.2485C29.1852 13.2224 29.0612 13.1963 28.9306 13.1702C28.7022 13.1245 28.6042 13.4704 28.8327 13.5161C29.1787 13.588 29.5247 13.6532 29.8707 13.7185C30.4125 13.823 30.9543 13.96 31.5026 14.0057C31.6267 14.0188 31.7638 14.0449 31.8813 14.0123C31.9335 14.0057 31.9596 13.9339 31.9204 13.9013Z" fill="#BA96D6"/>
<path d="M36.3725 14.3191C36.3007 14.2669 36.2028 14.2603 36.1179 14.2473C35.909 14.2081 35.7001 14.182 35.4912 14.1689C35.0147 14.1363 34.5381 14.1037 34.0616 14.071C33.9506 14.0645 33.8331 14.0514 33.7222 14.0449C33.4871 14.0318 33.4871 14.3909 33.7222 14.4039C34.0224 14.4235 34.3227 14.4301 34.623 14.4496C35.093 14.4692 35.5696 14.528 36.0396 14.4888C36.1505 14.4823 36.2746 14.4888 36.379 14.4366C36.4182 14.4105 36.4117 14.3452 36.3725 14.3191Z" fill="#BA96D6"/>
<path d="M49.2456 15.1808C49.324 15.1547 49.3631 15.0959 49.4088 15.0372C49.5198 14.9066 49.6177 14.7695 49.7091 14.6194C49.9115 14.2995 50.1073 13.9796 50.3097 13.6598C50.3554 13.5814 50.4011 13.5096 50.4533 13.4313C50.5773 13.2289 50.264 13.0527 50.1399 13.2485C50.0159 13.4574 49.8984 13.6663 49.7744 13.8752C49.5851 14.2016 49.3631 14.5214 49.226 14.874C49.1934 14.9588 49.1412 15.0437 49.1608 15.1351C49.1673 15.1677 49.213 15.1873 49.2456 15.1808Z" fill="#BA96D6"/>
<path d="M51.3998 11.5969C51.4651 11.6034 51.5173 11.5447 51.563 11.499C51.661 11.4141 51.7393 11.3162 51.8176 11.2052C51.9808 10.9767 52.1505 10.7548 52.3137 10.5263C52.3529 10.4741 52.3921 10.4218 52.4313 10.3696C52.49 10.2913 52.4443 10.1673 52.366 10.1216C52.2746 10.0693 52.1767 10.1085 52.1179 10.1868C52.0135 10.337 51.909 10.4937 51.8046 10.6438C51.6479 10.8788 51.4651 11.1073 51.3607 11.3749C51.3476 11.4141 51.315 11.4598 51.315 11.499C51.3215 11.5512 51.3476 11.5903 51.3998 11.5969Z" fill="#BA96D6"/>
<path d="M50.2444 43.0616C50.2444 43.0616 53.5606 46.3126 55.1404 47.0306C56.7201 47.7487 57.967 48.6169 58.2215 49.2175C58.4761 49.8181 57.3011 53.898 57.4512 54.9164C57.5949 55.9348 58.5153 58.7287 55.7605 60.2758L53.6324 56.4635C53.6324 56.4635 54.0632 56.0588 54.5267 55.8825C54.9902 55.7063 55.6038 54.7271 54.9902 54.0939C54.9902 54.0939 54.6573 53.5521 54.9902 52.9515C55.3231 52.3509 55.7997 50.6145 55.3558 50.275C54.9184 49.9356 50.9625 48.6235 48.756 47.455L50.2444 43.0616Z" fill="#BA96D6"/>
<path d="M59.7621 25.0118C59.7621 25.0118 60.9763 18.8103 55.3754 15.3896C55.3754 15.3896 57.4121 19.091 56.4721 23.7258L59.7621 25.0118Z" fill="#363E49"/>
<path d="M59.736 23.2885C59.5859 23.1122 59.2987 23.0143 59.0832 22.9294C58.8352 22.825 58.5806 22.7467 58.326 22.6814C58.0779 22.6161 57.8233 22.5769 57.5688 22.5443C57.4317 22.5312 57.2946 22.5182 57.1575 22.5182C57.0335 22.5116 56.8964 22.4986 56.7789 22.5378C56.7136 22.5573 56.7071 22.6618 56.7789 22.6814C56.9029 22.714 57.0335 22.6944 57.1575 22.6944C57.275 22.6944 57.399 22.701 57.5165 22.714C57.7711 22.7401 58.0322 22.7793 58.2803 22.838C58.5218 22.8968 58.7634 22.9686 58.9918 23.0535C59.1159 23.0992 59.2399 23.1449 59.3574 23.2036C59.4684 23.2558 59.5794 23.3211 59.7034 23.3407C59.736 23.3407 59.7556 23.3146 59.736 23.2885Z" fill="#BA96D6"/>
<path d="M59.4749 21.1734C59.0898 20.9907 58.6002 20.9645 58.1824 20.9841C57.967 20.9972 57.745 21.0298 57.5361 21.0755C57.4251 21.1016 57.3076 21.1343 57.1967 21.1734C57.0987 21.2061 57.0008 21.2322 56.9225 21.2975C56.8768 21.3432 56.9094 21.428 56.9747 21.428C57.0726 21.4215 57.1705 21.3693 57.2619 21.3366C57.3664 21.304 57.4708 21.2714 57.5753 21.2452C57.7776 21.193 57.9865 21.1669 58.202 21.1473C58.4043 21.1277 58.6132 21.1277 58.8156 21.1408C59.031 21.1539 59.2464 21.2061 59.4619 21.2257C59.4945 21.2387 59.5075 21.1865 59.4749 21.1734Z" fill="#BA96D6"/>
<path d="M58.9984 19.6916C58.9005 19.5611 58.6654 19.548 58.5218 19.5219C58.326 19.4892 58.1236 19.4762 57.9213 19.4958C57.5231 19.5284 57.1379 19.6459 56.7919 19.8483C56.7005 19.9005 56.7854 20.0376 56.8703 19.9854C57.1967 19.7961 57.5557 19.6786 57.9343 19.6459C58.1106 19.6329 58.2868 19.6263 58.4631 19.6459C58.561 19.659 58.6589 19.672 58.7568 19.6981C58.8352 19.7177 58.9005 19.7373 58.9788 19.7177C58.9984 19.7177 59.0049 19.7047 58.9984 19.6916Z" fill="#BA96D6"/>
<path d="M58.1497 18.0922C58.0257 18.0531 57.8756 18.0726 57.745 18.0792C57.6079 18.0922 57.4643 18.1183 57.3337 18.151C57.0596 18.2293 56.818 18.3599 56.583 18.51C56.4851 18.5753 56.5961 18.7254 56.6809 18.6406C56.8768 18.4643 57.1314 18.3468 57.3794 18.2685C57.5035 18.2293 57.6275 18.2032 57.7581 18.1901C57.8886 18.1771 58.0192 18.1901 58.1497 18.1706C58.1954 18.1706 58.1889 18.0988 58.1497 18.0922Z" fill="#BA96D6"/>
<path d="M57.1967 16.8323C57.151 16.8258 57.1053 16.8389 57.0596 16.8454C57.0139 16.8519 56.9682 16.865 56.9225 16.878C56.8311 16.9042 56.7462 16.9433 56.6679 16.9825C56.5896 17.0282 56.5112 17.0804 56.4394 17.1326C56.4068 17.1587 56.3676 17.1914 56.3415 17.224C56.3089 17.2567 56.2632 17.2958 56.2436 17.3415C56.2109 17.4199 56.2958 17.4851 56.3611 17.4329C56.3937 17.4068 56.4133 17.3676 56.4394 17.3415C56.4655 17.3089 56.4982 17.2762 56.5308 17.2501C56.5961 17.1914 56.6614 17.1457 56.7332 17.1C56.805 17.0608 56.8768 17.0217 56.9551 16.9955C56.9943 16.9825 57.04 16.9694 57.0792 16.9564C57.1183 16.9433 57.164 16.9433 57.2032 16.9237C57.2619 16.9042 57.2489 16.8389 57.1967 16.8323Z" fill="#BA96D6"/>
<path d="M56.3611 16.1207C56.3154 16.1142 56.2697 16.1207 56.224 16.1273C56.1783 16.1403 56.1326 16.1599 56.0934 16.186C56.0151 16.2382 55.9498 16.3101 55.9041 16.3949C55.8845 16.4341 55.8976 16.4733 55.9368 16.4928C55.9759 16.5124 56.0151 16.4863 56.0282 16.4471C56.0282 16.4406 56.0347 16.4341 56.0347 16.4341C56.0282 16.4406 56.0347 16.4341 56.0347 16.4341C56.0412 16.4276 56.0412 16.4145 56.0477 16.408C56.0543 16.3884 56.0673 16.3753 56.0804 16.3623C56.0804 16.3623 56.0934 16.3492 56.0869 16.3558C56.0869 16.3492 56.0934 16.3492 56.0934 16.3427C56.1 16.3362 56.1065 16.3296 56.113 16.3166C56.1261 16.3035 56.1391 16.2905 56.1587 16.2774C56.1587 16.2774 56.1718 16.2709 56.1652 16.2709C56.1718 16.2709 56.1718 16.2644 56.1783 16.2644C56.1848 16.2578 56.1979 16.2513 56.2044 16.2448C56.224 16.2317 56.237 16.2252 56.2566 16.2121C56.2893 16.1926 56.3284 16.1795 56.3611 16.1664C56.3937 16.1599 56.3872 16.1273 56.3611 16.1207Z" fill="#BA96D6"/>
<path d="M47.8617 31.0894C47.8617 31.0894 51.2628 26.7875 52.8033 25.5407C52.8033 25.5407 50.3684 25.1882 49.6699 22.6553C49.1542 21.1474 51.2236 19.1824 51.55 19.6002C51.8829 20.018 52.7707 23.0078 54.5724 23.987C54.5724 23.987 57.0596 23.0927 58.8221 23.8042C60.5847 24.5223 61.7727 25.73 62.2819 27.8646C62.7976 30.0058 62.3537 30.2538 63.1893 31.5399C64.0184 32.8259 66.0029 34.732 65.0498 37.0756C65.0498 37.0756 64.0249 39.4387 61.9164 38.812C60.304 38.3811 59.736 37.0494 59.1746 36.6969C58.6132 36.3444 56.1914 35.5415 55.6495 35.1629C55.6495 35.1629 52.5945 37.8263 51.6153 41.9585C50.6361 46.0841 48.7756 48.9499 48.7756 48.9499C48.7756 48.9499 46.4908 56.5223 46.1187 59.2379C46.1187 59.2379 48.286 61.0853 48.2142 63.4615H44.2844C44.2844 63.4615 43.7687 62.8609 44.0298 61.9927C44.2844 61.1245 43.4031 60.7459 43.1877 60.7851C42.9657 60.8242 42.672 59.0878 43.5532 57.273C44.4345 55.4648 45.2048 51.9527 43.958 48.9695C43.958 48.9695 41.9017 49.2698 39.6626 49.2698C37.4235 49.2698 32.175 48.2122 30.419 48.7802V35.6459C30.419 35.6459 34.3097 35.6394 36.2876 35.2804C38.2721 34.9213 41.0922 33.5766 43.9906 32.9368C46.889 32.2971 47.8617 31.0894 47.8617 31.0894Z" fill="#BA96D6"/>
<path d="M60.5586 30.2799C60.5586 30.2799 59.723 27.0159 57.2685 28.55C57.2619 28.5435 57.8429 31.4288 60.5586 30.2799Z" fill="#EAE1F9"/>
<path d="M59.5467 29.7707C59.5206 29.7707 59.4945 29.7707 59.4684 29.7642L58.2346 29.5096C58.0714 29.477 57.967 29.3138 57.9996 29.1571C58.0322 28.9939 58.1889 28.8895 58.3521 28.9221L59.5859 29.1767C59.7491 29.2093 59.8535 29.3725 59.8209 29.5292C59.7948 29.6663 59.6838 29.7577 59.5467 29.7707Z" fill="#363E49"/>
<path d="M63.6267 35.4174C63.4831 35.7568 63.7246 36.1877 63.8878 36.4749C64.1032 36.847 64.3252 37.2191 64.5471 37.5912C64.5667 37.6304 64.6124 37.6565 64.6581 37.6565C64.7103 37.6565 64.743 37.6369 64.7691 37.5912C64.7952 37.552 64.7952 37.4998 64.7691 37.4606C64.5537 37.1146 64.3448 36.7621 64.1293 36.4162C64.0379 36.266 63.9466 36.1093 63.8747 35.9527C63.7964 35.7764 63.7703 35.6002 63.7246 35.4174C63.705 35.3652 63.6397 35.3717 63.6267 35.4174Z" fill="#363E49"/>
<path d="M61.5965 36.6055C61.59 36.7164 61.6618 36.8274 61.7075 36.9188C61.7597 37.0167 61.8184 37.1081 61.8772 37.1995C62.0078 37.3953 62.1579 37.5847 62.3211 37.7544C62.6867 38.1265 63.1306 38.4137 63.6071 38.6161C63.7507 38.6748 63.8682 38.4659 63.7311 38.4072C63.2677 38.2113 62.8433 37.9437 62.4843 37.5912C62.3211 37.4345 62.1775 37.2648 62.0469 37.082C61.9816 36.9906 61.9229 36.8992 61.8641 36.8078C61.8119 36.723 61.7597 36.6185 61.6748 36.5532C61.6422 36.5402 61.5965 36.5728 61.5965 36.6055Z" fill="#363E49"/>
<path d="M50.5773 20.9906C51.1257 20.9057 51.4064 21.4149 51.5369 21.8588C51.661 22.2766 51.7915 22.6748 52.0004 23.06C52.3986 23.8042 52.9927 24.4308 53.7042 24.8813C53.8544 24.9792 53.9914 24.7377 53.8413 24.6463C53.0384 24.1436 52.3921 23.3994 52.02 22.5247C51.8372 22.0873 51.7785 21.5781 51.4978 21.1865C51.2889 20.8992 50.8711 20.6838 50.5512 20.9253C50.5186 20.9514 50.5382 20.9971 50.5773 20.9906Z" fill="#363E49"/>
<path d="M54.5333 55.8891C54.0698 56.0654 53.6389 56.4701 53.6389 56.4701L55.767 60.2824C57.386 59.375 57.7319 58.0368 57.7124 56.8813C56.7397 56.568 55.8193 56.0849 55.0098 55.4583C54.8727 55.6606 54.6965 55.8238 54.5333 55.8891Z" fill="#363E49"/>
<path d="M44.0363 61.4312C44.0885 61.5879 44.0951 61.7772 44.0298 61.9926C43.7752 62.8608 44.2844 63.4614 44.2844 63.4614H48.2142C48.2664 61.849 47.2872 60.4847 46.6475 59.7666C45.9294 60.5238 45.022 61.0918 44.0363 61.4312Z" fill="#363E49"/>
<path d="M51.0734 43.9103C50.9821 44.0409 50.9494 44.1975 50.9037 44.3477C50.8515 44.5174 50.8058 44.6871 50.747 44.8503C50.6361 45.1767 50.5186 45.5031 50.3815 45.8165C50.2509 46.1233 50.1073 46.417 49.9572 46.7108C49.8723 46.8675 49.7874 47.0176 49.7026 47.1743C49.6242 47.3114 49.5133 47.4419 49.4676 47.5986C49.4415 47.6835 49.5459 47.7292 49.6047 47.6769C49.7222 47.5725 49.794 47.4093 49.8723 47.2722C49.9637 47.1221 50.0486 46.9654 50.1269 46.8087C50.2901 46.4954 50.4337 46.182 50.5643 45.8556C50.7014 45.5292 50.8189 45.1963 50.9233 44.8634C51.0082 44.5696 51.1583 44.2171 51.1126 43.9103C51.1061 43.8972 51.08 43.8972 51.0734 43.9103Z" fill="#363E49"/>
<path d="M36.2419 59.8254C36.1049 58.1999 34.623 57.0249 33.102 56.4765C31.581 55.9347 29.9359 55.8172 28.441 55.2036C26.9461 54.5899 25.5557 53.2517 25.634 51.6263C25.7189 49.8768 28.0755 49.7527 29.2831 49.6026C30.4908 49.4524 32.5993 49.459 36.3007 48.9694C35.7458 46.2864 34.8319 39.2623 36.8817 35.1432C33.2064 35.1171 30.889 35.561 27.377 36.1811C23.865 36.8013 20.5879 38.8576 18.1987 41.534C15.8029 44.2105 14.5169 47.9771 15.1697 51.5087C15.6267 53.9894 17.0171 56.2676 18.9429 57.8604C20.8752 59.4598 23.3231 60.3802 25.8233 60.5565C28.4802 60.7393 31.3329 60.1322 33.7026 61.3398C30.4386 63.5267 28.7152 68.0701 29.1004 71.9934C29.9033 71.0077 30.9543 70.2766 31.9857 69.5389C33.0171 68.8078 34.0616 68.0506 34.8254 67.0322C35.5891 66.0204 36.4117 64.7735 36.1179 63.5398C37.0906 65.1783 38.8009 66.3402 40.6744 66.634C42.5479 66.9278 44.539 66.3533 45.9816 65.0999C44.7152 65.3611 43.4227 64.7605 42.437 63.9314C41.4512 63.1024 40.6679 62.0514 39.7148 61.1832C38.7617 60.3149 37.528 59.7274 36.2419 59.8254Z" fill="#363E49"/>
<path d="M34.8841 37.2909C34.264 36.9057 33.2064 36.5467 32.743 37.3627C32.3186 38.1003 33.226 38.5507 33.794 38.7139C33.807 38.6552 33.8266 38.5964 33.8397 38.5377C33.1803 38.3875 32.1489 38.2635 31.8682 39.086C31.7572 39.4124 31.8878 39.7519 32.1097 39.9934C32.397 40.3002 32.8148 40.4177 33.2064 40.5287C33.2978 40.5548 33.3631 40.4112 33.2717 40.372C32.6712 40.0783 31.8943 40.2676 31.6463 40.9335C31.4178 41.534 31.8552 42.2129 32.5145 42.1999C32.5993 42.1999 32.6189 42.0954 32.5537 42.0497C32.0184 41.6972 31.2024 41.9453 30.9608 42.5459C30.6801 43.2443 31.346 44.0342 32.0641 43.9755C32.175 43.9689 32.175 43.7927 32.0641 43.7992C31.4439 43.858 30.8499 43.1791 31.124 42.5785C31.346 42.0889 32.0249 41.8996 32.4688 42.1933C32.4818 42.1411 32.4949 42.0954 32.508 42.0432C31.94 42.0563 31.5875 41.4557 31.816 40.9465C32.051 40.4177 32.6907 40.2872 33.1803 40.5287C33.1999 40.4765 33.226 40.4243 33.2456 40.372C32.7299 40.2284 31.7507 39.8694 32.0379 39.1317C32.3121 38.4398 33.2195 38.603 33.7809 38.727C33.8984 38.7531 33.9441 38.5834 33.8266 38.5507C33.3566 38.4202 32.4753 38.0546 32.8996 37.4149C33.3631 36.7164 34.2379 37.1472 34.8188 37.4018C34.8907 37.4149 34.9494 37.33 34.8841 37.2909Z" fill="#BA96D6"/>
<path d="M31.3003 39.4385C30.9804 39.2231 30.6148 39.0338 30.2232 39.086C29.9033 39.1317 29.6291 39.3472 29.5704 39.6735C29.4333 40.5091 30.3276 40.8682 30.9674 41.0444C30.9869 40.9857 31 40.9204 31.0196 40.8616C30.3407 40.6984 29.2962 40.5483 28.9437 41.3512C28.8066 41.658 28.898 41.9844 29.1395 42.2129C29.4268 42.4871 29.8315 42.5393 30.2166 42.585C30.2166 42.5263 30.2166 42.4675 30.2166 42.4088C29.5247 42.3826 28.4606 42.4479 28.3301 43.3357C28.2778 43.6752 28.4606 43.9885 28.7217 44.1974C29.0743 44.4716 29.5182 44.5369 29.949 44.5891C30.073 44.6021 30.073 44.4063 29.949 44.3933C29.5965 44.3541 29.2113 44.3149 28.9111 44.1126C28.6369 43.9363 28.4345 43.6164 28.5194 43.2835C28.7087 42.5589 29.6226 42.5589 30.2166 42.5785C30.3341 42.585 30.3276 42.4153 30.2166 42.4022C29.8968 42.3631 29.5377 42.3239 29.2897 42.1019C29.0351 41.8735 28.9959 41.5405 29.2113 41.2729C29.6357 40.7376 30.4125 40.9073 30.9804 41.0379C31.0979 41.064 31.1501 40.8877 31.0326 40.8551C30.5039 40.7115 29.7793 40.483 29.7597 39.8172C29.7532 39.4908 30.0012 39.2688 30.3146 39.2492C30.6475 39.2231 30.9608 39.3994 31.2546 39.5299C31.3068 39.5626 31.3656 39.4777 31.3003 39.4385Z" fill="#BA96D6"/>
<path d="M27.5141 39.889C26.9788 39.889 26.1367 40.0652 25.8886 39.3994C25.6471 38.74 26.4435 38.3157 26.9135 38.0938C26.9984 38.0546 26.9527 37.924 26.8678 37.924C26.4761 37.911 25.7907 37.8653 25.7515 37.3365C25.7124 36.8012 26.3652 36.6315 26.7568 36.5205C26.8743 36.4879 26.8221 36.3182 26.7046 36.3377C26.202 36.4487 25.4839 36.749 25.5622 37.3887C25.6406 38.0024 26.3717 38.1003 26.8613 38.1134C26.8482 38.0546 26.8286 37.9958 26.8156 37.9436C26.2542 38.2113 25.4251 38.7205 25.7254 39.4777C25.9996 40.1697 26.9331 40.1697 27.5206 39.9542C27.5532 39.9346 27.5532 39.889 27.5141 39.889Z" fill="#BA96D6"/>
<path d="M27.2203 48.075C26.8286 48.4145 26.3195 48.891 25.7581 48.7278C25.5035 48.656 25.2946 48.4667 25.2946 48.186C25.3011 47.8531 25.5687 47.5724 25.7842 47.3504C25.8625 47.2721 25.7646 47.1415 25.6667 47.1937C25.2946 47.3896 24.7266 47.6703 24.3611 47.3112C23.9368 46.8935 24.4655 46.3255 24.7723 46.0383C24.8441 45.973 24.7723 45.8425 24.6744 45.8751C24.3088 45.9861 23.4798 46.1688 23.4472 45.5487C23.421 45.033 23.989 44.811 24.3807 44.6674C24.4982 44.6217 24.4459 44.4259 24.3284 44.4716C23.8323 44.6544 23.1469 44.9808 23.2579 45.6336C23.3035 45.8881 23.4994 46.0709 23.7409 46.1558C24.0673 46.2668 24.4133 46.1688 24.7266 46.0709C24.694 46.0187 24.6614 45.96 24.6287 45.9077C24.2501 46.2668 23.7279 46.9 24.1848 47.4222C24.6091 47.9118 25.3011 47.6246 25.7711 47.3765C25.7319 47.3243 25.6928 47.2721 25.6536 47.2198C25.4055 47.4744 25.1314 47.7878 25.1118 48.1599C25.0987 48.4667 25.275 48.7213 25.5492 48.8518C26.2542 49.1782 26.8482 48.6168 27.253 48.1076C27.253 48.0815 27.2334 48.062 27.2203 48.075Z" fill="#BA96D6"/>
<path d="M24.4198 42.7743C24.2175 43.0093 24.0216 43.2182 23.7279 43.3423C23.4406 43.4598 23.0685 43.5055 22.7878 43.3488C22.5006 43.1921 22.4223 42.8461 22.4876 42.5458C22.5594 42.1999 22.8009 41.9126 23.0228 41.645C23.0947 41.5601 23.0033 41.4361 22.8988 41.4883C22.4288 41.7233 21.7303 42.0367 21.2995 41.5601C21.084 41.3251 21.1493 40.9922 21.3386 40.7637C21.5345 40.5287 21.8217 40.4243 22.0763 40.2807C22.1677 40.2284 22.1089 40.0652 22.0045 40.1044C21.6716 40.2284 21.3191 40.4243 21.1167 40.7311C20.9339 41.0053 20.9013 41.3643 21.0971 41.6319C21.5671 42.2782 22.4288 41.9518 22.9967 41.6646C22.9576 41.6124 22.9184 41.5601 22.8727 41.5079C22.6116 41.8212 22.3309 42.1607 22.2721 42.5785C22.2264 42.9114 22.3244 43.277 22.6181 43.4728C23.2122 43.8645 24.2109 43.4598 24.4916 42.8396C24.5177 42.7874 24.459 42.7286 24.4198 42.7743Z" fill="#BA96D6"/>
<path d="M22.1285 46.6063C22.1938 47.1612 21.8348 47.7813 21.2407 47.8466C20.6336 47.9184 20.1049 47.3374 20.1636 46.7499C20.1701 46.6455 20.0265 46.6455 19.9939 46.7303C19.8176 47.2004 19.4455 47.6312 18.9168 47.6573C18.4076 47.6834 17.918 47.2004 18.153 46.6847C18.1008 46.6716 18.0486 46.6585 17.9963 46.6455C17.9637 47.0959 17.5981 47.5137 17.1216 47.4354C16.6581 47.357 16.4231 46.7956 16.7756 46.4496C16.8474 46.3778 16.7364 46.2669 16.6646 46.3387C16.2468 46.7499 16.4753 47.4484 17.0302 47.579C17.6373 47.7291 18.1204 47.2265 18.1726 46.6455C18.1791 46.5672 18.0551 46.528 18.0159 46.6063C17.7417 47.1547 18.1661 47.7552 18.747 47.8205C19.4259 47.8923 19.9351 47.3636 20.1571 46.776C20.0983 46.7695 20.0461 46.763 19.9874 46.7565C19.9286 47.4354 20.5553 48.1077 21.2472 48.0164C21.8805 47.9315 22.3831 47.2265 22.1612 46.6128C22.1612 46.5867 22.122 46.5867 22.1285 46.6063Z" fill="#BA96D6"/>
<path d="M24.9878 50.6666C24.8637 51.0452 24.7658 51.6001 24.2697 51.6458C23.7866 51.6915 23.6104 51.1105 23.519 50.7515C23.4994 50.6796 23.3884 50.6601 23.3558 50.7319C23.1665 51.1562 22.7683 51.8481 22.2069 51.4891C21.7173 51.1758 21.7825 50.523 21.8413 50.0268C21.8543 49.9093 21.665 49.9093 21.652 50.0268C21.5867 50.6144 21.5606 51.3912 22.1938 51.6915C22.4484 51.809 22.7291 51.7763 22.9576 51.6131C23.2317 51.4238 23.3754 51.117 23.5059 50.8233C23.4537 50.8167 23.3949 50.8102 23.3427 50.8037C23.4668 51.2541 23.7018 51.8743 24.2827 51.822C24.8311 51.7698 25.0792 51.1562 25.1118 50.6796C25.1118 50.6078 25.0073 50.6013 24.9878 50.6666Z" fill="#BA96D6"/>
<path d="M20.2876 49.6288C20.1767 49.9029 20.131 50.1902 19.9612 50.4382C19.8176 50.6471 19.5891 50.8234 19.328 50.8364C19.0669 50.8495 18.8645 50.6732 18.7536 50.4447C18.6883 50.3077 18.6622 50.151 18.6557 50.0008C18.6557 49.916 18.6557 49.8442 18.6557 49.7658C18.6557 49.681 18.6687 49.6026 18.6361 49.5243C18.61 49.4721 18.5316 49.4786 18.499 49.5243C18.4598 49.5831 18.4663 49.6483 18.4663 49.7136C18.4663 49.7985 18.4663 49.8768 18.4663 49.9617C18.4729 50.1053 18.4925 50.2489 18.5382 50.3795C18.61 50.5949 18.747 50.8038 18.9494 50.9213C19.3868 51.1759 19.9286 50.8821 20.144 50.4709C20.2811 50.2228 20.3594 49.916 20.3529 49.6353C20.3464 49.5961 20.3007 49.5961 20.2876 49.6288Z" fill="#BA96D6"/>
<path d="M25.3011 54.1395C25.4251 54.2635 25.4447 54.4855 25.399 54.6487C25.3468 54.8249 25.2032 54.9555 25.0335 55.0208C24.6287 55.1774 24.1914 55.0077 23.8127 54.851C23.7344 54.8184 23.6299 54.9163 23.7083 54.9881C24.0086 55.2362 24.0608 55.7323 23.7801 56.0195C23.4929 56.3198 23.0163 56.2545 22.7421 55.9869C22.6638 55.9086 22.5528 56.0261 22.6246 56.1044C22.9249 56.483 23.5777 56.483 23.9041 56.1436C24.2436 55.7911 24.1979 55.1709 23.8258 54.8641C23.7997 54.9098 23.7736 54.962 23.7409 55.0077C24.2109 55.2035 24.7919 55.4059 25.2554 55.086C25.5949 54.851 25.6993 54.3484 25.3403 54.0807C25.3142 54.0481 25.2685 54.1068 25.3011 54.1395Z" fill="#BA96D6"/>
<path d="M21.9719 54.6226C21.9457 54.6944 21.9653 54.7662 21.9588 54.838C21.9523 54.9229 21.9392 55.0078 21.9066 55.0861C21.8478 55.2558 21.7499 55.406 21.6193 55.5169C21.3321 55.765 20.9078 55.7781 20.5879 55.5953C20.5226 55.5561 20.4182 55.6214 20.4508 55.6997C20.5814 56.0261 20.49 56.4243 20.1963 56.6398C19.8829 56.8682 19.4651 56.803 19.1909 56.5549C19.0996 56.4766 18.9755 56.6006 19.0539 56.692C19.3607 57.0184 19.9221 57.0706 20.2876 56.816C20.6467 56.5614 20.7903 56.0653 20.6271 55.654C20.5814 55.6867 20.5357 55.7258 20.49 55.7585C20.8686 55.9739 21.3648 55.9478 21.7042 55.6671C21.8674 55.5365 21.9849 55.3472 22.0437 55.1449C22.0828 54.9947 22.1285 54.7336 22.0175 54.603C22.0045 54.59 21.9784 54.603 21.9719 54.6226Z" fill="#BA96D6"/>
<path d="M27.0898 55.6279C27.2073 55.6932 27.3248 55.7128 27.4096 55.8238C27.5141 55.9674 27.5075 56.1436 27.4292 56.2938C27.2725 56.5941 26.9266 56.6659 26.6197 56.6659C26.5414 56.6659 26.4957 56.7703 26.5545 56.8225C26.7634 57.0053 27.0832 57.2795 26.9657 57.5994C26.8482 57.9192 26.437 57.8735 26.1693 57.8409C26.0845 57.8278 26.0322 57.9584 26.0975 58.0106C26.326 58.1934 26.7438 58.5655 26.4239 58.8593C26.1367 59.1269 25.7581 58.9115 25.4512 58.8201C25.3468 58.794 25.288 58.9376 25.3794 58.9898C25.7385 59.1987 26.3129 59.3162 26.6132 58.9507C26.9396 58.5524 26.5414 58.1151 26.2346 57.867C26.2085 57.9258 26.1889 57.978 26.1628 58.0367C26.5153 58.0824 26.9918 58.0694 27.142 57.6712C27.2921 57.2664 26.9592 56.927 26.6785 56.6855C26.6589 56.7377 26.6328 56.7899 26.6132 56.8421C27.0375 56.8421 27.5206 56.6659 27.6316 56.2089C27.6707 56.0327 27.6316 55.8433 27.5141 55.7063C27.4162 55.5953 27.2334 55.4843 27.0898 55.5692C27.0702 55.5888 27.0702 55.6214 27.0898 55.6279Z" fill="#BA96D6"/>
<path d="M29.8054 56.47C30.06 56.4765 30.3276 56.5875 30.3603 56.8682C30.3864 57.1032 30.1514 57.3316 29.9164 57.2207C29.9033 57.2794 29.8837 57.3382 29.8707 57.3969C30.1514 57.423 30.3733 57.756 30.2623 58.0236C30.1579 58.2782 29.8184 58.3826 29.59 58.2456C29.479 58.1803 29.3811 58.35 29.492 58.4153C29.8315 58.6111 30.3146 58.4479 30.4517 58.0758C30.5953 57.6776 30.2689 57.2403 29.8707 57.2076C29.7793 57.2011 29.7401 57.3447 29.825 57.3839C30.1644 57.5405 30.543 57.286 30.5365 56.9139C30.53 56.5418 30.1448 56.2545 29.7923 56.3916C29.7532 56.4112 29.7597 56.47 29.8054 56.47Z" fill="#BA96D6"/>
<path d="M27.8666 58.5197C27.8927 58.5393 27.9253 58.5393 27.958 58.5459C27.9906 58.5524 28.0167 58.5654 28.0428 58.5785C28.1016 58.6046 28.1603 58.6373 28.206 58.6829C28.2909 58.7678 28.3627 58.8853 28.3758 59.0028C28.4019 59.2509 28.206 59.4206 27.9841 59.4663C27.9384 59.4728 27.8601 59.4728 27.8144 59.4663C27.7426 59.4532 27.6969 59.4141 27.6251 59.388C27.5859 59.3749 27.5337 59.401 27.5141 59.4337C27.488 59.4728 27.501 59.5185 27.5271 59.5512C27.5794 59.6099 27.6708 59.6426 27.7426 59.6556C27.8144 59.6752 27.8927 59.6752 27.971 59.6687C28.1277 59.6491 28.2779 59.5838 28.3888 59.4728C28.6369 59.2313 28.6108 58.82 28.3627 58.5916C28.2974 58.5263 28.2126 58.4741 28.1277 58.4479C28.0559 58.4218 27.9253 58.4022 27.8601 58.4545C27.834 58.4675 27.847 58.5067 27.8666 58.5197Z" fill="#BA96D6"/>
<path d="M33.0302 57.3709C33.3631 57.5602 33.8331 57.6581 33.8984 58.102C33.931 58.3044 33.8266 58.4806 33.6242 58.5329C33.3892 58.5981 33.1542 58.4937 32.9388 58.4023C32.867 58.3697 32.743 58.448 32.8082 58.5329C32.9519 58.7222 33.1085 58.9245 33.1412 59.1661C33.1738 59.3946 33.0628 59.5969 32.8474 59.6883C32.6516 59.7666 32.4492 59.7471 32.2534 59.6687C32.1424 59.6296 32.0379 59.5708 31.94 59.5055C31.8486 59.4468 31.7638 59.3554 31.6463 59.3554C31.6071 59.3554 31.5614 59.4011 31.581 59.4402C31.6267 59.5643 31.7703 59.6296 31.8813 59.6948C32.0053 59.7732 32.1424 59.8385 32.286 59.8842C32.521 59.956 32.7756 59.9429 32.9976 59.8319C33.2195 59.7144 33.3501 59.4859 33.3435 59.2379C33.337 58.9311 33.1542 58.6765 32.9714 58.4415C32.9257 58.4872 32.8866 58.5263 32.8409 58.572C33.102 58.683 33.3827 58.8005 33.6699 58.7222C33.9049 58.6569 34.0681 58.4676 34.0812 58.2195C34.1073 57.6712 33.5198 57.3513 33.0432 57.3252C33.0171 57.3187 33.0106 57.3578 33.0302 57.3709Z" fill="#BA96D6"/>
<path d="M34.4402 61.6728C34.153 61.7968 33.8984 62.0122 33.6503 62.2081C33.3958 62.4104 33.1542 62.6259 32.9257 62.8478C32.4623 63.2982 32.0445 63.7813 31.6659 64.3035C30.9021 65.3545 30.3276 66.5426 29.9816 67.796C29.8837 68.155 29.7989 68.5206 29.7336 68.8927C29.6748 69.2387 29.5965 69.6173 29.6291 69.9698C29.6357 70.0351 29.7271 70.0547 29.7466 69.9829C29.8184 69.6826 29.825 69.3627 29.8707 69.0559C29.9229 68.736 29.9882 68.4227 30.0665 68.1093C30.2232 67.4827 30.4386 66.8625 30.7062 66.275C31.235 65.113 31.9596 64.0424 32.8474 63.1285C33.0955 62.8739 33.3566 62.6324 33.6242 62.4039C33.8984 62.1689 34.2183 61.9731 34.4729 61.7185C34.512 61.6989 34.4729 61.6597 34.4402 61.6728Z" fill="#BA96D6"/>
<path d="M34.9625 62.3517C33.9245 63.3505 33.0498 64.4798 32.3186 65.7201C31.9531 66.3403 31.6267 66.98 31.3395 67.6393C31.2024 67.9592 31.0653 68.2791 30.9478 68.612C30.8237 68.9515 30.6801 69.2974 30.6018 69.65C30.5822 69.7413 30.6997 69.7675 30.7389 69.6891C30.876 69.3497 30.9674 68.9972 31.0979 68.6512C31.2219 68.3183 31.359 67.9853 31.5027 67.6524C31.7834 67.0127 32.1032 66.3925 32.4557 65.7985C33.1738 64.5777 34.0355 63.4288 34.982 62.3713C34.982 62.3582 34.969 62.3452 34.9625 62.3517Z" fill="#BA96D6"/>
<path d="M35.3084 62.776C35.0147 63.1546 34.8058 63.6181 34.5708 64.0359C34.3162 64.4929 34.0616 64.9564 33.8135 65.4198C33.5655 65.8703 33.324 66.3207 33.0759 66.7711C32.9519 66.9931 32.8278 67.2216 32.7038 67.4435C32.5863 67.6524 32.4296 67.8743 32.3709 68.1028C32.3578 68.1485 32.4166 68.1812 32.4492 68.1485C32.6059 67.9853 32.6973 67.7438 32.8082 67.548C32.9323 67.326 33.0563 67.0975 33.1738 66.8756C33.4284 66.4121 33.6765 65.9551 33.9311 65.4916C34.1791 65.0412 34.4206 64.5908 34.6687 64.1404C34.9037 63.7095 35.1909 63.2656 35.3541 62.8021C35.3607 62.776 35.328 62.7564 35.3084 62.776Z" fill="#BA96D6"/>
<path d="M35.6936 63.4026C35.6218 63.7682 35.5696 64.1338 35.4586 64.4928C35.3411 64.8714 35.1909 65.2435 34.9951 65.5895C34.8058 65.9289 34.5904 66.2488 34.3358 66.5491C34.0877 66.8429 33.8005 67.0909 33.5263 67.3586C33.4871 67.3912 33.5394 67.4565 33.5785 67.4304C34.2248 67.0191 34.7405 66.3272 35.1061 65.6613C35.4716 64.9954 35.7719 64.186 35.7719 63.4157C35.7785 63.3635 35.7067 63.3504 35.6936 63.4026Z" fill="#BA96D6"/>
<path d="M36.5357 60.4063C37.195 60.3084 37.8413 60.6674 38.3505 61.0526C38.9119 61.4769 39.4341 61.9534 39.9759 62.4104C40.5243 62.8739 41.0726 63.3373 41.6144 63.8008C41.8821 64.0293 42.1497 64.2578 42.4174 64.4797C42.561 64.6038 42.7046 64.7213 42.8482 64.8453C42.9592 64.9432 43.0636 65.0411 43.2007 65.0999C43.2399 65.1129 43.2725 65.0607 43.253 65.0281C43.1616 64.8714 42.9984 64.767 42.8678 64.656C42.7242 64.532 42.5806 64.4145 42.437 64.2904C42.1367 64.0358 41.8364 63.7812 41.5361 63.5332C40.9551 63.0436 40.3807 62.554 39.7997 62.0644C39.2774 61.6205 38.7617 61.1374 38.1938 60.7588C37.9457 60.5891 37.6781 60.4455 37.3843 60.3606C37.0775 60.2757 36.8229 60.2888 36.5226 60.3737C36.5096 60.3802 36.5161 60.4063 36.5357 60.4063Z" fill="#BA96D6"/>
<path d="M36.5618 63.0567C36.6858 63.4223 37.0318 63.7617 37.306 64.0294C37.6128 64.3297 37.9523 64.6039 38.3113 64.8389C38.6638 65.0673 39.0359 65.2632 39.4276 65.4264C39.6365 65.5112 39.8454 65.5896 40.0543 65.6483C40.2566 65.7071 40.4851 65.7985 40.694 65.7789C40.7528 65.7724 40.7854 65.694 40.7266 65.6614C40.5569 65.57 40.348 65.5504 40.1652 65.4917C39.9629 65.4329 39.7605 65.3611 39.5647 65.2828C39.1665 65.1261 38.7878 64.9237 38.4288 64.6952C38.0698 64.4602 37.7303 64.1991 37.4235 63.9054C37.2734 63.7617 37.1232 63.6051 36.9796 63.4484C36.849 63.3113 36.7381 63.1481 36.5814 63.0371C36.5749 63.0241 36.5553 63.0437 36.5618 63.0567Z" fill="#BA96D6"/>
<path d="M36.7446 62.2407C37.0645 62.6781 37.5149 63.0436 37.9392 63.3765C38.3635 63.716 38.8074 64.0293 39.2709 64.31C40.224 64.8976 41.2424 65.361 42.3064 65.6874C42.3978 65.7136 42.4304 65.5765 42.3456 65.5504C41.3011 65.2044 40.2893 64.7474 39.3558 64.173C38.8858 63.8857 38.4288 63.5659 37.998 63.2199C37.5867 62.8869 37.2146 62.5083 36.7903 62.1885C36.7642 62.1689 36.725 62.2146 36.7446 62.2407Z" fill="#BA96D6"/>
<path d="M36.0983 61.5879C37.3321 61.4051 38.3178 62.097 39.2579 62.7955C40.2501 63.5332 41.2358 64.2643 42.2281 65.002C42.3064 65.0607 42.3782 64.9302 42.3064 64.8714C41.2554 64.0946 40.2044 63.3112 39.1534 62.5409C38.2982 61.9143 37.195 61.1766 36.0853 61.5226C36.033 61.5356 36.0526 61.5944 36.0983 61.5879Z" fill="#BA96D6"/>
<path d="M30.9739 47.951C30.8433 47.9183 30.6997 47.9248 30.5626 47.8987C30.4321 47.8791 30.295 47.84 30.1775 47.7812C29.9816 47.6768 29.8119 47.4875 29.8184 47.259C29.825 47.024 30.0012 46.8216 30.2036 46.7106C30.4517 46.5736 30.7258 46.567 31 46.5148C31.111 46.4952 31.0849 46.319 30.9739 46.319C30.5169 46.3386 29.9621 46.4691 29.727 46.9065C29.4986 47.3177 29.7466 47.7682 30.1514 47.9444C30.2819 48.0032 30.4125 48.0293 30.5561 48.0423C30.6932 48.0554 30.8499 48.0619 30.9869 48.0293C31.0131 48.0228 31.0196 47.964 30.9739 47.951Z" fill="#BA96D6"/>
<path d="M19.3998 53.4345C19.4194 53.5585 19.4129 53.7021 19.3998 53.8262C19.3803 53.9567 19.3411 54.0873 19.2693 54.1983C19.1322 54.4202 18.8972 54.5638 18.6361 54.603C18.3815 54.6356 18.1204 54.5573 17.9311 54.3811C17.8331 54.2897 17.7613 54.1852 17.7091 54.0612C17.683 54.0024 17.6699 53.9437 17.6569 53.8784C17.6438 53.8197 17.6503 53.7544 17.6308 53.6956C17.6112 53.6238 17.5067 53.6238 17.4937 53.6956C17.461 53.8001 17.5002 53.9372 17.5328 54.0416C17.572 54.1526 17.6242 54.257 17.6895 54.3484C17.8266 54.5312 18.029 54.6748 18.264 54.727C18.734 54.8315 19.2366 54.603 19.439 54.1591C19.4912 54.0416 19.5239 53.911 19.5304 53.787C19.5369 53.6499 19.4978 53.5389 19.4455 53.4149C19.4325 53.3888 19.3933 53.4084 19.3998 53.4345Z" fill="#BA96D6"/>
<path d="M52.9731 25.5145C53.1428 25.4231 53.2995 25.286 53.4496 25.1685C53.528 25.1097 53.5998 25.051 53.6781 24.9922C53.7173 24.9596 53.7564 24.9335 53.7891 24.9008C53.8348 24.8682 53.8805 24.8421 53.8935 24.7833C53.9066 24.7246 53.8674 24.6724 53.8087 24.6724C53.7499 24.6724 53.7107 24.7115 53.665 24.7442C53.6259 24.7768 53.5932 24.8029 53.5541 24.8356C53.4757 24.9008 53.3974 24.9596 53.3256 25.0249C53.1754 25.1489 53.0122 25.2599 52.8817 25.41C52.836 25.4622 52.9013 25.5536 52.9731 25.5145Z" fill="#363E49"/>
<path d="M43.5206 43.9102C43.6185 43.9559 43.7099 43.9037 43.8144 43.9037C43.9123 43.9037 44.0102 43.9298 44.0951 43.982C44.2909 44.0995 44.3823 44.3411 44.441 44.55C44.5912 45.0918 44.6238 45.6597 44.5585 46.2146C44.5455 46.3125 44.6499 46.3974 44.7413 46.3974C44.8523 46.3974 44.9176 46.3125 44.9241 46.2146C44.9633 45.8686 44.9633 45.5161 44.9241 45.1701C44.8849 44.8503 44.8327 44.5304 44.7087 44.2301C44.5977 43.9625 44.4149 43.7274 44.1408 43.6165C44.0167 43.5642 43.8796 43.5512 43.7491 43.5708C43.6251 43.5904 43.4619 43.6687 43.4619 43.8123C43.4684 43.8515 43.488 43.8906 43.5206 43.9102Z" fill="#363E49"/>
<path d="M44.9045 45.0983C45.0025 44.6936 44.9829 43.969 45.5312 43.8841C46.1122 43.7993 46.1187 44.7328 46.1644 45.0918C46.2754 45.9665 46.5887 47.0306 47.5483 47.3048C48.3448 47.5398 49.2717 46.9457 49.0563 46.0514C48.9584 45.6532 48.6059 45.3986 48.2011 45.3855C47.7572 45.366 47.3656 45.614 47.0979 45.9535C46.778 46.3647 46.641 46.8674 46.4125 47.3243C46.184 47.7682 45.7009 48.3035 45.1526 48.0359C44.9306 47.9249 44.7348 48.2448 44.9568 48.3688C45.3223 48.5712 45.7662 48.5124 46.1187 48.284C46.5039 48.0359 46.7258 47.6246 46.9021 47.2199C47.0783 46.8152 47.2285 46.3582 47.5549 46.0449C47.8225 45.7903 48.397 45.6206 48.6255 46.0188C48.8278 46.3713 48.5863 46.8021 48.2273 46.9196C47.7964 47.0567 47.359 46.8478 47.0849 46.5149C46.765 46.1363 46.641 45.6271 46.5757 45.144C46.5104 44.6871 46.5235 44.1648 46.2036 43.7993C45.8968 43.4467 45.4072 43.4467 45.0677 43.747C44.7022 44.0734 44.6238 44.6414 44.7283 45.0983C44.7348 45.1962 44.8784 45.1897 44.9045 45.0983Z" fill="#363E49"/>
</svg>
