<svg width="40" height="40" viewBox="0 0 40 40" fill="none" xmlns="http://www.w3.org/2000/svg">
<path d="M20 37.5694C29.7033 37.5694 37.5694 29.7033 37.5694 20C37.5694 10.2967 29.7033 2.43054 20 2.43054C10.2967 2.43054 2.43054 10.2967 2.43054 20C2.43054 29.7033 10.2967 37.5694 20 37.5694Z" fill="#1877F2"/>
<path d="M26.8391 25.0783L27.6182 20H22.7454V16.7046C22.7454 15.3151 23.426 13.9607 25.6085 13.9607H27.8237V9.63708C26.5231 9.4266 25.2087 9.3117 23.8912 9.29333C19.8778 9.29333 17.2546 11.7256 17.2546 16.1294V20H12.7935V25.0783H17.2546V37.3556C19.0737 37.6407 20.9262 37.6407 22.7454 37.3556V25.0783H26.8391Z" fill="white"/>
</svg>
