<svg width="16" height="16" viewBox="0 0 16 16" fill="none" xmlns="http://www.w3.org/2000/svg">
    <path d="M9.89737 6.31749C10.0045 4.22597 9.20804 2.614 7.48903 1.42175L7.48895 1.42169C7.38234 1.34772 7.28169 1.29273 7.15927 1.22584C7.15109 1.22137 7.14281 1.21685 7.13443 1.21226C7.12957 1.239 7.12493 1.27061 7.12006 1.30938L7.12005 1.3095C6.91394 2.94956 6.10207 4.24003 4.76786 5.18482L4.76784 5.18484C3.81449 5.85986 3.15465 6.74958 2.77706 7.85831L9.89737 6.31749ZM9.89737 6.31749C9.89515 6.36008 9.89253 6.4006 9.88912 6.45329C9.88703 6.48549 9.88465 6.52222 9.88189 6.56675L9.7963 7.94694L10.7448 6.94065C11.0971 6.56682 11.3571 6.18715 11.5763 5.79101C12.8817 7.1548 13.3729 8.75037 13.0051 10.5932C12.4347 13.4505 9.67066 15.2837 6.80793 14.737L9.89737 6.31749ZM2.5 9.76946C2.51479 9.86929 2.52761 9.96337 2.53995 10.054C2.56757 10.2567 2.59282 10.442 2.63249 10.6355L2.63251 10.6356C3.05596 12.7031 4.72127 14.3383 6.80788 14.737L2.5 9.76946ZM2.5 9.76946V9.76861V9.76749V9.76638V9.76526V9.76414V9.76302V9.7619V9.76078V9.75966V9.75854V9.75742V9.75631V9.75519V9.75407V9.75295V9.75183V9.75071V9.74959V9.74847V9.74735V9.74624V9.74512V9.744V9.74288V9.74176V9.74064V9.73952V9.7384V9.73728V9.73617V9.73505V9.73393V9.73281V9.73169V9.73057V9.72945V9.72833V9.72721V9.7261V9.72498V9.72386V9.72274V9.72162V9.7205V9.71938V9.71826V9.71714V9.71602V9.7149V9.71379V9.71267V9.71155V9.71043V9.70931V9.70819V9.70707V9.70595V9.70483V9.70371V9.70259V9.70148V9.70036V9.69924V9.69812V9.697V9.69588V9.69476V9.69364V9.69252V9.6914V9.69028V9.68917V9.68805V9.68693V9.68581V9.68469V9.68357V9.68245V9.68133V9.68021V9.67909V9.67797V9.67686V9.67574V9.67462V9.6735V9.67238V9.67126V9.67014V9.66902V9.6679V9.66678V9.66566V9.66454V9.66342V9.6623V9.66119V9.66007V9.65895V9.65783V9.65671V9.65559V9.65447V9.65335V9.65223V9.65111V9.64999V9.64887V9.64775V9.64664V9.64552V9.6444V9.64328V9.64216V9.64104V9.63992V9.6388V9.63768V9.63656V9.63544V9.63432V9.6332V9.63208V9.63097V9.62985V9.62873V9.62761V9.62649V9.62537V9.62425V9.62313V9.62201V9.62089V9.61977V9.61865V9.61753V9.61641V9.6153V9.61418V9.61306V9.61194V9.61082V9.6097V9.60858V9.60746V9.60634V9.60522V9.6041V9.60298V9.60186V9.60074V9.59962V9.59851V9.59739V9.59627V9.59515V9.59403V9.59291V9.59179V9.59067V9.58955V9.58843V9.58731V9.58619V9.58507V9.58395V9.58283V9.58171V9.5806V9.57948V9.57836V9.57724V9.57612V9.575V9.57388V9.57276V9.57164V9.57052V9.5694V9.56828V9.56716V9.56604V9.56492V9.5638V9.56268V9.56156V9.56044V9.55933V9.55821V9.55709V9.55597V9.55485V9.55373V9.55261V9.55149V9.55037V9.54925V9.54813V9.54701V9.54589V9.54477V9.54365V9.54253V9.54142V9.5403V9.53918V9.53806V9.53694V9.53582V9.5347V9.53358V9.53246V9.53134V9.53022V9.5291V9.52798V9.52686V9.52574V9.52462V9.5235V9.52238V9.52127V9.52015V9.51903V9.51791V9.51679V9.51567V9.51455V9.51343V9.51231V9.51119V9.51007V9.50895V9.50783V9.50671V9.50559V9.50447V9.50335V9.50224V9.50112V9.5V9.49888V9.49776V9.49664V9.49552V9.4944V9.49328V9.49216V9.49104V9.48992V9.4888V9.48768V9.48656V9.48544V9.48432V9.4832V9.48209V9.48097V9.47985V9.47873V9.47761V9.47649V9.47537V9.47425V9.47313V9.47201V9.47089V9.46977V9.46865V9.46753V9.46641V9.46529V9.46418V9.46306V9.46194V9.46082V9.4597V9.45858V9.45746V9.45634V9.45522V9.4541V9.45298V9.45186V9.45074V9.44962V9.4485V9.44738V9.44626V9.44515V9.44403V9.44291V9.44179V9.44067V9.43955V9.43843V9.43731V9.43619V9.43507V9.43395V9.43283V9.43171V9.43059V9.42947V9.42836V9.42724V9.42612V9.425V9.42388V9.42276V9.42164V9.42052V9.4194V9.41828V9.41716V9.41604V9.41492V9.4138V9.41268V9.41156V9.41045V9.40933V9.40821V9.40709V9.40597V9.40485V9.40373V9.40261V9.40149V9.40037V9.39925V9.39813V9.39701V9.3959V9.39478V9.39366V9.39254V9.39142V9.3903V9.38918V9.38806V9.38694V9.38582V9.3847V9.38358V9.38246V9.38134V9.38023V9.37911V9.37799V9.37687V9.37575V9.37463V9.37351V9.37239V9.37127V9.37015V9.36903V9.36791V9.36679V9.36568V9.36456V9.36344V9.36232V9.3612V9.36008V9.35896V9.35784V9.35672V9.3556V9.35448V9.35336V9.35225V9.35113V9.35001V9.34889V9.34777V9.34665V9.34553V9.34441V9.34329V9.34217V9.34105V9.33994V9.33882V9.3377V9.33658V9.33546V9.33434V9.33322V9.3321V9.33098V9.32986V9.32874V9.32763V9.32651V9.32539V9.32427V9.32315V9.32203V9.32091V9.31979V9.31867V9.31755V9.31643V9.31532V9.3142V9.31308V9.31196V9.31084V9.30972V9.3086V9.30748V9.30636V9.30525V9.30413V9.30301V9.30189V9.30077V9.29965V9.29853V9.29741V9.29629V9.29517V9.29406V9.29294V9.29182V9.2907V9.28958V9.28846V9.28734V9.28622V9.2851V9.28399V9.28287V9.28175V9.28063V9.27951V9.27916C2.50146 9.27165 2.50332 9.26193 2.50588 9.24807C2.51166 9.21673 2.51983 9.16915 2.52352 9.11481C2.55294 8.68549 2.63802 8.26682 2.77703 7.85839L2.5 9.76946Z" fill="#7B47E1" stroke="#7B47E1"/>
</svg>
