<svg width="24" height="24" viewBox="0 0 24 24" fill="none" xmlns="http://www.w3.org/2000/svg">
<path fill-rule="evenodd" clip-rule="evenodd" d="M17.3037 3.103C16.829 2.35774 15.8399 2.13847 15.0946 2.61326C14.6565 2.89241 13.9447 3.62046 13.4327 4.43703C13.1812 4.83811 13.0121 5.20746 12.9391 5.50245C12.9034 5.64712 12.8966 5.75071 12.9014 5.81776C12.9037 5.84988 12.9084 5.87031 12.9119 5.88164C12.9151 5.89227 12.9177 5.89634 12.9181 5.89694L12.9181 5.89696L12.9181 5.89698C12.9185 5.89756 12.9211 5.90163 12.9294 5.9091C12.9382 5.91705 12.9547 5.92995 12.9828 5.94562C13.0416 5.97831 13.1383 6.01593 13.2845 6.04464C13.5827 6.10318 13.9889 6.10605 14.4587 6.04761C15.4152 5.92862 16.3758 5.59126 16.814 5.31211C17.5593 4.83732 17.7785 3.84827 17.3037 3.103ZM14.1275 1.09515C15.7112 0.086228 17.8129 0.552171 18.8219 2.13586C19.8308 3.71956 19.3648 5.82129 17.7811 6.83021C17.6906 6.88791 17.5921 6.94463 17.4868 6.99999H22C22.5523 6.99999 23 7.4477 23 7.99999V9.89999C23 10.4523 22.5523 10.9 22 10.9H12.9V6.99999H11.1V10.9H2C1.44772 10.9 1 10.4523 1 9.89999V7.99999C1 7.4477 1.44772 6.99999 2 6.99999H6.51322C6.40794 6.94463 6.30941 6.88791 6.21884 6.83021C4.63515 5.82129 4.16921 3.71956 5.17813 2.13586C6.18706 0.552171 8.28879 0.0862281 9.87248 1.09515C10.5628 1.53496 11.3968 2.41762 12 3.33692C12.6032 2.41762 13.4371 1.53496 14.1275 1.09515ZM2 12.7V20C2 21.1046 2.89543 22 4 22H11.1V12.7H2ZM12.9 22H20C21.1046 22 22 21.1046 22 20V12.7H12.9V22ZM8.90534 2.61326C8.16008 2.13847 7.17103 2.35774 6.69624 3.103C6.22145 3.84827 6.44072 4.83732 7.18598 5.31211C7.62417 5.59126 8.5848 5.92862 9.54126 6.04761C10.0111 6.10605 10.4172 6.10318 10.7154 6.04464C10.8617 6.01593 10.9584 5.97831 11.0172 5.94562C11.0453 5.92995 11.0618 5.91705 11.0706 5.9091C11.0789 5.90161 11.0815 5.89755 11.0819 5.89697L11.0819 5.89696L11.0819 5.89695C11.0823 5.89635 11.0848 5.89229 11.0881 5.88164C11.0916 5.87031 11.0963 5.84988 11.0986 5.81776C11.1034 5.75071 11.0966 5.64712 11.0609 5.50245C10.9879 5.20746 10.8188 4.83811 10.5673 4.43703C10.0553 3.62046 9.34353 2.89241 8.90534 2.61326Z" fill="#C6C6D7"/>
</svg>
