<svg width="40" height="40" viewBox="0 0 40 40" fill="none" xmlns="http://www.w3.org/2000/svg">
<path d="M20.8301 8.82451C23.2594 8.82302 25.6108 9.68149 27.4677 11.2478L32.669 6.29464C30.6724 4.45358 28.2741 3.10323 25.6645 2.35077C23.0549 1.5983 20.3059 1.46443 17.6355 1.95978C14.9652 2.45513 12.4471 3.56606 10.281 5.20441C8.11488 6.84276 6.36048 8.96344 5.15698 11.3981L11.0208 15.9179C11.7046 13.8557 13.02 12.061 14.7805 10.7879C16.541 9.51481 18.6575 8.82792 20.8301 8.82451Z" fill="#D94F3D"/>
<path d="M10.491 19.1635C10.4925 18.0602 10.6713 16.9643 11.0207 15.9178L5.15688 11.3981C3.95744 13.811 3.33325 16.4689 3.33325 19.1635C3.33325 21.858 3.95744 24.516 5.15688 26.9288L11.0207 22.4091C10.6713 21.3626 10.4925 20.2668 10.491 19.1635Z" fill="#F2C042"/>
<path d="M37.6109 15.9823H20.9094V23.14H30.3736C29.8106 25.1639 28.5207 26.9089 26.7509 28.0407L32.5694 32.5262C36.2875 29.1891 38.4722 23.7628 37.6109 15.9823Z" fill="#5085ED"/>
<path d="M26.7488 28.0408C24.9506 29.07 22.9006 29.5763 20.8301 29.5026C18.6575 29.4992 16.541 28.8123 14.7805 27.5392C13.02 26.2662 11.7046 24.4714 11.0208 22.4093L5.15698 26.929C6.60535 29.8486 8.83961 32.3063 11.6085 34.0254C14.3773 35.7446 17.5709 36.6571 20.8301 36.6604C25.1187 36.7769 29.2989 35.304 32.5672 32.5248L26.7488 28.0408Z" fill="#57A75C"/>
</svg>
