<svg width="16" height="16" viewBox="0 0 16 16" fill="none" xmlns="http://www.w3.org/2000/svg">
<path d="M6.08987 13.8488V11.8103C6.08987 11.29 6.5148 10.8681 7.03898 10.8681H8.95509C9.20681 10.8681 9.44822 10.9674 9.62621 11.1441C9.8042 11.3208 9.9042 11.5604 9.9042 11.8103V13.8488C9.90261 14.0652 9.98806 14.2732 10.1416 14.4267C10.2951 14.5802 10.5041 14.6666 10.722 14.6666H12.0292C12.6398 14.6682 13.2259 14.4285 13.6581 14.0005C14.0904 13.5724 14.3334 12.9912 14.3334 12.3851V6.57782C14.3333 6.08823 14.1147 5.62381 13.7364 5.3097L9.28937 1.78383C8.51579 1.16563 7.40743 1.18559 6.65695 1.83124L2.31136 5.3097C1.91518 5.61455 1.67839 6.08034 1.66669 6.57782V12.3792C1.66669 13.6425 2.69827 14.6666 3.9708 14.6666H5.24821C5.70084 14.6666 6.06868 14.3041 6.07196 13.8547L6.08987 13.8488Z" fill="#C6C6D7"/>
</svg>
