<svg width="80" height="80" viewBox="0 0 80 80" fill="none" xmlns="http://www.w3.org/2000/svg">
<circle opacity="0.2" cx="40" cy="40" r="40" fill="#C6C6D7"/>
<path d="M44.4383 11.7471C44.469 11.7368 44.6837 12.4985 44.6633 12.5036C44.6377 12.5138 44.0243 12.0231 44.0294 12.0026C44.0345 11.9822 44.7706 12.0231 44.7859 12.0435C44.8013 12.0691 44.1521 12.4678 44.1367 12.4474C44.1214 12.432 44.4077 11.7573 44.4383 11.7471Z" fill="#BA96D6"/>
<path d="M44.7297 14.9317C44.7502 14.9164 45.1182 15.4838 45.1029 15.494C45.0875 15.5093 44.4588 15.264 44.4588 15.2435C44.4588 15.2231 45.0722 15.0748 45.0875 15.0902C45.108 15.1055 44.6786 15.5962 44.6581 15.586C44.6428 15.5707 44.7042 14.947 44.7297 14.9317Z" fill="#BA96D6"/>
<path d="M34.6083 21.6179C34.639 21.5924 35.2217 22.3438 35.1962 22.3592C35.1757 22.3796 34.2709 22.1138 34.2658 22.0882C34.2607 22.0627 35.099 21.7764 35.1246 21.7969C35.1502 21.8173 34.6134 22.5534 34.5827 22.5381C34.5623 22.5227 34.5776 21.6384 34.6083 21.6179Z" fill="#BA96D6"/>
<path d="M49.1105 20.7745C49.1463 20.7643 49.3968 21.7048 49.3712 21.7151C49.3406 21.7253 48.5994 21.1119 48.6045 21.0863C48.6096 21.0608 49.5144 21.1272 49.5348 21.1528C49.5553 21.1834 48.7476 21.664 48.7272 21.6384C48.7067 21.6128 49.0748 20.7898 49.1105 20.7745Z" fill="#BA96D6"/>
<path d="M48.0064 16.6442C48.0319 16.6135 48.7425 17.3087 48.722 17.3343C48.7016 17.3598 47.7252 17.2065 47.7201 17.1809C47.7099 17.1554 48.5431 16.7413 48.5738 16.7566C48.6045 16.772 48.1444 17.6154 48.1188 17.6001C48.0882 17.5899 47.9808 16.6748 48.0064 16.6442Z" fill="#BA96D6"/>
<path d="M27.6665 23.586C27.7227 23.5758 27.9016 24.9355 27.8607 24.9457C27.8198 24.956 26.8843 23.9643 26.8997 23.9285C26.915 23.8927 28.1674 24.1432 28.1879 24.1892C28.2083 24.2352 26.9968 24.7617 26.9712 24.7208C26.9508 24.685 27.6102 23.5911 27.6665 23.586Z" fill="#BA96D6"/>
<path d="M50.4192 9.29848C50.4652 9.29337 50.593 10.4435 50.5572 10.4538C50.5214 10.4589 49.7495 9.60519 49.7597 9.57452C49.77 9.54385 50.8281 9.7841 50.8434 9.81988C50.8588 9.85567 49.8211 10.2799 49.8058 10.2493C49.7955 10.2135 50.3732 9.30359 50.4192 9.29848Z" fill="#BA96D6"/>
<path d="M33.499 17.2115C33.5246 17.1809 34.2249 17.8812 34.2045 17.9068C34.184 17.9323 33.2179 17.7687 33.2077 17.7432C33.1974 17.7176 34.0307 17.3138 34.0613 17.3291C34.092 17.3445 33.6268 18.1777 33.5962 18.1675C33.5706 18.1572 33.4735 17.2422 33.499 17.2115Z" fill="#BA96D6"/>
<path d="M48.2313 8.00004C48.2569 7.98471 48.6351 8.5879 48.6147 8.60324C48.5942 8.61857 47.9399 8.34765 47.9399 8.3272C47.9399 8.30675 48.5891 8.15851 48.6096 8.17385C48.63 8.18918 48.1649 8.70036 48.1495 8.69014C48.124 8.6748 48.2057 8.01538 48.2313 8.00004Z" fill="#BA96D6"/>
<path d="M44.4435 12.6416C44.4383 12.6518 44.4128 12.6876 44.4435 12.6518C44.4179 12.6825 44.4026 12.7132 44.3923 12.7489C44.377 12.8103 44.377 12.8767 44.377 12.9432C44.377 13.1017 44.3872 13.2652 44.3923 13.4237C44.4077 13.7611 44.423 14.0985 44.4383 14.4358C44.4435 14.5432 44.4332 14.6608 44.4792 14.7579C44.469 14.7272 44.4639 14.6965 44.4537 14.6659C44.469 14.901 44.832 14.901 44.8217 14.6659C44.8268 14.717 44.8115 14.7272 44.8166 14.7017C44.8217 14.671 44.8217 14.6505 44.8217 14.6199C44.8217 14.5739 44.8166 14.533 44.8166 14.487C44.8064 14.3387 44.8013 14.1956 44.7911 14.0473C44.7706 13.6997 44.7553 13.347 44.7195 13.0045C44.7093 12.9279 44.7093 12.8409 44.6837 12.7694C44.6735 12.7336 44.6633 12.6978 44.6377 12.6723C44.6326 12.6671 44.6326 12.662 44.6275 12.6569C44.5968 12.6314 44.5917 12.6263 44.607 12.6416C44.607 12.6416 44.6224 12.6569 44.6121 12.6416C44.6121 12.6416 44.6275 12.662 44.6121 12.6416C44.5815 12.5802 44.4792 12.57 44.4435 12.6416Z" fill="#BA96D6"/>
<path d="M44.8984 11.8748C44.9291 11.8748 44.9086 11.8901 44.8728 11.8646C44.8984 11.885 44.9495 11.885 44.9751 11.8646C45.0518 11.8083 45.0978 11.793 45.1642 11.7419C45.2665 11.6652 45.3534 11.5732 45.4454 11.4812C45.6856 11.246 45.9208 11.0007 46.1559 10.7604C46.6569 10.2492 47.1527 9.73804 47.6486 9.22686C47.7304 9.13995 47.8121 9.05817 47.8939 8.97126C47.9144 8.94571 47.9399 8.92526 47.9604 8.8997C47.9808 8.87414 48.0473 8.80769 47.9808 8.87414C48.1444 8.70545 47.8837 8.44475 47.7201 8.61344C47.7712 8.56232 47.7304 8.60321 47.6997 8.62877C47.6792 8.64411 47.6639 8.66456 47.6435 8.685C47.577 8.75146 47.5105 8.82302 47.4441 8.88948C47.2294 9.10928 47.0198 9.32909 46.8051 9.5489C46.2888 10.0805 45.7725 10.6122 45.2716 11.154C45.1693 11.2614 45.0671 11.3687 44.9751 11.4863C44.8984 11.5834 44.8882 11.6294 44.8268 11.7214C44.8064 11.747 44.8064 11.7981 44.8268 11.8237C44.8013 11.7879 44.8166 11.7674 44.8166 11.8032C44.832 11.8441 44.8575 11.8748 44.8984 11.8748Z" fill="#BA96D6"/>
<path d="M34.4243 17.554C34.4447 17.5591 34.4703 17.5591 34.4907 17.5642C34.5112 17.5642 34.5214 17.5693 34.5674 17.5642C34.6083 17.5591 34.6441 17.5591 34.685 17.554C34.9508 17.5335 35.1655 17.4977 35.4313 17.4466C36.2083 17.2933 36.9802 17.1348 37.7521 16.9763C39.5003 16.6185 41.2486 16.2556 42.9917 15.8926C43.2831 15.8313 43.5744 15.77 43.8658 15.7086C43.9476 15.6933 44.0294 15.6779 44.1163 15.6575C44.1367 15.6524 44.1572 15.6473 44.1827 15.6422C44.239 15.6268 44.239 15.6268 44.2032 15.637C44.4332 15.591 44.3361 15.2332 44.1061 15.2843C44.1061 15.2843 44.193 15.269 44.0907 15.2894C44.0754 15.2946 44.055 15.2946 44.0396 15.2997C43.9732 15.3099 43.9067 15.3252 43.8454 15.3406C43.6051 15.3917 43.3649 15.4428 43.1246 15.4888C42.3476 15.6524 41.5706 15.8108 40.7987 15.9744C39.0556 16.3425 37.3125 16.7003 35.5744 17.0837C35.2882 17.145 34.9917 17.2013 34.7157 17.3035C34.5827 17.3495 34.4907 17.3751 34.3936 17.4364C34.3272 17.462 34.3629 17.5489 34.4243 17.554Z" fill="#BA96D6"/>
<path d="M48.3438 21.2601C48.3182 21.255 48.2875 21.2499 48.262 21.2448C48.2466 21.2397 48.2466 21.2397 48.2006 21.2346C48.1802 21.2346 48.1597 21.2346 48.1444 21.2346C48.0933 21.2346 48.0473 21.2346 47.9962 21.2294C47.6895 21.2192 47.3776 21.2243 47.0709 21.2397C46.0486 21.2908 45.0313 21.347 44.0089 21.4032C42.777 21.4748 41.5451 21.5413 40.3131 21.6128C39.2447 21.6742 38.1712 21.7355 37.1029 21.7969C36.5815 21.8275 36.0601 21.8377 35.5387 21.8889C35.4773 21.894 35.4875 21.8991 35.5233 21.8889H35.5182C35.2831 21.9042 35.2831 22.2723 35.5182 22.2569H35.5233C35.4773 22.2467 35.4875 22.2569 35.5438 22.2569C35.5642 22.2569 35.5898 22.2569 35.6102 22.2569C35.6971 22.2518 35.7789 22.2467 35.8658 22.2416C36.1776 22.2211 36.4895 22.2058 36.8013 22.1854C37.8236 22.124 38.8511 22.0678 39.8735 22.0064C41.1105 21.9298 42.3476 21.8582 43.5847 21.7815C44.653 21.7151 45.7163 21.6537 46.7847 21.5822C47.1374 21.5566 47.4952 21.5413 47.8479 21.4901C47.9757 21.4697 48.0575 21.4544 48.1751 21.439C48.1853 21.439 48.2364 21.4288 48.2058 21.4339C48.2313 21.4288 48.2518 21.4186 48.2722 21.4135C48.3131 21.4032 48.2211 21.4288 48.262 21.4186C48.2824 21.4135 48.3029 21.4084 48.3233 21.3981C48.3284 21.393 48.3387 21.393 48.3438 21.393C48.4051 21.3726 48.4153 21.2703 48.3438 21.2601Z" fill="#BA96D6"/>
<path d="M47.7201 16.9508C47.7201 16.9406 47.7252 16.9406 47.7201 16.9661C47.7355 16.9303 47.7201 16.8843 47.6895 16.8588C47.4288 16.6236 47.1067 16.4498 46.8051 16.276C46.4064 16.046 46.0077 15.8108 45.6089 15.5808C45.522 15.5297 45.43 15.4786 45.3431 15.4275C45.1438 15.315 44.9649 15.6217 45.1642 15.7342C45.8236 16.1124 46.478 16.5112 47.1578 16.8537C47.2959 16.9252 47.4339 16.9917 47.5821 17.0428C47.6179 17.053 47.6639 17.0428 47.6895 17.0121C47.6537 17.0581 47.715 16.9661 47.7201 16.9508Z" fill="#BA96D6"/>
<path d="M34.1022 22.2364C34.0869 22.2364 34.0767 22.2313 34.0613 22.2313C34.0869 22.2313 34.0204 22.2313 33.9949 22.2364C33.9693 22.2415 33.9489 22.2467 33.9233 22.2518C33.7853 22.2824 33.6524 22.3233 33.5144 22.3591C33.0594 22.4818 32.6147 22.6198 32.1649 22.7578C31.1425 23.0697 30.1201 23.4019 29.0978 23.7291C28.8626 23.8058 28.6275 23.8773 28.3974 23.954C28.1776 24.0256 28.2748 24.3681 28.4946 24.2965C29.1387 24.092 29.7827 23.8876 30.4217 23.678C31.439 23.3508 32.4562 23.0339 33.4684 22.6761C33.6319 22.6198 33.8006 22.5585 33.9642 22.492C34.0358 22.4614 34.092 22.4409 34.1278 22.4102C34.1482 22.3949 34.1329 22.4051 34.1636 22.3745C34.2249 22.3284 34.1687 22.2467 34.1022 22.2364Z" fill="#BA96D6"/>
<path d="M28.3003 23.6575C28.3157 23.6524 28.331 23.6422 28.3463 23.6371C28.331 23.6473 28.3668 23.6269 28.3872 23.6115C28.3974 23.6064 28.4026 23.5962 28.4077 23.5911C28.4281 23.5706 28.4537 23.5553 28.4741 23.5348C28.607 23.4173 28.7246 23.2844 28.8524 23.1617C29.2665 22.7425 29.6703 22.3182 30.069 21.8888C30.9789 20.9227 31.8786 19.9463 32.7783 18.97C32.9879 18.7451 33.1923 18.5202 33.4019 18.2952C33.5553 18.1265 33.3048 17.8761 33.1514 18.0448C32.584 18.6582 32.0115 19.2767 31.4441 19.8901C30.5444 20.8665 29.6447 21.8326 28.7655 22.8243C28.6224 22.9879 28.4741 23.1515 28.3361 23.3202C28.3105 23.3508 28.285 23.3866 28.2594 23.4173C28.2236 23.4633 28.2236 23.4582 28.2032 23.4888C28.2083 23.4786 28.193 23.5144 28.1827 23.54C28.1521 23.6166 28.2185 23.7035 28.3003 23.6575Z" fill="#BA96D6"/>
<path d="M49.0748 20.5394C49.0901 20.524 49.0492 20.5751 49.0748 20.5394C49.1054 20.4985 49.1157 20.4729 49.1157 20.4218C49.1157 20.3502 49.1003 20.2787 49.0901 20.2122C49.0543 19.9975 49.0032 19.7828 48.9572 19.5732C48.8447 19.0774 48.7118 18.5815 48.584 18.0857C48.5534 17.9681 48.5227 17.8505 48.492 17.733C48.4358 17.5132 48.0933 17.6052 48.1495 17.8301C48.2313 18.1573 48.3182 18.4793 48.4 18.8065C48.5278 19.2972 48.6403 19.7981 48.8141 20.2735C48.8396 20.3451 48.8601 20.432 48.9061 20.4985C48.9163 20.5138 48.9214 20.524 48.9316 20.5394C48.947 20.5547 48.9623 20.5598 48.9776 20.57C49.0134 20.5905 49.0083 20.57 48.9879 20.57C49.0236 20.5649 49.0441 20.57 49.0748 20.5394Z" fill="#BA96D6"/>
<path d="M48.6965 8.72589C48.6709 8.66455 48.7067 8.75145 48.7067 8.75145C48.7169 8.7719 48.7323 8.78723 48.7476 8.80768C48.7732 8.83324 48.7936 8.8588 48.8192 8.88436C48.8907 8.95592 48.9725 9.02238 49.0543 9.08883C49.2332 9.22685 49.4121 9.36998 49.5962 9.508C49.6371 9.53867 49.6728 9.56934 49.7137 9.60001C49.7904 9.65624 49.9182 9.61535 49.9591 9.53356C50.0102 9.44155 49.9744 9.34953 49.8927 9.28819C49.7853 9.2064 49.6831 9.12973 49.5757 9.04794C49.3968 8.91503 49.223 8.7719 49.0339 8.66455C48.9981 8.6441 48.9572 8.62366 48.9214 8.60321C48.901 8.59298 48.8754 8.57765 48.8498 8.57254C48.8396 8.56742 48.7629 8.56231 48.8192 8.56743C48.722 8.55209 48.6556 8.63388 48.6965 8.72589Z" fill="#BA96D6"/>
<path d="M61.8748 44.3144C57.1259 44.8154 57.2792 39.9489 57.2792 39.9489C57.2792 39.9489 59.83 38.2927 58.092 34.2544C56.354 30.216 50.2709 28.3655 50.2709 28.3655C48.5891 25.7176 45.7316 26.147 45.7316 26.147C46.0026 24.2556 44.8064 23.8109 44.8064 23.8109C45.2051 25.0326 41.1412 25.6563 39.9399 27.287C38.7387 25.6563 34.6748 25.0326 35.0735 23.8109C35.0735 23.8109 33.8773 24.2556 34.1482 26.147C34.1482 26.147 31.2907 25.7227 29.6089 28.3655C29.6089 28.3655 23.5259 30.2211 21.7879 34.2544C20.0447 38.2927 22.5955 39.9489 22.5955 39.9489C22.5955 39.9489 22.7489 44.8205 18 44.3144C18 44.3144 18.5623 45.8378 19.6613 46.0729C19.6613 46.0729 19.6051 49.3445 23.3674 48.593C23.3674 48.593 22.2684 54.8499 27.2217 57.0224C27.2217 57.0224 28.7297 59.5988 31.6843 59.8595C31.6843 59.8595 34.1636 61.4799 33.954 62.901C33.954 63.6831 32.6403 63.5962 32.6403 63.5962C32.6403 63.5962 32.8703 64.8128 34.8128 64.3221C34.8128 64.3221 35.0428 66.6684 36.6377 67.2461C38.2326 67.8237 37.8134 69.6486 37.1182 70.1138C37.1182 70.1138 37.8032 70.1751 38.5751 69.894C38.7796 70.4461 39.1783 71.2282 39.9144 72C39.9246 71.9898 39.9348 71.9796 39.945 71.9694C39.9553 71.9796 39.9655 71.9898 39.9757 72C40.7118 71.2333 41.1054 70.4461 41.315 69.894C42.0869 70.1751 42.7719 70.1138 42.7719 70.1138C42.0767 69.6486 41.6575 67.8237 43.2524 67.2461C44.8473 66.6684 45.0773 64.3221 45.0773 64.3221C47.0198 64.8128 47.2498 63.5962 47.2498 63.5962C47.2498 63.5962 45.9361 63.6831 45.9361 62.901C45.7214 61.4799 48.2058 59.8595 48.2058 59.8595C51.1604 59.5988 52.6684 57.0224 52.6684 57.0224C57.6217 54.8499 56.5227 48.593 56.5227 48.593C60.2901 49.3445 60.2288 46.0729 60.2288 46.0729C61.3176 45.8429 61.8748 44.3144 61.8748 44.3144Z" fill="#363E49"/>
<path d="M35.8249 52.7898C35.6511 53.8991 36.0089 55.0083 36.4639 56.0103C36.9342 57.0531 37.5476 58.0294 37.8901 59.1234C38.2428 60.2275 38.2837 61.393 37.7163 62.4307C37.2102 63.3559 36.4281 64.1176 36.055 65.1195C35.8914 65.554 35.784 66.0857 35.876 66.5508C35.9527 66.9496 36.2543 67.1847 36.6121 67.3329C36.7093 67.3738 36.7706 67.2154 36.6837 67.1643C36.377 67.0007 36.1214 66.786 36.0805 66.4179C36.0345 65.9783 36.1367 65.5029 36.3003 65.0991C36.699 64.1227 37.4863 63.3764 37.9617 62.446C38.4524 61.5004 38.4677 60.4422 38.207 59.425C37.9361 58.3617 37.384 57.4007 36.8984 56.4294C36.331 55.2895 35.8658 54.1035 35.9681 52.8051C35.9783 52.7285 35.8403 52.708 35.8249 52.7898Z" fill="#BA96D6"/>
<path d="M34.8946 47.4837C34.4089 47.7802 34.0051 48.276 33.6677 48.731C33.3099 49.2115 33.0134 49.738 32.7885 50.2952C32.3182 51.4454 32.1495 52.708 32.308 53.9399C32.4716 55.1821 32.9419 56.3885 33.6984 57.3955C34.092 57.922 34.5776 58.377 34.961 58.9137C35.3495 59.4607 35.5898 60.0997 35.6665 60.7693C35.7073 61.1374 35.7073 61.5157 35.6511 61.8837C35.6 62.2109 35.508 62.5329 35.4262 62.8498C35.3649 63.0748 35.3035 63.2997 35.2013 63.5144C35.0735 63.7853 34.9048 64.0358 34.7412 64.2863C34.6748 64.3834 34.8281 64.4703 34.8997 64.3783C35.1808 64.0051 35.416 63.6064 35.554 63.1566C35.7176 62.6147 35.8709 62.0473 35.9067 61.4799C35.9476 60.846 35.8403 60.2019 35.6 59.6141C35.3597 59.0262 34.9712 58.5457 34.5572 58.0754C34.1227 57.5847 33.7137 57.0888 33.3917 56.5163C33.0748 55.954 32.8396 55.3508 32.6863 54.7272C32.3847 53.5003 32.4102 52.2121 32.7732 51.0058C32.9725 50.3514 33.2588 49.7278 33.6319 49.1553C33.8211 48.8639 34.0256 48.5879 34.2556 48.3272C34.4805 48.0665 34.7412 47.8364 34.9661 47.5757C34.9815 47.5195 34.9406 47.453 34.8946 47.4837Z" fill="#BA96D6"/>
<path d="M33.4121 45.94C32.5278 46.5994 31.7917 47.4735 31.1987 48.4039C30.6006 49.3393 30.1457 50.3719 29.8594 51.4403C29.5732 52.5035 29.4863 53.6026 29.4811 54.7016C29.476 55.5809 29.5476 56.4754 29.8543 57.3087C30.2121 58.2952 30.8665 59.2 31.6179 59.9259C31.7099 60.0128 31.8377 59.8799 31.7559 59.7879C31.1374 59.0773 30.5291 58.3821 30.1508 57.508C29.8134 56.7259 29.701 55.8774 29.6856 55.0339C29.6652 53.9809 29.7265 52.9125 29.9617 51.885C30.2019 50.8269 30.6058 49.8045 31.1527 48.869C31.7815 47.7956 32.5942 46.8908 33.5093 46.0575C33.5655 46.0064 33.4837 45.8889 33.4121 45.94Z" fill="#BA96D6"/>
<path d="M32.8652 41.825C31.715 41.8556 30.4371 42.0959 29.5629 42.8984C28.5917 43.7879 28.4128 45.163 28.2083 46.3898C28.0907 47.1055 27.9374 47.816 27.6051 48.4703C27.2882 49.0888 26.8741 49.6512 26.593 50.285C26.0562 51.5067 25.9949 52.8767 26.2147 54.1802C26.3169 54.7936 26.4601 55.4122 26.6441 56.0051C26.7565 56.363 26.915 56.6901 27.0837 57.0224C27.145 57.14 27.3035 57.0377 27.2524 56.9202C27.1297 56.6339 26.9917 56.3527 26.8895 56.0563C26.7361 55.6013 26.639 55.131 26.5316 54.6607C26.2403 53.3879 26.1994 52.023 26.6288 50.7758C26.8486 50.1368 27.2217 49.5745 27.5591 48.9917C27.9016 48.4039 28.1419 47.7956 28.2901 47.131C28.5559 45.894 28.5815 44.5189 29.3482 43.4556C30.1661 42.331 31.6077 42.1368 32.8805 41.9579C32.9623 41.9527 32.9419 41.825 32.8652 41.825Z" fill="#BA96D6"/>
<path d="M31.7917 36.2531C30.8358 35.563 29.4403 35.5681 28.3463 35.8901C27.1604 36.2429 26.1738 37.0148 25.4633 38.0167C24.7323 39.0441 24.308 40.2659 24.1291 41.5029C24.0319 42.1675 23.9911 42.8422 23.7968 43.4863C23.6026 44.1253 23.2294 44.6723 22.6927 45.0761C22.1201 45.5055 21.4607 45.7253 20.7706 45.8735C20.5508 45.9247 20.3208 45.9758 20.0958 45.986C19.9527 45.9911 19.8045 45.9758 19.6613 45.9758C19.5233 45.9707 19.5335 46.17 19.6613 46.1854C19.9629 46.216 20.2339 46.216 20.5355 46.1598C21.1284 46.0473 21.7112 45.8991 22.2479 45.6231C22.7744 45.3521 23.2498 44.9687 23.5872 44.478C23.9553 43.9362 24.1137 43.2921 24.2058 42.6531C24.3029 42.0039 24.354 41.3496 24.5073 40.7106C24.6556 40.0972 24.8703 39.4991 25.1617 38.9419C25.7342 37.8429 26.6134 36.887 27.7482 36.3553C28.3821 36.0588 29.0824 35.8953 29.7827 35.8953C30.4831 35.8901 31.122 36.0793 31.7661 36.3451C31.807 36.3553 31.8326 36.2786 31.7917 36.2531Z" fill="#BA96D6"/>
<path d="M35.8045 35.4863C34.5061 35.4249 33.7495 34.2543 32.9674 33.3751C32.5738 32.9304 32.1291 32.5368 31.577 32.3016C31.0454 32.0716 30.4524 31.9898 29.8748 32.0205C28.6173 32.0869 27.4722 32.6901 26.4652 33.4058C25.4888 34.101 24.492 34.8729 23.8019 35.8697C23.3827 36.478 23.1578 37.1527 23.0096 37.8735C22.9329 38.2416 22.8665 38.6096 22.7642 38.9674C22.6773 39.2741 22.616 39.6115 22.4831 39.9029C22.4217 40.0307 22.616 40.1432 22.6722 40.0154C22.7796 39.7802 22.8307 39.5246 22.9022 39.2793C22.9942 38.9674 23.076 38.6556 23.1374 38.3336C23.2703 37.6793 23.393 37.0249 23.7099 36.432C24.2875 35.3636 25.2741 34.5713 26.23 33.8505C27.2166 33.1042 28.3259 32.4192 29.5783 32.2607C30.1712 32.1892 30.7847 32.2301 31.347 32.4294C31.9297 32.639 32.3949 33.0377 32.8089 33.4927C33.6064 34.3719 34.4498 35.6652 35.7943 35.6141C35.8863 35.609 35.8863 35.4914 35.8045 35.4863Z" fill="#BA96D6"/>
<path d="M39.7559 35.0722C39.3265 35.1489 38.9073 35.1949 38.4728 35.1284C38.069 35.0671 37.6805 34.924 37.3176 34.7348C36.5712 34.3361 35.9732 33.7176 35.462 33.0479C34.4447 31.7137 33.7086 30.1291 32.3284 29.1169C31.5719 28.5597 30.6773 28.2121 29.747 28.0843C29.5834 28.0639 29.5527 28.2837 29.7163 28.3093C30.5802 28.4268 31.4134 28.7438 32.1291 29.2447C32.855 29.7508 33.4173 30.446 33.9182 31.1617C34.869 32.5214 35.7176 34.147 37.2665 34.924C38.0026 35.292 39.0045 35.5323 39.7815 35.1489C39.8275 35.1233 39.7968 35.0671 39.7559 35.0722Z" fill="#BA96D6"/>
<path d="M40.2671 34.694C39.6383 34.4742 39.2192 34.0294 38.8869 33.4671C38.5393 32.8793 38.2888 32.2301 38.0179 31.6064C37.4249 30.2416 36.8166 28.8665 35.8914 27.6857C35.3904 27.0467 34.8026 26.4844 34.1227 26.0397C34.0051 25.963 33.8927 26.1521 34.0102 26.2339C35.2882 27.0518 36.193 28.2889 36.8933 29.6128C37.2511 30.2927 37.5629 30.993 37.8696 31.6933C38.1508 32.3323 38.4064 32.9917 38.7744 33.5898C39.1016 34.1266 39.5872 34.694 40.2415 34.8064C40.308 34.8166 40.3387 34.7195 40.2671 34.694Z" fill="#BA96D6"/>
<path d="M43.9067 52.8103C44.0958 55.1362 42.4601 56.9406 41.7853 59.0416C41.4633 60.0384 41.361 61.1425 41.77 62.1291C42.1687 63.085 42.9252 63.8263 43.4058 64.7362C43.6562 65.2116 43.8147 65.7381 43.8096 66.285C43.8045 66.7195 43.5693 66.9751 43.1962 67.1745C43.1093 67.2205 43.1706 67.379 43.2677 67.3432C43.5847 67.2103 43.8607 67.0211 43.9732 66.6838C44.0907 66.3208 44.0294 65.8812 43.9425 65.5183C43.7022 64.4703 42.9304 63.678 42.3681 62.7937C42.0665 62.3234 41.8364 61.8173 41.7546 61.2601C41.6728 60.6927 41.7342 60.1048 41.8671 59.5477C42.1431 58.4333 42.731 57.4365 43.2268 56.4141C43.7636 55.2997 44.2492 54.0525 44.0498 52.7949C44.0396 52.708 43.8965 52.7285 43.9067 52.8103Z" fill="#BA96D6"/>
<path d="M44.9291 47.5553C45.1284 47.7853 45.3534 47.9847 45.5578 48.2147C45.7674 48.4447 45.9617 48.6952 46.1355 48.9508C46.4831 49.4569 46.7693 50.009 46.984 50.5815C47.4134 51.7521 47.531 53.0198 47.3112 54.2467C47.0812 55.5246 46.5086 56.7106 45.6601 57.6971C45.2511 58.1725 44.7962 58.6326 44.4895 59.1847C44.1828 59.7419 44.0089 60.3706 43.9783 61.0045C43.9476 61.6844 44.1112 62.3336 44.2901 62.9879C44.4281 63.4991 44.6684 63.9438 44.9853 64.3681C45.0518 64.4601 45.2051 64.3783 45.1438 64.2761C44.8831 63.8773 44.6377 63.4888 44.5048 63.0237C44.3412 62.446 44.1828 61.8531 44.1828 61.2499C44.1828 60.57 44.3463 59.8901 44.6735 59.292C44.9955 58.7093 45.4709 58.2441 45.8952 57.7431C47.5208 55.816 48.0626 53.1067 47.2447 50.7144C47.03 50.0856 46.7284 49.4824 46.3502 48.9304C46.1661 48.6594 45.9617 48.4038 45.7419 48.1585C45.5118 47.908 45.2716 47.6524 44.9802 47.4786C44.9342 47.4531 44.8933 47.5195 44.9291 47.5553Z" fill="#BA96D6"/>
<path d="M46.3706 46.0626C47.1783 46.7987 47.9144 47.586 48.5022 48.5061C49.0901 49.4262 49.5399 50.4384 49.8211 51.4965C50.0971 52.5393 50.184 53.6077 50.1942 54.6812C50.1994 55.5348 50.1329 56.3936 49.8466 57.2064C49.6882 57.6511 49.4684 58.0652 49.2077 58.4588C48.8856 58.9393 48.5022 59.3585 48.124 59.793C48.0422 59.8901 48.17 60.023 48.262 59.931C48.9419 59.2716 49.545 58.4537 49.9182 57.5796C50.2556 56.7872 50.3783 55.9336 50.3936 55.0799C50.4192 54.0064 50.3527 52.9074 50.1176 51.8595C49.8722 50.7655 49.453 49.7125 48.8856 48.7464C48.262 47.6831 47.4543 46.6761 46.4626 45.94C46.3962 45.8888 46.3093 46.0013 46.3706 46.0626Z" fill="#BA96D6"/>
<path d="M46.9943 41.963C48.1291 42.1266 49.3764 42.2748 50.23 43.1182C51.1553 44.0281 51.278 45.4135 51.4875 46.6198C51.6051 47.2895 51.7636 47.9438 52.0703 48.5521C52.3719 49.1451 52.7655 49.6869 53.0466 50.2952C53.6141 51.5067 53.6652 52.9023 53.4351 54.2058C53.3329 54.7885 53.1949 55.3815 53.016 55.9489C52.9137 56.2863 52.7604 56.6032 52.6173 56.9253C52.5661 57.0377 52.7297 57.14 52.7859 57.0275C52.9342 56.7361 53.0824 56.4499 53.1847 56.1381C53.3431 55.6627 53.4505 55.1668 53.5578 54.6761C53.8441 53.3828 53.885 51.9924 53.4454 50.7297C53.2204 50.0805 52.8524 49.508 52.5048 48.9202C52.1316 48.2863 51.8914 47.6371 51.7482 46.9163C51.4978 45.6639 51.4364 44.2786 50.6083 43.2358C49.7649 42.1726 48.2927 41.8658 46.9994 41.8352C46.9329 41.825 46.9125 41.9527 46.9943 41.963Z" fill="#BA96D6"/>
<path d="M48.1188 36.3349C48.6914 36.0998 49.2588 35.9157 49.8824 35.8902C50.4958 35.8646 51.1042 35.9617 51.6818 36.1662C52.878 36.5854 53.8492 37.4646 54.4984 38.5432C54.8256 39.08 55.076 39.6627 55.255 40.2659C55.4441 40.8947 55.531 41.5336 55.6128 42.1828C55.6895 42.8269 55.7866 43.4812 56.0677 44.0742C56.3233 44.611 56.7425 45.0557 57.2332 45.3828C57.8211 45.7764 58.4805 45.9758 59.1655 46.1189C59.37 46.1598 59.5847 46.2058 59.7943 46.211C59.9374 46.2161 60.0754 46.1956 60.2185 46.1803C60.3463 46.1649 60.3565 45.9707 60.2185 45.9707C59.9067 45.9809 59.6204 45.9758 59.3086 45.9145C58.6952 45.7918 58.0971 45.6333 57.5502 45.3164C57.0083 44.9994 56.5482 44.5547 56.2671 43.9822C55.9604 43.3534 55.8888 42.6429 55.8019 41.963C55.6486 40.7004 55.3265 39.4838 54.6569 38.3899C54.0179 37.3419 53.0927 36.4883 51.9425 36.0333C51.3189 35.7879 50.6441 35.6653 49.9744 35.6908C49.3201 35.7113 48.6198 35.8646 48.078 36.2531C48.0473 36.2787 48.0677 36.3554 48.1188 36.3349Z" fill="#BA96D6"/>
<path d="M44.0703 35.6141C45.2511 35.655 46.0895 34.6224 46.7796 33.8097C47.1629 33.3598 47.5719 32.91 48.0933 32.6237C48.6249 32.3324 49.2383 32.2148 49.8415 32.2301C51.1042 32.2608 52.2441 32.8589 53.2511 33.5745C54.2377 34.2697 55.2652 35.057 55.9399 36.0742C56.3438 36.6876 56.5329 37.3675 56.676 38.078C56.7476 38.4461 56.8243 38.8141 56.9316 39.172C57.0185 39.4531 57.0697 39.7445 57.1923 40.0154C57.2537 40.1432 57.4428 40.0308 57.3815 39.903C57.269 39.6525 57.223 39.3764 57.1412 39.1106C57.039 38.7784 56.9674 38.441 56.901 38.0985C56.7732 37.4544 56.6249 36.8205 56.3029 36.2429C55.7099 35.1899 54.7336 34.4026 53.7879 33.687C52.7911 32.9304 51.6767 32.2403 50.4192 32.0614C49.8415 31.9796 49.2486 31.995 48.6863 32.1585C48.1189 32.3221 47.6332 32.6339 47.2141 33.048C46.2837 33.963 45.5425 35.4148 44.0703 35.4812C43.9885 35.4915 43.9885 35.609 44.0703 35.6141Z" fill="#BA96D6"/>
<path d="M40.0882 35.1439C40.7834 35.4915 41.678 35.3228 42.3629 35.0314C43.1297 34.7042 43.7585 34.1419 44.2901 33.5081C45.4045 32.179 46.1201 30.5074 47.5003 29.4135C48.262 28.8103 49.1923 28.432 50.1482 28.3042C50.3118 28.2838 50.2812 28.0589 50.1176 28.0793C49.2946 28.1918 48.4971 28.4832 47.8019 28.933C47.1067 29.3828 46.5495 29.986 46.0588 30.6455C45.0569 31.995 44.2901 33.6512 42.823 34.5764C42.4294 34.8218 42 35.0058 41.5502 35.103C41.0645 35.2052 40.5994 35.1592 40.1189 35.0774C40.0831 35.0672 40.0473 35.1234 40.0882 35.1439Z" fill="#BA96D6"/>
<path d="M39.6383 34.8064C40.2109 34.7093 40.6607 34.2493 40.9776 33.7892C41.361 33.2269 41.6217 32.5828 41.8927 31.9592C42.5061 30.5636 43.1093 29.1221 44.055 27.9106C44.5661 27.2614 45.1642 26.6786 45.8645 26.2288C45.9821 26.1521 45.8748 25.9579 45.7521 26.0346C44.5355 26.832 43.6511 27.9975 42.961 29.2652C42.593 29.94 42.276 30.6403 41.9693 31.3406C41.6882 31.9796 41.4326 32.639 41.1003 33.2576C40.9367 33.5643 40.7476 33.8659 40.5073 34.1215C40.2518 34.3924 39.9553 34.5713 39.6077 34.694C39.5361 34.7195 39.5668 34.8167 39.6383 34.8064Z" fill="#BA96D6"/>
<path d="M41.2281 69.7917C40.8294 69.5004 40.4562 69.1425 40.3796 68.6314C40.3029 68.1457 40.4358 67.6397 40.6403 67.2C40.855 66.7349 41.1054 66.2901 41.2332 65.7841C41.315 65.462 41.3559 65.1349 41.3457 64.8026C41.3304 64.133 41.1719 63.4684 41.0645 62.809C40.9725 62.2365 40.8958 61.6639 40.8345 61.0863C40.7834 60.6211 40.7425 60.1713 40.7834 59.701C40.8703 58.6122 41.1208 57.5029 41.4786 56.4703C41.5144 56.3732 41.3559 56.3323 41.3252 56.4294C41.0032 57.3598 40.7834 58.3413 40.6658 59.3125C40.6096 59.7572 40.5738 60.2173 40.63 60.662C40.7067 61.2652 40.7629 61.8684 40.855 62.4716C40.9623 63.2026 41.1463 63.9336 41.1821 64.6748C41.1974 65.002 41.1719 65.3291 41.0952 65.6512C40.9725 66.1879 40.7067 66.648 40.4869 67.1438C40.2722 67.6192 40.1342 68.1713 40.2415 68.6927C40.3438 69.2192 40.7425 69.5822 41.177 69.8633C41.2332 69.9144 41.2792 69.8275 41.2281 69.7917Z" fill="#BA96D6"/>
<path d="M38.708 69.8786C39.1118 69.6384 39.4952 69.3368 39.6639 68.8869C39.8224 68.4575 39.7508 67.9463 39.6026 67.5272C39.439 67.0569 39.1476 66.6428 38.9585 66.1828C38.8 65.7943 38.7029 65.3751 38.6927 64.9508C38.6824 64.2607 38.8613 63.5757 38.9789 62.901C39.076 62.3489 39.1578 61.7968 39.2192 61.2447C39.2805 60.7387 39.3367 60.2479 39.2958 59.7368C39.1987 58.6224 38.9329 57.4876 38.5393 56.4447C38.5035 56.3476 38.3399 56.3885 38.3808 56.4907C38.7233 57.4109 38.9636 58.3975 39.0914 59.3738C39.2294 60.4217 39.0454 61.4748 38.8767 62.5125C38.7591 63.223 38.5802 63.9284 38.5342 64.6492C38.5137 64.9253 38.5291 65.2013 38.5751 65.4722C38.6671 66.0038 38.8971 66.4792 39.1527 66.9495C39.4134 67.4352 39.623 67.9463 39.5821 68.5086C39.5361 69.0965 39.1067 69.4799 38.6518 69.7968C38.6006 69.8275 38.6518 69.9144 38.708 69.8786Z" fill="#BA96D6"/>
<path d="M43.9118 35.4914C43.9118 35.4914 44.4588 35.0109 45.2307 34.0448C46.0026 33.0787 47.5463 31.0697 49.2486 32.3477C50.9457 33.6205 50.1176 38.1751 47.3265 39.954L43.9118 35.4914Z" fill="#BA96D6"/>
<path d="M49.4684 34.2237C49.5553 33.9834 49.4377 33.7278 49.2792 33.5438C49.0952 33.3342 48.8345 33.2166 48.5636 33.186C47.9297 33.1093 47.3521 33.4722 46.9073 33.8863C46.8204 33.9681 46.9482 34.0959 47.0351 34.0141C47.4339 33.6614 47.8939 33.3342 48.4511 33.3495C48.7016 33.3547 48.947 33.4416 49.1259 33.6205C49.2946 33.7892 49.3712 33.9987 49.4326 34.2237C49.4326 34.2441 49.4581 34.239 49.4684 34.2237Z" fill="#363E49"/>
<path d="M35.9681 35.4914C35.9681 35.4914 35.4211 35.0109 34.6492 34.0448C33.8773 33.0787 32.3335 31.0697 30.6313 32.3477C28.9342 33.6205 29.7623 38.1751 32.5534 39.954L35.9681 35.4914Z" fill="#BA96D6"/>
<path d="M30.4524 34.2237C30.5137 34.009 30.5853 33.7994 30.7438 33.6358C30.9278 33.4518 31.1783 33.3598 31.4339 33.3495C31.9911 33.3342 32.4511 33.6614 32.8498 34.0141C32.9367 34.0908 33.0645 33.963 32.9776 33.8863C32.5329 33.4722 31.9553 33.1093 31.3214 33.186C31.0505 33.2217 30.7898 33.3393 30.6058 33.5438C30.4473 33.7227 30.3246 33.9834 30.4166 34.2237C30.4217 34.239 30.4422 34.2441 30.4524 34.2237Z" fill="#363E49"/>
<path d="M35.9681 34.5815C35.9681 34.5815 33.9489 33.1144 31.669 34.6224C29.3891 36.1304 27.8454 38.3694 27.8454 38.3694L32.0677 41.7994C32.0677 41.7994 32.2773 39.6064 33.9438 37.3828C35.6102 35.1591 37.0211 35.1285 37.0211 35.1285L35.9681 34.5815Z" fill="#363E49"/>
<path d="M43.9118 34.5815C43.9118 34.5815 45.931 33.1144 48.2109 34.6224C50.4907 36.1304 52.0345 38.3694 52.0345 38.3694L47.8121 41.7994C47.8121 41.7994 47.6026 39.6064 45.9361 37.3828C44.2697 35.1591 42.8588 35.1285 42.8588 35.1285L43.9118 34.5815Z" fill="#363E49"/>
<path d="M46.6569 40.23C47.6997 40.1431 48.7476 40.0409 49.7853 40.2198C50.6441 40.3629 51.4927 40.6952 52.1674 41.2524C52.8933 41.8556 53.2665 42.6786 53.5987 43.5374C53.7674 43.977 53.9412 44.4115 54.1559 44.8307C54.3757 45.2601 54.6211 45.6741 54.8767 46.0831C55.1681 46.5483 55.4697 47.0083 55.7559 47.4837C55.8888 47.7035 56.0115 47.9182 56.1649 48.1227C56.2824 48.2812 56.3898 48.4294 56.4256 48.6237C56.446 48.7259 56.6147 48.7054 56.6096 48.5981C56.5789 48.2096 56.2978 47.9693 56.1137 47.6524C55.853 47.2077 55.5821 46.7732 55.3061 46.3387C54.754 45.4697 54.253 44.5955 53.8799 43.6345C53.5425 42.7655 53.1949 41.8914 52.4997 41.2422C51.8658 40.6543 51.053 40.276 50.2096 40.0869C49.0492 39.8262 47.8173 39.8875 46.6569 40.1074C46.5751 40.1227 46.5904 40.2352 46.6569 40.23Z" fill="#BA96D6"/>
<path d="M33.2383 40.1074C31.3776 39.7495 29.2102 39.7955 27.6562 41.0173C26.9099 41.6 26.4958 42.4026 26.1534 43.2716C25.9693 43.7419 25.7904 44.2122 25.5655 44.6671C25.3355 45.1221 25.0748 45.5617 24.8038 45.9962C24.4971 46.4869 24.17 46.9674 23.8786 47.4735C23.7508 47.678 23.623 47.8722 23.4799 48.0665C23.3623 48.2249 23.2907 48.3936 23.2754 48.593C23.2652 48.6952 23.439 48.7208 23.4594 48.6185C23.531 48.2556 23.8479 47.9745 24.0217 47.6575C24.2569 47.2332 24.5278 46.8294 24.7885 46.4256C25.3099 45.6077 25.7955 44.7796 26.1534 43.8748C26.4907 43.016 26.8026 42.1265 27.4773 41.4671C28.0907 40.869 28.8882 40.4907 29.7163 40.2965C30.8716 40.0256 32.0524 40.1329 33.223 40.23C33.2895 40.2352 33.3048 40.1227 33.2383 40.1074Z" fill="#BA96D6"/>
<path d="M45.655 37.0148C43.646 34.4282 40.584 34.2544 39.9399 34.2544C39.2958 34.2544 36.2339 34.4282 34.2249 37.0148C32.216 39.6014 31.3265 42.694 32.5636 45.8991C33.8006 49.1042 35.0377 49.7228 35.0377 49.7228C35.0377 49.7228 34.6492 53.4288 36.7757 54.395C36.7757 54.395 37.0058 57.0224 39.9451 57.0224C42.8843 57.0224 43.1144 54.395 43.1144 54.395C45.2409 53.4288 44.8524 49.7228 44.8524 49.7228C44.8524 49.7228 46.0895 49.1042 47.3265 45.8991C48.5534 42.694 47.6639 39.6065 45.655 37.0148Z" fill="#BA96D6"/>
<path d="M42.3118 48.7413C41.8875 48.2762 41.6473 49.0583 39.9348 49.0583C38.2275 49.0583 37.9821 48.2762 37.5578 48.7413C37.1335 49.2065 39.9348 51.5784 39.9348 51.9465C39.9399 51.5784 42.7412 49.2014 42.3118 48.7413Z" fill="#363E49"/>
<path d="M36.5304 44.0486C36.5304 44.0486 37.108 40.4448 34.0102 40.91C34.0102 40.9151 33.3457 44.0231 36.5304 44.0486Z" fill="#EAE1F9"/>
<path d="M36.3463 42.4588C36.3463 42.9904 35.9374 43.4249 35.4364 43.4249C34.9355 43.4249 34.5265 42.9904 34.5265 42.4588C34.5265 41.9272 34.9355 41.4927 35.4364 41.4927C35.9374 41.4978 36.3463 41.9272 36.3463 42.4588Z" fill="#363E49"/>
<path d="M43.3495 44.0486C43.3495 44.0486 42.7719 40.4448 45.8696 40.91C45.8696 40.9151 46.5342 44.0231 43.3495 44.0486Z" fill="#EAE1F9"/>
<path d="M43.5284 42.4588C43.5284 42.9904 43.9374 43.4249 44.4383 43.4249C44.9393 43.4249 45.3482 42.9904 45.3482 42.4588C45.3482 41.9272 44.9393 41.4927 44.4383 41.4927C43.9374 41.4978 43.5284 41.9272 43.5284 42.4588Z" fill="#363E49"/>
<path d="M43.1042 54.3183C41.9284 54.3592 40.7681 53.9247 39.9962 53.0199C39.9655 52.9841 39.8939 52.9841 39.8633 53.0199C39.4901 53.4595 39.0147 53.8122 38.478 54.032C37.9412 54.2569 37.3891 54.3234 36.8115 54.2927C36.6939 54.2876 36.699 54.4614 36.8115 54.4767C37.9923 54.6199 39.2345 54.0422 39.9911 53.1477C39.9451 53.1477 39.9042 53.1477 39.8581 53.1477C40.63 54.0576 41.9182 54.6199 43.1144 54.4512C43.2013 54.441 43.1808 54.3183 43.1042 54.3183Z" fill="#363E49"/>
<path d="M39.8786 51.7521C39.853 51.8595 39.853 51.972 39.8479 52.0793C39.8428 52.1867 39.8428 52.2991 39.8428 52.4065C39.8479 52.6263 39.8581 52.8512 39.8786 53.071C39.8888 53.1681 40.0422 53.1681 40.032 53.071C40.0115 52.8563 39.9962 52.6365 39.9962 52.4167C39.9962 52.3144 39.9911 52.2071 39.9911 52.1049C39.9911 51.9924 40.0013 51.8748 39.9859 51.7675C39.9757 51.7113 39.8939 51.6908 39.8786 51.7521Z" fill="#363E49"/>
<path d="M38.8307 37.6536C38.9534 37.669 39.0709 37.6741 39.1834 37.7252C39.2958 37.7763 39.3981 37.8581 39.4645 37.9655C39.6026 38.1802 39.5923 38.4715 39.439 38.6709C39.255 38.9163 38.9431 38.9469 38.6773 38.8396C38.5597 38.7936 38.4575 38.7169 38.4013 38.5993C38.3502 38.492 38.3399 38.3693 38.3502 38.2517C38.3604 38.1239 38.3911 37.9757 38.4831 37.8786C38.5802 37.7814 38.7438 37.7508 38.8767 37.7201C39.0863 37.669 38.9994 37.3469 38.7898 37.3981C38.6058 37.4441 38.4166 37.4952 38.2735 37.623C38.1252 37.7508 38.0639 37.945 38.0435 38.1342C37.9974 38.5022 38.1048 38.9009 38.4524 39.0798C38.8051 39.2639 39.2754 39.2281 39.5719 38.9572C39.853 38.6965 39.9195 38.2722 39.761 37.9246C39.6792 37.7508 39.5361 37.5974 39.3674 37.5105C39.1987 37.4185 38.9585 37.3674 38.7898 37.4747C38.6927 37.5259 38.7387 37.6383 38.8307 37.6536Z" fill="#EAE1F9"/>
<path d="M39.1425 37.5821C39.1169 37.3879 39.1783 37.1732 39.2345 36.9892C39.2958 36.7693 39.4083 36.5751 39.6128 36.4626C40.0984 36.1968 40.7783 36.5342 40.947 37.0403C41.1259 37.5924 40.8601 38.1495 40.5687 38.6045C40.3284 38.9828 39.853 39.4888 40.0166 39.9796C40.0882 40.1943 40.2875 40.3578 40.5073 40.409C40.7783 40.4754 41.0543 40.3834 41.2843 40.2403C41.4173 40.1585 41.2946 39.9489 41.1617 40.0307C40.9214 40.1789 40.5891 40.2761 40.354 40.0614C40.1035 39.8313 40.2927 39.4888 40.4409 39.2588C40.7476 38.7681 41.1208 38.2927 41.2179 37.7099C41.2997 37.2192 41.1719 36.6876 40.7476 36.3911C40.354 36.115 39.7508 36.0486 39.3623 36.3706C39.0403 36.6416 38.8767 37.2141 39.0556 37.6077C39.076 37.6435 39.1476 37.623 39.1425 37.5821Z" fill="#EAE1F9"/>
</svg>
