<svg width="80" height="80" viewBox="0 0 80 80" fill="none" xmlns="http://www.w3.org/2000/svg">
<circle opacity="0.2" cx="40" cy="40" r="40" fill="#C6C6D7"/>
<path d="M58.0107 43.4429C57.5734 44.0434 57.2061 44.7081 56.8329 45.3436C56.4598 45.9849 56.0925 46.6263 55.731 47.2734C55.0022 48.562 54.2851 49.8505 53.5504 51.139C53.1306 51.8678 52.705 52.5907 52.2852 53.3254C52.1745 53.5236 52.4718 53.6985 52.5884 53.5003C53.3639 52.2351 54.081 50.9291 54.804 49.6289C55.5269 48.3346 56.2382 47.0402 56.9612 45.7517C57.3693 45.0229 57.8183 44.2941 58.1739 43.5362C58.2264 43.4254 58.0865 43.3496 58.0107 43.4429Z" fill="#363E49"/>
<path d="M58.0107 43.5362C58.3255 44.2067 58.7161 44.8538 59.0776 45.501C59.4391 46.1482 59.8006 46.7954 60.1562 47.4425C60.8675 48.7369 61.5847 50.0312 62.3076 51.3197C62.7216 52.0544 63.1356 52.789 63.5728 53.5003C63.6894 53.6927 63.9868 53.5178 63.876 53.3254C63.1414 52.0369 62.3893 50.7542 61.6663 49.454C60.9433 48.1655 60.2262 46.877 59.4916 45.5943C59.0776 44.8713 58.6695 44.1192 58.1739 43.4429C58.1039 43.3496 57.964 43.4254 58.0107 43.5362Z" fill="#363E49"/>
<path d="M58.0865 53.1738H51.6847C51.6847 53.1738 52.087 58.5144 58.0865 58.5144C64.0859 58.5144 64.4882 53.1738 64.4882 53.1738H58.0865Z" fill="#BA96D6"/>
<path d="M57.4276 43.0639C57.4276 43.5361 57.6142 43.9151 58.069 43.9151C58.5179 43.9151 58.7103 43.5361 58.7103 43.0639C58.7103 42.5916 58.5237 42.2126 58.069 42.2126C57.62 42.2126 57.4276 42.5975 57.4276 43.0639Z" fill="#BA96D6"/>
<path d="M42.3095 66.8984C42.3095 66.8984 43.2307 65.0502 42.3095 63.7267C42.3095 63.7267 44.3559 60.9398 44.3559 60.2751C44.3559 59.6105 41.5865 56.946 41.5865 56.946V37.2801C41.5865 37.2801 43.5921 34.4641 43.5921 33.986C43.5921 33.5079 41.225 31.2632 41.225 31.2632C41.225 31.2632 40.7236 29.106 39.7383 29.106C38.7529 29.106 38.2515 31.2632 38.2515 31.2632C38.2515 31.2632 35.8844 33.5079 35.8844 33.986C35.8844 34.4641 37.89 37.2801 37.89 37.2801V56.946C37.89 56.946 35.1206 59.6163 35.1206 60.2751C35.1206 60.9398 37.1671 63.7267 37.1671 63.7267C36.2459 65.0502 37.1671 66.8984 37.1671 66.8984C29.5001 69.2247 27.856 71.9942 27.856 71.9942H39.7383H51.6206C51.6206 72 49.9764 69.2306 42.3095 66.8984Z" fill="#BA96D6"/>
<path d="M17.4662 39.6531C17.717 40.5335 18.4866 41.204 19.3553 41.5247C20.224 41.8629 21.2035 41.8279 22.1364 41.5947C24.0312 41.1341 25.6812 39.8805 27.6986 39.0759C29.745 38.2713 32.0014 38.1372 34.1411 38.4754C36.2867 38.8077 38.339 39.5715 40.2164 40.6501L40.2222 40.656H39.2543C41.1317 39.5773 43.1898 38.8136 45.3354 38.4754C47.4693 38.1372 49.7315 38.2713 51.778 39.0759C53.8011 39.8864 55.4453 41.1399 57.3402 41.5947C58.273 41.8279 59.2525 41.8629 60.1213 41.5247C60.99 41.1982 61.7596 40.5277 62.0103 39.6531C62.0569 39.4841 62.2377 39.3849 62.4068 39.4316C62.57 39.4782 62.6691 39.6473 62.6341 39.8164C62.3659 40.9591 61.4447 41.822 60.4244 42.2651C59.3808 42.7257 58.1972 42.7316 57.1361 42.5217C54.973 42.0902 53.1831 40.8659 51.3407 40.2478C49.5041 39.6356 47.5102 39.6065 45.6036 40.003C43.6913 40.3994 41.8605 41.1865 40.2164 42.2418C39.919 42.4342 39.5517 42.4284 39.266 42.2535L39.2485 42.2418L39.2427 42.236C37.6044 41.1807 35.7678 40.3994 33.8554 40.003C31.9489 39.6065 29.9549 39.6356 28.1183 40.2478C26.2759 40.86 24.4918 42.0902 22.3288 42.5159C21.2676 42.7257 20.0841 42.7199 19.0404 42.2593C18.0201 41.822 17.0989 40.9591 16.8307 39.8106C16.7899 39.6356 16.8949 39.4666 17.0698 39.4258C17.2505 39.3908 17.4196 39.4899 17.4662 39.6531Z" fill="#BA96D6"/>
<path d="M21.3085 43.5362C21.6233 44.2125 22.0139 44.8538 22.3754 45.501C22.7369 46.1482 23.0984 46.7954 23.4599 47.4425C24.177 48.7369 24.8941 50.0312 25.6229 51.3197C26.0369 52.0485 26.4509 52.789 26.8881 53.5003C27.0047 53.6927 27.3021 53.5178 27.1913 53.3254C26.4567 52.031 25.7046 50.7542 24.9758 49.454C24.2528 48.1655 23.524 46.877 22.7894 45.5943C22.3696 44.8713 21.9615 44.1192 21.4659 43.4429C21.4018 43.3496 21.2618 43.4254 21.3085 43.5362Z" fill="#363E49"/>
<path d="M21.3085 43.4429C20.8712 44.0434 20.5039 44.7081 20.1307 45.3436C19.7576 45.9849 19.3961 46.6263 19.0346 47.2734C18.3058 48.562 17.5945 49.8563 16.8657 51.139C16.4518 51.8678 16.0203 52.5907 15.6064 53.3254C15.4956 53.5236 15.7929 53.6985 15.9095 53.5003C16.685 52.2351 17.3963 50.9291 18.1192 49.6289C18.8364 48.3346 19.5419 47.0402 20.2648 45.7517C20.673 45.0229 21.1219 44.2941 21.4717 43.5362C21.5242 43.4254 21.3843 43.3496 21.3085 43.4429Z" fill="#363E49"/>
<path d="M21.4017 53.1738H27.8035C27.8035 53.1738 27.4012 58.5144 21.4017 58.5144C15.4023 58.5086 15 53.1738 15 53.1738H21.4017Z" fill="#BA96D6"/>
<path d="M22.0548 43.0639C22.0548 43.5361 21.8682 43.9151 21.4134 43.9151C20.9645 43.9151 20.7721 43.5361 20.7721 43.0639C20.7721 42.5916 20.9586 42.2126 21.4134 42.2126C21.8682 42.2126 22.0548 42.5975 22.0548 43.0639Z" fill="#BA96D6"/>
<path d="M37.8667 39.6648C37.8551 39.6882 37.8259 39.6998 37.8142 39.729C37.8026 39.7523 37.7968 39.7814 37.7968 39.8106C37.7851 39.8806 37.7851 39.9563 37.7793 40.0321C37.7676 40.1721 37.7618 40.312 37.7559 40.4519C37.7443 40.7434 37.7268 41.035 37.721 41.3265C37.721 41.4664 37.9309 41.4664 37.9367 41.3265C37.9542 41.035 37.96 40.7434 37.9658 40.4519C37.9717 40.312 37.9717 40.1721 37.9717 40.0321C37.9717 39.9563 37.9775 39.8806 37.9717 39.8048C37.9717 39.7814 37.9658 39.7523 37.9542 39.729C37.9425 39.7056 37.9192 39.694 37.9075 39.6648C37.9075 39.6415 37.8784 39.6415 37.8667 39.6648Z" fill="#363E49"/>
<path d="M41.5165 39.7056C41.4582 39.8047 41.4699 39.9505 41.4641 40.0613C41.4582 40.1954 41.4582 40.3295 41.4524 40.4694C41.4466 40.7376 41.4407 41 41.4407 41.2682C41.4407 41.4139 41.674 41.4198 41.674 41.2682C41.674 41 41.6681 40.7376 41.6623 40.4694C41.6565 40.3411 41.6565 40.207 41.6506 40.0788C41.6448 39.9622 41.6565 39.8106 41.5982 39.7115C41.5807 39.6765 41.534 39.6765 41.5165 39.7056Z" fill="#363E49"/>
<path d="M41.4174 37.2102C41.1784 37.1636 40.9102 37.2219 40.6711 37.2452C40.3913 37.2685 40.1114 37.2918 39.8316 37.2977C39.5634 37.3093 39.2952 37.3093 39.0211 37.3035C38.7413 37.2977 38.4614 37.2627 38.1816 37.2569C38.0708 37.2569 38.0416 37.4376 38.1524 37.4551C38.6946 37.5425 39.2777 37.5192 39.8257 37.5017C40.1056 37.4901 40.3854 37.4726 40.6653 37.4376C40.9102 37.4084 41.2075 37.3968 41.4232 37.2743C41.4466 37.2627 41.4466 37.216 41.4174 37.2102Z" fill="#363E49"/>
<path d="M41.0734 31.2224C40.8519 31.1991 40.6303 31.2516 40.4088 31.2691C40.1872 31.2924 39.9598 31.3041 39.7383 31.3157C39.5109 31.3215 39.2893 31.3215 39.0619 31.3099C38.8404 31.2982 38.613 31.2457 38.3915 31.2574C38.2865 31.2632 38.269 31.409 38.3681 31.4382C38.5839 31.5023 38.8404 31.5023 39.0619 31.5139C39.2952 31.5256 39.5284 31.5256 39.7616 31.5198C39.9948 31.5139 40.228 31.4906 40.4554 31.4615C40.677 31.4323 40.8927 31.409 41.0909 31.3041C41.1317 31.2749 41.1084 31.2283 41.0734 31.2224Z" fill="#363E49"/>
<path d="M41.4641 56.8411C41.1784 56.8819 40.8927 56.9461 40.607 56.981C40.3213 57.016 40.0356 57.0335 39.7499 57.0335C39.4759 57.0335 39.196 57.0219 38.922 56.9927C38.7704 56.9752 38.6247 56.9519 38.4789 56.9286C38.3448 56.9053 38.2107 56.8644 38.0766 56.8644C37.995 56.8644 37.9542 56.9869 38.03 57.0277C38.2632 57.1443 38.5722 57.1618 38.8287 57.1909C39.1319 57.2259 39.4409 57.2376 39.7499 57.2318C40.3271 57.2201 40.9568 57.1618 41.4932 56.9402C41.5515 56.9169 41.5282 56.8353 41.4641 56.8411Z" fill="#363E49"/>
<path d="M42.1404 63.6626C41.3475 63.8026 40.5429 63.8842 39.7324 63.9134C39.3476 63.925 38.9628 63.925 38.5839 63.9075C38.1757 63.89 37.7734 63.8317 37.3653 63.8142C37.272 63.8084 37.2545 63.9542 37.342 63.9717C37.721 64.0475 38.1233 64.0591 38.5081 64.0766C38.9278 64.0941 39.3476 64.0999 39.7616 64.0824C40.572 64.0533 41.3766 63.9542 42.1695 63.7851C42.257 63.7734 42.222 63.651 42.1404 63.6626Z" fill="#363E49"/>
<path d="M42.1404 66.8343C41.9655 66.8518 41.7906 66.9159 41.6215 66.9626C41.4291 67.0092 41.2425 67.05 41.0501 67.0909C40.642 67.1725 40.2338 67.2191 39.8199 67.2308C39.0095 67.2541 38.2107 67.1375 37.4411 66.8926C37.3012 66.846 37.2429 67.0675 37.3828 67.1084C38.1699 67.3591 38.9978 67.4815 39.8257 67.4523C40.228 67.4407 40.6245 67.394 41.0209 67.3124C41.225 67.2716 41.4232 67.2133 41.6215 67.155C41.808 67.0967 42.0179 67.0326 42.1812 66.9218C42.1987 66.8985 42.1928 66.8285 42.1404 66.8343Z" fill="#363E49"/>
<path d="M22.2005 42.4808C21.9323 42.4867 21.6758 42.5508 21.4134 42.5741C21.2793 42.5858 21.151 42.5916 21.0169 42.5916C20.8828 42.5916 20.7429 42.5683 20.6146 42.5916C20.5214 42.6033 20.5389 42.7432 20.6146 42.7607C20.7371 42.7957 20.8945 42.7782 21.0169 42.7782C21.1569 42.7724 21.2968 42.7607 21.4367 42.7432C21.7049 42.7082 21.979 42.6557 22.2122 42.51C22.2238 42.5042 22.218 42.4808 22.2005 42.4808Z" fill="#363E49"/>
<path d="M58.7394 42.5975C58.6112 42.5859 58.4771 42.615 58.3488 42.6209C58.2147 42.6267 58.0864 42.6267 57.9523 42.615C57.8182 42.6034 57.6842 42.5859 57.5501 42.5567C57.4859 42.5451 57.4218 42.5276 57.3577 42.5101C57.2993 42.4926 57.2469 42.4693 57.1827 42.4809C57.1303 42.4868 57.1186 42.5625 57.1536 42.5917C57.2061 42.6383 57.276 42.65 57.346 42.6675C57.4101 42.685 57.4743 42.6966 57.5384 42.7141C57.6725 42.7375 57.8124 42.755 57.9523 42.7666C58.0923 42.7724 58.238 42.7724 58.378 42.7608C58.5121 42.7491 58.6462 42.7433 58.7686 42.685C58.8152 42.6617 58.7861 42.5975 58.7394 42.5975Z" fill="#363E49"/>
<path d="M46.554 17.865C46.589 17.8184 47.79 18.6754 47.7667 18.7162C47.7434 18.757 46.2741 18.757 46.2566 18.7221C46.2391 18.6871 47.3644 17.8883 47.411 17.9C47.4635 17.9175 46.9796 19.2585 46.9329 19.2468C46.8863 19.241 46.519 17.9175 46.554 17.865Z" fill="#BA96D6"/>
<path d="M47.4285 29.1759C47.3586 29.2051 46.6997 27.456 46.7522 27.4326C46.8047 27.4093 48.3497 28.4355 48.3439 28.4879C48.3381 28.5404 46.5948 28.5871 46.554 28.5346C46.5132 28.4821 47.9649 27.4093 48.0057 27.4501C48.0349 27.4968 47.4985 29.1468 47.4285 29.1759Z" fill="#BA96D6"/>
<path d="M33.5231 21.4041C33.5464 21.3749 34.3044 21.9346 34.2869 21.9579C34.2694 21.9813 33.3365 21.9696 33.3249 21.9463C33.3132 21.923 34.042 21.4274 34.0711 21.4332C34.1003 21.4449 33.7796 22.2961 33.7505 22.2903C33.7213 22.2844 33.4998 21.439 33.5231 21.4041Z" fill="#BA96D6"/>
<path d="M44.4142 25.1296C44.4434 25.0888 45.4054 25.8817 45.3821 25.9167C45.3588 25.9517 44.1285 25.8642 44.1111 25.8292C44.0936 25.7942 45.0906 25.1937 45.1314 25.2054C45.1722 25.2229 44.6883 26.3248 44.6533 26.3131C44.6125 26.3015 44.3792 25.1704 44.4142 25.1296Z" fill="#BA96D6"/>
<path d="M32.7477 18.413C32.771 18.3605 34.112 18.9727 34.0945 19.0193C34.077 19.066 32.6427 19.34 32.6194 19.3109C32.5961 19.2759 33.5464 18.2847 33.5989 18.2906C33.6514 18.2964 33.4298 19.7015 33.389 19.7015C33.3307 19.6957 32.7243 18.4713 32.7477 18.413Z" fill="#BA96D6"/>
<path d="M40.1872 7.99999C40.2339 7.94752 41.4816 9.04363 41.4524 9.08444C41.4174 9.12526 39.7791 8.96784 39.7616 8.92702C39.7441 8.88621 41.0909 8.11077 41.1434 8.13409C41.1959 8.15741 40.5137 9.60918 40.4612 9.59169C40.4146 9.57419 40.1464 8.05247 40.1872 7.99999Z" fill="#BA96D6"/>
<path d="M31.3542 25.9459C31.36 25.8817 33.01 26.1033 33.0042 26.1558C32.9984 26.2082 31.5408 26.9837 31.5058 26.9545C31.4708 26.9254 32.1646 25.5436 32.2229 25.5319C32.2812 25.5203 32.5086 27.112 32.4561 27.1236C32.4095 27.1353 31.3484 26.0158 31.3542 25.9459Z" fill="#BA96D6"/>
<path d="M30.5613 11.3933C30.5904 11.3466 31.7157 12.0696 31.6924 12.1046C31.669 12.1396 30.3455 12.2095 30.3281 12.1804C30.3106 12.1454 31.2901 11.3758 31.3367 11.3875C31.3833 11.3991 31.0102 12.6352 30.9694 12.6293C30.9286 12.6118 30.5321 11.4341 30.5613 11.3933Z" fill="#BA96D6"/>
<path d="M31.9431 11.7197C32.0247 11.7314 32.0888 11.7256 32.1705 11.7081C32.3045 11.6847 32.5319 11.6323 32.6952 11.5798C33.2666 11.3932 33.8379 11.1892 34.4035 10.9909C35.6978 10.5362 36.9922 10.0814 38.2865 9.62663C38.5022 9.55083 38.718 9.47504 38.9395 9.39924C38.9978 9.37592 39.062 9.35843 39.1203 9.33511C39.1377 9.32928 39.301 9.26514 39.1844 9.30596C39.4351 9.2185 39.3301 8.81037 39.0736 8.90366C38.2574 9.19518 37.4353 9.47504 36.619 9.77239C35.3305 10.233 34.042 10.6878 32.7593 11.16C32.5436 11.2416 32.322 11.3174 32.118 11.434C32.0597 11.469 31.9955 11.4982 31.9431 11.539C31.9372 11.5448 31.9372 11.5507 31.9081 11.5856C31.8731 11.6264 31.8789 11.7081 31.9431 11.7197Z" fill="#BA96D6"/>
<path d="M41.1259 9.73165C41.1317 9.75497 41.1317 9.77247 41.1376 9.79579C41.1317 9.7783 41.1434 9.81911 41.1551 9.84826C41.1609 9.85992 41.1667 9.87158 41.1725 9.88324C41.19 9.91822 41.2075 9.94738 41.225 9.98236C41.3241 10.1806 41.4349 10.3672 41.5573 10.5537C41.9655 11.1659 42.3853 11.7781 42.7992 12.3845C43.7496 13.7721 44.6999 15.1597 45.6503 16.5474C45.8077 16.7747 45.9651 17.008 46.1225 17.2353C46.1692 17.2995 46.21 17.3636 46.2566 17.4277C46.2683 17.4452 46.2799 17.4627 46.2916 17.4744C46.3383 17.5385 46.3208 17.5152 46.3033 17.4919C46.4549 17.7134 46.8163 17.5035 46.6648 17.282C46.6414 17.2528 46.7405 17.4103 46.6589 17.2703C46.6473 17.2587 46.6414 17.2412 46.6298 17.2295C46.5948 17.177 46.5598 17.1246 46.5248 17.0721C46.3966 16.8855 46.2683 16.6989 46.1342 16.5065C45.7086 15.8885 45.283 15.2705 44.8573 14.6525C43.907 13.2765 42.9625 11.9006 41.9946 10.5362C41.8314 10.3089 41.6681 10.0698 41.4757 9.85992C41.4058 9.78413 41.3416 9.71416 41.2891 9.67335C41.295 9.67918 41.26 9.65586 41.2367 9.63837C41.1842 9.59755 41.1142 9.66169 41.1259 9.73165Z" fill="#BA96D6"/>
<path d="M46.2391 17.9058C46.21 17.8883 46.1808 17.865 46.1517 17.8475C46.1225 17.8242 46.1575 17.8592 46.1692 17.8708C46.1575 17.865 46.0875 17.8067 46.1109 17.8242C46.0934 17.8125 46.0701 17.8067 46.0526 17.795C45.9826 17.7601 45.9651 17.7542 45.901 17.7192C45.5745 17.5502 45.2596 17.4161 44.8923 17.2645C43.7845 16.8155 42.6709 16.3724 41.5573 15.9293C40.1989 15.3871 38.8404 14.8507 37.4819 14.3085C36.31 13.842 35.1381 13.3815 33.9662 12.915C33.5814 12.7634 33.1966 12.6118 32.8118 12.4603C32.631 12.3903 32.4445 12.297 32.2579 12.2445C32.2521 12.2445 32.2404 12.2387 32.2346 12.2329C31.9839 12.1338 31.8731 12.536 32.1238 12.6352C32.1588 12.6468 32.0597 12.606 32.1005 12.6235C32.1238 12.6352 32.153 12.6468 32.1763 12.6585C32.2812 12.7051 32.392 12.7459 32.5028 12.7868C32.8409 12.9209 33.1849 13.0549 33.5231 13.189C34.6425 13.6322 35.762 14.0753 36.8814 14.5184C38.2282 15.0489 39.5808 15.5795 40.9277 16.1101C42.0937 16.5707 43.2656 17.0313 44.4376 17.4802C44.8224 17.626 45.2013 17.7776 45.592 17.9C45.7144 17.935 45.8368 17.97 45.9593 18.0049C45.9826 18.0108 46.0001 18.0224 46.0234 18.0224C46.0409 18.0283 46.0642 18.0283 46.0875 18.0283C46.14 18.0399 46.0176 18.0166 46.0759 18.0283C46.0992 18.0341 46.1284 18.0399 46.1517 18.0399C46.1575 18.0399 46.1692 18.0399 46.175 18.0457C46.2625 18.0632 46.3149 17.9641 46.2391 17.9058Z" fill="#BA96D6"/>
<path d="M31.0568 12.8684C31.0452 12.9092 31.0394 12.9617 31.0568 13.0433C31.0802 13.1541 31.1093 13.2649 31.1443 13.3756C31.2492 13.7663 31.3775 14.1511 31.5 14.5359C31.7798 15.4104 32.0772 16.2792 32.3687 17.1479C32.4386 17.3519 32.5028 17.556 32.5727 17.7542C32.6544 17.9991 33.0508 17.8942 32.9634 17.6435C32.4853 16.2267 32.0363 14.7982 31.5 13.4048C31.4416 13.259 31.3892 13.1133 31.325 12.9733C31.2842 12.8917 31.2551 12.8509 31.2201 12.8217C31.1618 12.7868 31.0802 12.7926 31.0568 12.8684Z" fill="#BA96D6"/>
<path d="M32.3279 25.3978C32.4561 25.3803 32.5086 25.2404 32.5611 25.1413C32.6719 24.9197 32.771 24.6923 32.8701 24.4591C33.1091 23.9111 33.3249 23.3514 33.5464 22.7975C33.5989 22.6692 33.6514 22.5351 33.7038 22.4068C33.7447 22.3019 33.6572 22.1853 33.5639 22.1561C33.4473 22.1211 33.354 22.1969 33.3132 22.2961C33.1733 22.6517 33.0275 23.0074 32.8876 23.3688C32.6777 23.9052 32.4445 24.4416 32.2812 24.9955C32.2579 25.0713 32.1355 25.4211 32.3279 25.3978Z" fill="#BA96D6"/>
<path d="M33.3773 19.8473C33.4007 19.789 33.3715 19.8473 33.3657 19.8706C33.3598 19.894 33.3598 19.9173 33.3598 19.9406C33.3598 19.9756 33.3598 20.0106 33.3657 20.0456C33.3773 20.1563 33.3948 20.2729 33.4181 20.3837C33.4648 20.5936 33.5114 20.8035 33.5639 21.0134C33.5756 21.06 33.5872 21.1125 33.5989 21.1592C33.6222 21.2641 33.7446 21.3341 33.8496 21.2991C33.9545 21.2641 34.0187 21.1592 33.9895 21.0484C33.9604 20.9201 33.9254 20.7918 33.8962 20.6636C33.8438 20.4478 33.7971 20.2263 33.7155 20.0222C33.6922 19.9698 33.6747 19.9173 33.6455 19.8706C33.6397 19.859 33.6339 19.8473 33.6222 19.8357C33.6047 19.8123 33.5872 19.7948 33.5639 19.7832C33.5522 19.7774 33.5464 19.7657 33.5814 19.7948C33.5114 19.7249 33.4123 19.754 33.3773 19.8473Z" fill="#BA96D6"/>
<path d="M44.9273 24.9372C44.9681 24.9022 44.9856 24.8789 45.0264 24.8031C45.0847 24.6807 45.1314 24.5466 45.1838 24.4241C45.3471 24.0218 45.487 23.6137 45.6328 23.2114C45.9709 22.2727 46.2858 21.3282 46.6123 20.3895C46.6881 20.1738 46.758 19.9581 46.8338 19.7423C46.9213 19.4916 46.5248 19.3867 46.4432 19.6316C45.9185 21.1591 45.3704 22.6808 44.904 24.2259C44.8573 24.3775 44.8107 24.5291 44.7757 24.6865C44.7641 24.7448 44.7524 24.8031 44.7582 24.8556C44.7641 24.9081 44.7582 24.8497 44.7699 24.8964C44.7815 24.9722 44.8807 24.9838 44.9273 24.9372Z" fill="#BA96D6"/>
<path d="M45.2305 26.3015C45.2596 26.3889 45.3238 26.4589 45.3879 26.523C45.4754 26.6163 45.5628 26.7038 45.6561 26.7854C45.8543 26.9603 46.0526 27.1294 46.2508 27.3043C46.2974 27.3451 46.3383 27.3801 46.3849 27.4209C46.4665 27.4909 46.5948 27.5084 46.6706 27.4209C46.7405 27.3451 46.758 27.2052 46.6706 27.1352C46.5481 27.0303 46.4257 26.9253 46.2974 26.8204C46.0817 26.6397 45.866 26.4414 45.6328 26.284C45.557 26.2315 45.4754 26.1674 45.3821 26.1499C45.3004 26.1324 45.2013 26.2024 45.2305 26.3015Z" fill="#BA96D6"/>
<path d="M43.4056 44.9704C43.4231 44.9762 43.4406 44.9879 43.3997 44.9646C43.3764 44.9413 43.3531 44.9179 43.3298 44.8946C43.3997 45.0404 43.6738 45.0462 43.8137 45.0579C44.0061 45.0695 44.1985 45.0695 44.3851 45.0754C44.8049 45.087 45.2247 45.0987 45.6444 45.122C45.8019 45.1278 45.936 44.9821 45.936 44.8305C45.936 44.6672 45.8019 44.539 45.6444 44.539C45.2247 44.5273 44.8049 44.5331 44.3851 44.539C44.1927 44.5448 44.0003 44.5448 43.8137 44.5506C43.6738 44.5565 43.3997 44.5623 43.3298 44.7139C43.3531 44.6906 43.3764 44.6672 43.3997 44.6439C43.4406 44.6206 43.4231 44.6322 43.4056 44.6381C43.2423 44.6964 43.2423 44.9179 43.4056 44.9704Z" fill="#363E49"/>
<path d="M49.9648 44.6381C49.9473 44.6322 49.9298 44.6206 49.9706 44.6439C49.9939 44.6672 50.0172 44.6906 50.0405 44.7139C49.9706 44.5681 49.6966 44.5623 49.5566 44.5506C49.3642 44.539 49.1718 44.539 48.9853 44.539C48.5655 44.5331 48.1457 44.5273 47.7259 44.539C47.5685 44.5448 47.4344 44.6731 47.4344 44.8305C47.4344 44.9821 47.5685 45.1337 47.7259 45.122C48.1457 45.1045 48.5655 45.0928 48.9853 45.0754C49.1777 45.0695 49.3701 45.0695 49.5566 45.0579C49.6966 45.052 49.9706 45.0462 50.0405 44.8946C50.0172 44.9179 49.9939 44.9413 49.9706 44.9646C49.9298 44.9879 49.9473 44.9762 49.9648 44.9704C50.128 44.9179 50.128 44.6964 49.9648 44.6381Z" fill="#363E49"/>
<path d="M45.8485 44.7255C45.6853 44.4981 45.4579 44.3173 45.3121 44.0725C45.1722 43.8451 45.0789 43.5827 45.0614 43.3145C45.0206 42.7606 45.2771 42.2301 45.7319 41.9152C46.1925 41.5946 46.7755 41.5304 47.2828 41.7811C47.7667 42.0202 48.1224 42.4633 48.1748 43.0055C48.2331 43.5711 48.0524 44.2124 47.6151 44.5914C47.3178 44.8479 47.7492 45.2794 48.0466 45.0228C48.5655 44.5681 48.8103 43.8218 48.7928 43.1454C48.7754 42.3992 48.3847 41.7345 47.7434 41.3497C47.0904 40.9591 46.2741 40.9357 45.6095 41.3089C44.9681 41.6704 44.5192 42.3525 44.4959 43.093C44.4842 43.4894 44.5891 43.8917 44.7932 44.2357C44.9973 44.5797 45.3005 44.9179 45.7144 44.9703C45.8252 44.982 45.9185 44.8188 45.8485 44.7255Z" fill="#363E49"/>
<path d="M49.854 46.5854C49.6382 46.4863 49.3584 46.5038 49.131 46.5038C48.8686 46.498 48.6063 46.4921 48.3439 46.4863C47.7842 46.4805 47.2245 46.4746 46.6648 46.4688C46.1167 46.463 45.5686 46.4571 45.0206 46.4571C44.7582 46.4571 44.4959 46.4571 44.2335 46.4571C43.9944 46.4571 43.6738 46.4047 43.4464 46.4921C43.2073 46.5854 43.1957 46.9002 43.4464 46.9935C43.6679 47.0752 43.9711 47.0169 44.2043 47.0169C44.4667 47.0169 44.7291 47.0169 44.9914 47.0169C45.5512 47.0169 46.1109 47.0227 46.6706 47.0227C47.2186 47.0227 47.7667 47.0227 48.3148 47.0227C48.5771 47.0227 48.8395 47.011 49.1019 47.0052C49.3409 46.9994 49.6382 47.0169 49.854 46.9119C49.9706 46.8478 49.9764 46.6437 49.854 46.5854Z" fill="#363E49"/>
</svg>
