<svg width="16" height="16" viewBox="0 0 16 16" fill="none" xmlns="http://www.w3.org/2000/svg">
<path fill-rule="evenodd" clip-rule="evenodd" d="M8.96894 14.7019C10.7432 13.4602 14.3333 10.5135 14.3333 6.99996C14.3333 3.50216 11.4978 0.666626 7.99996 0.666626C4.50216 0.666626 1.66663 3.50216 1.66663 6.99996C1.66663 10.5135 5.25676 13.4602 7.03098 14.7019C7.61778 15.1126 8.38213 15.1126 8.96894 14.7019ZM7.99996 8.99996C9.10453 8.99996 9.99996 8.10453 9.99996 6.99996C9.99996 5.89539 9.10453 4.99996 7.99996 4.99996C6.89539 4.99996 5.99996 5.89539 5.99996 6.99996C5.99996 8.10453 6.89539 8.99996 7.99996 8.99996Z" fill="#9595A9"/>
</svg>
