<svg width="80" height="80" viewBox="0 0 80 80" fill="none" xmlns="http://www.w3.org/2000/svg">
<circle opacity="0.2" cx="40" cy="40" r="40" fill="#C6C6D7"/>
<path d="M33.2358 22.3163C33.3286 22.3337 32.8183 24.572 32.743 24.5604C32.6676 24.5488 31.792 22.4497 31.8326 22.4033C31.8732 22.3569 33.6939 23.4877 33.6997 23.5688C33.7055 23.65 31.4962 23.766 31.4846 23.6964C31.4731 23.6152 33.1489 22.2989 33.2358 22.3163Z" fill="#BA96D6"/>
<path d="M42.0267 12.7369C42.0846 12.7137 42.7167 14.0358 42.6761 14.059C42.6355 14.0822 41.354 13.3805 41.354 13.3399C41.354 13.2993 42.7167 13.1428 42.7573 13.1776C42.7921 13.2182 41.7309 14.1576 41.6961 14.1228C41.6613 14.0938 41.9745 12.7659 42.0267 12.7369Z" fill="#BA96D6"/>
<path d="M50.0114 22.0844C50.081 22.0786 50.2608 23.7776 50.2028 23.7834C50.1506 23.795 49.0199 22.5251 49.0372 22.4787C49.0546 22.4323 50.6087 22.7976 50.6319 22.8498C50.6551 22.9078 49.1242 23.5224 49.101 23.4702C49.0778 23.4297 49.9418 22.096 50.0114 22.0844Z" fill="#BA96D6"/>
<path d="M36.1004 23.3601C36.0482 23.3833 35.5495 22.0786 35.5901 22.0612C35.6307 22.0438 36.7904 22.8034 36.7846 22.844C36.7788 22.8846 35.4741 22.9252 35.4451 22.8904C35.4161 22.8498 36.4947 22.0438 36.5237 22.0728C36.5469 22.1076 36.1526 23.3427 36.1004 23.3601Z" fill="#BA96D6"/>
<path d="M39.423 18.0254C39.4288 18.0834 38.0371 18.1819 38.0313 18.1355C38.0256 18.0892 39.0925 17.2078 39.1273 17.2194C39.1621 17.2367 38.8258 18.4951 38.7794 18.5125C38.733 18.5299 38.2749 17.2599 38.3097 17.2425C38.3503 17.2309 39.4172 17.9674 39.423 18.0254Z" fill="#BA96D6"/>
<path d="M37.3123 22.5656C37.2949 22.525 38.2807 22.1539 38.2981 22.1829C38.3097 22.2119 37.7298 23.0817 37.7008 23.0817C37.6718 23.0759 37.6428 22.0959 37.6718 22.0727C37.7008 22.0496 38.3097 22.8672 38.2807 22.8904C38.2575 22.9136 37.3297 22.6062 37.3123 22.5656Z" fill="#BA96D6"/>
<path d="M40.9017 21.7075C40.9307 21.6611 42.1252 22.3337 42.102 22.3743C42.0846 22.4149 40.7277 22.5599 40.7045 22.5251C40.6813 22.4903 41.6439 21.6437 41.6961 21.6553C41.7425 21.6669 41.4294 22.9542 41.3888 22.9484C41.3482 22.9426 40.8785 21.7596 40.9017 21.7075Z" fill="#BA96D6"/>
<path d="M43.3719 22.067C43.3777 22.0322 44.2475 22.2525 44.2417 22.2815C44.2359 22.3105 43.4067 22.6294 43.3893 22.6178C43.3719 22.6004 43.83 21.9046 43.8648 21.8988C43.8996 21.8988 43.917 22.7628 43.8938 22.7628C43.859 22.7686 43.3603 22.1018 43.3719 22.067Z" fill="#BA96D6"/>
<path d="M55.4796 24.1661C55.4912 24.1256 56.5117 24.3865 56.5059 24.4213C56.5001 24.4561 55.526 24.833 55.5028 24.8156C55.4796 24.7982 56.0246 23.9748 56.0594 23.969C56.0942 23.969 56.1232 24.9838 56.0884 24.9896C56.0536 24.9954 55.468 24.2067 55.4796 24.1661Z" fill="#BA96D6"/>
<path d="M42.5079 9.99994C42.5369 9.98254 42.9776 10.7132 42.9544 10.7306C42.9312 10.7422 42.1542 10.4058 42.1542 10.3827C42.1542 10.3595 42.9312 10.1913 42.9544 10.2145C42.9776 10.2319 42.4152 10.8349 42.392 10.8176C42.3688 10.806 42.4789 10.0173 42.5079 9.99994Z" fill="#BA96D6"/>
<path d="M41.6845 11.3917C41.7077 11.4091 41.2612 12.0121 41.238 12.0005C41.2206 11.9889 41.2322 11.2409 41.2496 11.2293C41.267 11.2177 41.6671 11.8034 41.6555 11.8266C41.6439 11.8498 40.9655 11.5946 40.9713 11.5714C40.9829 11.5482 41.6613 11.3743 41.6845 11.3917Z" fill="#BA96D6"/>
<path d="M54.9519 22.7687C54.9809 22.7861 54.5054 23.4239 54.4822 23.4123C54.459 23.4007 54.4764 22.6121 54.4938 22.6005C54.5112 22.5889 54.9345 23.2036 54.9229 23.2326C54.9113 23.2616 54.1981 22.989 54.2039 22.96C54.2097 22.9368 54.9229 22.7513 54.9519 22.7687Z" fill="#BA96D6"/>
<path d="M53.2877 23.4876C53.2819 23.5166 52.5628 23.3948 52.5628 23.3659C52.5628 23.3427 53.2181 23.0295 53.2355 23.0411C53.2529 23.0527 52.9224 23.65 52.8934 23.6558C52.8702 23.6616 52.7948 22.9542 52.818 22.9542C52.8412 22.9484 53.2877 23.4586 53.2877 23.4876Z" fill="#BA96D6"/>
<path d="M54.7605 25.8999C54.7605 25.9231 54.1227 25.9231 54.1227 25.8999C54.1227 25.8767 54.6388 25.5172 54.6562 25.523C54.6736 25.5288 54.4706 26.0912 54.4532 26.1028C54.43 26.1086 54.2676 25.5172 54.285 25.5056C54.3024 25.4998 54.7605 25.8767 54.7605 25.8999Z" fill="#BA96D6"/>
<path d="M52.2729 25.7955C52.2555 25.7839 52.4817 25.3142 52.499 25.32C52.5164 25.3258 52.6034 25.8361 52.586 25.8477C52.5744 25.8535 52.2265 25.5114 52.2323 25.494C52.2323 25.4766 52.731 25.5635 52.731 25.5809C52.7368 25.5983 52.2961 25.8071 52.2729 25.7955Z" fill="#BA96D6"/>
<path d="M36.4889 20.2578C36.4947 20.2925 35.6191 20.4781 35.6133 20.4491C35.6075 20.4201 36.2048 19.7649 36.228 19.7707C36.2512 19.7765 36.1468 20.6057 36.1178 20.6231C36.0888 20.6405 35.6887 19.875 35.7119 19.8576C35.7409 19.8461 36.4773 20.223 36.4889 20.2578Z" fill="#BA96D6"/>
<path d="M42.2006 10.574C42.16 10.5856 42.1136 10.5972 42.0788 10.6204C42.0208 10.661 41.9687 10.7074 41.9223 10.7538C41.8353 10.8349 41.7483 10.9161 41.6613 10.9973C41.6439 11.0147 41.6207 11.0321 41.6033 11.0495C41.5454 11.1133 41.5396 11.2235 41.6033 11.2814C41.6671 11.3394 41.7715 11.3452 41.8353 11.2814C41.8875 11.2293 41.9339 11.1771 41.9803 11.1249C42.073 11.0263 42.1716 10.9277 42.247 10.8234C42.276 10.7828 42.2876 10.7364 42.305 10.69C42.334 10.6204 42.2644 10.5508 42.2006 10.574Z" fill="#BA96D6"/>
<path d="M41.3888 12.0643C41.3888 12.0817 41.383 12.1049 41.383 12.1223C41.383 12.1281 41.383 12.1397 41.383 12.1165C41.383 12.0875 41.383 12.1339 41.383 12.1397C41.383 12.1455 41.383 12.1513 41.383 12.1629C41.383 12.1803 41.3772 12.1919 41.3772 12.2093C41.383 12.3021 41.4004 12.389 41.4178 12.476C41.4468 12.6326 41.4758 12.7892 41.5048 12.9457C41.5106 12.9805 41.5164 13.0153 41.5222 13.0501C41.5396 13.1371 41.6439 13.1893 41.7251 13.1661C41.8121 13.1371 41.8585 13.0559 41.8411 12.9631C41.8179 12.8703 41.7947 12.7718 41.7715 12.679C41.7309 12.5166 41.7019 12.3485 41.6439 12.1919C41.6207 12.1281 41.5859 12.0759 41.5512 12.0179C41.5048 11.9368 41.3946 11.9773 41.3888 12.0643Z" fill="#BA96D6"/>
<path d="M42.2122 12.5688C42.2702 12.5398 42.2876 12.4818 42.3108 12.4238C42.3688 12.3021 42.4151 12.1745 42.4499 12.0469C42.5311 11.757 42.6123 11.4671 42.6877 11.1771C42.7051 11.1075 42.7283 11.038 42.7457 10.9742C42.7979 10.7712 42.4789 10.6784 42.4267 10.8872C42.3804 11.0727 42.3398 11.2583 42.2934 11.4439C42.2238 11.7338 42.1252 12.0353 42.1078 12.3369C42.102 12.4064 42.0846 12.4934 42.1252 12.5514C42.1426 12.5746 42.1774 12.5862 42.2122 12.5688Z" fill="#BA96D6"/>
<path d="M33.4272 22.8324C33.52 22.7976 33.5896 22.7396 33.6823 22.6642C33.8795 22.5135 34.0651 22.3511 34.2448 22.183C34.6449 21.8118 35.045 21.4465 35.4393 21.0754C35.5321 20.9884 35.6249 20.9014 35.7177 20.8145C35.8742 20.6695 35.6365 20.4376 35.4857 20.5825C35.2306 20.8203 34.9812 21.0638 34.7319 21.3074C34.3434 21.6785 33.9317 22.038 33.5838 22.4439C33.5026 22.5425 33.3982 22.6352 33.3518 22.7512C33.3286 22.7976 33.3866 22.844 33.4272 22.8324Z" fill="#BA96D6"/>
<path d="M36.6223 19.8925C36.6977 19.8867 36.7499 19.8403 36.8078 19.7997C36.9412 19.707 37.0572 19.6084 37.1732 19.4982C37.4225 19.2605 37.6776 19.0285 37.927 18.7908C37.985 18.7328 38.0488 18.6806 38.1067 18.6226C38.2575 18.4776 38.0256 18.2399 37.8748 18.3907C37.7182 18.5414 37.5617 18.7038 37.4051 18.8545C37.2717 18.9821 37.1442 19.1155 37.0108 19.2431C36.8948 19.359 36.7788 19.475 36.6803 19.6084C36.6281 19.678 36.5643 19.7417 36.5585 19.8287C36.5527 19.8577 36.5875 19.8925 36.6223 19.8925Z" fill="#BA96D6"/>
<path d="M35.3466 22.6353C35.3466 22.6353 35.3408 22.6353 35.3408 22.6295C35.335 22.6295 35.3234 22.6237 35.3408 22.6295C35.364 22.6411 35.3292 22.6237 35.3292 22.6179C35.306 22.6121 35.2944 22.6063 35.2712 22.6063C35.2422 22.6063 35.2886 22.6063 35.2596 22.6063C35.2538 22.6063 35.2422 22.6063 35.2364 22.6063C35.2132 22.6063 35.19 22.6121 35.1668 22.6121C35.016 22.6295 34.8769 22.6585 34.7261 22.6933C34.413 22.7803 34.094 22.8615 33.7809 22.9484C33.7055 22.9716 33.6302 22.989 33.5548 23.0122C33.3518 23.0702 33.4388 23.3891 33.6417 23.3312C33.8389 23.2732 34.0419 23.2094 34.239 23.1514C34.5521 23.0586 34.8827 22.9832 35.1726 22.8383C35.219 22.8151 35.2654 22.7977 35.3118 22.7687C35.3292 22.7629 35.3408 22.7513 35.3524 22.7397C35.364 22.7281 35.364 22.7223 35.3698 22.7107C35.3524 22.7339 35.364 22.7281 35.364 22.7223C35.364 22.7165 35.3698 22.7165 35.3698 22.7107C35.3872 22.6933 35.3756 22.6527 35.3466 22.6353Z" fill="#BA96D6"/>
<path d="M36.6513 22.6585C36.6745 22.6875 36.6977 22.7049 36.7325 22.7223C36.773 22.7339 36.8136 22.7397 36.86 22.7397C36.9238 22.7397 36.9876 22.7397 37.0514 22.7397C37.063 22.7397 37.0804 22.7397 37.092 22.7397C37.1384 22.7397 37.1789 22.7223 37.2079 22.6933C37.2369 22.6643 37.2601 22.6179 37.2543 22.5773C37.2543 22.5367 37.2369 22.4903 37.2079 22.4613C37.1789 22.4324 37.1326 22.4092 37.092 22.415C37.0746 22.415 37.063 22.4208 37.0456 22.4208C37.063 22.4208 37.0746 22.415 37.092 22.415C37.0398 22.4208 36.9818 22.4266 36.9296 22.4382C36.8948 22.444 36.86 22.4497 36.831 22.4497C36.8136 22.4497 36.7962 22.4555 36.7846 22.4555C36.7672 22.4555 36.7556 22.4613 36.744 22.4671C36.7325 22.4729 36.7151 22.4787 36.7035 22.4845C36.6861 22.4961 36.6687 22.5135 36.6571 22.5367C36.6571 22.5425 36.6513 22.5425 36.6513 22.5483C36.6513 22.5541 36.6455 22.5599 36.6397 22.5599C36.6107 22.5831 36.6223 22.6295 36.6513 22.6585Z" fill="#BA96D6"/>
<path d="M38.3039 22.5657C38.3793 22.6004 38.4605 22.5946 38.5416 22.5946C38.7272 22.5946 38.907 22.583 39.0925 22.5599C39.5158 22.5077 39.9391 22.4613 40.3624 22.4091C40.461 22.3975 40.5596 22.3859 40.6582 22.3743C40.7451 22.3627 40.8205 22.3047 40.8205 22.2119C40.8205 22.1308 40.7451 22.038 40.6582 22.0496C40.3798 22.0844 40.1015 22.125 39.8289 22.1655C39.4114 22.2235 38.9765 22.2583 38.5706 22.3685C38.4721 22.3975 38.3677 22.4091 38.2923 22.4729C38.2575 22.4903 38.2691 22.5483 38.3039 22.5657Z" fill="#BA96D6"/>
<path d="M43.3603 22.3337C43.3487 22.2873 43.3023 22.2757 43.2618 22.2583C43.2502 22.2525 43.2386 22.2467 43.227 22.2409C43.2618 22.2525 43.2212 22.2351 43.2096 22.2351C43.1168 22.1946 43.0124 22.1888 42.9138 22.1772C42.7399 22.1598 42.5717 22.1366 42.3978 22.1192C42.3572 22.1134 42.3224 22.1076 42.2818 22.1076C42.1948 22.1018 42.1136 22.1888 42.1194 22.2699C42.1252 22.3627 42.1948 22.4265 42.2818 22.4323C42.392 22.4439 42.4963 22.4439 42.6065 22.4497C42.6993 22.4555 42.7921 22.4613 42.8848 22.4671C42.9718 22.4729 43.0646 22.4787 43.1516 22.4671C43.227 22.4613 43.3951 22.4381 43.3603 22.3337Z" fill="#BA96D6"/>
<path d="M50.6319 23.0817C50.6725 23.1339 50.742 23.1397 50.8 23.1571C50.9392 23.1977 51.0784 23.2209 51.2233 23.2383C51.5365 23.2789 51.8496 23.3195 52.1627 23.3543C52.2381 23.3659 52.3077 23.3716 52.3831 23.3832C52.4701 23.3948 52.5454 23.3021 52.5454 23.2209C52.5454 23.1223 52.4701 23.0643 52.3831 23.0585C52.1859 23.0353 51.9888 23.0237 51.7916 23.0005C51.4901 22.9715 51.1711 22.9194 50.8638 22.9425C50.7826 22.9483 50.6957 22.9425 50.6319 22.9947C50.6029 23.0179 50.6145 23.0585 50.6319 23.0817Z" fill="#BA96D6"/>
<path d="M52.7716 23.7601C52.76 23.7601 52.7542 23.7601 52.7774 23.7601C52.7484 23.7601 52.7136 23.7775 52.702 23.8065C52.6672 23.8761 52.615 23.9457 52.586 24.0211C52.5396 24.1313 52.499 24.2472 52.4585 24.3574C52.3831 24.5836 52.3019 24.8097 52.2265 25.0359C52.2091 25.088 52.1917 25.1402 52.1743 25.1924C52.1453 25.2794 52.2091 25.3722 52.2903 25.3954C52.3773 25.4186 52.4643 25.3664 52.4932 25.2794C52.5396 25.1402 52.5802 25.0011 52.6208 24.8677C52.6904 24.6242 52.7774 24.3864 52.8354 24.1429C52.847 24.0849 52.8528 24.0269 52.8586 23.9631C52.8586 23.9457 52.8644 23.9225 52.8644 23.9051C52.8644 23.8935 52.8702 23.8413 52.8644 23.8761C52.8702 23.8355 52.8586 23.8007 52.8238 23.7775C52.847 23.7949 52.8412 23.7891 52.8354 23.7833C52.8238 23.7601 52.7948 23.7543 52.7716 23.7601Z" fill="#BA96D6"/>
<path d="M55.7347 23.9747C55.7173 23.9283 55.7057 23.8761 55.6767 23.8355C55.6361 23.7659 55.5781 23.708 55.526 23.6442C55.4332 23.534 55.3404 23.4296 55.2476 23.3194C55.2244 23.2963 55.207 23.2731 55.1838 23.2499C55.1259 23.1861 55.0099 23.1861 54.9519 23.2499C54.8881 23.3194 54.8881 23.4122 54.9519 23.4818C55.0099 23.5456 55.0679 23.6036 55.1316 23.6674C55.236 23.7717 55.3346 23.8877 55.4506 23.9863C55.4796 24.0153 55.5144 24.0327 55.5492 24.0501C55.5666 24.0617 55.5839 24.0675 55.6013 24.0791C55.6303 24.0965 55.6709 24.0965 55.6999 24.0733C55.7289 24.0501 55.7463 24.0095 55.7347 23.9747Z" fill="#BA96D6"/>
<path d="M54.0415 22.9426C54.0415 22.9426 54.0705 22.9484 54.0589 22.9426H54.0531C54.0473 22.9426 54.0415 22.9426 54.0357 22.9368C54.0067 22.931 53.9777 22.9252 53.9545 22.9252C53.8907 22.931 53.8328 22.9484 53.769 22.96C53.6646 22.989 53.566 23.0179 53.4616 23.0469C53.4384 23.0527 53.4152 23.0585 53.3921 23.0643C53.3109 23.0933 53.2471 23.1803 53.2761 23.2673C53.3051 23.3485 53.3921 23.4123 53.479 23.3833C53.5428 23.3659 53.6008 23.3369 53.6588 23.3137C53.7748 23.2731 53.8965 23.2383 54.0009 23.1745C54.0299 23.1571 54.0531 23.1397 54.0705 23.1165C54.0821 23.1049 54.0879 23.0933 54.0995 23.0875C54.1285 23.0643 54.1285 23.0179 54.1169 22.989C54.1053 22.96 54.0763 22.9426 54.0415 22.9426Z" fill="#BA96D6"/>
<path d="M52.7716 25.8071C52.8064 25.8593 52.9108 25.8825 52.9688 25.9057C53.0673 25.9405 53.1775 25.9405 53.2819 25.9521C53.4848 25.9753 53.6878 25.9985 53.8907 26.0217C53.9371 26.0275 53.9835 26.0333 54.0241 26.039C54.1111 26.0448 54.1865 25.9579 54.1865 25.8767C54.1865 25.7781 54.1111 25.7201 54.0241 25.7143C53.9023 25.7027 53.7806 25.6969 53.6588 25.6853C53.4558 25.6737 53.2413 25.6447 53.0383 25.6505C52.9861 25.6505 52.9398 25.6621 52.8934 25.6737C52.8586 25.6795 52.8122 25.6795 52.789 25.7085C52.76 25.7259 52.7542 25.7723 52.7716 25.8071Z" fill="#BA96D6"/>
<path d="M54.9345 25.7086C54.9809 25.6854 55.0331 25.6738 55.0737 25.6448C55.149 25.5926 55.2186 25.5346 55.2882 25.4708C55.41 25.3665 55.5376 25.2563 55.6593 25.1461C55.6883 25.1229 55.7173 25.0997 55.7405 25.0765C55.8043 25.0186 55.8043 24.9026 55.7405 24.8446C55.6709 24.7808 55.5781 24.7808 55.5086 24.8446C55.4332 24.9142 55.3636 24.9838 55.294 25.0533C55.1722 25.1751 55.0389 25.2853 54.9287 25.4187C54.8823 25.4708 54.8533 25.5288 54.8185 25.5868C54.7663 25.668 54.8591 25.7492 54.9345 25.7086Z" fill="#BA96D6"/>
<path d="M48.9908 22.7744C48.8459 22.7222 48.6951 22.7106 48.5443 22.6874C48.179 22.6294 47.8137 22.5888 47.4426 22.554C46.6134 22.4728 45.7842 22.3975 44.955 22.3163C44.7636 22.2989 44.5781 22.2815 44.3867 22.2641C44.1779 22.2467 44.1779 22.5772 44.3867 22.5946C44.9086 22.641 45.4305 22.6816 45.9523 22.728C46.7758 22.7976 47.605 22.8961 48.4284 22.9135C48.6139 22.9193 48.8053 22.9367 48.9908 22.9019C49.0604 22.8845 49.043 22.7918 48.9908 22.7744Z" fill="#BA96D6"/>
<path d="M41.4294 13.8909C41.325 13.9605 41.2496 14.0648 41.1684 14.1576C40.9713 14.3838 40.7915 14.6157 40.6176 14.8593C40.2175 15.3985 39.8173 15.9378 39.4172 16.4829C39.3245 16.6105 39.2317 16.738 39.1389 16.8598C39.0113 17.0338 39.3013 17.1961 39.423 17.028C39.6724 16.6858 39.9159 16.3437 40.1595 16.0016C40.548 15.4623 40.9655 14.9346 41.3076 14.3664C41.383 14.2388 41.4816 14.1112 41.528 13.9663C41.5396 13.9141 41.4758 13.8619 41.4294 13.8909Z" fill="#BA96D6"/>
<path d="M42.937 56.0066C43.2212 55.1716 43.9634 53.3218 44.5839 52.0055C45.1985 50.6892 45.8248 49.3497 46.7989 48.2712C47.7731 47.1926 49.1706 46.3982 50.6203 46.5084C49.8375 46.8621 49.7215 47.9233 49.8606 48.7699C49.9998 49.6165 50.2608 50.5385 49.849 51.2923C49.3852 52.1389 48.295 52.3534 47.402 52.7188C45.9349 53.316 44.7462 54.5511 44.2011 56.0356L42.937 56.0066Z" fill="#BA96D6"/>
<path d="M49.5533 51.1415C48.9677 51.1647 48.3936 51.3734 47.8601 51.6054C47.2976 51.8431 46.7642 52.1447 46.2713 52.5042C45.2971 53.2174 44.4679 54.1278 43.859 55.1716C43.5111 55.7688 43.2444 56.4125 43.0588 57.0793C43.0124 57.2591 43.285 57.3345 43.3313 57.1547C43.946 54.8758 45.587 52.9855 47.6804 51.9243C48.2834 51.617 48.9271 51.443 49.5591 51.2053C49.5939 51.1937 49.5939 51.1415 49.5533 51.1415Z" fill="#363E49"/>
<path d="M49.5417 50.0281C49.0894 50.0455 48.6313 50.1963 48.208 50.3413C47.7499 50.4978 47.3092 50.7008 46.8801 50.9269C46.0219 51.385 45.2101 51.9649 44.5549 52.6897C44.3925 52.8695 44.2417 53.0609 44.1026 53.2638C43.9866 53.4262 43.7778 53.6697 43.8242 53.8785C43.8358 53.9307 43.8938 53.9423 43.9402 53.9249C44.1026 53.8553 44.1837 53.6175 44.2765 53.4726C44.3925 53.2986 44.5259 53.1304 44.6592 52.9681C44.9608 52.6202 45.2971 52.3128 45.6508 52.0287C46.393 51.4372 47.2338 50.9675 48.1152 50.6196C48.5907 50.4341 49.072 50.3239 49.5591 50.1731C49.6461 50.1499 49.6345 50.0223 49.5417 50.0281Z" fill="#363E49"/>
<path d="M49.5301 48.996C49.3736 48.9265 49.159 48.9902 48.9908 49.0134C48.7589 49.0482 48.5327 49.0888 48.3066 49.1526C47.8543 49.2802 47.4252 49.4483 47.0077 49.6629C46.5902 49.8774 46.1901 50.1268 45.8132 50.4109C45.5116 50.6429 45.0999 50.9154 44.9492 51.2749C44.926 51.3387 45.0072 51.3793 45.0535 51.3561C45.2275 51.2691 45.3435 51.13 45.4826 50.9966C45.6392 50.8516 45.8074 50.7125 45.9755 50.5791C46.3292 50.3123 46.7004 50.0746 47.0947 49.8716C47.489 49.6629 47.9007 49.4889 48.3298 49.3498C48.5327 49.286 48.7357 49.2222 48.9445 49.17C49.1242 49.1294 49.3736 49.1294 49.5243 49.025C49.5417 49.0308 49.5475 49.0076 49.5301 48.996Z" fill="#363E49"/>
<path d="M49.6403 47.7146C49.3678 47.6624 49.0488 47.7378 48.7879 47.7957C48.4574 47.8711 48.1326 47.9639 47.8137 48.0799C47.2223 48.3002 46.6424 48.6076 46.1727 49.0425C46.0567 49.1468 46.2307 49.3266 46.3466 49.2164C46.7931 48.7757 47.3614 48.4742 47.9413 48.248C48.2312 48.1321 48.527 48.0393 48.8343 47.9581C49.101 47.8885 49.3968 47.8595 49.6461 47.7494C49.6577 47.7378 49.6519 47.7146 49.6403 47.7146Z" fill="#363E49"/>
<path d="M46.2655 65.3946C47.0135 65.8643 48.7531 66.8327 50.0636 67.4648C51.3741 68.0968 52.702 68.7463 54.1343 68.9666C55.5723 69.187 57.1554 68.926 58.2107 67.9287C57.3815 68.149 56.6219 67.3952 56.1928 66.6472C55.7695 65.9049 55.3926 65.0177 54.5982 64.6988C53.7052 64.3335 52.7252 64.8496 51.7974 65.1337C50.284 65.5918 48.5791 65.383 47.2165 64.577L46.2655 65.3946Z" fill="#BA96D6"/>
<path d="M54.4416 64.9482C53.8965 65.1337 53.3688 65.3657 52.8064 65.5107C52.2265 65.6556 51.6292 65.7426 51.0378 65.7658C49.8722 65.818 48.6951 65.6266 47.605 65.2033C46.9787 64.9598 46.3872 64.6351 45.8422 64.2407C45.6914 64.1306 45.5464 64.3799 45.6972 64.4901C47.6572 65.8876 50.255 66.3689 52.5918 65.7832C53.2355 65.6208 53.9255 65.4005 54.4648 65.0004C54.4938 64.983 54.4822 64.9308 54.4416 64.9482Z" fill="#363E49"/>
<path d="M55.0968 65.7426C54.8359 65.847 54.5866 65.9804 54.3198 66.0847C54.0705 66.1833 53.8095 66.2645 53.5544 66.3457C53.0093 66.508 52.4469 66.6124 51.8786 66.6646C51.3161 66.7168 50.7536 66.7284 50.1912 66.6878C49.9128 66.6704 49.6345 66.6356 49.3562 66.595C49.2228 66.5718 49.0952 66.5486 48.9618 66.5254C48.8401 66.5022 48.7241 66.4617 48.6139 66.5254C48.5791 66.5428 48.5617 66.595 48.5849 66.6298C48.7125 66.8154 49.0778 66.8154 49.2866 66.8502C49.5649 66.8966 49.849 66.9313 50.1274 66.9487C50.7188 66.9951 51.3103 66.9835 51.9018 66.9198C52.4816 66.856 53.0557 66.7458 53.6124 66.5776C54.1285 66.4211 54.7141 66.2123 55.149 65.8876C55.2186 65.8354 55.1838 65.7078 55.0968 65.7426Z" fill="#363E49"/>
<path d="M55.7811 66.653C55.6129 66.6704 55.4332 66.8096 55.2824 66.885C55.0853 66.9835 54.8765 67.0647 54.6736 67.1459C54.2618 67.3025 53.8385 67.4126 53.4094 67.4996C52.9745 67.5808 52.5396 67.6272 52.0989 67.6388C51.8844 67.6446 51.6756 67.6446 51.4611 67.633C51.2407 67.6214 51.032 67.5866 50.8174 67.633C50.7594 67.6446 50.7478 67.7374 50.8 67.7664C50.9914 67.8591 51.1885 67.8649 51.4031 67.8765C51.635 67.8881 51.867 67.8939 52.0989 67.8823C52.5512 67.8707 53.0035 67.8185 53.4442 67.7316C53.8965 67.6446 54.3314 67.5112 54.7547 67.3315C54.9577 67.2445 55.149 67.1459 55.3404 67.0357C55.4854 66.9487 55.7231 66.8444 55.8043 66.6878C55.8101 66.6704 55.7985 66.6472 55.7811 66.653Z" fill="#363E49"/>
<path d="M56.6799 67.5866C56.4016 67.662 56.1406 67.8243 55.8739 67.9287C55.5724 68.0505 55.265 68.1491 54.9519 68.2303C54.372 68.381 53.769 68.497 53.1659 68.4796C53.0093 68.4738 53.0093 68.7231 53.1659 68.7231C53.7864 68.7231 54.4126 68.6014 55.0041 68.4216C55.3114 68.3288 55.6187 68.2187 55.9145 68.0911C56.1812 67.9751 56.5059 67.8359 56.6973 67.6098C56.7031 67.5982 56.6973 67.5808 56.6799 67.5866Z" fill="#363E49"/>
<path d="M56.2102 53.6872C56.1812 51.3793 57.6715 49.0656 58.002 46.7926C58.1933 45.4879 58.2107 43.6787 57.9962 42.3798C57.7642 40.9591 57.0278 39.6254 55.955 38.6628C57.5207 38.5179 59.1269 39.4282 59.8112 40.8431C60.1881 41.6201 60.4432 42.6581 61.284 42.8437C61.8407 42.9654 62.4206 42.6291 62.9714 42.7799C63.7311 42.9828 64.05 43.9976 64.8096 44.189C65.6794 44.4151 66.3521 43.4757 66.9783 42.8321C68.2424 41.5332 70.388 41.1968 71.9884 42.0435C70.7185 41.7767 69.4602 42.7335 68.8919 43.899C68.3236 45.0646 68.2714 46.4041 68.1265 47.6914C67.9815 48.9787 67.7032 50.3356 66.8102 51.2807C65.72 52.4347 64.0152 52.684 62.4496 52.9334C60.8839 53.1827 59.1617 53.606 58.2803 54.9223L56.2102 53.6872Z" fill="#BA96D6"/>
<path d="M69.8429 42.316C69.3616 42.6523 68.9557 43.1394 68.6194 43.6091C68.2598 44.102 67.9641 44.6355 67.7264 45.198C67.4828 45.7662 67.3089 46.3577 67.2045 46.9666C67.0885 47.6508 67.0421 48.3524 66.8856 49.0309C66.6072 50.2196 65.8708 51.2286 64.7806 51.7911C63.5571 52.4231 62.1596 52.1332 60.8781 52.5217C60.2693 52.7073 59.701 53.0204 59.2023 53.4089C58.6978 53.809 58.2049 54.3077 57.8976 54.876C57.8454 54.9687 57.973 55.0383 58.0368 54.9571C58.4021 54.4758 58.7616 54.0178 59.2313 53.6292C59.6952 53.2465 60.2287 52.9392 60.8027 52.742C62.0437 52.3245 63.4006 52.5971 64.6183 52.0752C65.6272 51.6403 66.4565 50.8053 66.8566 49.7789C67.1059 49.1527 67.1871 48.4858 67.2683 47.8248C67.3494 47.1753 67.448 46.5317 67.6452 45.9054C67.8597 45.2328 68.1671 44.5891 68.5498 43.9976C68.7411 43.7019 68.9557 43.412 69.1818 43.1394C69.408 42.8669 69.6631 42.6292 69.9009 42.3624C69.9183 42.345 69.8777 42.2928 69.8429 42.316Z" fill="#363E49"/>
<path d="M69.3964 42.055C68.2714 41.9738 67.2973 43.0176 66.8334 43.9338C66.2361 45.1167 66.1201 46.4562 65.7432 47.7145C65.5577 48.3292 65.3141 48.9322 64.9198 49.4483C64.5429 49.9412 64.0384 50.3181 63.4933 50.6022C62.438 51.1531 61.2434 51.3561 60.1823 51.8838C59.0631 52.4404 57.9962 53.345 57.5671 54.5569C57.5207 54.6845 57.7236 54.7425 57.77 54.6149C58.1643 53.519 59.1211 52.6956 60.1185 52.1621C61.1391 51.617 62.3046 51.4083 63.3484 50.9154C63.847 50.6776 64.3283 50.3819 64.7284 49.9934C65.1518 49.5817 65.4533 49.0772 65.6852 48.5379C66.1839 47.355 66.2767 46.0561 66.6652 44.8442C66.8798 44.1657 67.1987 43.5163 67.7032 43.0002C68.1787 42.5131 68.7469 42.2521 69.4022 42.1188C69.437 42.1014 69.4254 42.055 69.3964 42.055Z" fill="#363E49"/>
<path d="M64.9836 44.5601C64.9604 44.9892 64.9952 45.3951 64.8908 45.8126C64.7864 46.2185 64.6299 46.607 64.4211 46.9665C63.9746 47.7319 63.3252 48.3466 62.6061 48.8627C61.8813 49.3846 61.0985 49.8137 60.3388 50.2834C59.6314 50.7241 59.0051 51.2285 58.4833 51.8838C58.1875 52.2491 57.9266 52.6434 57.712 53.0667C57.5091 53.461 57.3235 53.8901 57.254 54.3308C57.225 54.499 57.4627 54.5744 57.5149 54.4062C57.6483 54.0003 57.7816 53.606 57.973 53.2233C58.1701 52.8464 58.3963 52.4869 58.663 52.1563C59.2023 51.4721 59.8634 50.9444 60.594 50.4747C62.0553 49.5295 63.6905 48.6597 64.5951 47.1057C64.8212 46.7172 65.0068 46.2823 65.0938 45.8358C65.1691 45.4241 65.2155 44.9312 65.0416 44.5369C65.03 44.5137 64.9836 44.5311 64.9836 44.5601Z" fill="#363E49"/>
<path d="M62.119 43.006C62.2524 43.3423 62.3394 43.6961 62.3974 44.0498C62.4554 44.3861 62.496 44.7862 62.38 45.1167C62.2466 45.4879 62.0147 45.8416 61.8059 46.1721C61.5856 46.5142 61.342 46.8216 61.0579 47.1173C60.4374 47.7609 59.8692 48.4452 59.3415 49.1642C58.7848 49.9122 58.2223 50.6719 57.7468 51.4663C57.4917 51.8896 57.2655 52.3361 57.1206 52.8116C56.993 53.2349 56.848 53.8032 57.0626 54.2149C57.0858 54.2555 57.1438 54.2439 57.1554 54.2033C57.2134 54.0061 57.2134 53.7974 57.2308 53.5944C57.2539 53.3509 57.3061 53.1131 57.3757 52.8812C57.5149 52.4289 57.7294 52.0056 57.973 51.5997C58.4601 50.7936 59.0283 50.0282 59.5908 49.2744C60.1475 48.5322 60.7506 47.8363 61.3884 47.1637C61.6609 46.8737 61.8871 46.5432 62.0958 46.2069C62.2872 45.888 62.496 45.5516 62.6235 45.2037C62.7569 44.8384 62.7047 44.4209 62.6235 44.0498C62.5423 43.6787 62.3974 43.2902 62.1538 42.9944C62.1306 42.9828 62.1132 42.9944 62.119 43.006Z" fill="#363E49"/>
<path d="M57.2018 39.6138C58.2629 40.4256 59.0515 41.5795 59.5038 42.8378C59.9561 44.0903 60.0953 45.5284 59.614 46.8215C59.1327 48.103 58.2861 49.1642 57.6425 50.3065C57.022 51.4431 56.5929 52.7884 56.9118 54.0699C56.9234 54.1105 56.9002 54.1511 56.8596 54.1627C56.8191 54.1743 56.7785 54.1511 56.7669 54.1105C56.4131 52.771 56.8364 51.3793 57.4511 50.2022C58.0832 49.0192 58.9066 47.9523 59.3705 46.7287C59.846 45.5168 59.7764 44.1309 59.3589 42.89C58.9414 41.6491 58.2165 40.4836 57.2018 39.6138Z" fill="#363E49"/>
<path d="M59.4691 50.179C58.982 55.073 56.3784 59.7004 52.5106 62.7389C48.6429 65.7774 43.5749 67.2155 38.675 66.7574C37.2485 66.624 35.8105 66.3283 34.5753 65.6034C33.3402 64.8786 32.3254 63.6783 32.0993 62.2634C31.8963 60.9819 32.3602 59.6424 33.1778 58.6334C33.9955 57.6245 35.1436 56.917 36.3497 56.4415C38.8953 55.4384 41.7135 55.4152 44.4505 55.5079C47.1875 55.6065 49.9592 55.8037 52.6324 55.2238C55.3056 54.6497 58.2803 52.6492 59.4691 50.179Z" fill="#363E49"/>
<path d="M37.0282 59.8918C37.6196 59.683 37.9328 59.0336 37.7182 58.4363C37.5095 57.8449 36.86 57.5317 36.2628 57.7463C35.6713 57.955 35.3582 58.6045 35.5727 59.2017C35.7873 59.7874 36.4367 60.1005 37.0282 59.8918Z" fill="#BA96D6"/>
<path d="M38.1299 65.9166C38.7214 65.7078 39.0345 65.0584 38.82 64.4611C38.6112 63.8696 37.9618 63.5565 37.3645 63.7711C36.773 63.9798 36.4599 64.6293 36.6745 65.2265C36.889 65.818 37.5385 66.1253 38.1299 65.9166Z" fill="#BA96D6"/>
<path d="M57.2482 54.76C57.8454 54.528 58.4253 55.2761 58.3441 55.9081C58.2571 56.5402 57.7874 57.0389 57.4105 57.5492C57.0336 58.0594 56.7205 58.7379 56.9872 59.3178C57.1612 59.7005 57.5497 59.9382 57.7816 60.2861C58.1817 60.895 58.0136 61.7474 57.5555 62.3099C57.0974 62.8723 56.4016 63.1971 55.7115 63.4174C54.0937 63.9335 52.3309 64.0031 50.6783 63.6146C49.6693 63.3768 48.3878 63.0579 47.7615 63.8871C47.5818 64.1249 47.4948 64.4264 47.3324 64.6815C46.7757 65.5397 45.5348 65.5629 44.5317 65.36C41.9107 64.8323 39.4868 63.3826 37.7762 61.3299C37.7762 61.3299 46.0915 60.982 50.2144 59.2598C54.3256 57.5434 57.2482 54.76 57.2482 54.76Z" fill="#BA96D6"/>
<path d="M46.4626 65.0526C46.1959 64.8902 45.9059 64.8033 45.616 64.6931C45.3203 64.5771 45.0303 64.4553 44.7462 64.322C44.1663 64.0552 43.6039 63.7595 43.053 63.4348C41.957 62.7737 40.9945 61.9503 40.0783 61.0631C39.8927 60.8834 39.6144 61.1617 39.7999 61.3415C40.519 62.0547 41.3366 62.6346 42.1774 63.1912C43.024 63.7479 43.917 64.2292 44.8564 64.6061C45.3609 64.8091 45.9117 65.0642 46.451 65.0932C46.4684 65.0874 46.4742 65.0642 46.4626 65.0526Z" fill="#363E49"/>
<path d="M47.5296 63.4C47.4658 63.3826 47.4194 63.342 47.3614 63.313C47.3034 63.2898 47.2396 63.2724 47.1817 63.255C47.0773 63.226 46.9671 63.1971 46.8627 63.1623C46.625 63.0927 46.3872 63.0173 46.1553 62.9361C45.6566 62.7622 45.1637 62.565 44.6824 62.3446C43.8764 61.9793 43.1052 61.5502 42.4789 60.9182C42.334 60.7732 42.1136 60.9994 42.2586 61.1385C42.5369 61.4227 42.8964 61.643 43.2386 61.8402C43.6735 62.0953 44.12 62.3215 44.5838 62.5244C45.0593 62.7332 45.5406 62.9129 46.0335 63.0695C46.2771 63.1507 46.5264 63.2202 46.7758 63.2898C46.8975 63.3246 47.0251 63.3594 47.1527 63.3884C47.2048 63.4 47.257 63.4174 47.3092 63.4232C47.373 63.429 47.4716 63.4116 47.5296 63.4232C47.5412 63.4232 47.547 63.4 47.5296 63.4Z" fill="#363E49"/>
<path d="M50.742 63.0463C50.3187 62.8028 49.878 62.623 49.4315 62.4259C48.9908 62.2287 48.5501 62.02 48.1152 61.8054C47.2396 61.3763 46.4046 60.895 45.5638 60.4021C45.4189 60.3152 45.2855 60.5413 45.4305 60.6283C46.2655 61.1328 47.1527 61.5793 48.0341 62.0084C48.469 62.2171 48.9155 62.4201 49.362 62.6056C49.8085 62.797 50.2492 62.9767 50.7246 63.0811C50.7478 63.0927 50.7652 63.0637 50.742 63.0463Z" fill="#363E49"/>
<path d="M55.3288 62.9709C55.2186 62.8144 54.8939 62.8376 54.7257 62.8144C54.4532 62.7738 54.1749 62.7332 53.9023 62.6868C53.3572 62.5882 52.8238 62.4606 52.2903 62.3041C51.2175 61.991 50.1738 61.5619 49.188 61.0284C48.6429 60.7326 48.1326 60.3905 47.6397 60.0136C47.489 59.8976 47.3266 60.1644 47.489 60.2745C49.3504 61.5271 51.4147 62.4606 53.6182 62.8897C53.9255 62.9477 54.227 62.9999 54.5402 63.0347C54.6909 63.0521 54.8475 63.0695 54.9983 63.0753C55.1084 63.0811 55.2418 63.0985 55.323 63.0115C55.3288 62.9999 55.3346 62.9825 55.3288 62.9709Z" fill="#363E49"/>
<path d="M57.4453 61.5386C57.0858 61.4922 56.7089 61.5444 56.3494 61.5328C56.0072 61.5212 55.6651 61.4922 55.323 61.4459C54.6156 61.3531 53.9197 61.1907 53.2355 60.9878C51.8844 60.5876 50.5971 60.0136 49.2808 59.4975C49.1764 59.4569 49.0952 59.6367 49.1996 59.6831C50.5043 60.2977 51.8438 60.8602 53.2297 61.2487C53.9139 61.4401 54.6098 61.5908 55.3172 61.672C55.6825 61.7184 56.0478 61.7416 56.4131 61.7474C56.7495 61.7532 57.1322 61.7648 57.4569 61.6662C57.5381 61.6488 57.5207 61.5502 57.4453 61.5386Z" fill="#363E49"/>
<path d="M56.7611 59.77C56.5465 59.7063 56.3088 59.7294 56.0884 59.7178C55.8507 59.7062 55.6071 59.6889 55.3694 59.6715C54.8939 59.6309 54.4184 59.5613 53.9487 59.4627C53.4906 59.3641 53.0325 59.254 52.586 59.1032C52.3599 59.0278 52.1337 58.9466 51.9076 58.8538C51.6988 58.7727 51.5075 58.6567 51.2813 58.6683C51.2523 58.6683 51.2465 58.6973 51.2639 58.7147C51.4031 58.8944 51.6176 58.964 51.8264 59.051C52.0467 59.1438 52.2729 59.2308 52.499 59.3061C52.9629 59.4685 53.4326 59.6077 53.9139 59.7063C54.372 59.799 54.8417 59.8686 55.3056 59.9092C55.5433 59.9324 55.7869 59.944 56.0246 59.944C56.2624 59.944 56.5349 59.9614 56.7611 59.886C56.8191 59.8686 56.8248 59.7874 56.7611 59.77Z" fill="#363E49"/>
<path d="M56.8307 57.7115C56.3262 57.6767 55.8217 57.6999 55.3172 57.6593C54.8069 57.6129 54.2966 57.5259 53.7979 57.3926C53.6646 57.3578 53.6066 57.5665 53.74 57.6013C54.2444 57.7405 54.7605 57.8275 55.2882 57.8623C55.7985 57.8971 56.3378 57.8971 56.8365 57.7579C56.8596 57.7463 56.8538 57.7115 56.8307 57.7115Z" fill="#363E49"/>
<path d="M57.741 55.9662C57.6599 55.972 57.5729 55.9662 57.4859 55.972C57.4047 55.9836 57.3177 56.001 57.2366 56.0125C57.0568 56.0415 56.877 56.0473 56.6973 56.0415C56.3436 56.0299 55.9899 55.9604 55.6593 55.8386C55.497 55.7806 55.4274 56.0357 55.5897 56.0937C55.9435 56.2155 56.3204 56.2793 56.6973 56.2735C56.8828 56.2735 57.0684 56.2503 57.254 56.2213C57.3409 56.2039 57.4279 56.1865 57.5091 56.1575C57.6019 56.1227 57.6715 56.0647 57.7526 56.0183C57.77 56.001 57.7642 55.9662 57.741 55.9662Z" fill="#363E49"/>
<path d="M38.043 38.4425C37.695 39.2543 36.8136 41.0403 36.1004 42.3044C35.3872 43.5685 34.6623 44.8558 33.607 45.859C32.5516 46.8564 31.0961 47.5464 29.6639 47.3261C30.4699 47.0362 30.667 45.9808 30.5917 45.1284C30.5163 44.276 30.3249 43.3366 30.7946 42.6176C31.3223 41.8115 32.424 41.6782 33.3402 41.3824C34.8479 40.8954 36.1294 39.7588 36.7904 38.3149L38.043 38.4425Z" fill="#363E49"/>
<path d="M31.0729 42.7857C31.6702 42.8031 32.2733 42.6349 32.8357 42.4436C33.4098 42.2464 33.9549 41.9855 34.471 41.6665C35.4973 41.0287 36.3845 40.1821 37.0688 39.1847C37.4573 38.6164 37.7704 38.0018 38.0024 37.3523C38.0661 37.1784 37.7878 37.103 37.7298 37.2769C36.9412 39.5094 35.132 41.2896 32.9517 42.171C32.337 42.4204 31.6992 42.5421 31.0671 42.7277C31.0323 42.7335 31.0381 42.7857 31.0729 42.7857Z" fill="#BA96D6"/>
<path d="M31.0034 43.8991C31.4441 43.9165 31.9138 43.8005 32.3429 43.6903C32.8241 43.5685 33.288 43.3946 33.7403 43.1974C34.6275 42.8089 35.4741 42.2928 36.1758 41.6202C36.3613 41.4462 36.5295 41.2607 36.6919 41.0577C36.8136 40.9011 37.0224 40.6982 36.9934 40.4836C36.9876 40.443 36.9354 40.4199 36.9006 40.4315C36.7325 40.4894 36.6513 40.6924 36.5469 40.8258C36.4077 41.0055 36.2628 41.1679 36.1004 41.3302C35.7757 41.655 35.4162 41.9333 35.0392 42.1885C34.2448 42.7219 33.3692 43.1336 32.4588 43.412C31.9717 43.5569 31.4789 43.6323 30.986 43.7483C30.899 43.7715 30.9222 43.8991 31.0034 43.8991Z" fill="#BA96D6"/>
<path d="M30.9338 44.9255C31.0903 45.0066 31.3397 44.9603 31.5136 44.9487C31.734 44.9313 31.9543 44.9081 32.1747 44.8617C32.627 44.7689 33.0677 44.6355 33.4968 44.4558C33.9201 44.2818 34.326 44.0673 34.7087 43.8237C34.8943 43.7077 35.0682 43.5802 35.2422 43.4468C35.4046 43.3192 35.5727 43.2033 35.6713 43.0119C35.6945 42.9655 35.6539 42.8785 35.5901 42.9075C35.4104 42.9829 35.2828 43.1047 35.1378 43.2264C34.9697 43.3598 34.7957 43.4874 34.6159 43.6034C34.2448 43.8411 33.8563 44.0499 33.4504 44.2296C33.0445 44.4036 32.6154 44.5543 32.1805 44.6587C31.9717 44.7109 31.763 44.7573 31.5542 44.7921C31.3687 44.8211 31.1019 44.7979 30.9396 44.8965C30.9222 44.8965 30.9222 44.9197 30.9338 44.9255Z" fill="#BA96D6"/>
<path d="M30.7308 46.2011C30.9976 46.2764 31.3223 46.2243 31.5948 46.1837C31.9311 46.1373 32.2617 46.0677 32.5922 45.9749C33.2011 45.801 33.8041 45.5342 34.3028 45.1341C34.4246 45.0355 34.2506 44.8558 34.1288 44.9601C33.6533 45.3603 33.0735 45.6096 32.4878 45.7952C32.1979 45.8879 31.9021 45.9575 31.6064 46.0155C31.3223 46.0677 31.0092 46.0735 30.7366 46.1721C30.7134 46.1721 30.7134 46.1953 30.7308 46.2011Z" fill="#BA96D6"/>
<path d="M35.4393 28.8282C34.7319 28.3064 33.0677 27.2046 31.8094 26.474C30.5511 25.7434 29.2753 24.9953 27.8605 24.6648C26.4456 24.3343 24.8452 24.4792 23.7144 25.3896C24.5552 25.2331 25.2569 26.0449 25.628 26.8161C25.9933 27.5931 26.3006 28.4977 27.0718 28.8804C27.9359 29.3095 28.9506 28.8688 29.8958 28.6601C31.4441 28.318 33.1257 28.6543 34.4188 29.5647L35.4393 28.8282Z" fill="#363E49"/>
<path d="M27.2574 28.6485C27.8199 28.5036 28.3592 28.3122 28.9332 28.2136C29.5073 28.115 30.0988 28.0745 30.6844 28.0918C31.8558 28.1266 33.0213 28.3992 34.0767 28.9095C34.6797 29.1994 35.2422 29.5589 35.7525 29.9938C35.8916 30.1098 36.0946 29.9068 35.9554 29.7909C34.0998 28.2426 31.5542 27.5526 29.171 27.9527C28.5099 28.0629 27.8025 28.231 27.2284 28.5905C27.1994 28.6079 27.2168 28.6601 27.2574 28.6485Z" fill="#BA96D6"/>
<path d="M26.6659 27.8077C26.9211 27.7323 27.1704 27.6222 27.4256 27.541C27.6865 27.4598 27.9533 27.3902 28.2258 27.338C28.7941 27.2162 29.3739 27.1525 29.9538 27.1409C30.5221 27.1293 31.0961 27.1641 31.6644 27.251C31.9369 27.2916 32.2095 27.3438 32.4762 27.4076C32.6734 27.454 32.9923 27.6164 33.1895 27.5294C33.23 27.512 33.2358 27.454 33.2185 27.425C33.1547 27.309 33.0271 27.2858 32.9111 27.2568C32.7777 27.222 32.6502 27.1873 32.5168 27.1525C32.2269 27.0829 31.9369 27.0307 31.6412 26.9843C31.0729 26.9031 30.4989 26.8683 29.919 26.8857C29.3449 26.9031 28.7767 26.9669 28.2142 27.0887C27.6749 27.2047 27.0661 27.367 26.6022 27.6685C26.5384 27.7091 26.579 27.8309 26.6659 27.8077Z" fill="#BA96D6"/>
<path d="M26.0513 26.8509C26.231 26.8451 26.4224 26.7118 26.5906 26.648C26.7877 26.5726 26.9965 26.503 27.1994 26.445C27.6285 26.3175 28.075 26.2363 28.5157 26.1899C28.9564 26.1435 29.3971 26.1319 29.8378 26.1551C30.0524 26.1667 30.2611 26.1841 30.4699 26.2131C30.6786 26.2421 30.87 26.2885 31.0787 26.2595C31.1425 26.2479 31.1425 26.1609 31.0961 26.1261C30.9106 26.0101 30.696 25.9985 30.4873 25.9695C30.2727 25.9405 30.0524 25.9231 29.8378 25.9116C29.3681 25.8884 28.8926 25.9058 28.4287 25.9637C27.9822 26.0217 27.5473 26.1145 27.1182 26.2595C26.9153 26.3291 26.7181 26.4102 26.5268 26.503C26.3644 26.5784 26.1267 26.6654 26.0281 26.8161C26.0223 26.8277 26.0339 26.8509 26.0513 26.8509Z" fill="#BA96D6"/>
<path d="M25.2279 25.8477C25.5062 25.7955 25.7787 25.6563 26.0513 25.5694C26.3644 25.4708 26.6833 25.3954 27.0081 25.3374C27.5995 25.2272 28.2084 25.1635 28.8057 25.2272C28.9622 25.2446 28.9622 24.9953 28.8057 24.9837C28.191 24.9373 27.5531 25.0127 26.9501 25.1461C26.6196 25.2156 26.2948 25.3084 25.9759 25.4244C25.7208 25.5172 25.4018 25.6274 25.2047 25.8245C25.1989 25.8303 25.2105 25.8477 25.2279 25.8477Z" fill="#BA96D6"/>
<path d="M24.6306 39.7414C24.4798 42.0492 22.8214 44.2353 22.3169 46.4736C22.027 47.7551 21.8704 49.5643 21.9864 50.8748C22.114 52.3129 22.7402 53.6988 23.7376 54.7367C22.1662 54.7599 20.6353 53.7336 20.0612 52.2665C19.7481 51.4605 19.5684 50.4109 18.7449 50.1616C18.1999 49.9992 17.591 50.2833 17.0575 50.0978C16.3153 49.8368 16.0718 48.8047 15.3295 48.5495C14.4771 48.2596 13.7407 49.141 13.0622 49.7383C11.6996 50.9328 9.54245 51.1068 8.0058 50.1442C9.25251 50.5095 10.5804 49.6513 11.2299 48.5321C11.8851 47.413 12.0417 46.0851 12.2794 44.8094C12.5172 43.5337 12.9057 42.2058 13.8625 41.336C15.0338 40.269 16.756 40.1531 18.339 40.0197C19.9221 39.8921 21.6675 39.6022 22.6475 38.3555L24.6306 39.7414Z" fill="#363E49"/>
<path d="M10.1745 50.034C10.679 49.7383 11.1197 49.2802 11.4966 48.8337C11.8793 48.3814 12.2098 47.8885 12.4824 47.3666C12.7549 46.8448 12.9753 46.2881 13.1318 45.714C13.3058 45.053 13.4044 44.3745 13.5899 43.7193C13.9262 42.5363 14.6859 41.5564 15.8108 41.0287C16.4255 40.7388 17.0807 40.6518 17.7534 40.646C18.4376 40.6402 19.1277 40.6866 19.8061 40.5532C20.4556 40.4256 21.076 40.1473 21.6269 39.782C22.1662 39.4225 22.6996 38.9586 23.0534 38.4077C23.0998 38.3323 22.9896 38.2453 22.9258 38.3091C22.5141 38.773 22.114 39.2137 21.5979 39.5674C21.0992 39.9153 20.5367 40.1821 19.9453 40.327C18.6348 40.646 17.2605 40.2401 15.979 40.7446C14.941 41.1505 14.0828 41.9623 13.6479 42.9828C13.387 43.5859 13.2652 44.2412 13.1376 44.879C13.0101 45.5111 12.8477 46.1315 12.5983 46.7288C12.3374 47.3434 11.9953 47.9291 11.5894 48.4568C11.3748 48.7409 11.1371 49.0077 10.8877 49.2628C10.6442 49.5064 10.3775 49.7209 10.1339 49.9644C10.0933 50.005 10.1339 50.0572 10.1745 50.034Z" fill="#BA96D6"/>
<path d="M10.592 50.3298C11.7169 50.4922 12.7607 49.5296 13.3 48.6424C13.9842 47.5059 14.1988 46.178 14.6743 44.9544C14.912 44.3456 15.2078 43.7541 15.6543 43.267C16.0776 42.8031 16.6168 42.4726 17.1909 42.2291C18.2869 41.771 19.493 41.6608 20.5889 41.2085C21.7197 40.733 22.833 39.9328 23.3433 38.7846C23.3955 38.6629 23.2157 38.5527 23.1577 38.6803C22.6996 39.7124 21.7371 40.4431 20.7339 40.9128C19.6727 41.4056 18.4898 41.5216 17.3939 41.9275C16.872 42.1189 16.3733 42.3682 15.9384 42.7103C15.4687 43.0815 15.1034 43.5628 14.825 44.0904C14.2336 45.2154 14.0306 46.4853 13.5725 47.6566C13.3116 48.3293 12.9521 48.9729 12.4186 49.4716C11.8967 49.9529 11.2936 50.1906 10.5978 50.2776C10.5688 50.2776 10.5572 50.324 10.592 50.3298Z" fill="#BA96D6"/>
<path d="M15.1846 48.1669C15.2368 47.7552 15.2368 47.3551 15.3643 46.9492C15.4919 46.5548 15.6775 46.1779 15.9094 45.8358C16.3965 45.1226 17.0575 44.5717 17.7824 44.1194C18.5594 43.6323 19.3944 43.2554 20.2062 42.8379C20.9542 42.4494 21.6269 41.9971 22.2068 41.3766C22.8214 40.7214 23.4245 39.8922 23.639 39.005C23.6796 38.831 23.4419 38.773 23.3781 38.9296C23.0476 39.7414 22.6301 40.4662 22.0328 41.1099C21.4297 41.7535 20.7223 42.2232 19.9453 42.6407C18.426 43.4641 16.7618 44.2064 15.7528 45.6734C15.5035 46.0388 15.2947 46.4389 15.173 46.868C15.0628 47.2739 14.9758 47.7668 15.1208 48.1727C15.1382 48.2075 15.1788 48.2017 15.1846 48.1669Z" fill="#BA96D6"/>
<path d="M17.9215 49.9355C17.8172 49.5875 17.7534 49.228 17.7244 48.8685C17.6954 48.5264 17.678 48.1205 17.8288 47.7957C17.9969 47.442 18.2463 47.1057 18.4782 46.7926C18.7333 46.4562 19.0117 46.1663 19.3248 45.888C20.0033 45.2791 20.6295 44.6239 21.2268 43.9338C21.824 43.2438 22.4271 42.5479 22.949 41.7999C23.2273 41.4056 23.4767 40.9823 23.6564 40.53C23.813 40.1241 23.9985 39.5732 23.8246 39.1499C23.8072 39.1035 23.7434 39.0977 23.726 39.1499C23.6506 39.3529 23.639 39.5674 23.5984 39.782C23.5578 40.0023 23.4941 40.2227 23.4129 40.4314C23.2505 40.8547 23.0128 41.2432 22.7576 41.6144C22.2184 42.3914 21.5805 43.1162 20.96 43.8294C20.3512 44.5253 19.7075 45.1863 19.0175 45.801C18.716 46.0677 18.4608 46.3751 18.2289 46.6998C18.0027 47.0129 17.7592 47.3434 17.6026 47.6972C17.446 48.0509 17.4576 48.4626 17.5098 48.8337C17.562 49.2106 17.6722 49.6165 17.8925 49.9355C17.9099 49.9586 17.9273 49.9529 17.9215 49.9355Z" fill="#BA96D6"/>
<path d="M22.5663 53.693C21.5689 52.8058 20.8731 51.5939 20.5135 50.3008C20.154 49.0135 20.1308 47.5754 20.7049 46.3171C21.279 45.0762 22.2068 44.0846 22.9374 42.9944C23.6448 41.9101 24.1725 40.5996 23.9522 39.2949C23.9464 39.2543 23.9695 39.2137 24.0159 39.2079C24.0565 39.2021 24.0971 39.2311 24.1029 39.2717C24.3523 40.6344 23.8246 41.9913 23.1171 43.1162C22.3981 44.2469 21.4993 45.2501 20.9368 46.433C20.3686 47.6044 20.3338 48.9903 20.6527 50.2602C20.989 51.5359 21.6211 52.7536 22.5663 53.693Z" fill="#BA96D6"/>
<path d="M21.1166 42.9886C21.9748 38.1467 24.9263 33.7281 29.0144 30.9912C33.1025 28.2542 38.2633 27.2104 43.1168 28.0396C44.5259 28.2832 45.9407 28.6833 47.1179 29.5009C48.295 30.3185 49.2112 31.5942 49.333 33.0207C49.4373 34.3138 48.8749 35.6127 47.9819 36.5579C47.0889 37.5031 45.8944 38.1177 44.6476 38.5005C42.0324 39.3065 39.2201 39.1151 36.5005 38.8136C33.7809 38.5063 31.0323 38.0945 28.3186 38.4715C25.6048 38.8484 22.4851 40.617 21.1166 42.9886Z" fill="#BA96D6"/>
<path d="M44.2301 35.0212C43.6213 35.1836 43.2618 35.8098 43.4299 36.4187C43.5923 37.0275 44.2185 37.3871 44.8274 37.2189C45.4363 37.0565 45.7958 36.4303 45.6276 35.8214C45.4595 35.2126 44.8332 34.8588 44.2301 35.0212Z" fill="#363E49"/>
<path d="M43.5923 28.9268C42.9834 29.095 42.6239 29.7154 42.7921 30.3243C42.9544 30.9332 43.5807 31.2927 44.1895 31.1245C44.7984 30.9564 45.1579 30.3359 44.9898 29.727C44.8216 29.124 44.2011 28.7645 43.5923 28.9268Z" fill="#363E49"/>
<path d="M23.6796 38.5933C23.0708 38.7788 22.5431 37.9902 22.6764 37.3639C22.8098 36.7377 23.3143 36.2796 23.7318 35.7983C24.1493 35.317 24.5146 34.6617 24.2885 34.0645C24.1435 33.6702 23.7724 33.4034 23.5694 33.0381C23.2157 32.4003 23.4477 31.5595 23.9522 31.0376C24.4566 30.5099 25.1699 30.2432 25.8773 30.075C27.5299 29.6807 29.2927 29.7503 30.9106 30.2664C31.9021 30.5795 33.1489 30.997 33.8389 30.22C34.0361 29.9938 34.1462 29.7039 34.326 29.4603C34.9464 28.6485 36.1874 28.7181 37.1731 28.9964C39.7478 29.7213 42.0556 31.3507 43.6039 33.531C43.6039 33.531 35.2886 33.2411 31.0439 34.6444C26.7993 36.0418 23.6796 38.5933 23.6796 38.5933Z" fill="#363E49"/>
<path d="M35.219 29.153C35.4799 29.3385 35.7815 29.4545 36.0714 29.5937C36.3613 29.7328 36.6455 29.8836 36.9238 30.0402C37.4689 30.3475 37.9966 30.6722 38.5068 31.0317C39.5506 31.774 40.4436 32.6728 41.296 33.6295C41.4642 33.8209 41.7425 33.5426 41.5743 33.3512C40.9133 32.5858 40.1421 31.9479 39.3418 31.3333C38.5474 30.7186 37.695 30.1735 36.7962 29.727C36.5411 29.6053 36.2859 29.4835 36.0308 29.3733C35.7699 29.2631 35.5263 29.153 35.2422 29.1182C35.2132 29.1182 35.2016 29.1414 35.219 29.153Z" fill="#BA96D6"/>
<path d="M34.0302 30.7187C34.1288 30.7535 34.2158 30.8289 34.3202 30.8695C34.4304 30.91 34.5463 30.9506 34.6565 30.9912C34.9058 31.0898 35.1552 31.1884 35.4045 31.2986C35.8684 31.5015 36.3265 31.7277 36.7672 31.9712C37.5558 32.4061 38.2981 32.8932 38.8837 33.5832C39.0171 33.7398 39.2375 33.5137 39.1041 33.3629C38.8489 33.0614 38.5068 32.8178 38.1821 32.5917C37.7704 32.3075 37.3413 32.0466 36.8948 31.8088C36.4367 31.5653 35.967 31.3507 35.4915 31.1594C35.2538 31.0608 35.0102 30.968 34.7725 30.8811C34.6507 30.8405 34.5289 30.7941 34.4072 30.7535C34.355 30.7361 34.3028 30.7187 34.2506 30.7071C34.181 30.6955 34.1056 30.7129 34.036 30.6897C34.0187 30.6955 34.0129 30.7187 34.0302 30.7187Z" fill="#BA96D6"/>
<path d="M30.7946 30.823C31.2005 31.1013 31.6354 31.3159 32.0703 31.5536C32.4936 31.7798 32.9111 32.0175 33.3228 32.261C34.1636 32.7539 34.958 33.299 35.7583 33.8557C35.8974 33.9543 36.0308 33.7223 35.8916 33.6295C35.0972 33.0613 34.2448 32.551 33.404 32.0581C32.9807 31.8088 32.5458 31.5768 32.1109 31.3507C31.6876 31.1303 31.2701 30.9216 30.812 30.7824C30.7888 30.7766 30.7772 30.8114 30.7946 30.823Z" fill="#BA96D6"/>
<path d="M26.2194 30.5504C26.3122 30.7186 26.6427 30.7186 26.8109 30.7534C27.0776 30.8114 27.3502 30.8752 27.6169 30.9447C28.1446 31.0839 28.6723 31.2463 29.1826 31.4434C30.2205 31.8377 31.2237 32.3422 32.1573 32.9337C32.685 33.27 33.172 33.6527 33.6359 34.0702C33.7809 34.2036 34.0013 33.9775 33.8505 33.8557C32.0761 32.4524 30.0814 31.3565 27.8952 30.7592C27.5995 30.678 27.298 30.6026 26.9965 30.5504C26.8399 30.5214 26.6775 30.4867 26.5152 30.4693C26.4108 30.4577 26.3064 30.4403 26.2252 30.5156C26.2136 30.5272 26.2136 30.5388 26.2194 30.5504Z" fill="#BA96D6"/>
<path d="M23.9869 31.8146C24.3175 31.8842 24.677 31.8668 25.0191 31.9016C25.367 31.9364 25.7149 31.9886 26.0571 32.064C26.7413 32.2031 27.414 32.4119 28.0692 32.6554C29.4145 33.1599 30.6728 33.8442 31.9659 34.4704C32.0819 34.5284 32.1863 34.3602 32.0703 34.2965C30.8062 33.5774 29.5015 32.9164 28.1388 32.4177C27.4603 32.1683 26.7645 31.9654 26.0513 31.832C25.7091 31.7682 25.367 31.716 25.0191 31.687C24.6886 31.6581 24.3175 31.6175 23.9869 31.6928C23.9232 31.6986 23.9232 31.7972 23.9869 31.8146Z" fill="#BA96D6"/>
<path d="M24.5494 33.6353C24.764 33.7165 25.0191 33.7107 25.2453 33.7397C25.4772 33.7745 25.7149 33.8035 25.9469 33.8441C26.4166 33.9195 26.8805 34.0296 27.3328 34.163C27.8025 34.3022 28.2606 34.4529 28.7071 34.6443C28.9158 34.7313 29.1188 34.8299 29.3217 34.9284C29.5189 35.027 29.6928 35.1488 29.919 35.1546C29.9422 35.1546 29.9538 35.1314 29.9422 35.114C29.8204 34.9284 29.6233 34.8415 29.4319 34.7429C29.2115 34.6269 28.9854 34.5225 28.7593 34.4239C28.3128 34.2326 27.8605 34.0528 27.3966 33.9195C26.9211 33.7803 26.434 33.6701 25.9469 33.5947C25.7207 33.5599 25.5004 33.5252 25.2742 33.5136C25.0423 33.4962 24.7756 33.4556 24.5494 33.5194C24.4856 33.5368 24.4972 33.6179 24.5494 33.6353Z" fill="#BA96D6"/>
<path d="M24.3175 35.6823C24.822 35.7519 25.3322 35.7693 25.8367 35.8563C26.3412 35.9432 26.8457 36.0708 27.327 36.239C27.4604 36.2854 27.5125 36.0766 27.385 36.0302C26.8805 35.8505 26.3644 35.7229 25.8309 35.6475C25.3322 35.5779 24.8104 35.5373 24.3175 35.6417C24.2943 35.6417 24.2943 35.6765 24.3175 35.6823Z" fill="#BA96D6"/>
<path d="M23.2853 37.3523C23.3723 37.3523 23.4535 37.3639 23.5404 37.3639C23.6274 37.3639 23.7144 37.3465 23.8014 37.3465C23.9753 37.3349 24.1493 37.3407 24.3233 37.3523C24.6712 37.3871 25.0133 37.4799 25.3322 37.6248C25.4888 37.6944 25.6222 37.4625 25.4656 37.3987C25.1119 37.2421 24.7466 37.1551 24.3581 37.1261C24.1725 37.1146 23.9869 37.1146 23.8014 37.1377C23.7086 37.1493 23.61 37.1551 23.5173 37.1841C23.4245 37.2131 23.3549 37.2595 23.2737 37.3059C23.2447 37.3117 23.2563 37.3523 23.2853 37.3523Z" fill="#BA96D6"/>
<path d="M37.6312 43.493C37.6544 43.7946 37.8922 44.0671 38.0487 44.3165C38.2111 44.5716 38.3561 44.8325 38.4778 45.1051C38.7156 45.6618 38.8606 46.2706 38.8837 46.8795C38.9359 48.0972 38.5358 49.3265 37.7588 50.2717C37.637 50.4167 37.6138 50.6196 37.7588 50.7646C37.8806 50.8864 38.1299 50.9096 38.2517 50.7646C39.655 49.0424 39.9681 46.6649 38.9997 44.6644C38.8721 44.4034 38.7272 44.1425 38.5532 43.9106C38.3851 43.6902 38.1531 43.3713 37.8632 43.3249C37.753 43.3017 37.6196 43.3655 37.6312 43.493Z" fill="#363E49"/>
<path d="M43.2096 50.521C43.1864 50.2195 42.9486 49.947 42.7921 49.6976C42.6297 49.4425 42.4847 49.1816 42.3629 48.909C42.1252 48.3523 41.9802 47.7435 41.957 47.1346C41.9049 45.9169 42.305 44.6876 43.082 43.7424C43.2038 43.5974 43.227 43.3945 43.082 43.2495C42.9602 43.1277 42.7109 43.1045 42.5891 43.2495C41.1858 44.9717 40.8727 47.3492 41.8411 49.3497C41.9686 49.6107 42.1136 49.8716 42.2876 50.1035C42.4557 50.3239 42.6877 50.6428 42.9776 50.6892C43.0936 50.7066 43.2212 50.6428 43.2096 50.521Z" fill="#363E49"/>
<path d="M37.5385 47.181C37.6196 47.4129 37.8632 47.4187 38.0777 47.4419C38.3155 47.4651 38.559 47.4767 38.7968 47.4825C39.2781 47.4941 39.7536 47.5057 40.2348 47.5173C41.1916 47.5405 42.1484 47.5521 43.111 47.5695C43.5691 47.5753 43.5691 46.8679 43.111 46.8621C42.131 46.8505 41.1452 46.8273 40.1653 46.8215C39.684 46.8215 39.2085 46.8157 38.7272 46.8157C38.4778 46.8157 38.2227 46.8215 37.9734 46.8447C37.811 46.8563 37.4457 46.9316 37.5385 47.181Z" fill="#363E49"/>
</svg>
