<svg width="80" height="80" viewBox="0 0 80 80" fill="none" xmlns="http://www.w3.org/2000/svg">
<circle opacity="0.2" cx="40" cy="40" r="40" fill="#C6C6D7"/>
<path d="M43.8622 53.63C43.9668 53.8513 44.391 53.8206 44.5939 53.8267C44.8582 53.839 45.1226 53.8452 45.3869 53.8513C45.9341 53.8636 46.4813 53.8636 47.0284 53.8698C47.4403 53.8759 47.4403 53.2242 47.0284 53.2304C46.4382 53.2427 45.848 53.2427 45.264 53.2611C44.9812 53.2734 44.6922 53.2734 44.4094 53.298C44.2557 53.3103 43.7208 53.3288 43.8622 53.63Z" fill="#363E49"/>
<path d="M47.2682 56.6793C47.4096 56.624 47.4219 56.4765 47.4342 56.3412C47.4465 56.1383 47.4342 55.9354 47.4281 55.7326C47.4096 55.21 47.3912 54.6813 47.3666 54.1587C47.3604 53.9865 47.3543 53.8205 47.342 53.6484C47.3235 53.2857 46.7579 53.2918 46.7825 53.6484C46.844 54.5276 46.8747 55.419 46.9915 56.2982C47.01 56.4211 47.0715 56.7593 47.2682 56.6793Z" fill="#363E49"/>
<path d="M40.7944 60.0731C40.9543 59.9685 41.108 59.8763 41.2617 59.7595C41.4031 59.6489 41.5322 59.5259 41.6613 59.4091C41.938 59.1509 42.2085 58.8804 42.479 58.6099C43.02 58.0688 43.561 57.534 44.102 56.9929C44.643 56.4519 45.1779 55.9109 45.7128 55.3699C45.9833 55.0994 46.2477 54.8289 46.5182 54.5584C46.6411 54.4354 46.7702 54.3063 46.8932 54.1833C47.0346 54.0419 47.1944 53.9128 47.2559 53.71C47.3112 53.5194 47.1207 53.3288 46.9301 53.3841C46.7272 53.4456 46.6104 53.6054 46.4628 53.753C46.3399 53.8821 46.2169 54.0112 46.094 54.1342C45.8296 54.4108 45.5652 54.6813 45.2947 54.9518C44.7599 55.499 44.2311 56.04 43.7024 56.5933C43.1737 57.1405 42.645 57.6938 42.1162 58.241C41.8519 58.5176 41.5875 58.7881 41.3293 59.0709C41.2125 59.2001 41.1018 59.323 40.9973 59.4583C40.8744 59.6181 40.776 59.7841 40.6715 59.9563C40.6407 60.03 40.7207 60.1161 40.7944 60.0731Z" fill="#363E49"/>
<path d="M45.055 58.9356C44.8767 58.6036 44.6123 58.327 44.3541 58.0503C44.0959 57.7675 43.8192 57.4909 43.5487 57.2204C43.0077 56.6855 42.4544 56.1629 41.8826 55.6588C41.5814 55.3944 41.1326 55.8371 41.44 56.1014C42.0179 56.5994 42.5773 57.1158 43.1245 57.6446C43.395 57.9089 43.6532 58.1733 43.9237 58.4438C44.1942 58.7143 44.4525 59.0033 44.7722 59.2184C44.9504 59.3475 45.1472 59.1139 45.055 58.9356Z" fill="#363E49"/>
<path d="M52.7214 65.0529C52.9919 64.7455 53.1456 64.2844 53.2317 63.8971C53.7051 63.7926 54.1846 63.7065 54.6396 63.6389L54.658 64.684C54.7687 64.4689 54.824 63.8172 54.8425 63.6081C54.9347 63.5959 55.0269 63.5836 55.113 63.5713C55.0945 63.9524 55.0638 64.6779 55.0638 64.6779C55.1806 64.5303 55.322 63.9155 55.4081 63.5344C56.1458 63.4483 56.6991 63.4176 56.8098 63.4422C56.8897 63.4545 57.0188 63.5036 57.1787 63.5774C56.9942 63.9401 56.7791 64.3582 56.7791 64.3582C56.8528 64.3152 57.1602 63.9647 57.4123 63.6758C58.0394 63.9647 58.8817 64.4197 58.8817 64.4197C58.8817 64.4197 58.5866 64.764 58.2484 65.1451C58.0394 64.9914 57.8611 64.9238 57.8611 64.9238C57.9779 65.0529 58.064 65.1697 58.1316 65.2742C57.8058 65.637 57.4615 65.9936 57.3078 66.0858C57.3016 66.0919 57.2893 66.0981 57.2709 66.1042C57.0004 65.8337 56.6807 65.5878 56.6807 65.5878C56.8467 65.8091 56.9696 66.0181 57.0619 66.1841C56.7791 66.2825 56.2872 66.4301 55.6909 66.5776C55.322 66.2272 54.8056 65.9382 54.8056 65.9382C54.9962 66.0919 55.3097 66.4239 55.488 66.6268C55.2851 66.676 55.0699 66.7252 54.8548 66.7682C54.5597 66.4546 53.9818 65.8767 53.7235 65.7722L54.5781 66.8235C54.0801 66.9219 53.5637 67.008 53.078 67.0571C52.6354 66.4977 52.0882 66.0796 52.0882 66.0796C52.3771 66.4178 52.6354 66.7866 52.8382 67.0756C52.5677 67.1002 52.3095 67.1063 52.0697 67.1002C51.5595 66.9034 50.9877 66.3009 50.7418 65.9444C50.8402 65.5263 51.1598 64.7517 51.5595 64.3828C51.9591 64.2168 52.4325 64.0692 52.9305 63.9524C52.869 64.4996 52.7214 65.0529 52.7214 65.0529Z" fill="#EAE1F9"/>
<path d="M58.1378 64.5181C57.4615 64.6533 56.7914 64.8316 56.1089 64.973C55.4573 65.1083 54.7994 65.2189 54.1355 65.3296C52.7583 65.5571 51.3812 65.7845 49.9979 66.0059C49.9057 66.0182 49.9426 66.1596 50.0348 66.1473C51.4119 65.9198 52.7891 65.6923 54.1662 65.4587C54.824 65.348 55.4819 65.2312 56.1335 65.0898C56.8037 64.9484 57.4984 64.807 58.1378 64.5673C58.1808 64.555 58.1685 64.5058 58.1378 64.5181Z" fill="#363E49"/>
<path d="M53.8035 67.4813C53.994 67.3768 54.3137 66.9956 54.5228 66.7374C54.6273 66.7743 54.7318 66.8112 54.8363 66.8481C54.5658 67.2231 54.1908 67.7334 54.1908 67.7334C54.3752 67.6719 54.8117 67.2723 55.1314 66.9587C55.6847 67.1678 56.2319 67.4075 56.7299 67.6412L56.2811 68.3543C56.4409 68.2621 56.7053 67.967 56.9082 67.7211C57.1233 67.8256 57.3262 67.924 57.5168 68.0223C57.1356 68.5388 56.5885 69.0244 56.5885 69.0244C57.0619 68.8892 57.5168 68.5203 57.8488 68.1945C58.3898 68.4773 58.7648 68.7048 58.8386 68.7724C58.9493 68.8769 59.1337 69.1536 59.3366 69.4855C59.2259 69.6024 59.0784 69.7315 58.8817 69.879C58.8817 69.879 59.146 69.836 59.4596 69.6823C59.8407 70.3155 60.228 71.041 60.228 71.041C60.228 71.041 59.2444 71.3299 58.4759 71.5144C58.273 71.1455 58.0394 70.7459 57.9718 70.6844C57.9718 70.6844 58.1009 71.1455 58.2177 71.5758C57.9656 71.6312 57.7566 71.6619 57.6459 71.6619C57.5476 71.6619 57.1725 71.5635 56.6377 71.3976C56.57 70.8996 56.3487 70.2602 56.3487 70.2602C56.3733 70.7028 56.3487 71.0533 56.3118 71.293C56.0352 71.207 55.7339 71.1024 55.4204 70.9856C55.3466 70.1618 55.0822 69.4056 55.0822 69.4056C55.1499 69.9343 55.1683 70.4754 55.1744 70.8934C54.7256 70.7274 54.2584 70.5368 53.8035 70.334C53.7051 69.8298 53.5452 69.1474 53.3977 68.9261L53.5268 70.2049C53.4469 70.168 53.367 70.1311 53.2932 70.0942C53.1395 69.5901 52.8936 69.1167 52.8936 69.1167C52.9612 69.3257 53.0288 69.6946 53.078 69.9897C52.6476 69.7745 52.248 69.547 51.9037 69.3073C51.5349 68.797 51.3627 67.8379 51.3443 67.3399C51.707 66.9956 52.5062 66.4485 53.1333 66.3501C53.5022 66.4177 53.908 66.5284 54.326 66.6636L53.8035 67.4813Z" fill="#BA96D6"/>
<path d="M59.3858 70.7828C58.7095 70.4323 57.9964 70.1495 57.2955 69.8421C56.5823 69.5286 55.8692 69.215 55.156 68.9076C53.7358 68.2928 52.3218 67.6842 50.9016 67.0755C50.8033 67.0325 50.7172 67.1801 50.8156 67.2169C52.248 67.8317 53.6744 68.4465 55.1068 69.0613C55.7954 69.3564 56.4778 69.6454 57.1664 69.9343C57.8918 70.2417 58.6173 70.5676 59.3612 70.8319C59.3919 70.8319 59.4104 70.795 59.3858 70.7828Z" fill="#363E49"/>
<path d="M25.9656 28.7247C26.3406 28.5587 26.8263 28.5464 27.2198 28.5833C27.4596 28.1653 27.6809 27.7287 27.8838 27.3168L26.894 26.991C27.1276 26.948 27.767 27.0894 27.976 27.1385C28.0129 27.0525 28.0559 26.9726 28.0928 26.8926C27.7239 26.7943 27.0169 26.6098 27.0169 26.6098C27.1952 26.5422 27.8223 26.5852 28.2096 26.6221C28.5109 25.9458 28.7014 25.4233 28.7137 25.3126C28.726 25.2327 28.7137 25.0913 28.6953 24.9191C28.2957 24.9868 27.8284 25.0728 27.8284 25.0728C27.8899 25.0175 28.3141 24.8208 28.6646 24.6732C28.5723 23.9847 28.3879 23.0502 28.3879 23.0502C28.3879 23.0502 27.9698 23.2285 27.5087 23.4375C27.5887 23.6834 27.601 23.874 27.601 23.874C27.5087 23.7264 27.4227 23.6096 27.3489 23.5113C26.9062 23.7141 26.4636 23.9355 26.3283 24.0523C26.3222 24.0584 26.3099 24.0707 26.2976 24.083C26.4759 24.4212 26.6173 24.8023 26.6173 24.8023C26.4513 24.5749 26.2976 24.3966 26.1623 24.2613C25.9841 24.5011 25.6951 24.9314 25.3754 25.454C25.5967 25.909 25.7197 26.4869 25.7197 26.4869C25.6275 26.2594 25.4 25.8659 25.2647 25.6323C25.1602 25.8106 25.0496 26.0012 24.9389 26.1979C25.1479 26.5729 25.5291 27.2922 25.5537 27.5689L24.8037 26.4438C24.5639 26.8865 24.3303 27.3537 24.1335 27.8087C24.5393 28.3989 24.7729 29.0444 24.7729 29.0444C24.5393 28.6694 24.2626 28.3128 24.0413 28.0361C23.9429 28.2882 23.8569 28.5341 23.7892 28.7616C23.8261 29.3026 24.2319 30.0342 24.4963 30.3724C24.9266 30.4031 25.7566 30.3293 26.23 30.0527C26.5066 29.7207 26.7894 29.3088 27.0477 28.8661C26.5374 28.7432 25.9656 28.7247 25.9656 28.7247Z" fill="#EAE1F9"/>
<path d="M28.0436 23.6773C27.644 24.1998 27.312 24.7839 26.9923 25.3556C26.6603 25.952 26.3468 26.5545 26.0332 27.1631C25.3877 28.4235 24.7606 29.6899 24.1212 30.9564C24.0782 31.0363 24.2012 31.1101 24.2442 31.0302C24.8713 29.776 25.4984 28.5157 26.1255 27.2615C26.4267 26.6652 26.7341 26.0688 27.0538 25.4786C27.3796 24.8822 27.7485 24.3043 28.0744 23.708C28.0989 23.6834 28.0621 23.6527 28.0436 23.6773Z" fill="#363E49"/>
<path d="M23.9675 26.9726C24.1212 26.825 24.5823 26.6283 24.8897 26.5053C24.8897 26.3947 24.8836 26.284 24.8774 26.1733C24.4409 26.3209 23.8384 26.5238 23.8384 26.5238C23.9552 26.3639 24.4655 26.0688 24.859 25.8537C24.8221 25.2635 24.7545 24.6733 24.6807 24.1261L23.863 24.3474C23.9983 24.2183 24.361 24.0585 24.65 23.9355C24.6131 23.7019 24.5823 23.4744 24.5454 23.2654C23.9368 23.4744 23.3158 23.8556 23.3158 23.8556C23.5802 23.4437 24.072 23.1178 24.484 22.8965C24.3733 22.294 24.2688 21.8698 24.2257 21.7776C24.1581 21.6423 23.9491 21.3841 23.6909 21.0952C23.5495 21.1689 23.3773 21.2673 23.1806 21.4148C23.1806 21.4148 23.2974 21.1751 23.5372 20.923C23.0392 20.3697 22.4674 19.7856 22.4674 19.7856C22.4674 19.7856 21.9018 20.6402 21.4961 21.3226C21.785 21.6239 22.1047 21.9682 22.1416 22.0481C22.1416 22.0481 21.742 21.7899 21.367 21.5501C21.2378 21.7776 21.1456 21.962 21.1149 22.0727C21.0903 22.1649 21.0657 22.5584 21.0657 23.1117C21.5207 23.3207 22.0678 23.7265 22.0678 23.7265C21.6559 23.5728 21.3116 23.4928 21.0657 23.456C21.0719 23.7449 21.078 24.0646 21.0964 24.4027C21.8649 24.7163 22.5043 25.1958 22.5043 25.1958C22.0186 24.9745 21.5084 24.7962 21.1087 24.6671C21.1333 25.1405 21.1764 25.6446 21.2378 26.1426C21.6928 26.3885 22.2953 26.739 22.4613 26.948L21.2747 26.4439C21.287 26.5299 21.2993 26.616 21.3116 26.7021C21.7481 26.9972 22.1231 27.3722 22.1231 27.3722C21.9449 27.2431 21.6129 27.0709 21.3485 26.9357C21.4284 27.4091 21.5268 27.864 21.6498 28.2575C22.0309 28.7616 22.8916 29.2104 23.365 29.3703C23.8015 29.1244 24.5639 28.5219 24.8405 27.9562C24.8836 27.5812 24.902 27.1632 24.8959 26.7267L23.9675 26.9726Z" fill="#BA96D6"/>
<path d="M22.4182 20.6647C22.449 21.4271 22.5412 22.1894 22.615 22.9518C22.6888 23.7264 22.7687 24.5011 22.8486 25.2757C23.0084 26.8127 23.1683 28.3497 23.3281 29.8805C23.3404 29.985 23.5064 29.985 23.4941 29.8805C23.3281 28.3312 23.1683 26.7819 23.0023 25.2327C22.9224 24.4703 22.8363 23.708 22.7502 22.9456C22.6642 22.1833 22.5965 21.4086 22.4674 20.6524C22.4613 20.634 22.4182 20.6402 22.4182 20.6647Z" fill="#363E49"/>
<path d="M21.4469 30.1695C21.6375 31.0241 21.8403 31.8787 22.0555 32.7394C22.5597 34.7866 23.0761 36.8278 23.5925 38.8689C24.2134 41.328 24.8344 43.7934 25.4553 46.2525C25.9841 48.3551 26.5128 50.4516 27.0476 52.5542C27.2198 53.2366 27.3919 53.919 27.5641 54.6076C27.6378 54.9088 27.6932 55.2347 27.7977 55.5298C27.853 55.6958 28.1174 55.7818 28.2588 55.8679C28.7445 56.1507 29.2302 56.4335 29.7158 56.7163C31.4373 57.7184 33.1648 58.7206 34.8863 59.7165C37.0749 60.9891 39.2636 62.2556 41.4461 63.5282C43.4134 64.6718 45.3808 65.8091 47.3481 66.9526C48.4179 67.5736 49.4876 68.1945 50.5635 68.8155C50.6127 68.8462 50.6619 68.8708 50.711 68.9015C50.8893 69.006 51.043 68.7294 50.8709 68.631C50.668 68.5142 50.4651 68.3974 50.2622 68.2806C49.7089 67.9609 49.1495 67.6351 48.5962 67.3154C47.7785 66.842 46.9608 66.3686 46.1431 65.8952C45.1472 65.3173 44.1451 64.7394 43.1491 64.1615C42.0548 63.5282 40.9604 62.895 39.8661 62.2618C38.7595 61.6162 37.6467 60.9768 36.5401 60.3313C35.5134 59.735 34.4805 59.1386 33.4538 58.5423C32.5808 58.0381 31.7139 57.534 30.8409 57.0299C30.2138 56.6671 29.5806 56.2983 28.9535 55.9355C28.6646 55.7695 28.3695 55.5544 28.0621 55.4191C28.0498 55.413 28.0375 55.4068 28.0252 55.3945C28.0498 55.4253 28.0682 55.456 28.0928 55.4806C27.8776 54.6383 27.6624 53.7899 27.4473 52.9476C26.937 50.9311 26.4267 48.9207 25.9164 46.9042C25.2955 44.4573 24.6745 42.0105 24.0536 39.5636C23.5187 37.461 22.99 35.3522 22.4428 33.2497C22.2523 32.5488 22.074 31.8541 21.8834 31.1594C21.7912 30.8335 21.7235 30.4892 21.6067 30.1695C21.6006 30.1572 21.6006 30.145 21.5944 30.1265C21.5698 30.0343 21.4223 30.0712 21.4469 30.1695Z" fill="#363E49"/>
<path d="M42.8232 40.1416L44.9504 43.025L44.9812 43.068L47.1084 45.9514L48.7683 44.7279L46.6473 41.8384L46.6165 41.8015L44.4893 38.912L42.8232 40.1416Z" fill="#363E49"/>
<path d="M42.5036 40.2829C42.5036 40.2829 36.0544 33.9137 33.9887 33.262C31.9291 32.6103 28.3018 33.3972 27.4104 33.4649C26.5251 33.5325 19.1414 29.2412 19 29.0506C18.8586 28.8601 20.8013 27.8395 20.8997 27.8518C20.9981 27.8641 26.5435 31.4606 27.2444 31.4114C27.9452 31.3684 33.6505 30.0036 35.0953 30.6122C36.5401 31.2209 43.8561 36.1454 46.6165 38.4201L42.5036 40.2829Z" fill="#BA96D6"/>
<path d="M34.6957 33.6001C36.2941 34.5345 38.9931 36.9568 40.7637 38.6106C41.606 37.5532 42.3253 36.5265 42.7741 35.5551C40.5055 33.9566 37.9664 32.2721 36.3925 31.3253C35.7039 31.9278 35.1445 32.6963 34.6957 33.6001Z" fill="#363E49"/>
<path d="M41.2801 34.5838C41.2063 34.6944 41.1694 34.8297 41.1141 34.9465C41.0588 35.0633 41.0096 35.1801 40.9543 35.2969C40.8313 35.5551 40.6961 35.8011 40.5547 36.0408C40.2657 36.5204 39.9399 36.9692 39.5648 37.3811C39.4849 37.4671 39.614 37.6024 39.6939 37.5102C40.0813 37.086 40.4133 36.6187 40.6961 36.1208C40.8375 35.8687 40.9727 35.6043 41.0834 35.34C41.1817 35.1125 41.3109 34.842 41.3231 34.5899C41.3293 34.5715 41.2924 34.5653 41.2801 34.5838Z" fill="#BA96D6"/>
<path d="M39.8538 33.6431C39.8292 33.9074 39.8968 34.2087 39.9214 34.473C39.946 34.7497 39.9645 35.0325 39.9706 35.3153C39.989 35.8748 39.9645 36.4342 39.8968 36.9875C39.8845 37.0859 40.0444 37.0859 40.0567 36.9875C40.1243 36.4219 40.1427 35.8502 40.1182 35.2846C40.1059 35.0017 40.0813 34.7251 40.0505 34.4484C40.0198 34.1902 40.0136 33.8828 39.9214 33.6431C39.903 33.6 39.8538 33.6062 39.8538 33.6431Z" fill="#BA96D6"/>
<path d="M39.8538 33.6246C39.7862 33.723 39.7616 33.8459 39.7247 33.9566C39.6817 34.0795 39.6325 34.1964 39.5771 34.3132C39.4726 34.5468 39.3558 34.7743 39.2267 34.9956C39.0976 35.2169 38.9501 35.4259 38.7902 35.6288C38.6304 35.8317 38.4459 36.01 38.2738 36.2006C38.2 36.2867 38.3107 36.3973 38.3967 36.3235C38.7902 35.9916 39.1222 35.5243 39.3743 35.0817C39.5034 34.8603 39.6202 34.6329 39.7124 34.3931C39.7616 34.2763 39.7985 34.1533 39.8354 34.0304C39.8722 33.9074 39.9276 33.7722 39.9214 33.643C39.9153 33.6062 39.8722 33.5939 39.8538 33.6246Z" fill="#BA96D6"/>
<path d="M38.8517 32.9606C38.7533 33.1881 38.7164 33.4463 38.6365 33.6799C38.5566 33.9197 38.4644 34.1533 38.366 34.3808C38.2676 34.596 38.157 34.805 38.034 35.0079C37.8987 35.2292 37.7266 35.4321 37.6036 35.6534C37.5483 35.7456 37.6774 35.844 37.7512 35.7702C37.9295 35.5858 38.0647 35.346 38.1938 35.1308C38.3291 34.9095 38.4459 34.6759 38.5504 34.4423C38.6488 34.2148 38.7349 33.9873 38.8025 33.7537C38.8701 33.5078 38.9562 33.2311 38.9439 32.9791C38.9377 32.9237 38.8701 32.9176 38.8517 32.9606Z" fill="#BA96D6"/>
<path d="M36.2388 34.6575C36.3433 34.6514 36.4478 34.5776 36.5339 34.5222C36.6384 34.4546 36.7368 34.387 36.8352 34.3132C37.0319 34.1657 37.2225 34.012 37.4008 33.846C37.7573 33.514 38.0709 33.1328 38.3291 32.7209C38.4029 32.6041 38.2184 32.4934 38.1447 32.6102C37.8988 33.016 37.5975 33.3726 37.2594 33.7046C37.0934 33.8644 36.9151 34.0181 36.7368 34.1595C36.6446 34.2333 36.5462 34.3009 36.4478 34.3685C36.3618 34.43 36.2511 34.4915 36.1958 34.5776C36.1712 34.6083 36.2019 34.6575 36.2388 34.6575Z" fill="#BA96D6"/>
<path d="M37.1549 31.8909C37.0258 32.0508 36.9274 32.2352 36.8106 32.4012C36.6815 32.5918 36.5401 32.7824 36.3987 32.9668C36.1282 33.3234 35.8392 33.68 35.5441 34.0181C35.4642 34.1103 35.5994 34.2456 35.6794 34.1534C35.9745 33.8091 36.2573 33.4525 36.5216 33.0836C36.6569 32.893 36.7921 32.7025 36.9151 32.5057C37.0319 32.3274 37.161 32.143 37.2409 31.9401C37.2655 31.8971 37.1856 31.854 37.1549 31.8909Z" fill="#BA96D6"/>
<path d="M40.2473 38.0757C40.4932 37.9835 40.7022 37.7561 40.8682 37.5655C41.0649 37.338 41.2494 37.0982 41.4031 36.84C41.7043 36.3482 41.9871 35.758 42.0609 35.1801C42.0793 35.0571 41.9072 35.0018 41.8703 35.1247C41.7965 35.3952 41.7351 35.6658 41.6306 35.9301C41.526 36.2006 41.3908 36.465 41.2432 36.7171C41.0957 36.963 40.9297 37.1966 40.7514 37.4179C40.5793 37.6269 40.3579 37.8175 40.2288 38.0573C40.2288 38.0696 40.2411 38.0819 40.2473 38.0757Z" fill="#BA96D6"/>
<path d="M20.0574 29.7208C21.5268 30.5938 24.2073 32.1124 25.9226 32.9239C25.9656 32.2845 26.1746 31.7004 26.5251 31.1656C25.1664 30.5139 22.449 28.8048 21.367 28.1346C20.8136 28.6019 20.371 29.1306 20.0574 29.7208Z" fill="#363E49"/>
<path d="M26.0271 30.9197C25.9718 30.8951 25.9349 30.9443 25.898 30.9812C25.8427 31.0365 25.7935 31.098 25.7443 31.1533C25.6398 31.2763 25.5353 31.4054 25.4369 31.5345C25.3385 31.6636 25.2463 31.7989 25.1602 31.9341C25.1172 32.0017 25.0742 32.0694 25.0373 32.137C24.9942 32.2046 24.9451 32.2723 24.9389 32.3583C24.9328 32.4444 25.0373 32.469 25.0926 32.4198C25.1479 32.3706 25.1725 32.2845 25.2094 32.2231C25.2463 32.1554 25.2832 32.0817 25.3262 32.014C25.4061 31.8726 25.4922 31.7374 25.5844 31.6021C25.6705 31.4669 25.7627 31.3378 25.8611 31.2148C25.8857 31.1779 26.107 30.9627 26.0271 30.9197Z" fill="#BA96D6"/>
<path d="M25.1356 30.4647C24.9635 30.6983 24.8528 30.9811 24.7483 31.2516C24.6438 31.5344 24.5577 31.8111 24.5086 32.1123C24.4901 32.2292 24.6684 32.2722 24.6807 32.1615C24.7237 31.8787 24.7852 31.5898 24.8651 31.3131C24.9451 31.0303 25.0742 30.7659 25.1971 30.5016C25.2217 30.4586 25.1602 30.4278 25.1356 30.4647Z" fill="#BA96D6"/>
<path d="M24.8221 30.2495C24.527 30.3663 24.2565 30.5754 24.0352 30.7967C23.9183 30.9135 23.8138 31.0365 23.7155 31.1717C23.6663 31.2332 23.6232 31.3008 23.5864 31.3623C23.5433 31.4299 23.4818 31.5098 23.4818 31.5898C23.4818 31.6697 23.5679 31.6881 23.6232 31.6451C23.6786 31.6021 23.7032 31.5098 23.7401 31.4484C23.7769 31.3869 23.8138 31.3193 23.8569 31.2578C23.9429 31.1287 24.0413 31.0119 24.1458 30.8951C24.2503 30.7844 24.3548 30.6799 24.4717 30.5815C24.5946 30.4831 24.7237 30.3971 24.8528 30.3049C24.8836 30.2926 24.8651 30.2311 24.8221 30.2495Z" fill="#BA96D6"/>
<path d="M24.029 29.813C23.9737 29.8806 23.9429 29.9728 23.9245 30.0589C23.8999 30.1634 23.8876 30.2679 23.8753 30.3725C23.8569 30.5692 23.8507 30.7721 23.8692 30.975C23.8815 31.0733 24.0352 31.0733 24.0229 30.975C24.0044 30.7844 23.9983 30.5938 24.0167 30.4032C24.0229 30.3048 24.0352 30.2126 24.0536 30.1142C24.0721 30.0282 24.0966 29.936 24.0966 29.8437C24.0966 29.8068 24.0536 29.7823 24.029 29.813Z" fill="#BA96D6"/>
<path d="M23.7093 29.6163C23.4573 29.8007 23.2851 30.0528 23.1253 30.3171C22.9593 30.5876 22.824 30.8704 22.7195 31.1655C22.6888 31.2578 22.8425 31.3008 22.8732 31.2024C22.9654 30.9135 23.0945 30.643 23.2482 30.3848C23.3958 30.1265 23.5741 29.8929 23.7401 29.6409C23.7462 29.6286 23.7278 29.604 23.7093 29.6163Z" fill="#BA96D6"/>
<path d="M22.8793 29.0876C22.824 29.063 22.781 29.1122 22.7441 29.1429C22.6826 29.1983 22.6273 29.2597 22.5781 29.3274C22.4736 29.4565 22.3691 29.5917 22.2769 29.7331C22.0863 30.0159 21.9203 30.311 21.7727 30.6123C21.7235 30.7106 21.8772 30.8029 21.9203 30.6984C22.0555 30.3848 22.2215 30.0897 22.406 29.8069C22.4982 29.6594 22.6027 29.5241 22.7072 29.3888C22.7318 29.352 22.9593 29.1183 22.8793 29.0876Z" fill="#BA96D6"/>
<path d="M22.6642 28.9707C22.5043 29.0015 22.3445 29.0875 22.1969 29.1551C22.0248 29.2289 21.8588 29.315 21.6928 29.4011C21.3731 29.5671 21.0657 29.7515 20.7768 29.9667C20.6722 30.0466 20.7829 30.1942 20.8874 30.1142C21.1641 29.8991 21.4653 29.7146 21.7727 29.5425C21.9264 29.4564 22.0863 29.3765 22.24 29.2966C22.3875 29.2228 22.5658 29.1613 22.7011 29.0629C22.7441 29.026 22.7195 28.9584 22.6642 28.9707Z" fill="#BA96D6"/>
<path d="M21.7235 28.3806C21.5944 28.4421 21.5084 28.5835 21.4284 28.6941C21.3301 28.8294 21.2501 28.9708 21.1702 29.1183C21.0165 29.4011 20.8813 29.6962 20.746 29.9913C20.6968 30.102 20.8567 30.1942 20.9059 30.0836C21.035 29.7885 21.1641 29.4995 21.3116 29.2106C21.3854 29.0692 21.4592 28.9278 21.5391 28.7863C21.6129 28.6634 21.7112 28.5343 21.7481 28.3929C21.7481 28.3806 21.7358 28.3744 21.7235 28.3806Z" fill="#BA96D6"/>
<path d="M46.8747 46.2157C46.8747 46.2157 51.043 54.2634 51.0553 56.4274C51.0676 58.5915 49.2355 61.8192 48.9097 62.6491C48.5839 63.4791 50.4897 71.7973 50.6311 71.9879C50.7725 72.1784 52.3218 70.623 52.3403 70.5246C52.3526 70.4263 50.5696 64.0632 50.8217 63.4115C51.0738 62.7598 54.0678 57.7124 53.9141 56.1508C53.7604 54.5953 51.2336 46.1419 49.8749 42.8344L46.8747 46.2157Z" fill="#BA96D6"/>
<path d="M50.9385 55.6589C50.5205 53.8514 49.0081 50.5623 47.9506 48.3798C49.2109 47.8879 50.4098 47.5068 51.4672 47.3654C52.3218 50.009 53.1764 52.9292 53.6129 54.7121C52.8382 55.1917 51.9406 55.4929 50.9385 55.6589Z" fill="#363E49"/>
<path d="M51.9591 49.0253C51.707 48.9638 51.3935 49.0068 51.1353 49.0375C50.8586 49.0683 50.5819 49.1113 50.3053 49.1728C49.7458 49.2958 49.1987 49.4802 48.6761 49.72C48.5654 49.7692 48.6638 49.929 48.7683 49.8798C49.2724 49.6462 49.8012 49.4618 50.3422 49.3327C50.6065 49.2712 50.877 49.2158 51.1475 49.1728C51.4119 49.1359 51.7009 49.1421 51.9529 49.0744C51.9775 49.0683 51.9775 49.0314 51.9591 49.0253Z" fill="#BA96D6"/>
<path d="M52.4632 50.6668C52.2542 50.5008 51.9652 50.4024 51.7193 50.2979C51.4734 50.1872 51.2152 50.0889 50.9631 49.9966C50.4159 49.7999 49.8626 49.6401 49.2909 49.5417C49.1925 49.5233 49.1495 49.6769 49.2478 49.6954C49.795 49.7938 50.336 49.9413 50.8647 50.1196C51.123 50.2118 51.3812 50.3102 51.6394 50.4086C51.7685 50.4577 51.8914 50.5131 52.0206 50.5623C52.1497 50.6176 52.2849 50.6914 52.4263 50.7221C52.4571 50.7282 52.4939 50.6852 52.4632 50.6668Z" fill="#BA96D6"/>
<path d="M52.4509 50.6545C52.3341 50.6115 52.1988 50.6176 52.0759 50.6176C51.9345 50.6176 51.7992 50.6176 51.6578 50.6299C51.4058 50.6484 51.1598 50.6914 50.9139 50.7467C50.4098 50.8635 49.8749 51.0418 49.4323 51.3185C49.3339 51.38 49.42 51.5152 49.5183 51.466C49.9917 51.2447 50.4467 51.0357 50.957 50.9127C51.2029 50.8512 51.4549 50.8143 51.707 50.7836C51.83 50.7713 51.9529 50.759 52.0697 50.7529C52.1927 50.7467 52.328 50.759 52.4448 50.7221C52.4817 50.7098 52.4817 50.6668 52.4509 50.6545Z" fill="#BA96D6"/>
<path d="M52.7952 51.7919C52.5554 51.712 52.2726 51.7058 52.0205 51.6997C51.7623 51.6935 51.5103 51.7058 51.2521 51.7365C51.0061 51.7673 50.7602 51.8103 50.5205 51.8656C50.2684 51.9271 49.9979 51.9886 49.7643 52.0993C49.6659 52.1485 49.7335 52.296 49.838 52.2714C50.084 52.2099 50.3237 52.1116 50.5696 52.0562C50.8094 51.9948 51.0553 51.9517 51.3012 51.921C51.541 51.8902 51.7808 51.8779 52.0144 51.8718C52.2665 51.8657 52.5247 51.8964 52.7767 51.8779C52.8321 51.8718 52.8444 51.8042 52.7952 51.7919Z" fill="#BA96D6"/>
<path d="M50.459 53.9375C50.5512 53.9067 50.6373 53.8329 50.711 53.7715C50.8033 53.6977 50.8955 53.6301 50.9938 53.5563C51.1906 53.421 51.3935 53.2919 51.6025 53.1751C52.0205 52.9476 52.4571 52.7632 52.9181 52.6525C53.0534 52.6218 52.9981 52.4128 52.8628 52.4435C52.3956 52.5665 51.9406 52.7509 51.5226 52.9907C51.3135 53.1075 51.1168 53.2427 50.9201 53.3841C50.8217 53.4579 50.7295 53.5255 50.6373 53.6055C50.5512 53.6731 50.4467 53.753 50.4036 53.8575C50.3791 53.8944 50.4098 53.9498 50.459 53.9375Z" fill="#BA96D6"/>
<path d="M53.2747 53.7161C53.0657 53.7346 52.8505 53.8022 52.6476 53.8575C52.4202 53.919 52.1927 53.9928 51.9652 54.0666C51.5349 54.208 51.1107 54.374 50.6926 54.5523C50.5819 54.6014 50.6742 54.7674 50.791 54.7182C51.1967 54.54 51.6148 54.374 52.0328 54.2203C52.2419 54.1465 52.4509 54.0727 52.6661 54.0051C52.869 53.9375 53.0903 53.8944 53.287 53.8145C53.3424 53.7961 53.3424 53.71 53.2747 53.7161Z" fill="#BA96D6"/>
<path d="M48.3257 49.0438C48.59 48.9885 48.8359 48.8409 49.0818 48.7364C49.3462 48.6257 49.6229 48.5335 49.9057 48.4659C50.4774 48.3245 51.0307 48.3122 51.6148 48.3429C51.7255 48.3491 51.7501 48.1646 51.6394 48.1523C51.0615 48.0601 50.4405 48.1401 49.8811 48.2753C49.5983 48.3429 49.3278 48.4352 49.0634 48.552C48.799 48.6626 48.4978 48.7979 48.3134 49.0254C48.3072 49.0315 48.3134 49.0438 48.3257 49.0438Z" fill="#BA96D6"/>
<path d="M50.3053 70.7828C49.9057 69.1167 49.254 66.1104 48.9896 64.2353C49.6167 64.3828 50.2315 64.3582 50.8463 64.1799C51.0676 65.6677 51.8915 68.7724 52.2111 70.002C51.5963 70.3955 50.9631 70.6599 50.3053 70.7828Z" fill="#363E49"/>
<path d="M50.9262 64.7209C50.8893 64.6779 50.834 64.7086 50.7971 64.7271C50.7233 64.7578 50.6496 64.7886 50.5758 64.8131C50.4282 64.8685 50.2745 64.9177 50.127 64.9607C49.9794 65.0037 49.8319 65.0468 49.6782 65.0775C49.5983 65.0959 49.5245 65.1144 49.4446 65.1267C49.3708 65.139 49.2909 65.1451 49.2232 65.182C49.1618 65.2189 49.1679 65.3357 49.2478 65.348C49.3278 65.3603 49.4077 65.3357 49.4876 65.3173C49.5675 65.2988 49.6413 65.2804 49.7212 65.2619C49.8872 65.2189 50.0532 65.1636 50.2192 65.1021C50.3729 65.0468 50.5266 64.9853 50.6742 64.9177C50.7049 64.8992 50.9938 64.8009 50.9262 64.7209Z" fill="#BA96D6"/>
<path d="M51.0799 65.6431C50.7971 65.68 50.5082 65.7231 50.2192 65.7231C49.9364 65.7169 49.6475 65.6923 49.3646 65.6493C49.2478 65.6308 49.2048 65.8091 49.3155 65.8214C49.6167 65.8645 49.9118 65.8767 50.2131 65.8522C50.5082 65.8337 50.8094 65.8153 51.0922 65.7169C51.1475 65.6985 51.1291 65.637 51.0799 65.6431Z" fill="#BA96D6"/>
<path d="M51.1537 66.0304C50.9078 66.221 50.6619 66.3993 50.3791 66.5345C50.2438 66.6022 50.1024 66.6575 49.9548 66.7005C49.8811 66.7251 49.8073 66.7436 49.7335 66.7559C49.6597 66.7743 49.5737 66.7743 49.5122 66.8112C49.4507 66.8419 49.463 66.9465 49.5306 66.9649C49.6044 66.9772 49.6843 66.9526 49.7581 66.9403C49.838 66.9219 49.9118 66.8973 49.9856 66.8727C50.1393 66.8235 50.293 66.7559 50.4405 66.6821C50.7172 66.5407 51.0061 66.3378 51.2029 66.098C51.2398 66.0489 51.1906 65.9997 51.1537 66.0304Z" fill="#BA96D6"/>
<path d="M51.3873 66.8912C51.3074 66.8666 51.2213 66.8666 51.1353 66.8543C51.0369 66.842 50.9385 66.8236 50.8402 66.8051C50.6557 66.7621 50.4774 66.7068 50.3053 66.633C50.2684 66.6146 50.2254 66.6207 50.2008 66.6576C50.1823 66.6883 50.1885 66.7437 50.2254 66.7621C50.4098 66.842 50.6127 66.8974 50.8094 66.9404C50.9078 66.9588 51.0123 66.9773 51.1168 66.9834C51.209 66.9896 51.3074 66.9957 51.3935 66.9588C51.4304 66.9527 51.4181 66.9035 51.3873 66.8912Z" fill="#BA96D6"/>
<path d="M51.4672 67.297C51.1844 67.3769 50.9016 67.4752 50.6127 67.5429C50.3176 67.6105 50.0163 67.6535 49.7151 67.6597C49.6167 67.6597 49.6167 67.8195 49.7151 67.8134C50.0225 67.8011 50.3299 67.7519 50.6311 67.6781C50.9324 67.6043 51.2275 67.5121 51.4795 67.3277C51.498 67.3215 51.4918 67.2908 51.4672 67.297Z" fill="#BA96D6"/>
<path d="M51.7439 68.2683C51.707 68.2314 51.6517 68.256 51.6086 68.2744C51.5349 68.299 51.4611 68.3298 51.3873 68.3605C51.2336 68.422 51.0738 68.4712 50.9139 68.5203C50.6004 68.6126 50.2745 68.6802 49.9487 68.7109C49.8257 68.7232 49.8442 68.9015 49.9733 68.8831C50.3176 68.8277 50.668 68.754 51 68.6494C51.166 68.6003 51.3258 68.5449 51.4857 68.4712C51.5164 68.465 51.8177 68.3421 51.7439 68.2683Z" fill="#BA96D6"/>
<path d="M51.7316 68.4527C51.6701 68.4957 51.6148 68.5634 51.5656 68.6187C51.5041 68.6802 51.4488 68.7478 51.3873 68.8093C51.2582 68.9445 51.1291 69.0737 51 69.2028C50.7418 69.4487 50.4774 69.6823 50.1823 69.8852C50.084 69.9528 50.1823 70.1127 50.2745 70.045C50.5696 69.836 50.834 69.5901 51.0922 69.3319C51.2213 69.2028 51.3504 69.0675 51.4734 68.9261C51.5287 68.8585 51.5902 68.797 51.6455 68.7294C51.7009 68.6617 51.7685 68.5941 51.7992 68.5142C51.8177 68.4835 51.7746 68.422 51.7316 68.4527Z" fill="#BA96D6"/>
<path d="M52.0697 69.5655C51.9283 69.5594 51.7808 69.6147 51.6394 69.6455C51.4857 69.6823 51.332 69.7131 51.1721 69.7377C50.8586 69.793 50.545 69.8299 50.2315 69.8668C50.1147 69.8791 50.1147 70.0697 50.2315 70.0512C50.5573 70.0082 50.8832 69.9713 51.2029 69.9037C51.3627 69.8729 51.5226 69.836 51.6763 69.7869C51.8115 69.7438 51.9775 69.6946 52.0759 69.5901C52.0882 69.584 52.082 69.5717 52.0697 69.5655Z" fill="#BA96D6"/>
<path d="M25.0988 55.0995L21.2809 57.9152L22.9716 59.1879L23.6909 61.1798L27.5087 58.3702L27.2136 56.0647L25.0988 55.0995Z" fill="#BA96D6"/>
<path d="M21.6805 57.7308C21.7358 57.7922 21.8219 57.8168 21.8957 57.8537C21.9817 57.8968 22.0617 57.9336 22.1477 57.9705C22.326 58.0505 22.4982 58.1304 22.6765 58.2103C22.8486 58.2841 23.0207 58.3578 23.1929 58.4316C23.365 58.5054 23.5372 58.5915 23.7093 58.6529C23.8015 58.6837 23.8692 58.5361 23.7769 58.4931C23.6109 58.407 23.4327 58.3456 23.2605 58.2718C23.0822 58.198 22.9039 58.1181 22.7256 58.0443C22.5596 57.9767 22.3937 57.909 22.2215 57.8414C22.1354 57.8045 22.0494 57.7738 21.9633 57.7369C21.8834 57.7062 21.7973 57.657 21.7051 57.657C21.6743 57.657 21.6559 57.7062 21.6805 57.7308Z" fill="#363E49"/>
<path d="M23.0945 56.7595C23.1191 56.8271 23.1867 56.8455 23.2482 56.8763C23.3343 56.9255 23.4265 56.9623 23.5126 57.0054C23.6786 57.0853 23.8446 57.1591 24.0167 57.239C24.3672 57.3988 24.7114 57.5525 25.0619 57.7124C25.1787 57.7677 25.2525 57.6017 25.1295 57.5464C24.7729 57.3988 24.4163 57.239 24.0598 57.0853C23.8938 57.0177 23.7339 56.95 23.5679 56.8763C23.4757 56.8455 23.3958 56.8086 23.3036 56.7779C23.2359 56.7533 23.1683 56.7103 23.0945 56.741C23.0945 56.741 23.0884 56.7533 23.0945 56.7595Z" fill="#363E49"/>
<path d="M23.6294 56.3722C23.6847 56.4398 23.7647 56.4705 23.8446 56.5074C23.9306 56.5505 24.0167 56.5935 24.1028 56.6304C24.2626 56.7042 24.4286 56.7779 24.5946 56.8517C24.7606 56.9255 24.9205 56.9931 25.0865 57.0669C25.1664 57.1038 25.2525 57.1407 25.3324 57.1714C25.4123 57.2083 25.4984 57.2636 25.5844 57.2575C25.6275 57.2513 25.6767 57.2021 25.6398 57.1591C25.5844 57.0853 25.4984 57.0607 25.4123 57.0238C25.3324 56.987 25.2463 56.9501 25.1664 56.9193C24.9942 56.8456 24.8282 56.7718 24.6561 56.698C24.4901 56.6242 24.3241 56.5566 24.1581 56.489C24.0782 56.4521 23.9921 56.4213 23.9061 56.3906C23.82 56.3599 23.7339 56.3168 23.6417 56.323C23.6233 56.3291 23.6171 56.3537 23.6294 56.3722Z" fill="#363E49"/>
<path d="M24.7852 55.5483C24.8959 55.6528 25.068 55.7205 25.2033 55.7881C25.357 55.8742 25.5168 55.9479 25.6767 56.0278C25.9902 56.1815 26.2976 56.3352 26.6111 56.4828C26.7157 56.532 26.814 56.3721 26.7034 56.3229C26.3898 56.1754 26.0763 56.0217 25.7627 55.8741C25.609 55.8004 25.4553 55.7266 25.2955 55.659C25.2156 55.6221 25.1356 55.5913 25.0619 55.5545C24.9881 55.5237 24.9082 55.4807 24.8282 55.4684C24.7852 55.4745 24.7483 55.5176 24.7852 55.5483Z" fill="#363E49"/>
<path d="M26.7587 58.6653C26.7956 58.5178 26.7464 58.3395 26.728 58.1919C26.7095 58.0259 26.6788 57.8538 26.6603 57.6878C26.6357 57.5218 26.6111 57.3497 26.5866 57.1837C26.562 57.0115 26.562 56.8209 26.5066 56.6611C26.482 56.5812 26.3591 56.5935 26.3591 56.6795C26.3529 56.8394 26.4021 57.0115 26.4329 57.1652C26.4636 57.3374 26.4882 57.5157 26.5128 57.6878C26.5374 57.8538 26.562 58.0259 26.5927 58.1919C26.6173 58.3456 26.6296 58.5362 26.7095 58.6715C26.7218 58.6961 26.7525 58.6899 26.7587 58.6653Z" fill="#363E49"/>
<path d="M25.8549 59.3415C25.9164 59.2124 25.8795 59.028 25.8734 58.8866C25.8672 58.7021 25.8611 58.5238 25.8549 58.3394C25.8365 57.9828 25.8181 57.6201 25.7935 57.2635C25.7873 57.1467 25.5967 57.1406 25.609 57.2635C25.6336 57.6201 25.6644 57.9828 25.689 58.3394C25.7012 58.5177 25.7197 58.6898 25.7381 58.8681C25.7504 59.0157 25.732 59.2186 25.8181 59.3477C25.8242 59.3538 25.8427 59.3538 25.8549 59.3415Z" fill="#363E49"/>
<path d="M25.1725 59.8396C25.1725 59.6736 25.1848 59.5138 25.1725 59.3478C25.1602 59.1818 25.1418 59.0219 25.1233 58.8559C25.1049 58.6899 25.0865 58.5301 25.068 58.3641C25.0496 58.2043 25.0434 58.0444 25.0127 57.8907C24.9942 57.7985 24.8528 57.8169 24.8528 57.9092C24.8528 58.0751 24.8897 58.2411 24.9082 58.401C24.9266 58.567 24.945 58.7268 24.9635 58.8928C24.9819 59.0527 25.0004 59.2064 25.025 59.3662C25.0496 59.5322 25.0926 59.6859 25.1295 59.8458C25.1418 59.8703 25.1725 59.8642 25.1725 59.8396Z" fill="#363E49"/>
<path d="M24.57 60.2207C24.5885 60.0608 24.5639 59.8948 24.5393 59.7288C24.5209 59.569 24.4963 59.4153 24.4778 59.2554C24.4286 58.9296 24.3856 58.6038 24.3364 58.2718C24.318 58.1673 24.152 58.2103 24.1704 58.3148C24.2258 58.6406 24.2811 58.9665 24.3364 59.2923C24.361 59.4522 24.3917 59.6182 24.4225 59.778C24.4532 59.9256 24.4778 60.0793 24.5393 60.2207C24.5454 60.2453 24.5639 60.233 24.57 60.2207Z" fill="#363E49"/>
<path d="M23.8384 60.7556C23.8753 60.1286 23.7585 59.5015 23.7462 58.8805C23.7401 58.7453 23.5372 58.7637 23.5618 58.9051C23.654 59.5199 23.654 60.1593 23.8015 60.7618C23.8015 60.7864 23.8323 60.7802 23.8384 60.7556Z" fill="#363E49"/>
<path d="M22.6273 57.2697C22.6826 57.3312 22.7748 57.3681 22.8425 57.405C22.9285 57.448 23.0146 57.4972 23.1007 57.5402C23.2974 57.6447 23.4941 57.7431 23.6909 57.8415C23.9183 57.9583 24.152 58.069 24.3794 58.1858C24.4778 58.2349 24.5639 58.0874 24.4655 58.0382C24.2319 57.9214 23.9983 57.8046 23.7646 57.6878C23.5679 57.5894 23.3712 57.4972 23.1744 57.4111C23.0822 57.3681 22.9839 57.3312 22.8855 57.2882C22.8117 57.2574 22.7256 57.2082 22.6396 57.2144C22.6211 57.2205 22.615 57.2513 22.6273 57.2697Z" fill="#363E49"/>
<path d="M22.3752 59.7842C22.6273 59.6121 22.8794 59.4276 23.1314 59.2555C23.8261 58.7821 24.4901 58.2657 25.1602 57.7615C26.1562 57.0238 27.146 56.286 28.1358 55.5483C29.347 54.6445 30.552 53.7408 31.7631 52.8432C33.0911 51.8534 34.4252 50.8574 35.7531 49.8676C37.0934 48.8655 38.4398 47.8633 39.78 46.8612C41.0281 45.9329 42.2761 44.9984 43.518 44.0701C44.5754 43.2831 45.6329 42.49 46.6903 41.7031C47.4465 41.1375 48.2027 40.5719 48.965 40.0063C49.3278 39.7358 49.6843 39.4714 50.0471 39.2009C50.0594 39.1886 50.0778 39.1763 50.0901 39.164C50.25 39.0472 50.0963 38.7705 49.9303 38.8935C49.6843 39.0779 49.4384 39.2624 49.1864 39.4468C48.5162 39.951 47.84 40.4551 47.1698 40.9592C46.1739 41.7031 45.1779 42.447 44.1819 43.1909C42.9708 44.0947 41.7658 44.9984 40.5547 45.9083C39.2267 46.9043 37.8988 47.8941 36.5708 48.8901C35.2306 49.8922 33.8903 50.9004 32.5501 51.9025C31.3082 52.837 30.0601 53.7654 28.8183 54.6998C27.7608 55.4929 26.7095 56.2799 25.6521 57.073C24.8959 57.6447 24.1397 58.2103 23.3835 58.7882C23.0146 59.071 22.658 59.3354 22.3199 59.6305C22.3076 59.6428 22.2892 59.6551 22.2769 59.6674C22.2092 59.7166 22.3014 59.8334 22.3752 59.7842Z" fill="#363E49"/>
<path d="M51.9345 37.5103L47.594 38.1742L49.254 39.4837L50.0102 41.4572L51.9345 37.5103Z" fill="#BA96D6"/>
<path d="M49.5122 28.4481C49.5429 28.4912 48.3994 29.2535 48.3748 29.2228C48.3502 29.1859 48.8298 27.9133 48.8667 27.9071C48.9036 27.901 49.2294 29.1429 49.1987 29.1797C49.1679 29.2166 48.1597 28.3559 48.1842 28.3252C48.2088 28.2883 49.4815 28.4051 49.5122 28.4481Z" fill="#BA96D6"/>
<path d="M30.2138 21.7407C30.2323 21.7776 29.3285 22.2633 29.3101 22.2325C29.2916 22.2018 29.7466 21.2858 29.7712 21.2858C29.8019 21.2858 29.9495 22.2325 29.9249 22.2633C29.9003 22.2879 29.2056 21.5747 29.2302 21.5501C29.2486 21.5255 30.1892 21.7038 30.2138 21.7407Z" fill="#BA96D6"/>
<path d="M28.6461 16.9821C28.6277 17.0067 28.0498 16.5948 28.0621 16.5764C28.0743 16.5579 28.7814 16.5518 28.7937 16.5702C28.806 16.5887 28.2588 16.976 28.2342 16.9698C28.2096 16.9637 28.4432 16.312 28.4617 16.3182C28.4801 16.3182 28.6646 16.9575 28.6461 16.9821Z" fill="#BA96D6"/>
<path d="M44.4217 17.4002C44.4401 17.4125 44.1143 17.806 44.102 17.7999C44.0897 17.7937 44.1205 17.2834 44.1328 17.2773C44.1451 17.2711 44.3971 17.6769 44.391 17.6954C44.3848 17.7138 43.9299 17.5171 43.936 17.4986C43.9422 17.4802 44.4033 17.3818 44.4217 17.4002Z" fill="#BA96D6"/>
<path d="M33.1833 12.0884C33.1956 12.1191 32.4209 12.4511 32.4086 12.4265C32.3963 12.4019 32.8329 11.6826 32.8574 11.6826C32.882 11.6826 32.9374 12.4757 32.9128 12.4941C32.8882 12.5126 32.3779 11.8794 32.3963 11.8609C32.4148 11.8425 33.171 12.0576 33.1833 12.0884Z" fill="#BA96D6"/>
<path d="M46.7518 13.0291C46.7579 13.0537 46.2046 13.2504 46.1985 13.232C46.1923 13.2135 46.5243 12.734 46.5427 12.734C46.5612 12.734 46.5673 13.2873 46.5489 13.2996C46.5305 13.3119 46.1985 12.8447 46.2108 12.8324C46.2231 12.8262 46.7456 13.0045 46.7518 13.0291Z" fill="#BA96D6"/>
<path d="M46.6596 14.6213C46.6411 14.6336 46.3767 14.2279 46.389 14.2217C46.4013 14.2094 46.8501 14.3816 46.8501 14.4C46.8501 14.4123 46.4136 14.523 46.4013 14.5168C46.389 14.5045 46.6903 14.1541 46.7026 14.1602C46.7149 14.1602 46.678 14.609 46.6596 14.6213Z" fill="#BA96D6"/>
<path d="M32.0951 13.275C32.0828 13.2996 31.4926 13.029 31.4988 13.0106C31.5049 12.9922 32.1381 12.8692 32.1504 12.8815C32.1627 12.8938 31.7447 13.3364 31.7201 13.3364C31.6955 13.3364 31.7939 12.7094 31.8123 12.7094C31.8369 12.7094 32.1074 13.2504 32.0951 13.275Z" fill="#BA96D6"/>
<path d="M42.522 16.6564C42.5036 16.681 41.8765 16.2691 41.8888 16.2506C41.9011 16.2322 42.645 16.2014 42.6573 16.2199C42.6695 16.2383 42.1101 16.6687 42.0855 16.6625C42.0609 16.6564 42.2761 15.9617 42.3007 15.9678C42.3253 15.9678 42.5404 16.6318 42.522 16.6564Z" fill="#BA96D6"/>
<path d="M47.551 15.3038C47.5264 15.2915 47.7908 14.7628 47.8031 14.769C47.8215 14.7751 47.9199 15.353 47.9076 15.3653C47.8953 15.3776 47.508 14.9842 47.508 14.9657C47.5141 14.9473 48.0736 15.0456 48.0736 15.0641C48.0736 15.0825 47.5756 15.3161 47.551 15.3038Z" fill="#BA96D6"/>
<path d="M47.883 21.3841C47.9014 21.4149 47.1637 21.8883 47.1514 21.8637C47.133 21.8391 47.4588 21.0337 47.4834 21.0337C47.508 21.0337 47.6986 21.8268 47.6801 21.8514C47.6617 21.876 47.0284 21.3165 47.0407 21.2919C47.053 21.2673 47.8646 21.3595 47.883 21.3841Z" fill="#BA96D6"/>
<path d="M45.307 23.9785C45.3254 24.0093 44.6184 24.4458 44.6 24.4273C44.5815 24.4027 44.9012 23.6404 44.9258 23.6404C44.9504 23.6404 45.1226 24.3966 45.1041 24.4212C45.0857 24.4458 44.4893 23.9047 44.5016 23.8801C44.5201 23.8617 45.2886 23.9539 45.307 23.9785Z" fill="#BA96D6"/>
<path d="M45.9341 26.6406C45.9648 26.6591 45.5099 27.3599 45.4853 27.3476C45.4607 27.3353 45.4238 26.5054 45.4423 26.4992C45.4607 26.4869 45.9402 27.1017 45.9341 27.1263C45.928 27.157 45.1533 26.9173 45.1595 26.8927C45.1718 26.8619 45.9034 26.6222 45.9341 26.6406Z" fill="#BA96D6"/>
<path d="M45.0365 19.5152C45.0426 19.5459 44.3479 19.7488 44.3356 19.7303C44.3295 19.7057 44.7721 19.1401 44.7906 19.1401C44.809 19.1463 44.7783 19.8226 44.7598 19.841C44.7353 19.8533 44.3602 19.2569 44.3787 19.2447C44.4033 19.2262 45.0242 19.4844 45.0365 19.5152Z" fill="#BA96D6"/>
<path d="M40.8559 26.7451C40.8805 26.782 40.0136 27.323 39.989 27.2923C39.9706 27.2677 40.3579 26.327 40.3887 26.327C40.4194 26.327 40.6284 27.2554 40.61 27.2861C40.5854 27.3168 39.8538 26.6529 39.8722 26.6221C39.8907 26.5975 40.8313 26.7082 40.8559 26.7451Z" fill="#BA96D6"/>
<path d="M32.3902 20.2898C32.3718 20.3267 31.468 19.8472 31.4803 19.8164C31.4926 19.7857 32.5009 19.6504 32.5132 19.675C32.5316 19.6996 31.8307 20.3513 31.7938 20.3452C31.757 20.339 31.966 19.3738 31.9967 19.3738C32.0336 19.3799 32.4086 20.2529 32.3902 20.2898Z" fill="#BA96D6"/>
<path d="M41.3354 18.0704C41.3662 18.095 40.7883 18.8512 40.7637 18.8327C40.7391 18.8143 40.7637 17.8737 40.7883 17.8614C40.8129 17.8491 41.3047 18.5868 41.2924 18.6176C41.2801 18.6483 40.4255 18.3163 40.4378 18.2856C40.4501 18.261 41.3047 18.0519 41.3354 18.0704Z" fill="#BA96D6"/>
<path d="M41.8396 25.0606C41.8642 25.0791 41.3908 25.7062 41.3662 25.6939C41.3477 25.6816 41.3662 24.9008 41.3908 24.8885C41.4092 24.8762 41.8211 25.491 41.8088 25.5156C41.7965 25.5402 41.0895 25.2635 41.0957 25.2389C41.1018 25.2205 41.815 25.0422 41.8396 25.0606Z" fill="#BA96D6"/>
<path d="M36.5155 8.1722C36.5401 8.19065 36.0667 8.81774 36.0421 8.80544C36.0236 8.79314 36.0421 8.01236 36.0667 8.00006C36.0851 7.98776 36.497 8.60256 36.4847 8.62715C36.4724 8.65174 35.7654 8.37508 35.7716 8.35049C35.7777 8.3259 36.4847 8.15376 36.5155 8.1722Z" fill="#BA96D6"/>
<path d="M52.2665 22.1034C52.2911 22.1526 51.043 22.712 51.0184 22.6751C51 22.6382 51.6824 21.464 51.7193 21.464C51.7562 21.464 51.873 22.7366 51.8361 22.7735C51.7992 22.8042 50.9508 21.796 50.9816 21.7652C51.0184 21.7284 52.2419 22.048 52.2665 22.1034Z" fill="#BA96D6"/>
<path d="M40.5055 10.1642C40.5055 10.1211 41.6121 10.201 41.6121 10.2318C41.6121 10.2687 40.6776 10.8404 40.653 10.822C40.6284 10.8035 41.0342 9.85676 41.0711 9.85061C41.1018 9.84447 41.317 10.8896 41.2863 10.8958C41.2494 10.9081 40.4993 10.2072 40.5055 10.1642Z" fill="#BA96D6"/>
<path d="M47.9076 9.36492C47.9383 9.38951 47.2744 10.1764 47.2498 10.158C47.2252 10.1396 47.3051 9.119 47.3297 9.1067C47.3543 9.09441 47.8461 9.92438 47.8338 9.96127C47.8215 9.99815 46.9116 9.58624 46.9239 9.5555C46.9362 9.51861 47.8769 9.33418 47.9076 9.36492Z" fill="#BA96D6"/>
<path d="M50.6496 21.8267C50.6373 21.8206 50.668 21.839 50.6373 21.8144C50.6127 21.7898 50.5881 21.7775 50.5573 21.7652C50.4897 21.7345 50.4159 21.7222 50.3422 21.7038C50.1577 21.673 49.9733 21.6484 49.7889 21.6177C49.3954 21.5623 49.0019 21.507 48.6023 21.4517C48.5408 21.4455 48.4793 21.4332 48.4179 21.4271C48.3994 21.4271 48.381 21.4209 48.3625 21.4209C48.3564 21.4209 48.3502 21.4209 48.3502 21.4209C48.2334 21.4209 48.3133 21.4148 48.3441 21.4209C48.2334 21.4086 48.1351 21.5255 48.1351 21.63C48.1351 21.7529 48.2334 21.8206 48.3441 21.839C48.3072 21.8267 48.2765 21.8206 48.2396 21.8083C48.3256 21.8574 48.4486 21.8574 48.547 21.8697C48.713 21.8882 48.879 21.9128 49.0388 21.9312C49.4323 21.9804 49.8257 22.0357 50.2254 22.0726C50.3053 22.0788 50.3852 22.0911 50.4651 22.0849C50.5082 22.0788 50.5512 22.0788 50.5881 22.0603C50.6004 22.0542 50.6127 22.048 50.625 22.0419C50.6496 22.0296 50.5942 22.0542 50.625 22.0419C50.7172 21.9989 50.7295 21.8943 50.6496 21.8267Z" fill="#BA96D6"/>
<path d="M41.9933 25.6631C41.9625 25.6446 42.0056 25.6754 42.0117 25.6877C41.981 25.6508 42.0486 25.7184 42.0609 25.7307C42.0732 25.743 42.0916 25.7553 42.1101 25.7614C42.19 25.8106 42.2822 25.8414 42.3683 25.8721C42.5958 25.9582 42.8232 26.0381 43.0507 26.118C43.5241 26.284 43.9975 26.45 44.4709 26.6099C44.5508 26.6345 44.6246 26.6652 44.7045 26.6898C44.7229 26.6959 44.7475 26.7082 44.766 26.7144C44.7721 26.7144 44.7783 26.7144 44.7844 26.7205C44.8828 26.739 44.8275 26.7328 44.7906 26.7205C45.0426 26.8066 45.1533 26.407 44.9012 26.3209C45.0119 26.3578 44.8705 26.3025 44.8336 26.2902C44.7721 26.2656 44.7107 26.2471 44.6492 26.2287C44.4401 26.1549 44.2311 26.0873 44.0221 26.0135C43.5302 25.8475 43.0384 25.6754 42.5404 25.5278C42.4421 25.4971 42.3437 25.4663 42.2453 25.4479C42.19 25.4418 42.1408 25.4356 42.0793 25.4418C42.0302 25.4479 42.0793 25.4479 42.0363 25.4479C41.9318 25.4356 41.9072 25.6016 41.9933 25.6631Z" fill="#BA96D6"/>
<path d="M47.9752 28.1284C47.9383 28.0546 47.8645 27.9931 47.7969 27.9378C47.6863 27.8394 47.5633 27.7472 47.4403 27.6611C47.2067 27.4951 46.9731 27.3291 46.7395 27.1693C46.6841 27.1324 46.635 27.0955 46.5796 27.0586C46.4874 26.9972 46.3583 27.0402 46.303 27.1324C46.2415 27.2308 46.2845 27.3476 46.3767 27.4091C46.5243 27.5074 46.6657 27.6119 46.8133 27.7103C47.0592 27.8763 47.2989 28.0546 47.5572 28.196C47.6555 28.2513 47.7539 28.3067 47.8645 28.319C47.9691 28.3251 48.0121 28.2022 47.9752 28.1284Z" fill="#BA96D6"/>
<path d="M46.9362 21.919C46.8563 21.9374 46.7887 22.0051 46.7272 22.0542C46.5796 22.1711 46.4505 22.294 46.3214 22.4231C46.0263 22.7244 45.7312 23.0195 45.4361 23.3207C45.3685 23.3883 45.3009 23.456 45.2332 23.5298C45.0795 23.6896 45.3193 23.9232 45.473 23.7695C45.6574 23.5789 45.8357 23.3822 46.0202 23.1916C46.1739 23.0256 46.3276 22.8596 46.4813 22.6998C46.6165 22.5522 46.7579 22.4108 46.8747 22.2448C46.9301 22.1711 47.01 22.0911 47.0223 21.9989C47.0284 21.9497 46.9854 21.9067 46.9362 21.919Z" fill="#BA96D6"/>
<path d="M41.0895 18.8757C41.0526 19.0663 41.0588 19.2569 41.0526 19.4536C41.0403 19.9147 41.0465 20.3758 41.0526 20.8369C41.0772 21.8698 41.1018 22.9088 41.1264 23.9416C41.1326 24.1814 41.1387 24.4212 41.1449 24.6671C41.151 24.8823 41.4891 24.8823 41.483 24.6671C41.4645 24.0093 41.44 23.3453 41.4215 22.6875C41.3846 21.6546 41.3846 20.6218 41.2985 19.5889C41.2801 19.3491 41.2801 19.1032 41.2186 18.8757C41.2002 18.8204 41.1018 18.8143 41.0895 18.8757Z" fill="#BA96D6"/>
<path d="M46.9362 21.132C46.9178 21.0521 46.8563 20.9968 46.801 20.9353C46.6903 20.8062 46.5735 20.6894 46.4505 20.5726C46.1616 20.3082 45.8726 20.0438 45.5837 19.7856C45.516 19.7241 45.4484 19.6627 45.3808 19.6012C45.3132 19.5397 45.2086 19.5335 45.141 19.6012C45.0795 19.6627 45.0734 19.7795 45.141 19.8409C45.3255 20.0069 45.5222 20.1729 45.7066 20.3328C45.8603 20.468 46.0202 20.6033 46.1739 20.7385C46.3153 20.8615 46.4567 20.9845 46.6165 21.089C46.6964 21.1382 46.7702 21.2058 46.8686 21.2181C46.9178 21.2181 46.9424 21.1689 46.9362 21.132Z" fill="#BA96D6"/>
<path d="M44.9381 23.3515C44.975 23.247 44.9689 23.1363 44.975 23.0318C44.9873 22.7736 44.9873 22.5215 44.9812 22.2695C44.9627 21.6793 44.9443 21.0891 44.9197 20.505C44.9135 20.3698 44.9135 20.2345 44.9074 20.0992C44.8951 19.8841 44.557 19.8841 44.5693 20.0992C44.5877 20.4681 44.6061 20.8431 44.6246 21.212C44.6553 21.7961 44.6553 22.3924 44.7414 22.9765C44.7598 23.1056 44.7598 23.247 44.8213 23.37C44.8459 23.4253 44.9197 23.4007 44.9381 23.3515Z" fill="#BA96D6"/>
<path d="M44.4709 24.2429C44.3848 24.2245 44.2987 24.2552 44.2065 24.2675C44.0098 24.3106 43.8192 24.3597 43.6348 24.4274C43.2044 24.5688 42.7741 24.7102 42.3437 24.8577C42.2453 24.8885 42.1408 24.9254 42.0425 24.9561C41.8396 25.0237 41.9256 25.3557 42.1347 25.2819C42.4113 25.1897 42.6818 25.0913 42.9524 24.993C43.3766 24.8393 43.8254 24.7102 44.2311 24.5134C44.3233 24.4704 44.434 24.4335 44.5016 24.3536C44.5262 24.3167 44.5201 24.2552 44.4709 24.2429Z" fill="#BA96D6"/>
<path d="M44.2496 17.9535C44.2496 17.972 44.2434 17.9904 44.2434 18.0088C44.2434 18.015 44.2434 18.0211 44.2434 18.0027C44.2496 17.972 44.2434 18.0211 44.2434 18.0211C44.2496 17.9842 44.2434 18.0027 44.2434 18.015C44.2373 18.0396 44.2373 18.0642 44.2373 18.0888C44.2373 18.1748 44.2619 18.2609 44.2742 18.3408C44.3049 18.4884 44.3295 18.6359 44.3602 18.7835C44.3664 18.8142 44.3725 18.8511 44.3787 18.8818C44.3971 18.9679 44.5016 19.0294 44.5877 18.9987C44.6799 18.9679 44.7291 18.8818 44.7045 18.7896C44.6861 18.7036 44.6615 18.6113 44.6369 18.5253C44.6 18.3716 44.5693 18.2179 44.5139 18.0703C44.4893 18.0088 44.4586 17.9597 44.4217 17.9043C44.3664 17.8244 44.2557 17.8674 44.2496 17.9535Z" fill="#BA96D6"/>
<path d="M44.4463 17.2404C44.5385 17.1912 44.6061 17.1051 44.6799 17.0313C44.8521 16.853 45.0058 16.6625 45.1595 16.4719C45.5099 16.0292 45.8603 15.5927 46.2108 15.1501C46.2907 15.0517 46.3706 14.9472 46.4505 14.8488C46.5059 14.775 46.5182 14.6828 46.4505 14.6091C46.3952 14.5476 46.2661 14.5353 46.2108 14.6091C45.9894 14.8919 45.7681 15.1808 45.5529 15.4698C45.2148 15.9186 44.8398 16.3551 44.5385 16.8285C44.4709 16.9391 44.3787 17.0436 44.3479 17.1727C44.3356 17.2219 44.3971 17.265 44.4463 17.2404Z" fill="#BA96D6"/>
<path d="M36.5892 8.60261C36.6876 8.69483 36.8106 8.75016 36.9274 8.81164C37.2102 8.96534 37.4991 9.10674 37.7942 9.242C38.4582 9.54325 39.1222 9.8445 39.7862 10.1519C39.9399 10.2195 40.0936 10.2933 40.2473 10.3609C40.444 10.447 40.6161 10.158 40.4194 10.072C39.9952 9.88138 39.571 9.69695 39.1468 9.51251C38.4766 9.21741 37.8127 8.89157 37.1241 8.64565C36.9643 8.59032 36.8106 8.51654 36.6384 8.4981C36.5769 8.4858 36.5523 8.56573 36.5892 8.60261Z" fill="#BA96D6"/>
<path d="M35.7839 8.71931C35.6732 8.78079 35.5871 8.87301 35.4949 8.95908C35.2859 9.15581 35.083 9.36484 34.8924 9.58002C34.4436 10.0719 33.9948 10.5637 33.546 11.0555C33.4415 11.1723 33.337 11.283 33.2325 11.3998C33.0849 11.5597 33.3247 11.7994 33.4722 11.6396C33.755 11.3199 34.0378 11.0002 34.3207 10.6805C34.7572 10.1825 35.2305 9.69683 35.624 9.16811C35.7162 9.04515 35.8269 8.92834 35.8822 8.78694C35.9068 8.73775 35.833 8.70087 35.7839 8.71931Z" fill="#BA96D6"/>
<path d="M32.3041 12.4512C32.298 12.4512 32.298 12.4512 32.2918 12.4512C32.2611 12.4512 32.2303 12.4635 32.2058 12.4819C32.1935 12.4881 32.1812 12.4942 32.1689 12.5004C32.1504 12.5127 32.132 12.5249 32.1074 12.5372C32.0889 12.5495 32.0766 12.5557 32.0644 12.568C32.0459 12.5803 32.0336 12.5987 32.0275 12.6233C32.0152 12.6418 32.009 12.6663 32.0152 12.6909C32.0152 12.7155 32.0213 12.734 32.0275 12.7586C32.0336 12.777 32.0459 12.7955 32.0644 12.8139C32.0766 12.82 32.0889 12.8323 32.1012 12.8385C32.1258 12.8508 32.1566 12.8631 32.1873 12.8631C32.1996 12.8631 32.2181 12.8569 32.2303 12.8569C32.2611 12.8508 32.2857 12.8323 32.3041 12.8139L32.3287 12.777C32.3226 12.7893 32.3103 12.8016 32.3041 12.8139C32.3287 12.7832 32.3595 12.7524 32.384 12.7217L32.3902 12.7155C32.3902 12.7155 32.3902 12.7155 32.3963 12.7094C32.4025 12.7032 32.4148 12.6848 32.4209 12.6786L32.4332 12.6418C32.4332 12.6418 32.4332 12.6418 32.4332 12.6356V12.6295C32.4394 12.6049 32.4394 12.5803 32.4332 12.5557C32.4271 12.5372 32.4209 12.5249 32.4086 12.5065C32.3963 12.4942 32.384 12.4819 32.3717 12.4696C32.3533 12.4573 32.3287 12.4512 32.3041 12.4512Z" fill="#BA96D6"/>
<path d="M28.892 16.3736C29.0088 16.3121 29.0949 16.2138 29.1871 16.1277C29.4146 15.9186 29.6236 15.7035 29.8327 15.476C30.306 14.9657 30.7794 14.4554 31.2528 13.9452C31.3635 13.8284 31.4742 13.7115 31.5787 13.5947C31.7262 13.4349 31.4865 13.1951 31.3389 13.355C31.0438 13.6808 30.7487 14.0066 30.4597 14.3325C29.9925 14.8489 29.5007 15.353 29.0765 15.9002C28.9781 16.0232 28.8551 16.1584 28.806 16.2814C28.7814 16.3429 28.8305 16.4043 28.892 16.3736Z" fill="#BA96D6"/>
<path d="M28.7875 16.9392C28.8428 17.0499 28.9351 17.1421 29.015 17.2343C29.2117 17.4618 29.4207 17.6769 29.6298 17.886C30.1093 18.3594 30.5827 18.8328 31.0622 19.3061C31.1729 19.4168 31.2836 19.5275 31.3942 19.6381C31.5479 19.7918 31.7877 19.5521 31.634 19.3984C31.3266 19.1033 31.0192 18.8082 30.7118 18.5131C30.2323 18.052 29.765 17.5601 29.2425 17.1359C29.1256 17.0376 29.0088 16.9146 28.8674 16.8531C28.8121 16.8224 28.7568 16.8777 28.7875 16.9392Z" fill="#BA96D6"/>
<path d="M29.6359 21.2919C29.6421 21.1505 29.599 21.0091 29.5683 20.8677C29.5007 20.5357 29.4146 20.2098 29.3285 19.8902C29.1195 19.1463 28.9166 18.4024 28.7076 17.6585C28.6584 17.4863 28.6154 17.3142 28.5662 17.142C28.5047 16.933 28.1789 17.0191 28.2403 17.2342C28.3756 17.7015 28.5109 18.1687 28.6461 18.6298C28.8613 19.3676 29.0457 20.1176 29.3162 20.8369C29.3777 21.0029 29.4208 21.1812 29.5191 21.3288C29.5499 21.378 29.6359 21.3595 29.6359 21.2919Z" fill="#BA96D6"/>
<path d="M46.6657 12.6479C46.7272 12.5864 46.7456 12.5003 46.7764 12.4204C46.844 12.2421 46.8932 12.0638 46.9424 11.8732C47.0469 11.449 47.1514 11.031 47.2498 10.6067C47.2743 10.5084 47.2989 10.41 47.3235 10.3055C47.3727 10.0965 47.0469 10.0042 46.9977 10.2133C46.9362 10.4838 46.8809 10.7543 46.8194 11.0248C46.7272 11.449 46.6042 11.8794 46.5673 12.3097C46.5612 12.4081 46.5305 12.5188 46.5612 12.611C46.5673 12.6602 46.6288 12.6847 46.6657 12.6479Z" fill="#BA96D6"/>
<path d="M41.1633 11.0617C41.151 11.2215 41.1817 11.3814 41.2002 11.5412C41.2432 11.9286 41.3109 12.3036 41.3785 12.6847C41.5322 13.5332 41.6859 14.3816 41.8396 15.2238C41.8765 15.4267 41.9133 15.6235 41.9502 15.8263C41.9933 16.0415 42.3191 15.9493 42.2761 15.7341C42.1716 15.1931 42.067 14.6582 41.9625 14.1172C41.7965 13.2811 41.6674 12.4265 41.4523 11.6027C41.4031 11.4121 41.3662 11.2092 41.2801 11.0248C41.2555 10.9695 41.1694 11.0064 41.1633 11.0617Z" fill="#BA96D6"/>
<path d="M46.3891 13.3979C46.3583 13.4225 46.3399 13.441 46.3276 13.4779C46.3153 13.5209 46.3153 13.5639 46.3153 13.607C46.3153 13.6684 46.3153 13.7361 46.3153 13.7975C46.3153 13.8098 46.3153 13.8283 46.3153 13.8406C46.3214 13.8836 46.3337 13.9267 46.3645 13.9574C46.3952 13.9881 46.4444 14.0066 46.4813 14.0066C46.5243 14.0066 46.5673 13.9881 46.5981 13.9574C46.6288 13.9267 46.6534 13.8836 46.6473 13.8406C46.6411 13.7852 46.635 13.7361 46.6227 13.6807C46.6165 13.6438 46.6104 13.6131 46.6042 13.5762C46.6042 13.5578 46.5981 13.5393 46.5981 13.527C46.5919 13.5024 46.5796 13.4779 46.5735 13.4533C46.555 13.4164 46.5243 13.3979 46.4936 13.3795C46.4628 13.361 46.4198 13.3733 46.3891 13.3979Z" fill="#BA96D6"/>
<path d="M47.4711 14.7873C47.4649 14.7812 47.4649 14.7689 47.4588 14.7627C47.4526 14.7443 47.4711 14.7996 47.4649 14.775C47.4526 14.7504 47.4465 14.7258 47.4219 14.7013C47.385 14.6644 47.3358 14.6336 47.2928 14.6029C47.219 14.5537 47.1514 14.5107 47.0776 14.4615C47.0592 14.4492 47.0469 14.443 47.0284 14.4307C46.9485 14.3877 46.8378 14.4123 46.7948 14.4922C46.7518 14.5721 46.7764 14.6767 46.8563 14.7258C46.8993 14.7504 46.9485 14.775 46.9977 14.7996C47.0407 14.8181 47.0838 14.8427 47.1206 14.8611C47.1698 14.8857 47.219 14.9103 47.2743 14.9287C47.2805 14.9287 47.2866 14.9287 47.2866 14.9349C47.3235 14.941 47.3297 14.941 47.3666 14.9349C47.3727 14.9349 47.3727 14.9349 47.3789 14.9349C47.3973 14.9349 47.3604 14.9349 47.3604 14.9349C47.3727 14.9349 47.385 14.9349 47.3973 14.9287C47.4649 14.9164 47.5018 14.855 47.4711 14.7873Z" fill="#BA96D6"/>
<path d="M41.6305 18.3655C41.6859 18.4331 41.7719 18.4577 41.8519 18.4946C42.0424 18.5868 42.233 18.6606 42.4298 18.7282C42.8663 18.8819 43.3028 19.0356 43.7393 19.1893C43.8438 19.2262 43.9422 19.2631 44.0467 19.2938C44.2557 19.3615 44.3418 19.0356 44.1389 18.968C43.8622 18.8758 43.5794 18.7836 43.3028 18.6913C42.8724 18.5499 42.4359 18.3778 41.9933 18.2856C41.8888 18.2671 41.7781 18.2241 41.6674 18.2425C41.6121 18.2671 41.6059 18.3286 41.6305 18.3655Z" fill="#BA96D6"/>
<path d="M42.7126 16.6625C42.7556 16.7056 42.7925 16.7609 42.8417 16.8039C42.9278 16.8777 43.02 16.9392 43.1122 17.0068C43.2843 17.1236 43.4503 17.2466 43.6225 17.3634C43.6594 17.388 43.6963 17.4187 43.7331 17.4433C43.8069 17.4925 43.9237 17.4618 43.9668 17.3818C44.0098 17.2958 43.9852 17.2035 43.9053 17.1482C43.8008 17.0806 43.6963 17.013 43.5917 16.9453C43.4073 16.8285 43.229 16.7056 43.0384 16.6011C42.9646 16.5642 42.8847 16.5457 42.8048 16.5088C42.7126 16.4719 42.6511 16.6011 42.7126 16.6625Z" fill="#BA96D6"/>
<path d="M41.9871 16.7977C41.9441 16.8407 41.8888 16.8776 41.8519 16.9207C41.7781 17.0006 41.7166 17.0928 41.6551 17.1789C41.5383 17.3449 41.4215 17.5047 41.3109 17.6707C41.2863 17.7076 41.2617 17.7445 41.2371 17.7814C41.1879 17.8552 41.2186 17.972 41.2986 18.015C41.3846 18.058 41.4769 18.0334 41.5322 17.9535C41.5998 17.8552 41.6613 17.7506 41.7289 17.6461C41.8396 17.4678 41.9625 17.2957 42.0609 17.1113C42.0978 17.0375 42.1162 16.9637 42.147 16.8838C42.1716 16.7977 42.0425 16.7362 41.9871 16.7977Z" fill="#BA96D6"/>
<path d="M44.9689 24.6056L44.9627 24.6118L44.9566 24.6179C44.9812 24.5872 44.9566 24.6179 44.9504 24.6241C44.9443 24.6425 44.9381 24.6487 44.9381 24.6733C44.9381 24.7102 44.9443 24.747 44.9443 24.7839C44.9504 24.9192 44.9689 25.0544 44.9996 25.1897C45.0672 25.4848 45.1287 25.7799 45.1964 26.0811C45.2148 26.1488 45.2271 26.2226 45.2455 26.2902C45.2947 26.4992 45.6206 26.4131 45.5714 26.198C45.5283 26.0135 45.4792 25.8291 45.43 25.6446C45.3562 25.3495 45.3009 25.0421 45.1779 24.7655C45.1472 24.704 45.1287 24.6179 45.0611 24.5811C45.0181 24.5626 44.9873 24.5749 44.9689 24.6056Z" fill="#BA96D6"/>
<path d="M40.7084 26.5115C40.6838 26.5361 40.7022 26.5176 40.7084 26.5115C40.7145 26.5053 40.7268 26.5053 40.7329 26.4992C40.7637 26.4807 40.7944 26.4623 40.819 26.4377C40.8744 26.3824 40.9235 26.3147 40.9727 26.2471C41.0588 26.1303 41.1449 26.0196 41.2309 25.9028C41.2432 25.8844 41.2555 25.8659 41.2678 25.8475C41.274 25.8413 41.274 25.8352 41.2801 25.8352C41.2801 25.8352 41.2801 25.8352 41.2863 25.829C41.2801 25.8352 41.2801 25.8413 41.274 25.8475C41.2494 25.8782 41.2555 25.8721 41.2863 25.829C41.3354 25.7553 41.3047 25.6385 41.2248 25.5954C41.1387 25.5524 41.0465 25.577 40.9912 25.6569C40.942 25.7245 40.8989 25.7983 40.8498 25.8721C40.7698 25.995 40.6776 26.118 40.61 26.2532C40.5915 26.2901 40.5792 26.327 40.5731 26.3639C40.567 26.3824 40.567 26.4008 40.5608 26.4192C40.5485 26.4561 40.5731 26.5053 40.6038 26.5238C40.6346 26.5483 40.6776 26.5361 40.7084 26.5115Z" fill="#BA96D6"/>
</svg>
