<svg width="80" height="82" viewBox="0 0 80 82" fill="none" xmlns="http://www.w3.org/2000/svg">
<circle opacity="0.2" cx="40" cy="42" r="40" fill="#C6C6D7"/>
<path d="M25.0491 52.2717C25.2331 52.4434 25.5151 52.4924 25.6929 52.658C25.8707 52.8174 25.9872 53.0135 26.0546 53.2465C26.2385 53.8657 26.1956 54.5647 26.2079 55.2023C26.2201 55.9196 26.2324 56.643 26.2324 57.3665C26.2324 57.722 26.2324 58.0715 26.2263 58.4271C26.2201 58.8011 26.1711 59.1996 26.214 59.5674C26.2447 59.8188 26.3857 60.0334 26.6554 60.0702C26.8823 60.0947 27.1704 59.9598 27.2133 59.7023C27.2808 59.2854 27.2563 58.8501 27.2624 58.4271C27.2685 58.0225 27.2685 57.6178 27.2685 57.2132C27.2624 56.4039 27.244 55.5946 27.2072 54.7854C27.1766 54.0251 27.1827 53.1975 26.778 52.5231C26.6003 52.2349 26.355 51.9774 26.0485 51.8242C25.7481 51.6709 25.3066 51.5728 25.043 51.8425C24.9388 51.9652 24.9327 52.1614 25.0491 52.2717Z" fill="#BA96D6"/>
<path d="M26.7167 54.865C27.0478 54.8773 27.2195 54.5095 27.336 54.2581C27.4708 53.9699 27.5505 53.6634 27.7099 53.3875C27.8203 53.1913 28.0104 53.0197 28.182 52.9522C28.2372 52.9338 28.2924 52.9154 28.3537 52.9032C28.274 52.9154 28.4579 52.9093 28.415 52.9032C28.4763 52.9093 28.5192 52.9216 28.5744 52.9951C28.6909 53.1361 28.7154 53.4243 28.7338 53.6205C28.7706 53.9945 28.7951 54.3746 28.8196 54.7547C28.8625 55.521 28.8687 56.2935 28.8503 57.066C28.838 57.4829 28.8196 57.8998 28.7951 58.3167C28.7828 58.5313 28.7644 58.7459 28.7461 58.9605C28.7399 59.0585 28.7277 59.1628 28.7215 59.2609C28.7031 59.4387 28.7277 59.5551 28.8012 59.7268C28.9606 60.0824 29.4327 59.9782 29.6166 59.7268C29.7576 59.5245 29.7454 59.2363 29.7638 58.9972C29.7822 58.7704 29.8006 58.5436 29.819 58.3167C29.8496 57.8753 29.868 57.4339 29.868 56.9924C29.8741 56.1096 29.8435 55.2268 29.7699 54.3439C29.7086 53.6143 29.7331 52.615 29.0281 52.1675C28.3598 51.7383 27.5628 52.1429 27.1336 52.7131C26.9681 52.94 26.1527 54.8405 26.7167 54.865Z" fill="#BA96D6"/>
<path d="M29.3653 54.5094C29.6044 54.4359 29.635 54.2519 29.7209 54.0435C29.8006 53.835 29.8803 53.6205 29.9906 53.4304C30.0764 53.2894 30.1745 53.1729 30.3156 53.0932C30.4627 53.0074 30.573 52.9828 30.7018 53.0319C30.6834 53.0258 30.8428 53.13 30.7938 53.0871C30.7938 53.0871 30.898 53.1974 30.8428 53.13C30.8612 53.1545 30.8796 53.179 30.8919 53.2097C30.947 53.3078 30.9225 53.2526 30.9593 53.363C30.9899 53.4611 31.0145 53.5591 31.0267 53.6572C31.0145 53.5714 31.0329 53.7431 31.0329 53.7369C31.0329 53.7737 31.039 53.8044 31.039 53.8412C31.0451 53.927 31.0451 54.0128 31.039 54.0987C31.0329 54.3623 31.0206 54.6198 31.0083 54.8834C30.9654 55.9502 30.9348 57.017 30.9041 58.0837C30.8796 59.0217 30.7938 60.0088 31.1555 60.8978C31.3088 61.2718 31.5233 61.5967 31.8483 61.8419C32.1977 62.0994 32.8966 62.3692 33.2277 61.9829C33.3258 61.8665 33.3687 61.6948 33.2829 61.5599C33.1909 61.4128 33.0928 61.3269 32.9212 61.2779C32.8353 61.2534 32.7434 61.235 32.6575 61.2105C32.5104 61.1614 32.7188 61.2472 32.5901 61.1859C32.5533 61.1675 32.5227 61.1491 32.492 61.1308C32.4614 61.1124 32.4307 61.094 32.4 61.0694C32.4797 61.1308 32.351 61.0204 32.3387 61.002C32.3387 61.002 32.2529 60.9039 32.2958 60.9591C32.3387 61.0143 32.2652 60.91 32.2652 60.91C32.2222 60.8487 32.1916 60.7813 32.1548 60.72C32.1425 60.6955 32.1058 60.6096 32.1487 60.7139C32.1364 60.6771 32.118 60.6403 32.1058 60.6035C32.0812 60.5299 32.0506 60.4564 32.0261 60.3828C31.8728 59.8923 31.8667 59.3896 31.8789 58.8807C31.8912 58.3106 31.9096 57.7465 31.928 57.1764C31.9464 56.6184 31.9525 56.0605 31.9648 55.5026C31.977 54.9692 32.0077 54.4359 31.9831 53.9025C31.9648 53.4978 31.8973 53.0564 31.6705 52.707C31.3885 52.2839 30.9348 52.0877 30.4382 52.1674C29.917 52.2471 29.4756 52.6211 29.2549 53.0871C29.12 53.3691 29.0587 53.6511 29.0465 53.9638C29.0403 54.0864 29.0219 54.2581 29.0833 54.3684C29.1384 54.442 29.2549 54.5401 29.3653 54.5094Z" fill="#BA96D6"/>
<path d="M33.7856 61.7868C33.7611 61.6703 33.663 61.5661 33.5894 61.4741C33.4975 61.3515 33.3932 61.235 33.289 61.1246C33.1725 60.9959 33.0438 60.8794 32.915 60.7629C32.8047 60.6587 32.5594 60.6832 32.5349 60.861C32.4736 61.3147 32.4123 61.7622 32.3449 62.2159C32.3387 62.2772 32.3265 62.3447 32.3203 62.406C32.3081 62.5041 32.3203 62.5899 32.4062 62.6512C32.4859 62.7125 32.5778 62.7125 32.6637 62.6696C32.8169 62.596 32.9702 62.5163 33.1235 62.4305C33.3626 62.3018 33.6078 62.1669 33.8101 61.983C33.9021 61.8971 33.896 61.7377 33.8101 61.6519C33.7182 61.5599 33.5772 61.5661 33.4791 61.6519C33.4607 61.6641 33.4116 61.7255 33.4546 61.6703C33.4362 61.6887 33.4055 61.7071 33.3871 61.7193C33.3381 61.7561 33.2829 61.7868 33.2277 61.8235C33.1112 61.8971 32.9886 61.9646 32.866 62.032C32.7188 62.1117 32.5717 62.1853 32.4184 62.2588C32.5349 62.3263 32.6514 62.3937 32.774 62.4612C32.8353 62.0075 32.8905 61.5599 32.9518 61.1062C32.958 61.0449 32.9702 60.9775 32.9763 60.9162C32.8476 60.9714 32.7188 61.0265 32.584 61.0756C32.7127 61.1921 32.8292 61.3147 32.9641 61.425C33.0744 61.517 33.1787 61.609 33.2829 61.7009C33.3749 61.7806 33.4607 61.8849 33.571 61.94C33.6875 62.0013 33.8163 61.9033 33.7856 61.7868Z" fill="#BA96D6"/>
<path d="M48.279 5.00276C48.3464 4.95372 49.5848 6.63357 49.5297 6.67649C49.4806 6.7194 47.5065 6.07566 47.5003 6.02048C47.4942 5.96531 49.3519 5.38288 49.4132 5.42579C49.4745 5.46871 48.236 7.06273 48.1809 7.02594C48.1257 6.98916 48.2115 5.05181 48.279 5.00276Z" fill="#BA96D6"/>
<path d="M32.3878 15.3516C32.2958 15.3271 32.9641 13.0219 33.0377 13.0403C33.1112 13.0587 33.9082 15.3026 33.8592 15.3516C33.8101 15.4007 31.9831 14.107 31.9831 14.0212C31.9831 13.9354 34.3006 13.9476 34.3067 14.0212C34.3067 14.1009 32.4797 15.3761 32.3878 15.3516Z" fill="#BA96D6"/>
<path d="M54.8328 -1.43592e-05C54.8758 -0.0367995 55.7218 0.993184 55.6912 1.02384C55.6605 1.05449 54.3853 0.711165 54.373 0.67438C54.3669 0.637595 55.5318 0.202304 55.5686 0.226827C55.6115 0.251351 54.8758 1.31199 54.839 1.28747C54.8083 1.2752 54.7961 0.0367708 54.8328 -1.43592e-05Z" fill="#BA96D6"/>
<path d="M55.2252 3.82563C55.2252 3.77045 56.5188 3.78271 56.525 3.82563C56.525 3.86854 55.4766 4.61038 55.4459 4.59198C55.4153 4.57359 55.8138 3.43325 55.8628 3.42099C55.9057 3.40873 56.2429 4.61651 56.2062 4.62877C56.1571 4.64103 55.2252 3.88081 55.2252 3.82563Z" fill="#BA96D6"/>
<path d="M54.8942 7.75551C54.9371 7.78616 54.0971 8.86519 54.0604 8.84067C54.0236 8.81615 54.0787 7.46736 54.1155 7.44896C54.1523 7.43057 54.8451 8.50347 54.8267 8.54639C54.8083 8.5893 53.5883 8.0927 53.6005 8.05592C53.6128 8.01913 54.8512 7.72485 54.8942 7.75551Z" fill="#BA96D6"/>
<path d="M51.0072 4.48776C51.0562 4.4755 51.3628 5.68941 51.3199 5.70167C51.2831 5.71393 50.3328 4.91079 50.3389 4.87401C50.3451 4.83722 51.516 4.94145 51.5406 4.97823C51.5651 5.01502 50.5106 5.62197 50.4922 5.59132C50.4677 5.55453 50.9581 4.50002 51.0072 4.48776Z" fill="#BA96D6"/>
<path d="M45.9186 7.32641C45.9554 7.31415 46.1883 8.25217 46.1638 8.26443C46.1393 8.2767 45.4036 7.65135 45.4097 7.62682C45.4159 7.6023 46.3171 7.67587 46.3355 7.70653C46.3539 7.73718 45.5446 8.20313 45.5262 8.1786C45.5017 8.15408 45.8818 7.33867 45.9186 7.32641Z" fill="#BA96D6"/>
<path d="M38.8436 20.4402C38.8681 20.4096 39.659 20.9552 39.6467 20.9797C39.6345 21.0042 38.6719 21.0226 38.6596 21.0042C38.6474 20.9859 39.3708 20.4463 39.4076 20.4525C39.4383 20.4647 39.144 21.3476 39.1133 21.3414C39.0765 21.3353 38.819 20.4709 38.8436 20.4402Z" fill="#BA96D6"/>
<path d="M31.4068 19.631C31.4498 19.6187 31.7134 20.7223 31.6766 20.7345C31.6398 20.7468 30.7938 20.0049 30.7999 19.9743C30.806 19.9436 31.8605 20.0479 31.8851 20.0846C31.9034 20.1214 30.947 20.6548 30.9286 20.6242C30.9041 20.5935 31.3578 19.6432 31.4068 19.631Z" fill="#BA96D6"/>
<path d="M35.1835 20.9307C35.1773 20.8816 36.4096 20.7161 36.4219 20.759C36.428 20.7958 35.5268 21.6419 35.4961 21.6296C35.4655 21.6173 35.6984 20.477 35.7352 20.4586C35.7781 20.4402 36.2502 21.5438 36.2196 21.5622C36.1828 21.5805 35.1957 20.9797 35.1835 20.9307Z" fill="#BA96D6"/>
<path d="M41.9458 12.2739C41.9826 12.2372 42.8409 13.1261 42.8164 13.1568C42.7918 13.1874 41.5841 12.9667 41.5718 12.9299C41.5595 12.8993 42.6079 12.4088 42.6508 12.4333C42.6876 12.4517 42.0868 13.4878 42.0561 13.4695C42.0132 13.4572 41.909 12.3107 41.9458 12.2739Z" fill="#BA96D6"/>
<path d="M30.3033 16.9212C30.3401 16.9702 29.1568 17.7918 29.1262 17.755C29.0955 17.7182 29.5798 16.3755 29.6166 16.3694C29.6534 16.3633 30.0213 17.6569 29.9906 17.6998C29.96 17.7427 28.8871 16.8599 28.9116 16.8231C28.9361 16.7802 30.2726 16.8721 30.3033 16.9212Z" fill="#BA96D6"/>
<path d="M54.3853 1.23848C54.2565 1.30592 54.1584 1.41014 54.0542 1.5021C53.8029 1.72281 53.5638 1.95579 53.3308 2.20102C52.7974 2.74667 52.2701 3.28618 51.7368 3.83183C51.6141 3.95445 51.4915 4.08319 51.375 4.20581C51.2156 4.37134 51.467 4.62884 51.6264 4.45718C51.9575 4.11385 52.2885 3.76439 52.6135 3.41493C53.1346 2.86928 53.6864 2.3359 54.1585 1.74734C54.2688 1.61246 54.3976 1.48371 54.4711 1.33044C54.5079 1.26913 54.4466 1.20169 54.3853 1.23848Z" fill="#BA96D6"/>
<path d="M53.9071 7.58381C53.8703 7.49185 53.7967 7.42441 53.7293 7.35084C53.576 7.18531 53.4166 7.03816 53.245 6.89102C52.8648 6.55996 52.4847 6.23502 52.1046 5.90396C52.0127 5.82426 51.9268 5.75069 51.8349 5.67098C51.6571 5.52384 51.4057 5.77521 51.5835 5.92235C51.8287 6.1308 52.0801 6.33312 52.3315 6.54157C52.7177 6.86037 53.0978 7.21596 53.5208 7.49185C53.6189 7.55316 53.717 7.64512 53.8274 7.66351C53.8703 7.67577 53.9255 7.63899 53.9071 7.58381Z" fill="#BA96D6"/>
<path d="M42.7796 12.2066C42.9022 12.1146 42.988 11.992 43.08 11.8755C43.3068 11.5996 43.5214 11.3114 43.7299 11.0233C44.2019 10.3612 44.6801 9.6929 45.1522 9.03077C45.2626 8.8775 45.3729 8.72423 45.4833 8.56483C45.6182 8.37477 45.3055 8.19698 45.1706 8.3809C44.8763 8.7978 44.5882 9.2147 44.3 9.6316C43.8402 10.2937 43.3498 10.9436 42.939 11.6303C42.847 11.7897 42.7305 11.9429 42.6692 12.1207C42.6631 12.182 42.7305 12.2433 42.7796 12.2066Z" fill="#BA96D6"/>
<path d="M41.6822 13.7331C41.5718 13.9293 41.4982 14.1438 41.4185 14.3584C41.2285 14.855 41.0507 15.3577 40.8851 15.8666C40.4989 17.0253 40.1127 18.1841 39.7264 19.3428C39.6406 19.6126 39.5486 19.8762 39.4628 20.1459C39.3892 20.3667 39.7387 20.4586 39.8061 20.244C40.0452 19.5206 40.2782 18.791 40.5112 18.0676C40.8851 16.9089 41.2898 15.7563 41.6086 14.5853C41.6822 14.3155 41.7741 14.0519 41.8048 13.776C41.8232 13.7024 41.7189 13.6779 41.6822 13.7331Z" fill="#BA96D6"/>
<path d="M36.5322 21.1024C36.5874 21.1576 36.661 21.1515 36.7346 21.1637C36.8756 21.1821 37.0166 21.1821 37.1637 21.176C37.4948 21.1576 37.832 21.1453 38.163 21.1269C38.2427 21.1208 38.3224 21.1208 38.396 21.1147C38.4941 21.1085 38.5738 21.035 38.5738 20.9369C38.5738 20.8449 38.4941 20.7529 38.396 20.7591C38.1876 20.7713 37.973 20.7959 37.7645 20.8143C37.5867 20.8265 37.409 20.8449 37.2312 20.8572C37.0718 20.8694 36.9124 20.8817 36.7591 20.9246C36.6855 20.943 36.5813 20.9491 36.5322 21.0166C36.5077 21.035 36.5016 21.0718 36.5322 21.1024Z" fill="#BA96D6"/>
<path d="M32.1548 20.471C32.2222 20.5323 32.3081 20.5507 32.3939 20.5752C32.5901 20.6365 32.7863 20.6855 32.9886 20.7223C33.4484 20.8082 33.9144 20.9001 34.3742 20.986C34.4784 21.0043 34.5888 21.0289 34.693 21.0473C34.9198 21.0902 35.0179 20.7407 34.7911 20.7039C34.4968 20.6549 34.2025 20.6058 33.9082 20.5568C33.4423 20.4832 32.9702 20.3667 32.5043 20.3483C32.4 20.3422 32.2774 20.3177 32.1793 20.3606C32.1425 20.3729 32.1119 20.4342 32.1548 20.471Z" fill="#BA96D6"/>
<path d="M31.131 19.5328C31.1493 19.4654 31.1187 19.4041 31.0942 19.3428C31.039 19.2018 30.9716 19.073 30.898 18.9381C30.7263 18.6561 30.5547 18.368 30.383 18.086C30.3401 18.0185 30.3033 17.9511 30.2604 17.8836C30.1378 17.6875 29.8251 17.8652 29.9477 18.0676C30.0581 18.2454 30.1745 18.417 30.2849 18.5948C30.383 18.742 30.475 18.8891 30.573 19.0424C30.6589 19.1773 30.7447 19.3121 30.8551 19.4286C30.9102 19.4838 30.9654 19.5696 31.0451 19.588C31.088 19.588 31.1248 19.5696 31.131 19.5328Z" fill="#BA96D6"/>
<path d="M30.1745 16.3939C30.1807 16.3939 30.1868 16.3939 30.1929 16.3939C30.1991 16.3939 30.2052 16.3939 30.2113 16.3939C30.1807 16.4001 30.242 16.3878 30.2604 16.3755C30.3156 16.3449 30.3646 16.3081 30.4136 16.2775C30.5976 16.1671 30.7631 16.0384 30.9348 15.9035C31.3026 15.6092 31.6705 15.3149 32.0322 15.0206C32.118 14.9532 32.2039 14.8858 32.2897 14.8122C32.3633 14.7509 32.351 14.6221 32.2897 14.5608C32.2161 14.4872 32.1119 14.4995 32.0383 14.5608C31.8115 14.7509 31.5846 14.9409 31.3578 15.131C31.0083 15.4253 30.6221 15.7073 30.3094 16.0445C30.2604 16.0997 30.2052 16.1548 30.1562 16.21C30.1439 16.2284 30.1316 16.2407 30.1194 16.2591C30.1132 16.2652 30.101 16.3204 30.1132 16.2775C30.1132 16.2836 30.1071 16.2836 30.1071 16.2897C30.1071 16.2958 30.101 16.302 30.101 16.3081C30.0703 16.3633 30.1316 16.4001 30.1745 16.3939Z" fill="#BA96D6"/>
<path d="M50.2347 5.26634C50.1979 5.25408 50.1673 5.24182 50.1305 5.24182C50.0753 5.24182 50.0201 5.26021 49.9649 5.27248C49.8791 5.297 49.7872 5.32152 49.7013 5.35218C49.6829 5.35831 49.6584 5.36444 49.64 5.37057C49.5971 5.38896 49.5542 5.41349 49.5297 5.45027C49.5051 5.48706 49.499 5.54836 49.5113 5.59128C49.5419 5.67711 49.64 5.75068 49.732 5.7139C49.7442 5.70777 49.7626 5.70164 49.7749 5.6955C49.7626 5.70164 49.7442 5.70777 49.732 5.7139C49.7872 5.68937 49.8423 5.67098 49.8975 5.64646C49.9404 5.62807 49.9895 5.60967 50.0324 5.59128C50.0876 5.56676 50.1427 5.54836 50.1918 5.51771C50.2224 5.49932 50.2408 5.48092 50.2592 5.45027C50.2654 5.44414 50.2654 5.43801 50.2715 5.43188C50.2776 5.42575 50.2837 5.41348 50.2899 5.40735C50.3267 5.35218 50.2899 5.27861 50.2347 5.26634Z" fill="#BA96D6"/>
<path d="M47.813 6.52323C47.7885 6.49871 47.7517 6.48645 47.7211 6.49871C47.6536 6.52323 47.5739 6.53549 47.5126 6.56615C47.4145 6.60906 47.3225 6.66424 47.2306 6.71942C47.0467 6.82977 46.8627 6.94013 46.6788 7.05048C46.6359 7.07501 46.5991 7.09953 46.5562 7.12405C46.4765 7.1731 46.4397 7.28346 46.4888 7.36929C46.5378 7.44899 46.6482 7.48577 46.734 7.43673C46.8443 7.36929 46.9486 7.29572 47.0589 7.22215C47.2551 7.0934 47.4574 6.97078 47.6414 6.82364C47.6475 6.81751 47.6597 6.81138 47.6659 6.80525C47.6291 6.8359 47.6843 6.78686 47.6965 6.7746C47.7088 6.76233 47.7272 6.74394 47.7394 6.73168C47.7578 6.70716 47.7824 6.68876 47.8008 6.66424C47.8191 6.63972 47.8375 6.60293 47.8253 6.57228C47.8314 6.54775 47.8253 6.53549 47.813 6.52323Z" fill="#BA96D6"/>
<path d="M51.7736 4.94148C51.8839 4.95987 51.9881 4.93535 52.0985 4.92309C52.3437 4.8863 52.589 4.83726 52.8281 4.78208C53.386 4.6472 53.9439 4.51232 54.5018 4.37744C54.6367 4.34679 54.7654 4.31613 54.9003 4.27935C55.1271 4.22417 55.029 3.87471 54.8022 3.93602C54.4527 4.02185 54.1033 4.11995 53.7538 4.21191C53.2082 4.35292 52.638 4.46941 52.1107 4.66559C51.982 4.71464 51.841 4.74529 51.7368 4.83113C51.7 4.85565 51.7245 4.92922 51.7736 4.94148Z" fill="#BA96D6"/>
<path d="M32.0138 42.6952C32.0138 42.6952 28.7338 43.0753 27.4402 45.779C27.4402 45.779 24.4483 44.4977 22.3332 45.8342C22.3332 45.8342 16.8154 47.091 17.22 47.8758C17.6247 48.6666 21.9592 46.576 22.4681 46.6373C22.4681 46.6373 25.2147 47.8574 27.5996 46.7599C27.5996 46.7599 31.4191 45.7054 32.443 43.7804L32.0138 42.6952Z" fill="#363E49"/>
<path d="M27.4279 45.8833C27.3727 45.9078 27.3544 45.9936 27.3544 46.0488C27.3544 46.1162 27.3666 46.1837 27.3789 46.2511C27.3973 46.3186 27.4157 46.3799 27.4463 46.435C27.4586 46.4657 27.477 46.4963 27.4954 46.5209C27.5199 46.5515 27.5383 46.5883 27.5751 46.6128C27.5996 46.6251 27.6364 46.6312 27.6548 46.6128C27.6609 46.6067 27.667 46.6067 27.6732 46.6006C27.6915 46.5822 27.7038 46.5454 27.6915 46.5209C27.6793 46.4902 27.6548 46.4657 27.6364 46.435C27.618 46.4105 27.6057 46.386 27.5873 46.3615C27.5567 46.3124 27.5383 46.2634 27.5199 46.2082C27.5015 46.153 27.4954 46.104 27.4892 46.0488C27.4831 45.9997 27.477 45.92 27.4341 45.8833C27.4463 45.8771 27.4402 45.8771 27.4279 45.8833Z" fill="#BA96D6"/>
<path d="M22.327 45.9262C22.2964 45.9752 22.278 46.0243 22.2719 46.0795C22.2657 46.1346 22.2596 46.1959 22.2596 46.2511C22.2596 46.3063 22.2657 46.3676 22.2719 46.4228C22.278 46.478 22.2841 46.5454 22.327 46.5883C22.3516 46.6128 22.3945 46.6006 22.4067 46.5699C22.419 46.5209 22.3945 46.4596 22.3822 46.4105C22.37 46.3615 22.3638 46.3063 22.3577 46.2572C22.3516 46.2021 22.3516 46.153 22.3577 46.0978C22.3577 46.0427 22.3577 45.9936 22.3516 45.9384C22.3454 45.92 22.3332 45.9139 22.327 45.9262Z" fill="#BA96D6"/>
<path d="M31.3762 40.1509C31.3762 40.1509 27.7345 39.8811 26.1282 42.3273C26.1282 42.3273 23.9579 40.1202 21.4994 40.8314C21.4994 40.8314 16.1471 39.2006 16.0061 39.6175C15.8651 40.0405 20.7698 41.6223 21.2603 41.8185C21.2603 41.8185 23.7004 43.8907 26.0546 43.1673C26.0546 43.1673 30.101 43.1918 31.6582 41.6162L31.3762 40.1509Z" fill="#363E49"/>
<path d="M26.1527 42.4132C26.1404 42.4255 26.122 42.4439 26.1098 42.4623C26.0914 42.4868 26.0914 42.5174 26.0914 42.5481C26.0914 42.6033 26.0975 42.6646 26.1037 42.7198C26.1098 42.7749 26.1282 42.824 26.1466 42.8792C26.165 42.9343 26.1895 42.9956 26.2324 43.0447C26.2692 43.0876 26.355 43.0447 26.3305 42.9834C26.3121 42.9343 26.2814 42.8914 26.2631 42.8424C26.2447 42.7933 26.2263 42.7443 26.2201 42.6952C26.2079 42.6462 26.2079 42.5971 26.2017 42.5481C26.2017 42.5174 26.2017 42.4929 26.1895 42.4623C26.1834 42.4439 26.1711 42.4316 26.165 42.4132C26.1588 42.4132 26.1527 42.4132 26.1527 42.4132Z" fill="#BA96D6"/>
<path d="M21.4565 40.905C21.3952 40.9295 21.3584 40.9908 21.3155 41.046C21.2787 41.1012 21.2419 41.1564 21.2174 41.2177C21.1622 41.3403 21.1438 41.4752 21.1438 41.61C21.1561 41.5916 21.1622 41.5794 21.1744 41.561C21.0947 41.5978 21.1254 41.7204 21.2174 41.7081C21.2541 41.702 21.2848 41.6713 21.2848 41.6346C21.2848 41.5916 21.2541 41.5733 21.2235 41.5549C21.2358 41.5733 21.2541 41.5916 21.2664 41.61C21.2603 41.4936 21.2848 41.3709 21.3277 41.2606C21.3461 41.2054 21.3768 41.1502 21.4074 41.1012C21.4381 41.0521 21.4871 41.0092 21.5116 40.954C21.5178 40.9234 21.4871 40.8927 21.4565 40.905Z" fill="#BA96D6"/>
<path d="M32.0751 36.6931C32.0751 36.6931 28.1514 36.3069 26.2692 38.7041C26.2692 38.7041 24.3564 36.4418 21.6588 37.0733C21.6588 37.0733 17.6186 34.0875 17.0913 34.1918C16.564 34.296 20.5123 37.8335 21.0273 38.0419C21.0273 38.0419 23.5471 40.1939 26.1282 39.544C26.1282 39.544 30.4995 39.6973 32.2774 38.1707L32.0751 36.6931Z" fill="#363E49"/>
<path d="M26.2569 38.7837C26.214 38.8021 26.1834 38.8757 26.165 38.9186C26.1466 38.9615 26.1343 39.0105 26.1282 39.0535C26.122 39.1025 26.1159 39.1516 26.1159 39.2006C26.1159 39.2313 26.122 39.2558 26.122 39.2864C26.1282 39.3171 26.1282 39.3477 26.1527 39.3661C26.1772 39.3907 26.2385 39.3907 26.2569 39.3539C26.2692 39.3294 26.2692 39.3171 26.2692 39.2926C26.2692 39.2926 26.2692 39.2742 26.2692 39.268C26.2692 39.2497 26.2692 39.2251 26.2692 39.2067C26.2692 39.1638 26.2692 39.1148 26.2753 39.0841C26.2815 39.0412 26.2937 38.9983 26.306 38.9554C26.3121 38.937 26.3182 38.9125 26.3244 38.8941C26.3305 38.8695 26.3428 38.8511 26.3428 38.8205C26.3305 38.7837 26.2937 38.7653 26.2569 38.7837Z" fill="#BA96D6"/>
<path d="M21.5791 37.1836C21.5116 37.2142 21.4687 37.2878 21.4319 37.3491C21.389 37.4166 21.3584 37.484 21.3277 37.5514C21.2971 37.6189 21.2725 37.6924 21.2541 37.766C21.2358 37.8396 21.199 37.9316 21.2174 38.0113C21.2296 38.0664 21.3216 38.0848 21.3461 38.0296C21.3768 37.9622 21.3706 37.8825 21.3829 37.8089C21.4013 37.7354 21.4197 37.6679 21.4442 37.6005C21.4687 37.533 21.4994 37.4717 21.5362 37.4043C21.573 37.343 21.6159 37.2817 21.6281 37.2142C21.6281 37.1897 21.6036 37.1713 21.5791 37.1836Z" fill="#BA96D6"/>
<path d="M32.8292 33.0453C32.8292 33.0453 29.5799 32.3218 27.759 34.1365C27.759 34.1365 26.3857 32.0459 24.0621 32.3034C24.0621 32.3034 21.6649 28.8947 21.2174 28.9314C20.7637 28.9621 23.026 32.8245 23.4367 33.0514C23.4367 33.0514 25.3312 35.1114 27.5628 34.8293C27.5628 34.8293 31.2168 35.4056 32.8599 34.3021L32.8292 33.0453Z" fill="#363E49"/>
<path d="M27.7467 34.2285C27.7161 34.2285 27.6977 34.2347 27.6793 34.2592C27.6609 34.2776 27.6486 34.296 27.6364 34.3205C27.618 34.3573 27.5996 34.3941 27.5812 34.437C27.5628 34.4738 27.5505 34.5167 27.5383 34.5535C27.526 34.5964 27.5076 34.6393 27.5015 34.6883C27.4954 34.7313 27.5383 34.7619 27.5751 34.768C27.618 34.7742 27.6486 34.7496 27.667 34.7067C27.6793 34.6699 27.6854 34.6332 27.6977 34.5964C27.7099 34.5596 27.7222 34.5228 27.7345 34.486C27.7467 34.4492 27.759 34.4186 27.7712 34.3879C27.7774 34.3695 27.7896 34.3511 27.7958 34.3266C27.8019 34.296 27.8019 34.2776 27.7896 34.253C27.7774 34.2347 27.759 34.2224 27.7467 34.2285Z" fill="#BA96D6"/>
<path d="M23.9395 32.3586C23.8843 32.3156 23.7985 32.3463 23.7433 32.3647C23.6758 32.3892 23.6145 32.4199 23.5532 32.4567C23.498 32.4873 23.4429 32.5241 23.3938 32.5609C23.3325 32.6099 23.2344 32.6712 23.2589 32.7571C23.2589 32.7448 23.2589 32.7264 23.2589 32.7142C23.2589 32.7142 23.2589 32.7203 23.2528 32.7203C23.2344 32.7693 23.2957 32.8306 23.3448 32.8122H23.3509C23.3386 32.8122 23.3202 32.8122 23.308 32.8122C23.3877 32.8368 23.449 32.7509 23.5042 32.708C23.5287 32.6896 23.5348 32.6835 23.5655 32.659C23.59 32.6406 23.6207 32.6222 23.6452 32.6038C23.6942 32.5731 23.7494 32.5425 23.8046 32.518C23.8291 32.5057 23.8598 32.4934 23.8904 32.475C23.9211 32.4567 23.9456 32.4321 23.9579 32.4015C23.9701 32.3892 23.9579 32.3708 23.9395 32.3586Z" fill="#BA96D6"/>
<path d="M42.7121 42.6952C42.7121 42.6952 45.9921 43.0753 47.2858 45.779C47.2858 45.779 50.2776 44.4977 52.3928 45.8342C52.3928 45.8342 57.9105 47.0849 57.5059 47.8758C57.1013 48.6666 52.7667 46.576 52.2579 46.6373C52.2579 46.6373 49.5113 47.8574 47.1264 46.7599C47.1264 46.7599 43.3068 45.7054 42.283 43.7804L42.7121 42.6952Z" fill="#363E49"/>
<path d="M47.2735 45.8832C47.2367 45.92 47.2245 45.9936 47.2183 46.0426C47.2122 46.0978 47.2061 46.153 47.1877 46.2081C47.1693 46.2633 47.1509 46.3124 47.1264 46.3553C47.1141 46.3798 47.0957 46.4043 47.0773 46.4289C47.0589 46.4595 47.0344 46.484 47.0221 46.5147C47.0099 46.5392 47.0221 46.576 47.0405 46.5944C47.0467 46.6005 47.0528 46.6005 47.0589 46.6066C47.0834 46.625 47.1202 46.6189 47.1386 46.6066C47.1693 46.5883 47.1938 46.5515 47.2122 46.5208C47.2306 46.4963 47.249 46.4656 47.2612 46.435C47.2919 46.3737 47.3164 46.3124 47.3348 46.2449C47.3532 46.1836 47.3593 46.1162 47.3593 46.0487C47.3593 45.9936 47.3409 45.9016 47.2858 45.8771C47.2858 45.8771 47.2796 45.8771 47.2735 45.8832Z" fill="#BA96D6"/>
<path d="M52.3805 45.9323C52.3744 45.9874 52.3744 46.0365 52.3744 46.0917C52.3744 46.1468 52.3744 46.1959 52.3744 46.2511C52.3682 46.3063 52.3621 46.3553 52.3498 46.4043C52.3376 46.4534 52.3131 46.5147 52.3253 46.5637C52.3315 46.6005 52.3805 46.6067 52.405 46.5821C52.4479 46.5454 52.4541 46.4718 52.4602 46.4166C52.4663 46.3614 52.4725 46.3001 52.4725 46.2449C52.4725 46.1898 52.4663 46.1285 52.4602 46.0733C52.4541 46.0181 52.4357 45.9691 52.405 45.92C52.3989 45.9139 52.3805 45.92 52.3805 45.9323Z" fill="#BA96D6"/>
<path d="M43.3498 40.1509C43.3498 40.1509 46.9915 39.8811 48.5978 42.3273C48.5978 42.3273 50.7681 40.1202 53.2266 40.8314C53.2266 40.8314 58.5788 39.2006 58.7198 39.6175C58.8608 40.0405 53.9561 41.6223 53.4657 41.8185C53.4657 41.8185 51.0256 43.8907 48.6713 43.1673C48.6713 43.1673 44.625 43.1918 43.0677 41.6162L43.3498 40.1509Z" fill="#363E49"/>
<path d="M48.561 42.4132C48.5548 42.4316 48.5426 42.4439 48.5365 42.4623C48.5242 42.4868 48.5242 42.5174 48.5242 42.5481C48.5242 42.5971 48.5181 42.6462 48.5058 42.6952C48.4935 42.7443 48.4813 42.7933 48.4629 42.8424C48.4445 42.8914 48.4138 42.9343 48.3954 42.9834C48.3771 43.0386 48.4568 43.0815 48.4935 43.0447C48.5365 43.0018 48.5548 42.9405 48.5794 42.8853C48.5978 42.8301 48.6162 42.7811 48.6223 42.7198C48.6345 42.6646 48.6407 42.6094 48.6345 42.5481C48.6345 42.5174 48.6346 42.4868 48.6162 42.4623C48.6039 42.4439 48.5855 42.4255 48.5732 42.4132C48.5732 42.4132 48.5671 42.4132 48.561 42.4132Z" fill="#BA96D6"/>
<path d="M53.2266 40.954C53.2511 41.0092 53.294 41.0521 53.3308 41.1011C53.3614 41.1502 53.3921 41.2054 53.4105 41.2605C53.4534 41.3709 53.4779 41.4935 53.4718 41.61C53.4841 41.5916 53.5024 41.5732 53.5147 41.5548C53.4779 41.5671 53.4534 41.5916 53.4534 41.6345C53.4534 41.6713 53.4841 41.7081 53.5208 41.7081C53.6128 41.7203 53.6373 41.5977 53.5638 41.5609C53.576 41.5793 53.5822 41.5916 53.5944 41.61C53.5944 41.4751 53.576 41.3402 53.5208 41.2176C53.4963 41.1563 53.4657 41.1011 53.4289 41.0521C53.3921 40.9969 53.3492 40.9356 53.2879 40.9111C53.2388 40.8927 53.2143 40.9233 53.2266 40.954Z" fill="#BA96D6"/>
<path d="M42.6508 36.6931C42.6508 36.6931 46.5746 36.3069 48.4568 38.7041C48.4568 38.7041 50.3696 36.4418 53.0672 37.0733C53.0672 37.0733 57.1074 34.0875 57.6346 34.1918C58.1619 34.296 54.2136 37.8335 53.6986 38.0419C53.6986 38.0419 51.1789 40.1939 48.5978 39.544C48.5978 39.544 44.2265 39.6973 42.4485 38.1707L42.6508 36.6931Z" fill="#363E49"/>
<path d="M48.3893 38.8267C48.3893 38.8512 48.4016 38.8757 48.4077 38.9003C48.4138 38.9187 48.42 38.9371 48.4261 38.9555C48.4384 38.9984 48.4506 39.0413 48.4568 39.0842C48.4629 39.1149 48.4629 39.1639 48.4629 39.2007C48.4629 39.2252 48.4629 39.2436 48.4629 39.2681C48.4629 39.2743 48.4629 39.2926 48.4629 39.2926C48.4629 39.3172 48.4629 39.3294 48.4751 39.354C48.4935 39.3907 48.5487 39.3907 48.5794 39.3662C48.6039 39.3417 48.6039 39.3172 48.61 39.2865C48.6162 39.2559 48.6162 39.2313 48.6162 39.2007C48.6162 39.1516 48.61 39.0965 48.6039 39.0474C48.5978 39.0045 48.5855 38.9555 48.5671 38.9125C48.5548 38.888 48.5426 38.8635 48.5303 38.839C48.5181 38.8144 48.4997 38.7899 48.4751 38.7777C48.4322 38.7654 48.3954 38.7838 48.3893 38.8267Z" fill="#BA96D6"/>
<path d="M53.1039 37.2204C53.1162 37.2878 53.1653 37.3491 53.1959 37.4104C53.2327 37.4717 53.2633 37.5392 53.2879 37.6066C53.3124 37.674 53.3369 37.7415 53.3492 37.8151C53.3676 37.8825 53.3614 37.9683 53.386 38.0358C53.4105 38.0909 53.5024 38.0787 53.5147 38.0174C53.527 37.9438 53.4963 37.8518 53.4779 37.7783C53.4595 37.7047 53.4289 37.6311 53.3982 37.5576C53.3676 37.4901 53.3369 37.4227 53.294 37.3614C53.2572 37.3001 53.2143 37.2204 53.1407 37.1897C53.1285 37.1713 53.1039 37.1897 53.1039 37.2204Z" fill="#BA96D6"/>
<path d="M41.8967 33.0453C41.8967 33.0453 45.1461 32.3218 46.967 34.1365C46.967 34.1365 48.3403 32.0459 50.6639 32.3034C50.6639 32.3034 53.061 28.8947 53.5086 28.9314C53.9623 28.9621 51.7 32.8245 51.2892 33.0514C51.2892 33.0514 49.3948 35.1114 47.1631 34.8293C47.1631 34.8293 43.5092 35.4056 41.8661 34.3021L41.8967 33.0453Z" fill="#363E49"/>
<path d="M46.9424 34.2469C46.9302 34.2715 46.924 34.2899 46.9363 34.3205C46.9424 34.3389 46.9486 34.3634 46.9608 34.3818C46.9731 34.4125 46.9854 34.4431 46.9976 34.4799C47.0099 34.5167 47.0221 34.5535 47.0344 34.5903C47.0467 34.627 47.0467 34.67 47.065 34.7006C47.0773 34.7374 47.1141 34.7681 47.157 34.7619C47.1938 34.7558 47.2306 34.719 47.2306 34.6822C47.2245 34.6393 47.2122 34.5903 47.1938 34.5473C47.1815 34.5044 47.1631 34.4676 47.1509 34.4309C47.1325 34.3941 47.1141 34.3512 47.0957 34.3144C47.0834 34.2899 47.0712 34.2715 47.0528 34.2531C47.0344 34.2285 47.016 34.2224 46.9854 34.2224C46.967 34.2224 46.9486 34.2347 46.9424 34.2469Z" fill="#BA96D6"/>
<path d="M50.7681 32.4077C50.7803 32.4383 50.8049 32.4629 50.8294 32.4812C50.8539 32.4996 50.8907 32.5119 50.9152 32.5242C50.9704 32.5487 51.0256 32.5793 51.0808 32.61C51.1053 32.6284 51.1298 32.6406 51.1543 32.659C51.1666 32.6652 51.1789 32.6774 51.1911 32.6836C51.1911 32.6836 51.2095 32.6958 51.1972 32.6897C51.2034 32.6958 51.2095 32.6958 51.2156 32.702C51.2708 32.7449 51.3383 32.8307 51.418 32.8123C51.4057 32.8123 51.3873 32.8123 51.375 32.8123H51.3812C51.4302 32.8307 51.4915 32.7755 51.4731 32.7203C51.4731 32.7203 51.4731 32.7142 51.467 32.7142C51.467 32.7265 51.467 32.7449 51.467 32.7571C51.4915 32.6713 51.3934 32.61 51.3321 32.5609C51.2831 32.518 51.2279 32.4874 51.1666 32.4506C51.1053 32.4199 51.044 32.3893 50.9827 32.3648C50.9214 32.3402 50.8355 32.3157 50.7803 32.3525C50.7742 32.3709 50.7558 32.3893 50.7681 32.4077Z" fill="#BA96D6"/>
<path d="M41.4247 30.8198C40.505 27.1413 39.1317 25.6821 37.3599 25.6821C35.5881 25.6821 34.2148 27.1413 33.2951 30.8198C32.3755 34.4983 31.3578 35.9452 31.3517 41.3036C31.3578 44.2586 32.3326 45.5154 32.9273 47.2076C33.3381 50.0278 34.5275 51.4379 37.3599 51.4379C40.1862 51.4379 41.3756 50.0216 41.7925 47.2076C42.3872 45.5154 43.362 44.2586 43.3681 41.3036C43.362 35.9452 42.3443 34.5044 41.4247 30.8198Z" fill="#363E49"/>
<path d="M38.347 50.9289C38.347 50.9289 39.4628 52.4923 38.4941 54.4848C38.4941 54.4848 39.8736 55.8765 39.1869 57.9733C39.1869 57.9733 41.4369 59.3405 41.253 61.2472C41.253 61.2472 44.3 60.0946 46.3907 61.4863C46.3907 61.4863 44.956 58.5802 47.7149 57.5073C48.5548 57.2989 47.5003 55.429 46.8443 54.9998C46.8443 54.9998 49.781 55.9501 49.9282 59.4692C50.0753 62.9883 47.1325 62.7247 47.1325 62.7247C47.1325 62.7247 44.3613 65.3426 40.5173 63.0926C40.5173 63.0926 37.2679 63.2826 36.8817 58.7274C36.8817 58.7274 35.3612 57.2376 35.9498 54.5829C35.9498 54.5829 35.2938 52.5168 36.0418 50.8247C36.0479 50.8247 37.0718 50.9657 38.347 50.9289Z" fill="#363E49"/>
<path d="M38.4144 54.448C38.347 54.4174 38.2673 54.4419 38.1998 54.4542C38.1079 54.4726 38.022 54.4971 37.9301 54.5093C37.74 54.54 37.5561 54.5645 37.366 54.5706C36.9921 54.5829 36.6181 54.5339 36.2564 54.4419C36.1215 54.4051 36.0602 54.6136 36.2012 54.6503C36.5874 54.7546 36.9859 54.7975 37.3844 54.773C37.5745 54.7607 37.7707 54.7362 37.9607 54.6933C38.1017 54.6565 38.3592 54.6258 38.4328 54.4848C38.4328 54.4664 38.4267 54.448 38.4144 54.448Z" fill="#BA96D6"/>
<path d="M38.9785 57.961C38.8374 58.0407 38.7026 58.1265 38.5554 58.1939C38.4144 58.2614 38.2734 58.3104 38.1263 58.3533C37.8259 58.4392 37.5132 58.4943 37.2005 58.5066C37.0718 58.5127 37.0718 58.7089 37.2005 58.7089C37.5377 58.6967 37.8749 58.6476 38.1876 58.5311C38.488 58.4208 38.8129 58.2798 39.0582 58.0713C39.1195 58.0161 39.0459 57.9242 38.9785 57.961Z" fill="#BA96D6"/>
<path d="M41.1978 61.4188C41.1488 61.4372 41.1365 61.4863 41.1304 61.5353C41.1181 61.5966 41.0997 61.664 41.0875 61.7254C41.0568 61.8541 41.0139 61.9767 40.9587 62.0993C40.8545 62.3384 40.7196 62.5653 40.548 62.7676C40.4866 62.8412 40.5909 62.9454 40.6522 62.8718C40.8361 62.6511 40.9832 62.3997 41.0936 62.1361C41.1488 62.0074 41.1917 61.8725 41.2223 61.7315C41.2346 61.664 41.253 61.5905 41.2591 61.523C41.2591 61.4862 41.2469 61.4004 41.1978 61.4188Z" fill="#BA96D6"/>
<path d="M46.4336 61.6948C46.4642 61.8603 46.5501 62.0197 46.6298 62.1607C46.6727 62.2343 46.7095 62.3017 46.7585 62.3691C46.8076 62.4427 46.8505 62.5285 46.9118 62.5899C46.9792 62.6634 47.1141 62.5653 47.0528 62.4795C47.0037 62.4121 46.9424 62.3569 46.8934 62.2894C46.8443 62.222 46.7953 62.1546 46.7524 62.0871C46.6665 61.9461 46.5991 61.799 46.5071 61.6641C46.4826 61.6212 46.4213 61.6457 46.4336 61.6948Z" fill="#BA96D6"/>
<path d="M38.3838 51.2599C38.1998 51.2415 38.0036 51.2783 37.8259 51.2844C37.6358 51.2967 37.4519 51.309 37.2618 51.309C37.0718 51.309 36.8817 51.3028 36.6978 51.2844C36.5138 51.2722 36.3177 51.217 36.1337 51.2231C36.0295 51.2293 36.0172 51.358 36.1092 51.3948C36.2809 51.4622 36.5077 51.4622 36.6978 51.4745C36.894 51.4868 37.0902 51.4929 37.2863 51.4868C37.4764 51.4806 37.6664 51.4684 37.8504 51.4438C38.0282 51.4193 38.2428 51.3948 38.4022 51.309C38.4267 51.2967 38.4083 51.266 38.3838 51.2599Z" fill="#BA96D6"/>
<path d="M41.8232 33.1065C42.3627 34.5411 42.8286 35.9819 43.0432 37.5023C43.2517 39.0044 43.2762 40.531 43.1352 42.0392C43.0555 42.9097 42.8961 43.7619 42.7857 44.6264C42.7796 44.6877 42.8715 44.6938 42.8899 44.6386C43.0861 43.8784 43.1842 43.0937 43.2639 42.315C43.3436 41.5487 43.3927 40.7823 43.3927 40.0098C43.3927 38.4894 43.2394 36.9812 42.8593 35.5037C42.6386 34.6576 42.3627 33.8238 41.9764 33.0391C41.9335 32.9655 41.7925 33.0207 41.8232 33.1065Z" fill="#BA96D6"/>
<path d="M41.5412 32.5425C40.8668 32.5425 40.1924 32.6406 39.5241 32.6773C38.8497 32.7141 38.1753 32.7387 37.5009 32.7387C36.8265 32.7387 36.1521 32.7203 35.4777 32.6773C34.8033 32.6344 34.1351 32.5486 33.4607 32.4995C33.3565 32.4934 33.3319 32.6651 33.4362 32.6835C34.1106 32.7938 34.8033 32.8306 35.4777 32.8735C36.1521 32.9164 36.8265 32.9348 37.5009 32.9348C38.1753 32.9348 38.8558 32.9164 39.5241 32.8735C40.1985 32.8306 40.8974 32.8 41.5534 32.6406C41.6025 32.6222 41.5902 32.5425 41.5412 32.5425Z" fill="#BA96D6"/>
<path d="M42.3688 35.4669C41.7312 35.5527 41.1059 35.7428 40.4744 35.8593C39.8 35.9819 39.1195 36.0739 38.4389 36.129C37.1085 36.2455 35.7598 36.2394 34.4294 36.1106C33.6875 36.0371 32.9457 35.9267 32.21 35.7734C32.0812 35.7489 32.0261 35.939 32.1548 35.9696C34.8033 36.5214 37.5867 36.5398 40.2475 36.0739C40.9587 35.9512 41.7251 35.8286 42.3872 35.5221C42.424 35.5037 42.3995 35.4608 42.3688 35.4669Z" fill="#BA96D6"/>
<path d="M42.9329 38.9553C42.2155 39.0718 41.5044 39.2189 40.7809 39.3232C40.0514 39.4274 39.3218 39.4826 38.5861 39.5132C37.1269 39.5745 35.6617 39.501 34.2086 39.3354C33.3749 39.2435 32.5411 39.1147 31.7073 38.9798C31.5908 38.9615 31.5417 39.1331 31.6582 39.1515C34.5642 39.6604 37.5867 39.9179 40.5234 39.5316C41.3388 39.4274 42.1726 39.2803 42.9451 38.986C42.9635 38.986 42.9574 38.9553 42.9329 38.9553Z" fill="#BA96D6"/>
<path d="M42.9451 41.1195C42.2585 41.2728 41.5841 41.4629 40.8913 41.5916C40.1617 41.7265 39.426 41.8246 38.6842 41.8859C37.2066 42.0085 35.7168 42.0024 34.2393 41.8736C33.4239 41.8062 32.6146 41.702 31.8176 41.5364C31.6889 41.5119 31.6398 41.7142 31.7624 41.7326C34.6807 42.1863 37.6542 42.3396 40.5786 41.8246C41.3817 41.6836 42.2033 41.518 42.9574 41.2054C43.0126 41.1808 42.9942 41.1073 42.9451 41.1195Z" fill="#BA96D6"/>
<path d="M42.706 43.7191C42.3749 43.7865 42.05 43.9091 41.7189 44.0072C41.3879 44.1053 41.0568 44.1911 40.7257 44.2708C40.0514 44.4302 39.3647 44.559 38.6719 44.6571C37.2925 44.8533 35.8885 44.9084 34.4907 44.8287C33.6998 44.7858 32.9089 44.6939 32.1242 44.5529C32.0015 44.5345 31.9525 44.7184 32.0751 44.7368C34.8646 45.215 37.74 45.1414 40.4928 44.4854C40.8729 44.3935 41.2469 44.2954 41.6209 44.1789C41.9948 44.0685 42.3872 43.9643 42.7367 43.7865C42.7796 43.7742 42.7489 43.7129 42.706 43.7191Z" fill="#BA96D6"/>
<path d="M41.6576 47.1094C40.9832 47.1646 40.315 47.3178 39.6406 47.3975C38.9601 47.4772 38.2795 47.5201 37.599 47.5324C36.2073 47.5508 34.8524 47.3975 33.4791 47.1646C33.3565 47.1462 33.3074 47.324 33.43 47.3485C34.7727 47.655 36.1889 47.7592 37.5622 47.7347C38.255 47.7225 38.9539 47.6734 39.6406 47.5876C40.315 47.5018 41.0262 47.4159 41.6638 47.1707C41.6944 47.1584 41.6944 47.1094 41.6576 47.1094Z" fill="#BA96D6"/>
<path d="M32.7556 33.0452C32.0751 34.4247 31.695 35.9635 31.4865 37.4839C31.2781 38.9921 31.2904 40.5249 31.4375 42.0392C31.5172 42.9098 31.6276 43.7926 31.8421 44.6387C31.8544 44.6938 31.9525 44.6816 31.9464 44.6264C31.8483 43.8539 31.7073 43.0937 31.6214 42.3151C31.5417 41.561 31.4988 40.8007 31.4988 40.0466C31.4988 38.5385 31.7011 37.018 32.0812 35.565C32.302 34.7251 32.6024 33.9158 32.9089 33.1065C32.9334 33.0207 32.7986 32.9655 32.7556 33.0452Z" fill="#BA96D6"/>
<path d="M38.6535 26.4607C38.6535 26.4607 39.2666 24.836 40.4376 24.7318C41.6147 24.6276 41.9826 25.6882 41.9826 25.6882C41.9826 25.6882 45.5385 25.8354 47.6414 28.6556C47.6414 28.6556 49.4377 25.5043 51.0195 24.8667C51.0195 24.8667 49.0269 24.0206 48.9901 21.1269C49.1189 18.8339 50.5229 18.7604 50.8907 17.4361C51.3015 15.9585 49.3028 13.2058 49.5419 12.8257C49.781 12.4456 53.6189 17.105 54.1707 20.5873C54.7225 24.0697 52.9936 25.118 52.9936 25.118C51.841 27.6685 50.2347 29.6304 47.9356 30.6665C47.8743 30.8933 43.4417 29.9124 40.6583 27.3865C39.2114 28.4778 38.1385 27.7543 38.6535 26.4607Z" fill="#363E49"/>
<path d="M47.5739 28.8088C47.5739 28.8456 47.5616 28.8701 47.5616 28.9069C47.5616 28.9376 47.5678 28.9682 47.5739 29.005C47.5862 29.0725 47.5984 29.1338 47.6046 29.2012C47.623 29.3422 47.6414 29.4832 47.6536 29.6242C47.6781 29.894 47.6843 30.1699 47.6659 30.4396C47.672 30.4212 47.6781 30.4029 47.6904 30.3845C47.6536 30.4212 47.6414 30.4519 47.6475 30.5009C47.6536 30.599 47.8069 30.6358 47.8314 30.5255C47.8437 30.458 47.8253 30.4029 47.8253 30.3354C47.8253 30.2618 47.8253 30.1821 47.8253 30.1086C47.8253 29.9553 47.813 29.802 47.8008 29.6488C47.7885 29.5016 47.764 29.3545 47.7394 29.2073C47.7272 29.1338 47.7088 29.0602 47.6965 28.9805C47.6904 28.9498 47.6843 28.9192 47.672 28.8885C47.6597 28.8517 47.6352 28.8334 47.6168 28.7966C47.6046 28.772 47.5739 28.7843 47.5739 28.8088Z" fill="#BA96D6"/>
<path d="M51.2524 24.9219C51.2953 24.9587 51.3321 24.9464 51.3873 24.9341C51.4547 24.9219 51.5283 24.9096 51.5958 24.9035C51.7184 24.8912 51.8471 24.8912 51.9697 24.8973C52.2272 24.9157 52.4909 24.977 52.73 25.0813C52.8587 25.1364 52.9384 24.9587 52.8035 24.9035C52.546 24.7931 52.264 24.7318 51.982 24.7318C51.8471 24.7318 51.7061 24.7441 51.5712 24.7625C51.4977 24.7747 51.4302 24.787 51.3628 24.8054C51.3076 24.8176 51.2586 24.8299 51.2402 24.8851C51.2402 24.8973 51.2463 24.9157 51.2524 24.9219Z" fill="#BA96D6"/>
<path d="M41.9274 25.7251C41.86 25.8477 41.8232 25.9826 41.7741 26.1113C41.7189 26.2462 41.6515 26.3749 41.5657 26.4975C41.486 26.614 41.3879 26.7183 41.2837 26.8164C41.2285 26.8654 41.1733 26.9144 41.112 26.9574C41.0507 27.0003 40.9771 27.0309 40.9281 27.0861C40.8606 27.1474 40.9281 27.27 41.02 27.2394C41.0936 27.2149 41.161 27.1658 41.2223 27.1168C41.2837 27.0677 41.345 27.0187 41.4063 26.9635C41.5228 26.8531 41.6209 26.7244 41.7067 26.5895C41.86 26.3443 42.0132 26.0193 41.9397 25.7251C41.9335 25.7189 41.9274 25.7189 41.9274 25.7251Z" fill="#BA96D6"/>
<path d="M38.7823 26.2339C38.7884 26.3074 38.8558 26.3381 38.911 26.3749C38.9785 26.4178 39.0459 26.4607 39.1133 26.5159C39.2421 26.614 39.3647 26.7243 39.4812 26.8408C39.7019 27.0738 39.8981 27.3497 40.0207 27.6501C40.0575 27.7359 40.1985 27.6991 40.1678 27.6072C40.0391 27.2822 39.8674 26.9818 39.6222 26.7304C39.5057 26.6078 39.377 26.4913 39.2359 26.3994C39.1685 26.3503 39.0949 26.3074 39.0214 26.2645C38.9601 26.2277 38.8742 26.1725 38.8007 26.2155C38.7884 26.2155 38.7823 26.2216 38.7823 26.2339Z" fill="#BA96D6"/>
<path d="M36.0724 26.4607C36.0724 26.4607 35.4593 24.836 34.2883 24.7318C33.1112 24.6276 32.7434 25.6882 32.7434 25.6882C32.7434 25.6882 29.1875 25.8354 27.0846 28.6556C27.0846 28.6556 25.2883 25.5043 23.7065 24.8667C23.7065 24.8667 25.699 24.0206 25.7358 21.1269C25.6071 18.8339 24.2031 18.7604 23.8352 17.4361C23.4245 15.9585 25.4231 13.2058 25.184 12.8257C24.9449 12.4456 21.107 17.105 20.5552 20.5873C20.0035 24.0697 21.7324 25.118 21.7324 25.118C22.885 27.6685 24.4912 29.6304 26.7903 30.6665C26.8516 30.8933 31.2842 29.9124 34.0676 27.3865C35.5145 28.4778 36.5874 27.7543 36.0724 26.4607Z" fill="#363E49"/>
<path d="M27.1152 28.7966C27.0969 28.8334 27.0723 28.8518 27.0601 28.8886C27.0478 28.9192 27.0417 28.9499 27.0355 28.9805C27.0172 29.0541 27.0049 29.1277 26.9926 29.2074C26.9681 29.3545 26.9436 29.5017 26.9313 29.6488C26.9191 29.8021 26.9068 29.9553 26.9068 30.1086C26.9068 30.1822 26.9068 30.2619 26.9068 30.3355C26.9068 30.4029 26.8884 30.4581 26.9007 30.5255C26.9252 30.6359 27.0723 30.5991 27.0846 30.501C27.0907 30.4458 27.0785 30.4213 27.0417 30.3845C27.0478 30.4029 27.0539 30.4213 27.0662 30.4397C27.0417 30.1699 27.0539 29.894 27.0785 29.6243C27.0907 29.4894 27.103 29.3545 27.1214 29.2196C27.1336 29.1522 27.1398 29.0909 27.152 29.0235C27.1582 28.9928 27.1643 28.9621 27.1704 28.9254C27.1766 28.8824 27.1643 28.8579 27.1643 28.815C27.152 28.7844 27.1214 28.7721 27.1152 28.7966Z" fill="#BA96D6"/>
<path d="M23.4858 24.8851C23.4674 24.8299 23.4183 24.8237 23.3632 24.8054C23.2957 24.787 23.2222 24.7747 23.1547 24.7624C23.0198 24.7379 22.885 24.7257 22.7439 24.7318C22.4619 24.7318 22.186 24.7992 21.9224 24.9035C21.7937 24.9586 21.8672 25.1364 21.996 25.0812C22.2351 24.977 22.4926 24.9157 22.7562 24.8973C22.8788 24.8912 23.0076 24.8912 23.1302 24.9035C23.1976 24.9096 23.2589 24.9218 23.3264 24.9341C23.3816 24.9464 23.4245 24.9648 23.4735 24.928C23.4858 24.9157 23.4858 24.8973 23.4858 24.8851Z" fill="#BA96D6"/>
<path d="M32.7924 25.7251C32.7188 26.0132 32.8782 26.3443 33.0254 26.5895C33.1051 26.7244 33.2032 26.847 33.3135 26.9574C33.3687 27.0125 33.43 27.0616 33.4913 27.1106C33.5526 27.1597 33.6262 27.2149 33.6998 27.2394C33.7856 27.2639 33.8592 27.1474 33.7917 27.0861C33.7366 27.0371 33.6691 27.0064 33.614 26.9635C33.5526 26.9206 33.4975 26.8715 33.4423 26.8225C33.3319 26.7244 33.2338 26.6202 33.1541 26.4975C33.0744 26.3811 33.0009 26.2523 32.9518 26.1236C32.8966 25.9887 32.8599 25.8538 32.7924 25.7251C32.7924 25.7189 32.7985 25.7189 32.7924 25.7251Z" fill="#BA96D6"/>
<path d="M35.9314 26.2093C35.864 26.1664 35.7843 26.2155 35.723 26.2523C35.6494 26.2952 35.5758 26.3381 35.5023 26.381C35.3551 26.4791 35.2264 26.5956 35.1038 26.7182C34.8585 26.9757 34.6869 27.27 34.5581 27.5949C34.5213 27.6869 34.6685 27.7237 34.7052 27.6378C34.8279 27.3374 35.024 27.0615 35.2448 26.8286C35.3551 26.7121 35.4777 26.6017 35.6126 26.5036C35.6739 26.4546 35.7414 26.4117 35.8027 26.3687C35.8578 26.332 35.9314 26.2952 35.9375 26.2216C35.9498 26.2216 35.9375 26.2155 35.9314 26.2093Z" fill="#BA96D6"/>
</svg>
