<svg width="16" height="16" viewBox="0 0 16 16" fill="none" xmlns="http://www.w3.org/2000/svg">
<path fill-rule="evenodd" clip-rule="evenodd" d="M6.38212 3.02181C5.95786 3.43613 6.42433 3.99993 7.01733 3.99993H8.98249C9.5755 3.99993 10.042 3.43613 9.61771 3.02181C9.3293 2.74017 8.93488 2.5666 8.49991 2.5666H7.49991C7.06495 2.5666 6.67053 2.74017 6.38212 3.02181ZM11.7181 3.0668C11.8906 3.57169 12.3153 3.99993 12.8488 3.99993H12.901C13.9097 3.99993 14.7605 4.75101 14.8856 5.75187L15.1181 7.61207C15.2416 8.59969 14.62 9.52779 13.6598 9.78967L12.8563 10.0088L9.05239 11.0462C8.36332 11.2342 7.63651 11.2342 6.94745 11.0462L3.14357 10.0088L2.34005 9.78967C1.37982 9.52779 0.75828 8.59969 0.881732 7.61207L1.11426 5.75187C1.23936 4.75101 2.09017 3.99993 3.09881 3.99993H3.15103C3.68457 3.99993 4.10923 3.57169 4.28173 3.0668C4.73888 1.72876 6.00703 0.766602 7.49991 0.766602H8.49991C9.9928 0.766602 11.261 1.72876 11.7181 3.0668ZM1.94538 11.2368C1.7154 11.1741 1.45719 11.2652 1.39729 11.4959C1.35549 11.657 1.33325 11.8258 1.33325 11.9999V12.6666C1.33325 13.7712 2.22868 14.6666 3.33325 14.6666H12.6666C13.7712 14.6666 14.6666 13.7712 14.6666 12.6666V11.9999C14.6666 11.8258 14.6443 11.6569 14.6025 11.4959C14.5426 11.2652 14.2844 11.1741 14.0545 11.2368L9.44706 12.4934C8.4996 12.7518 7.50023 12.7518 6.55277 12.4934L1.94538 11.2368Z" fill="#C6C6D7"/>
</svg>
