<svg width="16" height="16" viewBox="0 0 16 16" fill="none" xmlns="http://www.w3.org/2000/svg">
<path fill-rule="evenodd" clip-rule="evenodd" d="M8.00002 7.99992C9.84097 7.99992 11.3333 6.50753 11.3333 4.66658C11.3333 2.82564 9.84097 1.33325 8.00002 1.33325C6.15907 1.33325 4.66668 2.82564 4.66668 4.66658C4.66668 6.50753 6.15907 7.99992 8.00002 7.99992ZM3.39822 10.8429C2.07253 12.1079 2.76927 14.2234 4.51299 14.7867C5.61151 15.1415 6.78336 15.3333 7.99999 15.3333C9.21662 15.3333 10.3885 15.1415 11.487 14.7867C13.2307 14.2234 13.9274 12.1079 12.6018 10.8429C11.4052 9.70105 9.78448 8.99992 7.99999 8.99992C6.21549 8.99992 4.59475 9.70105 3.39822 10.8429Z" fill="#C6C6D7"/>
</svg>
