<svg width="80" height="80" viewBox="0 0 80 80" fill="none" xmlns="http://www.w3.org/2000/svg">
<circle opacity="0.2" cx="40" cy="40" r="40" fill="#C6C6D7"/>
<path d="M49.2278 26.9943C49.2278 26.9943 65.5286 26.9384 67.4036 25.728C69.2785 24.5177 67.4036 19.1727 67.4036 19.1727C67.4036 19.1727 73.2453 23.5243 71.7551 28.4845C70.265 33.4447 51.8164 34.5991 51.8164 34.5991L49.2278 26.9943Z" fill="#BA96D6"/>
<path d="M30.7722 26.9943C30.7722 26.9943 14.4714 26.9384 12.5964 25.728C10.7215 24.5177 12.5964 19.1727 12.5964 19.1727C12.5964 19.1727 6.7547 23.5243 8.24486 28.4845C9.73502 33.4447 28.1836 34.5991 28.1836 34.5991L30.7722 26.9943Z" fill="#BA96D6"/>
<path d="M54.1181 36.516C54.0061 35.9353 54.8037 35.4666 54.6707 34.5851C54.6707 33.4867 53.1316 29.7928 51.0328 27.5331C48.941 25.2733 40 25.4972 40 25.4972C40 25.4972 31.059 25.2803 28.9672 27.5331C26.8754 29.7928 25.3293 33.4797 25.3293 34.5851C25.1893 35.4666 25.9869 35.9353 25.8819 36.516C25.77 37.0967 23.9021 40.9795 24.2309 44.8903C24.5597 48.8011 26.9873 54.363 27.589 56.8396C28.1976 59.3162 27.477 67.5226 32.3813 67.7464C32.3813 67.7464 34.1163 71.4544 40 71.4544C45.8837 71.4544 47.6187 67.7464 47.6187 67.7464C52.523 67.5296 51.8024 59.3162 52.411 56.8396C53.0197 54.363 55.4403 48.8011 55.7691 44.8903C56.0979 40.9725 54.23 37.0897 54.1181 36.516Z" fill="#363E49"/>
<path d="M47.5907 46.6602C47.5907 46.6602 46.4923 39.8111 52.383 40.6926C52.383 40.6926 53.6493 46.6043 47.5907 46.6602Z" fill="#EAE1F9"/>
<path d="M49.6756 45.4709C50.6338 45.4709 51.4106 44.6502 51.4106 43.6379C51.4106 42.6256 50.6338 41.8049 49.6756 41.8049C48.7173 41.8049 47.9405 42.6256 47.9405 43.6379C47.9405 44.6502 48.7173 45.4709 49.6756 45.4709Z" fill="#363E49"/>
<path d="M32.4023 46.6602C32.4023 46.6602 33.5007 39.8111 27.61 40.6926C27.61 40.6926 26.3437 46.6043 32.4023 46.6602Z" fill="#EAE1F9"/>
<path d="M32.0595 43.6379C32.0595 44.6524 31.2829 45.4709 30.3244 45.4709C29.366 45.4709 28.5894 44.6524 28.5894 43.6379C28.5894 42.6235 29.366 41.805 30.3244 41.805C31.2829 41.798 32.0595 42.6235 32.0595 43.6379Z" fill="#363E49"/>
<path d="M47.3389 64.6961C48.1784 63.4998 48.0875 61.6878 47.3459 60.4076C46.6043 59.1343 45.324 58.3507 44.0087 57.9869C42.6935 57.6301 41.3223 57.6441 39.965 57.6651C38.6078 57.6441 37.3135 57.6301 35.9913 57.9869C34.676 58.3437 33.3957 59.1273 32.6541 60.4076C31.9126 61.6808 31.8146 63.4998 32.6611 64.6961C33.0599 65.2628 33.6406 65.6756 33.9344 66.3192C34.3962 67.3476 33.9904 68.6349 34.1933 69.7473C35.3756 70.6218 37.2226 71.4473 40 71.4473C42.7774 71.4473 44.6244 70.6218 45.8067 69.7473C46.0096 68.6349 45.6038 67.3476 46.0656 66.3192C46.3594 65.6756 46.9401 65.2628 47.3389 64.6961Z" fill="#EAE1F9"/>
<path d="M43.484 63.4229C43.484 63.4229 44.1697 59.5401 45.9047 60.9463C47.6467 62.3455 43.484 63.4229 43.484 63.4229Z" fill="#363E49"/>
<path d="M36.509 63.4229C36.509 63.4229 35.8233 59.5401 34.0883 60.9463C32.3533 62.3455 36.509 63.4229 36.509 63.4229Z" fill="#363E49"/>
<path d="M32.4862 67.6344C32.5912 67.8093 32.7521 67.8163 32.948 67.8373C33.1858 67.8583 33.4377 67.8443 33.6756 67.8093C34.1723 67.7254 34.648 67.5505 35.1237 67.3756C36.0892 67.0188 37.0547 66.7529 38.0831 66.676C38.5798 66.641 39.0765 66.641 39.5662 66.676C39.8111 66.697 40.042 66.7319 40.2868 66.704C40.5597 66.676 40.8255 66.662 41.0984 66.655C42.1828 66.634 43.2602 66.8159 44.2746 67.1797C45.331 67.5575 46.4084 68.1172 47.5627 67.8233C47.8076 67.7604 47.7027 67.3826 47.4578 67.4455C46.4364 67.7044 45.4289 67.1797 44.4915 66.8439C43.519 66.4871 42.4976 66.2982 41.4622 66.2702C41.2173 66.2632 40.9725 66.2702 40.7346 66.2842C40.4687 66.2982 40.2029 66.3542 39.937 66.3262C39.4613 66.2702 38.9856 66.2632 38.5028 66.2772C37.5374 66.3192 36.5719 66.4871 35.6624 66.8089C35.1237 66.9978 34.599 67.2427 34.0533 67.4106C33.7665 67.4945 33.4727 67.5575 33.1788 67.5785C32.941 67.5925 32.6961 67.5085 32.4932 67.6274C32.4862 67.6274 32.4792 67.6344 32.4862 67.6344Z" fill="#363E49"/>
<path d="M54.3419 37.1735C54.3419 37.1735 58.4696 33.8154 61.9397 34.1442C65.4097 34.4731 69.0966 37.1735 69.0966 37.1735C69.0966 37.1735 64.6891 42.6305 60.8343 42.7354C56.9794 42.8474 55.5732 41.4132 55.5732 41.4132L54.3419 37.1735Z" fill="#363E49"/>
<path d="M66.718 37.4814C66.3752 37.2225 65.9624 37.0476 65.5706 36.8797C65.1788 36.7188 64.7801 36.5859 64.3743 36.4739C63.5488 36.2501 62.6882 36.1311 61.8347 36.1241C60.2186 36.1031 58.5955 36.4739 57.1544 37.1945C56.3428 37.6003 55.5872 38.118 54.9156 38.7197C54.7267 38.8876 55.0066 39.1604 55.1885 38.9925C57.5671 36.8517 60.9182 36.0192 64.0315 36.7328C64.4792 36.8377 64.92 36.9707 65.3467 37.1246C65.7875 37.2855 66.2073 37.5024 66.648 37.6633C66.753 37.7192 66.8019 37.5443 66.718 37.4814Z" fill="#BA96D6"/>
<path d="M54.4049 37.2505C54.4049 37.2505 54.3979 37.2505 54.3979 37.2575C54.3629 37.2855 54.3419 37.3204 54.3559 37.3694C54.4399 37.6982 54.5798 38.0201 54.6917 38.3489C54.8037 38.6847 54.9086 39.0275 55.0066 39.3773C55.0975 39.7131 55.1815 40.0489 55.2514 40.3847C55.2864 40.5526 55.3214 40.7205 55.3494 40.8954C55.3774 41.0494 55.3773 41.2173 55.4963 41.3292C55.5453 41.3782 55.6362 41.3712 55.6642 41.3082C55.7411 41.1613 55.6922 41.0074 55.6642 40.8465C55.6362 40.6786 55.6012 40.5037 55.5662 40.3358C55.4963 39.9859 55.4123 39.6361 55.3074 39.2933C55.2025 38.9505 55.0975 38.6077 54.9716 38.2719C54.8456 37.9431 54.7267 37.5933 54.5378 37.2995C54.5168 37.2645 54.4679 37.2435 54.4259 37.2575C54.4119 37.2505 54.4119 37.2505 54.4049 37.2505Z" fill="#BA96D6"/>
<path d="M25.693 37.1735C25.693 37.1735 21.5654 33.8154 18.0953 34.1442C14.6253 34.4731 10.9383 37.1735 10.9383 37.1735C10.9383 37.1735 15.3459 42.6305 19.2007 42.7354C23.0555 42.8474 24.4687 41.4132 24.4687 41.4132L25.693 37.1735Z" fill="#363E49"/>
<path d="M13.401 37.6703C13.7787 37.5303 14.1425 37.3414 14.5203 37.1945C14.9051 37.0476 15.2899 36.9217 15.6817 36.8167C16.4932 36.5999 17.3327 36.4879 18.1723 36.4809C19.7324 36.4669 21.2995 36.8237 22.6987 37.5163C23.4823 37.9081 24.2099 38.4048 24.8605 38.9925C25.0424 39.1604 25.3223 38.8876 25.1334 38.7197C22.6707 36.5159 19.2217 35.6414 16.0035 36.39C15.5348 36.5019 15.066 36.6348 14.6183 36.8167C14.1775 36.9916 13.7088 37.1875 13.324 37.4814C13.2331 37.5443 13.282 37.7192 13.401 37.6703Z" fill="#BA96D6"/>
<path d="M25.6231 37.2505H25.6161C25.5741 37.2435 25.5321 37.2575 25.5042 37.2925C25.3153 37.5933 25.1893 37.9361 25.0704 38.265C24.9445 38.6008 24.8325 38.9436 24.7346 39.2864C24.6296 39.6292 24.5457 39.979 24.4757 40.3288C24.4407 40.4967 24.4058 40.6646 24.3778 40.8395C24.3498 41.0004 24.3008 41.1543 24.3778 41.3012C24.4128 41.3642 24.5037 41.3712 24.5457 41.3222C24.6506 41.2103 24.6576 41.0704 24.6856 40.9235C24.7206 40.7556 24.7486 40.5877 24.7836 40.4127C24.8605 40.0629 24.9445 39.7131 25.0354 39.3703C25.1264 39.0345 25.2243 38.7057 25.3362 38.3769C25.4482 38.0411 25.5951 37.7123 25.6791 37.3625C25.693 37.3205 25.6721 37.2785 25.6371 37.2505C25.6371 37.2575 25.6301 37.2505 25.6231 37.2505Z" fill="#BA96D6"/>
<path d="M46.1565 12.7713C46.1915 12.7224 47.3529 13.5689 47.3249 13.6039C47.2969 13.6458 45.8767 13.6318 45.8557 13.5969C45.8347 13.5619 46.9401 12.7923 46.9891 12.8063C47.038 12.8203 46.5623 14.1216 46.5133 14.1146C46.4714 14.1076 46.1286 12.8203 46.1565 12.7713Z" fill="#BA96D6"/>
<path d="M53.5234 9.84694C53.5374 9.79796 54.6987 10.1967 54.6917 10.2387C54.6777 10.2737 53.5094 10.6235 53.4884 10.6025C53.4674 10.5745 54.174 9.66504 54.216 9.66504C54.258 9.66504 54.195 10.8544 54.16 10.8544C54.1181 10.8614 53.5094 9.88891 53.5234 9.84694Z" fill="#BA96D6"/>
<path d="M39.1465 12.3305C39.1605 12.2956 39.993 12.6803 39.986 12.7083C39.972 12.7363 39.0835 12.9042 39.0625 12.8832C39.0485 12.8622 39.6432 12.2466 39.6712 12.2466C39.7062 12.2536 39.5662 13.1281 39.5383 13.1211C39.5103 13.1281 39.1325 12.3585 39.1465 12.3305Z" fill="#BA96D6"/>
<path d="M41.1753 13.2261C41.2033 13.1981 41.8959 13.8697 41.8749 13.8977C41.854 13.9187 40.9025 13.7788 40.8955 13.7508C40.8885 13.7228 41.693 13.317 41.721 13.331C41.749 13.345 41.3083 14.1705 41.2803 14.1565C41.2593 14.1496 41.1474 13.2541 41.1753 13.2261Z" fill="#BA96D6"/>
<path d="M56.035 10.9523C56.042 10.9173 56.8955 11.1062 56.8885 11.1342C56.8815 11.1622 56.0909 11.498 56.07 11.484C56.049 11.47 56.4757 10.7774 56.5107 10.7704C56.5387 10.7704 56.5877 11.6099 56.5597 11.6099C56.5317 11.6239 56.028 10.9873 56.035 10.9523Z" fill="#BA96D6"/>
<path d="M51.5575 7.99996C51.5785 7.97198 52.2081 8.58063 52.1871 8.60162C52.1662 8.62261 51.3126 8.49668 51.3056 8.4687C51.2986 8.44771 52.0262 8.07692 52.0542 8.09091C52.0752 8.1119 51.6764 8.85348 51.6554 8.83949C51.6275 8.83249 51.5295 8.02794 51.5575 7.99996Z" fill="#BA96D6"/>
<path d="M45.5409 17.6475C45.5759 17.6196 46.2545 18.4451 46.2265 18.4661C46.1985 18.4871 45.1771 18.2142 45.1701 18.1862C45.1631 18.1583 46.1006 17.8085 46.1355 17.8294C46.1705 17.8504 45.5829 18.697 45.5479 18.683C45.5199 18.669 45.5059 17.6755 45.5409 17.6475Z" fill="#BA96D6"/>
<path d="M39.2584 14.7231C39.2724 14.6881 40.1819 14.968 40.1749 14.996C40.1679 15.024 39.2724 15.3248 39.2514 15.3108C39.2304 15.2898 39.7551 14.5692 39.7901 14.5692C39.8251 14.5692 39.8041 15.4927 39.7761 15.4927C39.7481 15.4927 39.2514 14.7581 39.2584 14.7231Z" fill="#BA96D6"/>
<path d="M48.927 18.4311C48.934 18.3961 49.8085 18.662 49.8015 18.69C49.7945 18.7179 48.941 19.0048 48.92 18.9908C48.899 18.9698 49.4027 18.2842 49.4377 18.2842C49.4727 18.2842 49.4517 19.1657 49.4237 19.1657C49.3957 19.1657 48.92 18.4661 48.927 18.4311Z" fill="#BA96D6"/>
<path d="M21.8872 11.617C21.9292 11.575 22.9296 12.5964 22.9016 12.6314C22.8736 12.6664 21.4744 12.4215 21.4604 12.3796C21.4464 12.3446 22.6568 11.7709 22.6987 11.7919C22.7407 11.8129 22.0551 13.0162 22.0201 12.9952C21.9711 12.9812 21.8452 11.659 21.8872 11.617Z" fill="#BA96D6"/>
<path d="M23.4543 19.2496C23.4683 19.1936 24.8395 19.6064 24.8325 19.6484C24.8185 19.6903 23.4753 20.1521 23.4473 20.1241C23.4193 20.0961 24.1959 19.0117 24.2519 19.0117C24.3008 19.0117 24.2868 20.3969 24.2379 20.3969C24.1889 20.4039 23.4333 19.3056 23.4543 19.2496Z" fill="#BA96D6"/>
<path d="M32.3883 10.6865C32.4023 10.6375 33.6266 11.0783 33.6126 11.1203C33.5986 11.1622 32.3603 11.505 32.3323 11.4841C32.3113 11.4561 33.0739 10.5116 33.1159 10.5186C33.1648 10.5186 33.0739 11.7709 33.0319 11.7709C32.9969 11.7709 32.3743 10.7355 32.3883 10.6865Z" fill="#BA96D6"/>
<path d="M23.1045 12.2396C23.3354 12.3096 23.6992 12.2816 23.972 12.2536C24.6646 12.1976 25.3502 12.1347 26.0429 12.0647C27.61 11.9178 29.1771 11.7639 30.7442 11.61C31.0031 11.582 31.2619 11.561 31.5208 11.533C31.5977 11.526 31.6677 11.519 31.7446 11.512C31.7726 11.505 31.9195 11.491 31.8286 11.498C32.0735 11.4771 32.0735 11.0923 31.8286 11.1133C30.8352 11.2112 29.8417 11.3021 28.8483 11.4001C27.2882 11.561 25.721 11.7079 24.1609 11.8828C23.8181 11.9178 23.3634 11.9458 23.0905 12.0927C23.0275 12.1347 23.0485 12.2186 23.1045 12.2396Z" fill="#BA96D6"/>
<path d="M25.0984 19.5575C25.5321 19.5225 26.0568 19.3546 26.5116 19.2147C27.624 18.8719 28.7293 18.5291 29.8417 18.1793C32.3393 17.3957 34.8299 16.6122 37.3205 15.8216C37.7403 15.6887 38.153 15.5558 38.5728 15.4228C38.6847 15.3879 38.8037 15.3529 38.9156 15.3179C38.9436 15.3109 38.9786 15.2969 39.0066 15.2829C39.0415 15.2689 39.1115 15.2339 39.0275 15.2759H39.0345C39.2654 15.199 39.1675 14.8352 38.9296 14.9051C37.3555 15.4018 35.7744 15.8986 34.2003 16.3953C31.7097 17.1858 29.2191 17.9694 26.7355 18.7739C26.3157 18.9069 25.8959 19.0398 25.4902 19.2147C25.3362 19.2847 25.1963 19.3336 25.0564 19.4176C25.0004 19.4596 25.0214 19.5645 25.0984 19.5575Z" fill="#BA96D6"/>
<path d="M33.8854 11.435C33.9974 11.5469 34.2003 11.5749 34.3542 11.6169C34.732 11.7288 35.1167 11.8268 35.5015 11.9177C36.383 12.1346 37.2645 12.3445 38.146 12.5474C38.3559 12.5963 38.5588 12.6453 38.7687 12.6943C38.9996 12.7503 39.1045 12.3935 38.8666 12.3375C37.4324 12.0017 35.9983 11.6309 34.5501 11.351C34.3682 11.3161 34.1023 11.2251 33.9204 11.2811C33.8575 11.3091 33.8295 11.393 33.8854 11.435Z" fill="#BA96D6"/>
<path d="M41.9029 13.7297C42.0219 13.7577 42.1478 13.7367 42.2807 13.7367C42.5815 13.7227 42.8754 13.6947 43.1762 13.6667C43.8618 13.5898 44.5474 13.5198 45.2331 13.4428C45.394 13.4219 45.5549 13.4079 45.7158 13.3869C45.9117 13.3659 45.9187 13.0511 45.7158 13.072C45.282 13.121 44.8413 13.177 44.4075 13.233C43.7219 13.3169 43.0223 13.3729 42.3437 13.5128C42.1898 13.5408 42.0289 13.5618 41.8819 13.6247C41.84 13.6387 41.854 13.7227 41.9029 13.7297Z" fill="#BA96D6"/>
<path d="M47.3039 12.6383C47.4578 12.5474 47.5837 12.4284 47.7237 12.3165C48.0525 12.0436 48.3743 11.7568 48.6891 11.463C49.4027 10.8053 50.1233 10.1477 50.8369 9.49008C50.9978 9.34317 51.1657 9.18925 51.3266 9.04234C51.4735 8.90241 51.2497 8.68554 51.1028 8.81846C50.655 9.23823 50.2073 9.65799 49.7595 10.0778C49.0529 10.7424 48.3253 11.386 47.6537 12.0786C47.5068 12.2325 47.3389 12.3795 47.2129 12.5614C47.185 12.6033 47.2549 12.6663 47.3039 12.6383Z" fill="#BA96D6"/>
<path d="M46.3244 14.3244C46.2755 14.4153 46.2615 14.5203 46.2405 14.6252C46.1915 14.8701 46.1565 15.1149 46.1216 15.3598C46.0516 15.9195 45.9816 16.4862 45.9187 17.0458C45.9047 17.1788 45.8837 17.3117 45.8697 17.4446C45.8487 17.6475 46.1635 17.6405 46.1845 17.4446C46.2265 17.0948 46.2545 16.745 46.2965 16.4022C46.3524 15.8495 46.4434 15.2898 46.4504 14.7301C46.4504 14.6042 46.4714 14.4713 46.4364 14.3454C46.4154 14.2894 46.3454 14.2754 46.3244 14.3244Z" fill="#BA96D6"/>
<path d="M48.7171 18.487C48.6611 18.4311 48.5842 18.4101 48.5072 18.3891C48.3393 18.3261 48.1714 18.2841 48.0035 18.2422C47.6117 18.1512 47.2199 18.0603 46.8282 17.9693C46.7372 17.9483 46.6463 17.9273 46.5483 17.9063C46.3524 17.8644 46.2685 18.1652 46.4644 18.2072C46.7162 18.2631 46.9681 18.3121 47.2199 18.3681C47.6117 18.452 48.0105 18.557 48.4163 18.592C48.5072 18.599 48.6122 18.6269 48.6961 18.592C48.7311 18.571 48.7521 18.522 48.7171 18.487Z" fill="#BA96D6"/>
<path d="M52.1662 8.98635C52.1452 8.95836 52.1662 8.98635 52.1732 8.99334C52.1801 9.00734 52.1871 9.01433 52.2011 9.02832C52.2291 9.0633 52.2501 9.09828 52.2781 9.12627C52.3411 9.19623 52.418 9.2522 52.488 9.31516C52.6349 9.44109 52.7818 9.56002 52.9287 9.67896C52.9637 9.70694 52.9917 9.73493 53.0267 9.75591C53.0896 9.80489 53.1876 9.82587 53.2505 9.75591C53.2995 9.69995 53.3205 9.58801 53.2505 9.53204C53.1526 9.45508 53.0477 9.37813 52.9497 9.30117C52.7888 9.18224 52.6349 9.04931 52.46 8.93737C52.404 8.90239 52.3341 8.87441 52.2711 8.84643C52.1801 8.81145 52.1102 8.91639 52.1662 8.98635Z" fill="#BA96D6"/>
<path d="M54.6428 10.5605C54.6777 10.6095 54.7547 10.6515 54.8037 10.6795C54.8876 10.7354 54.9926 10.7634 55.0835 10.7984C55.2654 10.8684 55.4473 10.9383 55.6222 11.0013C55.6642 11.0153 55.6992 11.0293 55.7411 11.0433C55.8181 11.0712 55.909 11.0083 55.93 10.9313C55.951 10.8474 55.902 10.7704 55.8181 10.7424C55.7062 10.7074 55.6012 10.6725 55.4893 10.6305C55.3004 10.5675 55.1115 10.4976 54.9156 10.4486C54.8666 10.4346 54.8247 10.4346 54.7757 10.4276C54.7477 10.4276 54.7057 10.4136 54.6777 10.4276C54.6428 10.4556 54.6148 10.5186 54.6428 10.5605Z" fill="#BA96D6"/>
<path d="M39.979 13.0371C39.986 13.0511 40 13.0651 40.007 13.0721C40.014 13.0791 40.021 13.0861 40.028 13.1001C40.035 13.1071 40.035 13.1141 40.042 13.1141L40.035 13.1071C40.021 13.0931 40.028 13.0931 40.049 13.1211C40.056 13.1281 40.063 13.1351 40.077 13.1421C40.07 13.1351 40.063 13.1351 40.063 13.1281C40.1189 13.177 40.1889 13.219 40.2519 13.261C40.3638 13.3309 40.4757 13.4009 40.5877 13.4709C40.6157 13.4849 40.6366 13.5059 40.6646 13.5198C40.7346 13.5618 40.8395 13.5408 40.8815 13.4639C40.9235 13.3869 40.9025 13.296 40.8255 13.247C40.7556 13.205 40.6856 13.17 40.6087 13.1351C40.4757 13.0651 40.3498 12.9881 40.2099 12.9322C40.2029 12.9322 40.1959 12.9252 40.1889 12.9252C40.1889 12.9252 40.1819 12.9252 40.1819 12.9182C40.1679 12.9182 40.1609 12.9182 40.1469 12.9112C40.1679 12.9112 40.1749 12.9182 40.1679 12.9112C40.1539 12.9112 40.1399 12.9042 40.1259 12.9042C40.1049 12.9042 40.084 12.8972 40.07 12.8972C39.979 12.8832 39.923 12.9741 39.979 13.0371Z" fill="#BA96D6"/>
<path d="M40.021 14.8141C40.077 14.7931 40.1329 14.7791 40.1819 14.7511C40.2519 14.7092 40.3218 14.6602 40.3848 14.6112C40.5177 14.5133 40.6506 14.4153 40.7906 14.3104C40.8325 14.2824 40.8675 14.2544 40.9095 14.2194C40.9725 14.1705 40.9655 14.0515 40.9095 13.9956C40.8395 13.9326 40.7556 13.9396 40.6856 13.9956C40.6087 14.0585 40.5247 14.1215 40.4478 14.1915C40.3148 14.3034 40.1749 14.4083 40.049 14.5273C40 14.5762 39.965 14.6322 39.923 14.6882C39.8811 14.7441 39.951 14.8351 40.021 14.8141Z" fill="#BA96D6"/>
<path d="M39.6922 32.822C40.3148 32.829 40.8955 32.906 41.4552 33.1998C42.0079 33.4867 42.4836 33.9134 42.7984 34.4521C43.4561 35.5715 43.3581 37.1036 42.5046 38.0901C41.5321 39.2164 39.993 39.4053 38.6707 38.8317C38.0341 38.5588 37.5024 38.153 37.2156 37.5094C36.9637 36.9427 36.9287 36.2921 36.9917 35.6764C37.0617 34.9908 37.2645 34.2282 37.7892 33.7455C38.3209 33.2558 39.1395 33.1369 39.8181 32.9969C40.063 32.948 40.2029 32.6611 40.1399 32.4373C40.07 32.1854 39.8181 32.0735 39.5802 32.1154C38.7897 32.2693 37.9781 32.4442 37.3275 32.955C36.6629 33.4727 36.3271 34.2842 36.1941 35.0958C35.9213 36.6979 36.2571 38.4399 37.7543 39.3214C39.2584 40.2099 41.3083 40.1679 42.6585 39.0275C43.8968 37.9851 44.3236 36.1522 43.7359 34.648C43.4141 33.8365 42.8404 33.1509 42.0918 32.6891C41.3922 32.2554 40.4268 31.9755 39.6222 32.2973C39.3564 32.4023 39.3704 32.815 39.6922 32.822Z" fill="#BA96D6"/>
<path d="M46.4294 28.0437C46.1076 27.9108 45.8347 27.9388 45.5059 28.0367C45.2191 28.1207 44.9392 28.2606 44.6944 28.4215C44.1347 28.7923 43.7569 29.317 43.498 29.9327C43.2742 30.4714 43.1482 31.087 42.7425 31.5278C42.5606 31.7237 42.3577 31.8776 42.1198 31.9965C41.847 32.1364 41.5391 32.1504 41.2593 32.2694C40.8815 32.4303 40.9794 33.0949 41.3782 33.1649C42.0219 33.2838 42.7495 32.864 43.2182 32.4653C43.7359 32.0175 44.0087 31.4089 44.1976 30.7652C44.3725 30.1705 44.5055 29.6179 44.9952 29.1981C45.2121 29.0092 45.4779 28.8763 45.7368 28.7573C45.8767 28.6944 46.0306 28.6454 46.1705 28.5824C46.3105 28.5195 46.4014 28.4215 46.5133 28.3306C46.6113 28.2326 46.5343 28.0857 46.4294 28.0437Z" fill="#BA96D6"/>
<path d="M33.8854 28.3165C33.9974 28.4145 34.0883 28.5054 34.2282 28.5684C34.3682 28.6314 34.5151 28.6803 34.662 28.7433C34.9139 28.8622 35.1657 28.9812 35.3826 29.1631C35.8933 29.5828 36.0332 30.1495 36.2081 30.7512C36.39 31.3878 36.6559 31.9825 37.1596 32.4302C37.6283 32.85 38.3699 33.2698 39.0206 33.1508C39.4123 33.0809 39.5173 32.4162 39.1395 32.2553C38.8596 32.1364 38.5518 32.1224 38.279 31.9825C38.0411 31.8635 37.8382 31.7096 37.6563 31.5137C37.2505 31.073 37.1246 30.4573 36.9007 29.9186C36.6419 29.303 36.2641 28.7853 35.7044 28.4075C35.4596 28.2396 35.1797 28.1067 34.8929 28.0227C34.5571 27.9248 34.2842 27.8968 33.9694 28.0297C33.8505 28.0857 33.7735 28.2326 33.8854 28.3165Z" fill="#BA96D6"/>
</svg>
