<svg width="40" height="40" viewBox="0 0 40 40" fill="none" xmlns="http://www.w3.org/2000/svg">
<path d="M20 37.5694C29.7033 37.5694 37.5694 29.7033 37.5694 20C37.5694 10.2967 29.7033 2.43054 20 2.43054C10.2967 2.43054 2.43054 10.2967 2.43054 20C2.43054 29.7033 10.2967 37.5694 20 37.5694Z" fill="#1EABF1"/>
<path d="M30.9375 13.513C30.1324 13.8546 29.2685 14.0863 28.3608 14.1897C29.2876 13.6583 29.9971 12.8154 30.3333 11.8141C29.4639 12.3062 28.5043 12.6636 27.4819 12.8573C26.6631 12.0209 25.4984 11.5 24.2067 11.5C21.7284 11.5 19.719 13.424 19.719 15.7957C19.719 16.132 19.7587 16.4606 19.8352 16.7747C16.1063 16.5954 12.7997 14.8847 10.5866 12.2853C10.1998 12.9188 9.97968 13.657 9.97968 14.4449C9.97968 15.9357 10.7725 17.2511 11.9754 18.0207C11.24 17.9972 10.5483 17.8035 9.94279 17.4815V17.5351C9.94279 19.6162 11.4902 21.3531 13.5419 21.7484C13.166 21.8452 12.7696 21.8989 12.3595 21.8989C12.0697 21.8989 11.7895 21.8714 11.5148 21.819C12.0861 23.5271 13.7429 24.7692 15.7058 24.8032C14.1707 25.9551 12.2351 26.6396 10.1328 26.6396C9.77058 26.6396 9.41379 26.6186 9.0625 26.5807C11.0487 27.8019 13.4066 28.5139 15.9409 28.5139C24.1958 28.5139 28.7081 21.967 28.7081 16.2891L28.693 15.7329C29.5747 15.1308 30.3374 14.3742 30.9375 13.513Z" fill="white"/>
</svg>
