<svg width="16" height="16" viewBox="0 0 16 16" fill="none" xmlns="http://www.w3.org/2000/svg">
<g clip-path="url(#clip0_815_1522)">
<path d="M15.6872 4.01109L8.15597 1.35387C8.05506 1.31824 7.94497 1.31824 7.84406 1.35387L0.312813 4.01109C0.125563 4.07715 0.000250375 4.25402 3.74595e-07 4.45259C-0.000249625 4.65115 0.124657 4.8283 0.31175 4.8948L7.843 7.57221C7.89378 7.59027 7.94691 7.5993 8 7.5993C8.05313 7.5993 8.10622 7.59027 8.157 7.57221L15.6882 4.8948C15.8753 4.8283 16.0002 4.65115 16 4.45259C15.9998 4.25402 15.8744 4.07715 15.6872 4.01109Z" fill="#C6C6D7"/>
<path d="M14.8741 10.2679V6.1792L13.9366 6.51248V10.2679C13.6543 10.4305 13.464 10.735 13.464 11.0842C13.464 11.4334 13.6543 11.738 13.9366 11.9005V14.2041C13.9366 14.463 14.1465 14.6729 14.4054 14.6729C14.6643 14.6729 14.8741 14.463 14.8741 14.2041V11.9005C15.1565 11.738 15.3468 11.4334 15.3468 11.0843C15.3468 10.735 15.1566 10.4305 14.8741 10.2679Z" fill="#C6C6D7"/>
<path d="M7.99998 8.53685C7.83907 8.53685 7.6806 8.5095 7.52895 8.4556L3.2951 6.95044V9.01319C3.2951 9.51785 3.82157 9.94463 4.85989 10.2816C5.76492 10.5754 6.88011 10.7372 7.99998 10.7372C9.11985 10.7372 10.235 10.5754 11.1401 10.2816C12.1784 9.94463 12.7049 9.51785 12.7049 9.01319V6.95044L8.47104 8.4556C8.31936 8.5095 8.16089 8.53685 7.99998 8.53685Z" fill="#C6C6D7"/>
</g>
<defs>
<clipPath id="clip0_815_1522">
<rect width="16" height="16" fill="white"/>
</clipPath>
</defs>
</svg>
