<svg width="80" height="80" viewBox="0 0 80 80" fill="none" xmlns="http://www.w3.org/2000/svg">
<circle opacity="0.2" cx="40" cy="40" r="40" fill="#C6C6D7"/>
<path d="M35.5152 61.2563L44.6343 61.6455V55.8637C44.5046 55.7599 44.4838 55.3291 44.4838 55.3291C44.4838 55.3291 43.9388 53.1025 44.0063 51.8309L36.6363 51.8828L36.1224 55.0696L35.5152 56.1128V61.2563Z" fill="#BA96D6"/>
<path d="M37.7885 72C37.0774 71.8962 36.4131 71.4654 36.0083 70.8374C35.6034 70.2094 35.401 69.4101 35.5723 68.6731C35.1778 68.725 34.7626 68.5693 34.4875 68.2631C34.2125 67.962 34.1658 67.4534 34.228 67.033C34.3941 67.6143 35.2401 67.7285 35.6398 67.2873C36.0394 66.8461 36.0083 66.1091 35.702 65.5901C35.3958 65.0763 34.882 64.7389 34.363 64.4742C32.6502 63.5971 30.3821 63.2493 28.8822 62.0141C29.0794 62.5798 29.1001 63.2286 28.877 63.7839C28.6538 64.3393 28.1763 64.7908 27.6106 64.8946C27.05 64.9984 26.2352 64.5988 26.2352 63.8981C26.4739 64.4223 27.2784 64.3964 27.6158 63.9396C27.9531 63.4829 27.8856 62.7978 27.6106 62.2944C27.3355 61.7909 26.8943 61.412 26.4843 61.0331C24.8598 59.528 23.4792 57.6803 22.6955 55.5523C21.9066 53.4244 21.7405 51.0005 22.4515 48.8466C22.5657 48.4989 22.7007 48.1615 22.8564 47.8293H35.9564L36.8231 51.8933C36.465 53.4866 36.465 55.2824 37.4304 56.5592C38.4009 57.836 39.8801 59.0557 40.2642 60.6439C40.5912 62.0089 39.849 63.2442 38.9978 64.3237C39.2469 65.3877 39.1172 66.5451 38.6449 67.5209C38.2867 68.2579 37.7418 68.8911 37.4667 69.6644C37.1864 70.4377 37.1086 71.5848 37.7885 72Z" fill="#363E49"/>
<path d="M27.6002 51.1511C27.3459 52.5992 27.5794 54.1718 28.0362 55.5576C28.4825 56.9018 29.204 58.1423 30.1174 59.2218C30.569 59.7512 31.062 60.2391 31.5966 60.6855C32.1624 61.1526 32.7748 61.5626 33.382 61.9674C34.555 62.7511 35.754 63.6179 36.3664 64.9362C36.9321 66.1507 36.8179 67.8686 35.5879 68.642C35.4944 68.7043 35.5775 68.8496 35.6761 68.7925C36.7089 68.2216 37.0619 66.8721 36.8646 65.7718C36.6207 64.4172 35.6294 63.3428 34.5758 62.5332C33.9582 62.0608 33.299 61.656 32.6658 61.2148C32.0586 60.7944 31.4876 60.3273 30.9634 59.8083C29.9462 58.7962 29.1053 57.6025 28.5344 56.2842C28.1919 55.4953 27.9479 54.6597 27.813 53.8085C27.6729 52.9261 27.6729 52.0542 27.7248 51.1667C27.7351 51.0992 27.6106 51.0784 27.6002 51.1511Z" fill="#BA96D6"/>
<path d="M25.1452 48.0317C23.9567 49.677 23.6712 51.8932 23.9359 53.8655C24.2162 55.9519 25.166 57.8775 26.4428 59.528C27.1694 60.4674 27.9998 61.3186 28.8925 62.1023C28.9912 62.1853 29.1313 62.0452 29.0327 61.9621C27.4912 60.6127 26.121 59.0453 25.192 57.2079C24.2681 55.381 23.8321 53.2946 24.1176 51.2496C24.2733 50.1234 24.6626 49.0698 25.2542 48.0992C25.3113 48.0265 25.1971 47.9643 25.1452 48.0317Z" fill="#BA96D6"/>
<path d="M35.2661 51.068C35.1311 51.5611 35.0948 52.0853 35.074 52.5939C35.0585 53.0351 35.0688 53.4814 35.1052 53.9226C35.1675 54.6388 35.3024 55.3395 35.4529 56.0402C35.536 56.4294 35.6034 56.8187 35.7176 57.2028C35.8629 57.6803 36.0602 58.1422 36.2885 58.5886C36.7505 59.4916 37.3266 60.3324 37.83 61.2096C38.1259 61.7234 38.3957 62.2476 38.5982 62.803C38.6968 63.0677 38.7798 63.3376 38.8421 63.6178C38.9044 63.9033 38.9251 64.1991 38.9926 64.4846C39.0134 64.578 39.1379 64.5469 39.1431 64.4638C39.1898 63.9811 39.0341 63.4466 38.8836 62.9898C38.7279 62.5227 38.5255 62.0712 38.2971 61.63C37.8248 60.7269 37.2487 59.8913 36.7453 59.009C36.4961 58.5626 36.2626 58.1059 36.0757 57.6284C35.9097 57.1976 35.8059 56.7564 35.7124 56.3049C35.5671 55.625 35.4062 54.9451 35.3232 54.2548C35.2661 53.7825 35.2349 53.305 35.2349 52.8327C35.2349 52.2462 35.318 51.6649 35.3335 51.0784C35.3387 51.0369 35.2765 51.0317 35.2661 51.068Z" fill="#BA96D6"/>
<path d="M30.2524 54.0212C30.351 54.7219 30.5794 55.4225 30.8077 56.0921C31.0309 56.7564 31.2956 57.4052 31.5914 58.0436C32.1779 59.2996 32.9097 60.483 33.7609 61.5781C34.2436 62.1957 34.7626 62.803 35.3387 63.3324C35.401 63.3895 35.4996 63.3012 35.4374 63.2337C34.9599 62.7407 34.4927 62.2528 34.062 61.7182C33.6208 61.1733 33.216 60.6075 32.8423 60.0158C32.0949 58.8325 31.4824 57.5713 31.0153 56.253C30.8856 55.8845 30.761 55.5108 30.652 55.1319C30.543 54.753 30.46 54.3689 30.351 53.9901C30.3302 53.933 30.242 53.9589 30.2524 54.0212Z" fill="#BA96D6"/>
<path d="M42.8956 72C43.6067 71.8962 44.271 71.4654 44.6759 70.8374C45.0807 70.2094 45.2831 69.4101 45.1118 68.6731C45.5063 68.725 45.9215 68.5693 46.1966 68.2631C46.4717 67.962 46.5184 67.4534 46.4561 67.033C46.29 67.6143 45.444 67.7285 45.0444 67.2873C44.6447 66.8461 44.6759 66.1091 44.9821 65.5901C45.2883 65.0763 45.8021 64.7389 46.3211 64.4742C48.0339 63.5971 50.302 63.2493 51.802 62.0141C51.6047 62.5798 51.584 63.2286 51.8071 63.7839C52.0303 64.3393 52.5078 64.7908 53.0735 64.8946C53.6341 64.9984 54.4489 64.5988 54.4489 63.8981C54.2102 64.4223 53.4057 64.3964 53.0684 63.9396C52.731 63.4777 52.7985 62.7978 53.0735 62.2944C53.3486 61.7909 53.7846 61.412 54.1998 61.0331C55.8243 59.528 57.2049 57.6803 57.9938 55.5523C58.7827 53.4244 58.9488 51.0005 58.2378 48.8466C58.1236 48.4989 57.9886 48.1615 57.8329 47.8293H44.7278L43.861 51.8933C44.2191 53.4866 44.2243 55.2824 43.2537 56.5592C42.2832 57.836 40.778 59.2892 40.3992 60.8774C40.0722 62.2425 40.8351 63.2442 41.6863 64.3289C41.4372 65.3929 41.5669 66.5503 42.0392 67.526C42.3974 68.2631 42.9423 68.8963 43.2174 69.6696C43.4977 70.4377 43.5755 71.5848 42.8956 72Z" fill="#363E49"/>
<path d="M52.9542 51.1719C52.9957 51.9504 53.0113 52.7185 52.9127 53.4919C52.8089 54.26 52.622 55.0178 52.3521 55.7496C51.8487 57.1198 51.0546 58.381 50.0633 59.4502C49.5806 59.9692 49.0512 60.4467 48.4854 60.8775C47.8574 61.3498 47.1879 61.7598 46.5495 62.2113C45.4336 63.0003 44.3541 63.976 43.9233 65.3151C43.5392 66.514 43.8039 68.1437 44.9976 68.7977C45.0963 68.8496 45.1793 68.7043 45.0859 68.6472C44.0323 67.9828 43.7728 66.5503 44.1205 65.4241C44.5461 64.0383 45.6983 63.0625 46.8505 62.2684C47.4734 61.8377 48.1221 61.4328 48.7242 60.9709C49.264 60.5505 49.7726 60.0886 50.2397 59.5851C51.1843 58.5627 51.9473 57.3741 52.4559 56.0766C52.7621 55.2929 52.9749 54.4728 53.0891 53.6372C53.1981 52.8223 53.2241 51.9711 53.0839 51.1563C53.0684 51.0784 52.949 51.094 52.9542 51.1719Z" fill="#BA96D6"/>
<path d="M55.4195 48.0992C55.9385 48.9556 56.307 49.8742 56.4939 50.8656C56.6807 51.8673 56.6859 52.9053 56.5406 53.9174C56.2499 55.9623 55.3001 57.8567 54.0285 59.4709C53.3175 60.3791 52.5078 61.1992 51.6411 61.957C51.5424 62.04 51.6878 62.1853 51.7812 62.0971C53.359 60.7165 54.7655 59.0972 55.6998 57.2079C56.6184 55.3499 57.0336 53.2582 56.7378 51.1977C56.5769 50.0818 56.198 48.9504 55.5337 48.0317C55.4818 47.9643 55.3728 48.0265 55.4195 48.0992Z" fill="#BA96D6"/>
<path d="M45.3454 51.0784C45.361 51.6026 45.4336 52.1268 45.444 52.651C45.4544 53.0818 45.4388 53.5178 45.3921 53.9485C45.3194 54.67 45.1689 55.3706 45.0132 56.0765C44.9302 56.471 44.8575 56.8706 44.7329 57.2547C44.572 57.7477 44.3541 58.2252 44.1101 58.682C43.6378 59.5695 43.0617 60.3999 42.5738 61.2771C42.2988 61.7649 42.0548 62.2736 41.8628 62.7978C41.7642 63.0625 41.6863 63.3376 41.624 63.6126C41.5669 63.8877 41.5047 64.1784 41.5358 64.4586C41.5462 64.5417 41.6707 64.5728 41.6863 64.4794C41.7434 64.2303 41.759 63.976 41.8109 63.7268C41.8628 63.4777 41.9303 63.2338 42.0133 62.9898C42.1794 62.4916 42.4077 62.0193 42.6517 61.5573C43.1344 60.6646 43.7157 59.829 44.2035 58.9363C44.4423 58.5003 44.6603 58.0436 44.8316 57.5765C44.9873 57.1561 45.0755 56.7253 45.1689 56.2893C45.3142 55.6094 45.4596 54.9295 45.5374 54.234C45.5893 53.7513 45.6153 53.2634 45.6049 52.7808C45.5945 52.2098 45.5634 51.6182 45.4077 51.068C45.4025 51.0317 45.3454 51.0369 45.3454 51.0784Z" fill="#BA96D6"/>
<path d="M50.3279 53.9952C50.1307 54.6648 49.9802 55.3447 49.7518 56.009C49.5235 56.6785 49.264 57.3325 48.9629 57.9761C48.3712 59.2321 47.6394 60.431 46.7831 61.521C46.3056 62.1282 45.7762 62.6836 45.2416 63.2389C45.1793 63.3012 45.2727 63.3946 45.3402 63.3375C46.3575 62.4033 47.2294 61.2615 47.9664 60.0989C48.7138 58.9259 49.3211 57.6647 49.7882 56.3516C50.0529 55.6042 50.3176 54.8153 50.4317 54.0264C50.4369 53.9589 50.3487 53.9329 50.3279 53.9952Z" fill="#BA96D6"/>
<path d="M43.8402 51.997C43.8402 51.997 44.681 51.5039 45.0392 51.1977C46.5651 49.9157 47.4578 48.5144 48.0702 46.6719C48.0754 46.6719 48.0754 46.6771 48.0806 46.6771C50.7224 46.3864 51.2622 42.5613 51.2622 42.5613C50.93 40.3762 49.8297 40.0907 49.2276 40.1011C49.2847 39.8779 49.3366 39.66 49.3781 39.4472C49.3781 39.4472 50.8522 33.3747 48.4906 30.6031C46.1343 27.8264 43.9752 26.6274 40.3369 26.6274C36.6986 26.6274 34.5394 27.8316 32.1831 30.6031C29.8268 33.3799 31.2956 39.4472 31.2956 39.4472C31.3423 39.66 31.3942 39.8779 31.4513 40.0959C30.8492 40.0907 29.7593 40.3918 29.4271 42.5561C29.4271 42.5561 29.9669 46.3812 32.6087 46.6719C33.2211 48.5144 34.1087 49.9157 35.6346 51.1925C35.9408 51.4468 36.2782 51.6752 36.6363 51.8776C36.6363 51.8776 38.7954 53.2426 40.0981 53.2426C41.4008 53.2478 43.8402 51.997 43.8402 51.997Z" fill="#BA96D6"/>
<path d="M41.925 38.9438C42.0704 38.7465 42.2261 38.5649 42.4181 38.4144C42.5115 38.3417 42.6102 38.2742 42.714 38.2171C42.7659 38.186 42.8229 38.16 42.8749 38.1393C42.9268 38.1133 42.9994 38.1029 43.0357 38.0614C43.0513 38.0407 43.0513 37.9991 43.0202 37.9991C42.9579 37.9888 42.8956 38.0251 42.8437 38.0459C42.7866 38.0718 42.7295 38.0978 42.6776 38.1289C42.5634 38.1912 42.4596 38.2586 42.361 38.3417C42.1638 38.4974 41.9925 38.6998 41.8887 38.9334C41.8783 38.9489 41.9095 38.9645 41.925 38.9438Z" fill="#363E49"/>
<path d="M42.06 38.8295C42.1742 38.788 42.2832 38.705 42.3922 38.6427C42.5064 38.5752 42.6309 38.5129 42.7503 38.461C42.8749 38.4091 42.9994 38.3624 43.1292 38.3209C43.2589 38.2846 43.3939 38.2638 43.5132 38.2067C43.5444 38.1911 43.5236 38.1548 43.4977 38.1548C43.3627 38.1444 43.2278 38.186 43.1032 38.2275C42.9683 38.269 42.8385 38.3157 42.714 38.3728C42.5894 38.4299 42.4648 38.4922 42.3506 38.57C42.2468 38.6375 42.1223 38.7154 42.0548 38.8192C42.0444 38.8243 42.0496 38.8295 42.06 38.8295Z" fill="#363E49"/>
<path d="M42.5271 38.7517C42.7503 38.6323 42.9579 38.5077 43.2018 38.4247C43.316 38.3832 43.4302 38.352 43.5496 38.3313C43.6741 38.3053 43.7987 38.3001 43.9233 38.2638C43.944 38.2586 43.9492 38.2223 43.9233 38.2171C43.7987 38.1963 43.6793 38.2119 43.56 38.2326C43.425 38.2586 43.2953 38.2949 43.1655 38.3365C42.9319 38.4195 42.6828 38.5389 42.5012 38.7101C42.4804 38.7309 42.5012 38.762 42.5271 38.7517Z" fill="#363E49"/>
<path d="M43.1811 38.6323C43.3887 38.57 43.5859 38.4714 43.7987 38.4091C43.9025 38.378 44.0011 38.352 44.1049 38.3313C44.2139 38.3105 44.3281 38.2949 44.4371 38.2534C44.4631 38.243 44.4579 38.2119 44.4319 38.2119C44.3229 38.1963 44.2139 38.2171 44.1049 38.243C43.9907 38.269 43.8766 38.2949 43.7624 38.3313C43.5548 38.3936 43.3368 38.4714 43.1655 38.6064C43.1499 38.6116 43.1655 38.6375 43.1811 38.6323Z" fill="#363E49"/>
<path d="M43.6949 38.5805C43.9077 38.5026 44.1153 38.4196 44.3385 38.3729C44.4527 38.3521 44.5668 38.3314 44.681 38.3262C44.79 38.321 44.9042 38.3314 45.0132 38.3054C45.0443 38.295 45.0391 38.2587 45.0132 38.2483C44.9042 38.2068 44.7693 38.2224 44.6551 38.2327C44.5409 38.2431 44.4319 38.2587 44.3229 38.2846C44.0997 38.3366 43.861 38.4144 43.6793 38.5545C43.6689 38.5597 43.6741 38.5857 43.6949 38.5805Z" fill="#363E49"/>
<path d="M44.1049 38.5804C44.2866 38.5233 44.463 38.4455 44.6499 38.404C44.7433 38.3832 44.8367 38.3676 44.9353 38.3572C44.9821 38.3521 45.0288 38.3521 45.0755 38.3469C45.1222 38.3469 45.1741 38.3469 45.226 38.3365C45.2571 38.3261 45.2571 38.2794 45.226 38.269C45.1326 38.2379 45.0132 38.2586 44.9198 38.269C44.8212 38.2794 44.7277 38.295 44.6343 38.3157C44.4475 38.3572 44.2451 38.4247 44.0945 38.5441C44.0738 38.5648 44.0893 38.5856 44.1049 38.5804Z" fill="#363E49"/>
<path d="M44.3696 38.6064C44.5357 38.5597 44.7018 38.5026 44.8731 38.4663C44.9613 38.4507 45.0495 38.4351 45.1378 38.43C45.2208 38.4248 45.309 38.43 45.3869 38.4092C45.4129 38.404 45.4077 38.3677 45.3869 38.3625C45.3039 38.3365 45.2052 38.3469 45.117 38.3573C45.0288 38.3625 44.9457 38.378 44.8575 38.3936C44.6862 38.43 44.5046 38.4819 44.3541 38.5753C44.3385 38.5857 44.3489 38.6116 44.3696 38.6064Z" fill="#363E49"/>
<path d="M44.7848 38.6116C44.9354 38.5389 45.1014 38.5026 45.2675 38.4818C45.3454 38.4714 45.4232 38.4714 45.5063 38.4714C45.5893 38.4714 45.6672 38.4818 45.7502 38.4818C45.7762 38.4818 45.7813 38.4455 45.7554 38.4351C45.5997 38.3728 45.4128 38.3884 45.2519 38.4092C45.0807 38.4351 44.9198 38.4974 44.7693 38.5804C44.7485 38.5908 44.7641 38.622 44.7848 38.6116Z" fill="#363E49"/>
<path d="M45.2416 38.5545C45.3973 38.5701 45.5582 38.5649 45.7139 38.5597C45.7917 38.5545 45.8696 38.5545 45.9526 38.5493C46.0253 38.5442 46.1135 38.5493 46.1758 38.5234C46.2017 38.513 46.2017 38.4767 46.1758 38.4715C46.1083 38.4507 46.0201 38.4663 45.9526 38.4663C45.8696 38.4715 45.7865 38.4767 45.7087 38.4819C45.553 38.4922 45.3973 38.4974 45.2416 38.5338C45.226 38.539 45.2312 38.5545 45.2416 38.5545Z" fill="#363E49"/>
<path d="M45.662 38.6739C45.7917 38.6635 45.9215 38.6427 46.0512 38.6272C46.1187 38.6168 46.181 38.6064 46.2485 38.596C46.3056 38.5856 46.3886 38.5856 46.4405 38.5545C46.4613 38.5441 46.4561 38.513 46.4353 38.5026C46.3782 38.487 46.3107 38.513 46.2537 38.5182C46.1862 38.5285 46.1187 38.5389 46.0512 38.5493C45.9215 38.5753 45.7865 38.596 45.6568 38.6272C45.636 38.6323 45.6412 38.6739 45.662 38.6739Z" fill="#363E49"/>
<path d="M45.88 38.7413C46.0305 38.7309 46.1758 38.7101 46.3211 38.6946C46.3938 38.6842 46.4716 38.6738 46.5443 38.6634C46.617 38.6531 46.6948 38.6479 46.7571 38.6167C46.7727 38.6063 46.7727 38.5752 46.7519 38.5752C46.6844 38.5648 46.617 38.5804 46.5495 38.5908C46.4716 38.6012 46.399 38.6167 46.3211 38.6271C46.1706 38.6531 46.0201 38.679 45.8748 38.7153C45.8592 38.7205 45.8644 38.7413 45.88 38.7413Z" fill="#363E49"/>
<path d="M43.2122 38.0718C43.0357 38.1393 42.8645 38.2224 42.6932 38.3054C42.5167 38.3885 42.3351 38.4715 42.169 38.5649C42.1378 38.5805 42.1586 38.6376 42.1949 38.622C42.3714 38.5493 42.5427 38.4559 42.714 38.3729C42.8852 38.2846 43.0669 38.2016 43.2278 38.0978C43.2382 38.0926 43.2278 38.0667 43.2122 38.0718Z" fill="#363E49"/>
<path d="M43.8817 38.1185C43.6482 38.16 43.4302 38.2171 43.2122 38.3054C43.1084 38.3469 43.0098 38.3936 42.9164 38.4403C42.8178 38.4922 42.7088 38.5441 42.6309 38.6168C42.6153 38.6323 42.6309 38.6635 42.6517 38.6531C42.7451 38.6116 42.8333 38.5493 42.9268 38.4974C43.0306 38.4403 43.1344 38.3936 43.2434 38.3469C43.451 38.2586 43.6741 38.186 43.8921 38.1341C43.9025 38.1341 43.8973 38.1133 43.8817 38.1185Z" fill="#363E49"/>
<path d="M44.3852 38.1082C44.1776 38.1393 43.9804 38.1964 43.7883 38.2691C43.7001 38.3054 43.6119 38.3417 43.5236 38.3832C43.4354 38.4299 43.342 38.4715 43.2641 38.5389C43.2537 38.5493 43.2641 38.5701 43.2797 38.5649C43.3679 38.5337 43.451 38.4818 43.534 38.4403C43.6274 38.3936 43.7208 38.3521 43.8195 38.3106C44.0063 38.2379 44.1983 38.1756 44.3904 38.1237C44.4008 38.1237 44.3956 38.1082 44.3852 38.1082Z" fill="#363E49"/>
<path d="M45.5997 38.3105C45.4388 38.2846 45.2727 38.2898 45.1118 38.3105C45.0288 38.3209 44.9509 38.3417 44.8679 38.3624C44.79 38.3832 44.6966 38.404 44.6291 38.4507C44.6084 38.4662 44.6136 38.5026 44.6447 38.5026C44.7225 38.4922 44.8004 38.4611 44.8731 38.4403C44.9509 38.4195 45.0288 38.404 45.1066 38.3884C45.2675 38.3624 45.4336 38.3469 45.5997 38.3417C45.6101 38.3365 45.6153 38.3157 45.5997 38.3105Z" fill="#363E49"/>
<path d="M45.1689 38.1808C44.9509 38.1548 44.7381 38.16 44.5253 38.2015C44.4163 38.2223 44.3125 38.2483 44.2035 38.2846C44.1101 38.3157 44.0063 38.3469 43.9285 38.4091C43.9077 38.4247 43.9285 38.4559 43.9544 38.4507C44.053 38.4299 44.1464 38.378 44.2451 38.3469C44.3437 38.3157 44.4423 38.2898 44.5409 38.269C44.7485 38.2275 44.9561 38.2119 45.1689 38.2171C45.1949 38.2119 45.1949 38.1808 45.1689 38.1808Z" fill="#363E49"/>
<path d="M46.0772 38.3728C46.0149 38.3573 45.9422 38.3677 45.88 38.3728C45.8073 38.378 45.7346 38.3832 45.662 38.3884C45.5945 38.3936 45.5218 38.3936 45.4544 38.404C45.3869 38.4144 45.3142 38.4196 45.2416 38.4351C45.2156 38.4403 45.2208 38.4818 45.2468 38.4818C45.3142 38.487 45.3869 38.4818 45.4544 38.4818C45.527 38.4818 45.5997 38.4715 45.6723 38.4663C45.7398 38.4611 45.8125 38.4559 45.88 38.4455C45.9422 38.4403 46.0149 38.4351 46.072 38.4092C46.0928 38.3988 46.0876 38.378 46.0772 38.3728Z" fill="#363E49"/>
<path d="M45.6153 42.1252C45.2104 42.5249 44.6291 42.7273 44.0634 42.7377C43.4977 42.7584 42.9164 42.5975 42.4752 42.2602C42.4544 42.2446 42.4544 42.2186 42.4648 42.2031C42.4752 42.1875 42.5012 42.1823 42.5167 42.1927C42.9942 42.4366 43.5288 42.5301 44.0478 42.4989C44.572 42.4574 45.0703 42.2965 45.527 42.0214C45.5582 42.0007 45.5997 42.011 45.6204 42.0422C45.6464 42.0681 45.6412 42.0993 45.6153 42.1252Z" fill="#363E49"/>
<path d="M46.2796 41.7568C46.2485 41.7723 46.2225 41.7983 46.1966 41.8138C46.1654 41.8346 46.1395 41.8554 46.1083 41.8761C46.0512 41.9125 45.989 41.9488 45.9215 41.9747C45.8592 42.0007 45.7917 42.0266 45.7243 42.0422C45.6516 42.0578 45.5841 42.063 45.5115 42.0785C45.4751 42.0837 45.4803 42.146 45.5218 42.146C45.5945 42.146 45.6672 42.1253 45.7398 42.1097C45.8125 42.0889 45.8852 42.063 45.9526 42.0318C46.0201 42.0007 46.0876 41.9644 46.1499 41.9228C46.2069 41.8865 46.2796 41.8398 46.3159 41.7827C46.3211 41.7671 46.2952 41.7516 46.2796 41.7568Z" fill="#363E49"/>
<path d="M46.1135 41.9125C46.0876 41.9125 46.0668 41.928 46.0409 41.9384C46.0149 41.954 45.9838 41.9644 45.9578 41.98C45.9007 42.0059 45.8436 42.0319 45.7865 42.0526C45.7294 42.0734 45.6672 42.0889 45.6101 42.0993C45.5478 42.1097 45.4855 42.1045 45.4284 42.1201C45.3921 42.1253 45.3921 42.1876 45.4284 42.1927C45.4907 42.2031 45.5582 42.1876 45.6205 42.1772C45.6879 42.1668 45.7502 42.146 45.8125 42.1253C45.8748 42.1045 45.9319 42.0786 45.989 42.0474C46.0357 42.0215 46.1031 41.9851 46.1239 41.9332C46.1291 41.9229 46.1187 41.9125 46.1135 41.9125Z" fill="#363E49"/>
<path d="M46.1914 42.3173C46.1135 42.3224 46.0357 42.338 45.9526 42.3484C45.88 42.3536 45.8021 42.3588 45.7294 42.3588C45.5737 42.3536 45.4128 42.3276 45.2623 42.2757C45.2156 42.2602 45.1949 42.3328 45.2416 42.3484C45.3973 42.3951 45.5634 42.4159 45.7294 42.4159C45.88 42.4159 46.0564 42.4055 46.1966 42.3328C46.2018 42.3276 46.2018 42.3173 46.1914 42.3173Z" fill="#363E49"/>
<path d="M45.9682 42.3744C45.8384 42.3796 45.7087 42.4004 45.5789 42.39C45.4492 42.3796 45.3194 42.3485 45.1949 42.3018C45.1533 42.2862 45.1326 42.3537 45.1741 42.3692C45.3038 42.4159 45.4388 42.4419 45.5789 42.4471C45.7087 42.4523 45.854 42.4471 45.9734 42.39C45.9838 42.39 45.9786 42.3744 45.9682 42.3744Z" fill="#363E49"/>
<path d="M45.4907 42.7117C45.4336 42.7065 45.3817 42.6857 45.3246 42.6702C45.2675 42.6546 45.2156 42.6338 45.1637 42.6079C45.1118 42.5819 45.0651 42.556 45.0236 42.5248C45.0028 42.5093 44.9821 42.4937 44.9613 42.4729C44.9405 42.4522 44.9198 42.4314 44.8938 42.421C44.8679 42.4107 44.8419 42.4314 44.8523 42.4626C44.8783 42.5145 44.9353 42.5508 44.9821 42.5819C45.034 42.6183 45.0859 42.6494 45.143 42.6702C45.2 42.6961 45.2519 42.7117 45.3142 42.7273C45.3765 42.7428 45.4336 42.7428 45.4959 42.7428C45.5115 42.748 45.5115 42.7169 45.4907 42.7117Z" fill="#363E49"/>
<path d="M45.2571 42.7169C45.1793 42.691 45.0962 42.6598 45.0288 42.6183C44.9561 42.5768 44.8938 42.5197 44.8367 42.4574C44.8056 42.4263 44.7641 42.473 44.79 42.5041C44.8471 42.5716 44.925 42.6287 45.0028 42.6702C45.0807 42.7117 45.1637 42.7377 45.2571 42.7377C45.2675 42.7377 45.2675 42.7221 45.2571 42.7169Z" fill="#363E49"/>
<path d="M43.9233 42.6703C44.053 42.7326 44.2243 42.717 44.3644 42.7118C44.5253 42.7014 44.6914 42.6755 44.8471 42.6288C45.1533 42.5353 45.4492 42.3744 45.6827 42.1564C45.7346 42.1097 45.6568 42.0371 45.6101 42.0838C45.3713 42.2914 45.1066 42.4419 44.8056 42.5353C44.6603 42.582 44.5149 42.6132 44.3644 42.6288C44.2191 42.6443 44.0686 42.6236 43.9233 42.6495C43.9129 42.6495 43.9129 42.6651 43.9233 42.6703Z" fill="#363E49"/>
<path d="M40.342 48.7843C40.4355 48.7791 40.5185 48.7324 40.6067 48.7012C40.7157 48.6649 40.8351 48.6337 40.9493 48.6182C41.1932 48.5766 41.4372 48.5663 41.6863 48.5507C41.9095 48.5403 42.1327 48.5247 42.3506 48.4832C42.4648 48.4625 42.579 48.4209 42.6932 48.395C42.8022 48.3742 42.9008 48.3431 42.9994 48.286C43.1499 48.1978 43.0046 47.959 42.8645 48.0576C42.7814 48.1147 42.6932 48.1874 42.605 48.2341C42.5012 48.286 42.361 48.3068 42.2468 48.3275C42.0029 48.3742 41.759 48.395 41.515 48.4158C41.297 48.4365 41.0739 48.4573 40.8559 48.5092C40.6898 48.5507 40.4303 48.6026 40.3317 48.7635C40.3213 48.7687 40.3317 48.7843 40.342 48.7843Z" fill="#363E49"/>
<path d="M42.3818 48.8569C42.252 49.0022 42.1223 49.1424 41.9614 49.2514C41.8005 49.3604 41.624 49.4382 41.4372 49.5005C41.1413 49.5991 40.8247 49.6458 40.5133 49.6666C40.4407 49.6718 40.3057 49.651 40.2642 49.7289C40.2901 49.7133 40.3161 49.6977 40.342 49.6873C40.2279 49.6873 40.2279 49.8638 40.342 49.8638C40.3161 49.8482 40.2901 49.8327 40.2642 49.8223C40.3057 49.9001 40.4199 49.8742 40.4874 49.869C40.6275 49.8586 40.7728 49.8379 40.9078 49.8119C41.2867 49.7341 41.6707 49.6095 41.9925 49.3863C42.169 49.2618 42.3506 49.0957 42.4129 48.8829C42.4181 48.8569 42.3922 48.8414 42.3818 48.8569Z" fill="#363E49"/>
<path d="M40.3524 48.7635C40.259 48.6078 40.0099 48.5559 39.849 48.5144C39.6258 48.4573 39.3974 48.4365 39.1691 48.4158C38.9303 48.395 38.6968 48.3742 38.458 48.3327C38.3386 48.3119 38.2141 48.2912 38.1051 48.2445C38.0013 48.203 37.9079 48.1199 37.8144 48.0576C37.6743 47.959 37.529 48.1978 37.6795 48.286C37.7677 48.3379 37.8611 48.3742 37.9649 48.395C38.0791 48.4158 38.1881 48.4573 38.3075 48.478C38.5359 48.5247 38.7642 48.5351 38.9926 48.5507C39.2313 48.5663 39.4701 48.5766 39.7037 48.613C39.8178 48.6337 39.9372 48.6597 40.0462 48.696C40.1396 48.7272 40.233 48.7791 40.3317 48.7843C40.3524 48.7843 40.3576 48.7687 40.3524 48.7635Z" fill="#363E49"/>
<path d="M38.266 48.8778C38.375 49.2566 38.8006 49.4902 39.1431 49.6251C39.4597 49.7549 39.8023 49.8328 40.1448 49.8639C40.2227 49.8691 40.368 49.9054 40.4199 49.8224C40.394 49.8379 40.368 49.8535 40.342 49.8639C40.4562 49.8639 40.4562 49.6874 40.342 49.6874C40.368 49.703 40.394 49.7186 40.4199 49.729C40.3836 49.6563 40.2746 49.6719 40.2123 49.6667C40.0877 49.6563 39.9632 49.6459 39.8386 49.6303C39.4753 49.5784 39.1068 49.485 38.7902 49.293C38.5981 49.1736 38.4528 49.0179 38.3023 48.8518C38.2867 48.8414 38.2608 48.857 38.266 48.8778Z" fill="#363E49"/>
<path d="M39.2677 47.8552C39.4234 47.793 39.5947 47.7618 39.7659 47.767C39.9372 47.7566 40.1137 47.8189 40.2538 47.8604H40.259C40.2901 47.8656 40.3784 47.8656 40.4095 47.8604H40.4147H40.4199C40.56 47.8241 40.7365 47.7618 40.9078 47.767C41.079 47.7618 41.2503 47.793 41.406 47.8552C41.4216 47.8604 41.432 47.8812 41.4216 47.8968C41.4164 47.9123 41.4008 47.9175 41.3905 47.9175C41.2348 47.902 41.0739 47.9175 40.9182 47.9383C40.7676 47.9591 40.6275 48.0058 40.4614 48.0629H40.4718C40.368 48.0888 40.3057 48.0888 40.2019 48.0629H40.2123C40.0462 48.0058 39.9061 47.9591 39.7556 47.9383C39.5998 47.9175 39.4441 47.902 39.2832 47.9175C39.2677 47.9175 39.2521 47.9072 39.2521 47.8916C39.2521 47.8708 39.2573 47.8604 39.2677 47.8552Z" fill="#363E49"/>
<path d="M40.9545 46.3812C40.9649 46.376 40.9752 46.3656 40.9856 46.3604C40.996 46.3501 41.0012 46.3397 41.0116 46.3293C41.0271 46.3085 41.0479 46.293 41.0687 46.2722C41.0791 46.2618 41.0894 46.2566 41.0998 46.2463C41.105 46.2411 41.1154 46.2359 41.105 46.2411C41.1102 46.2359 41.1154 46.2359 41.1206 46.2307C41.1413 46.2151 41.1673 46.1995 41.188 46.1892C41.1932 46.184 41.1984 46.184 41.2036 46.1788C41.2088 46.1788 41.2244 46.1684 41.2036 46.1788C41.2088 46.1736 41.2192 46.1736 41.2244 46.1684C41.2348 46.1632 41.2348 46.1632 41.2296 46.1684C41.2192 46.1736 41.2348 46.1632 41.2399 46.1632C41.2659 46.1528 41.2867 46.1476 41.3126 46.1425C41.3178 46.1425 41.3282 46.1373 41.3334 46.1373C41.3489 46.1321 41.3334 46.1373 41.3282 46.1373C41.3334 46.1425 41.3645 46.1321 41.3697 46.1321C41.3801 46.1321 41.3957 46.1321 41.406 46.1321C41.4112 46.1321 41.4164 46.1321 41.4268 46.1321C41.432 46.1321 41.4579 46.1373 41.4268 46.1321C41.4579 46.1373 41.4839 46.1373 41.5098 46.1217C41.541 46.1061 41.5565 46.075 41.5617 46.0438C41.5721 45.9764 41.5202 45.9245 41.4579 45.9245C41.3282 45.9141 41.1932 45.9504 41.0842 46.0283C41.0271 46.0698 40.9752 46.1165 40.9389 46.1736C40.9233 46.1995 40.913 46.2203 40.8974 46.2463C40.8818 46.2826 40.8766 46.3085 40.8766 46.3449C40.8922 46.3916 40.9285 46.402 40.9545 46.3812Z" fill="#363E49"/>
<path d="M39.7919 46.3553C39.7919 46.3189 39.7867 46.293 39.7763 46.2619C39.7659 46.2359 39.7504 46.2048 39.7348 46.1788C39.6985 46.1217 39.6414 46.075 39.5895 46.0335C39.4857 45.9608 39.3455 45.9245 39.2158 45.9297C39.1535 45.9349 39.1016 45.9868 39.112 46.0491C39.1172 46.0802 39.1275 46.101 39.1535 46.1165C39.1846 46.1373 39.2106 46.1425 39.2469 46.1373C39.2158 46.1425 39.2573 46.1373 39.2625 46.1373C39.2729 46.1373 39.2884 46.1373 39.2988 46.1373C39.3144 46.1373 39.3248 46.1373 39.3403 46.1425C39.3559 46.1425 39.3144 46.1373 39.3403 46.1425C39.3455 46.1425 39.3507 46.1425 39.3611 46.1477C39.387 46.1529 39.413 46.1581 39.4338 46.1684C39.439 46.1684 39.4441 46.1736 39.4493 46.1736C39.4182 46.1632 39.4805 46.1892 39.4701 46.184C39.4649 46.1788 39.4597 46.1788 39.4701 46.184C39.4753 46.1892 39.4857 46.1892 39.4909 46.1944C39.5116 46.2048 39.5376 46.2203 39.5583 46.2359C39.5635 46.2411 39.5687 46.2411 39.5739 46.2463C39.5791 46.2515 39.5687 46.2411 39.5791 46.2515C39.5895 46.2619 39.5998 46.267 39.6102 46.2774C39.631 46.293 39.6517 46.3138 39.6673 46.3345C39.6777 46.3449 39.6829 46.3553 39.6933 46.3657C39.7036 46.376 39.714 46.3812 39.7244 46.3916C39.7504 46.402 39.7867 46.3916 39.7919 46.3553Z" fill="#363E49"/>
<path d="M38.7902 38.923C38.6864 38.6946 38.5151 38.4922 38.3179 38.3313C38.2193 38.2534 38.1155 38.1808 38.0065 38.1237C37.9546 38.0925 37.8975 38.0666 37.8404 38.0406C37.7833 38.0147 37.7158 37.9835 37.6535 37.9887C37.6224 37.9939 37.6172 38.0354 37.638 38.051C37.6743 38.0925 37.7418 38.1029 37.7937 38.1289C37.8508 38.1548 37.9027 38.1808 37.9546 38.2067C38.0636 38.2638 38.1622 38.3313 38.2608 38.4091C38.4528 38.5597 38.6085 38.7413 38.7539 38.9385C38.7746 38.9645 38.8006 38.9489 38.7902 38.923Z" fill="#363E49"/>
<path d="M38.6345 38.8191C38.567 38.7205 38.4476 38.6427 38.349 38.5804C38.2296 38.5025 38.1051 38.4351 37.9753 38.378C37.8508 38.3209 37.7262 38.2742 37.5964 38.2378C37.4667 38.1963 37.3266 38.1496 37.1916 38.1652C37.1657 38.1652 37.1501 38.2067 37.176 38.2171C37.2954 38.269 37.4252 38.2897 37.5497 38.3261C37.6847 38.3624 37.8144 38.4143 37.939 38.4662C38.0584 38.5181 38.1777 38.5752 38.2867 38.6427C38.3957 38.705 38.5099 38.788 38.6293 38.8347C38.6293 38.8295 38.6345 38.8243 38.6345 38.8191Z" fill="#363E49"/>
<path d="M38.1829 38.7101C38.0013 38.5389 37.7521 38.4195 37.5186 38.3365C37.394 38.2949 37.2695 38.2586 37.1397 38.2327C37.0151 38.2067 36.8906 38.1911 36.766 38.2119C36.7401 38.2171 36.7453 38.2482 36.766 38.2586C36.8906 38.2949 37.0151 38.3001 37.1397 38.3261C37.2591 38.3468 37.3733 38.378 37.4874 38.4195C37.7262 38.5025 37.939 38.6271 38.1622 38.7465C38.1777 38.7621 38.2037 38.7309 38.1829 38.7101Z" fill="#363E49"/>
<path d="M37.5186 38.6012C37.3473 38.4663 37.1241 38.3884 36.9217 38.3262C36.8127 38.2898 36.7037 38.2639 36.5895 38.2379C36.4806 38.212 36.3664 38.1912 36.2522 38.2068C36.2262 38.212 36.221 38.2431 36.247 38.2483C36.356 38.2898 36.465 38.3002 36.5792 38.3262C36.683 38.3469 36.7868 38.3729 36.8854 38.404C37.093 38.4663 37.2902 38.5649 37.503 38.6272C37.5134 38.6376 37.529 38.6116 37.5186 38.6012Z" fill="#363E49"/>
<path d="M36.9996 38.5493C36.8127 38.4092 36.5792 38.3313 36.356 38.2794C36.247 38.2534 36.1328 38.2379 36.0238 38.2275C35.9096 38.2171 35.7799 38.2015 35.6657 38.2431C35.6398 38.2534 35.6346 38.295 35.6657 38.3002C35.7747 38.3261 35.8889 38.3105 35.9979 38.3209C36.1121 38.3261 36.2262 38.3469 36.3404 38.3676C36.5636 38.4143 36.7712 38.4974 36.984 38.5752C37.0048 38.5856 37.0152 38.5597 36.9996 38.5493Z" fill="#363E49"/>
<path d="M36.5896 38.5545C36.439 38.4351 36.2366 38.3728 36.0498 38.3261C35.9564 38.3053 35.8577 38.2898 35.7643 38.2794C35.6709 38.269 35.5463 38.2482 35.4581 38.2794C35.427 38.2898 35.427 38.3365 35.4581 38.3469C35.5048 38.3572 35.5515 38.352 35.5982 38.3572C35.6501 38.3572 35.6968 38.3624 35.7487 38.3676C35.8422 38.378 35.9408 38.3936 36.0342 38.4143C36.221 38.4559 36.3975 38.5337 36.5792 38.5908C36.5896 38.5856 36.6051 38.5648 36.5896 38.5545Z" fill="#363E49"/>
<path d="M36.3249 38.5804C36.1743 38.487 35.9927 38.4351 35.8214 38.3988C35.7384 38.3832 35.6501 38.3676 35.5619 38.3625C35.4789 38.3573 35.3751 38.3469 35.292 38.3676C35.2713 38.3728 35.2661 38.4092 35.292 38.4144C35.3699 38.4351 35.4581 38.4299 35.5411 38.4351C35.6294 38.4403 35.7176 38.4559 35.8058 38.4714C35.9771 38.5026 36.138 38.5649 36.3093 38.6116C36.33 38.6116 36.3404 38.5856 36.3249 38.5804Z" fill="#363E49"/>
<path d="M35.9148 38.5804C35.7643 38.4974 35.6034 38.4351 35.4321 38.4091C35.2713 38.3832 35.0792 38.3676 34.9287 38.4351C34.9079 38.4455 34.9079 38.4818 34.9339 38.4818C35.0117 38.4818 35.0896 38.4766 35.1675 38.4714C35.2505 38.4714 35.3335 38.4714 35.4114 38.4818C35.5775 38.5026 35.7436 38.5441 35.8941 38.6115C35.9148 38.6219 35.9304 38.5908 35.9148 38.5804Z" fill="#363E49"/>
<path d="M35.4425 38.5389C35.2868 38.5078 35.1311 38.4974 34.9754 38.487C34.8976 38.4818 34.8197 38.4766 34.7367 38.4714C34.664 38.4662 34.5758 38.4507 34.5031 38.4714C34.4772 38.4818 34.4772 38.513 34.5031 38.5233C34.5706 38.5493 34.6588 38.5441 34.7263 38.5493C34.8041 38.5545 34.882 38.5545 34.965 38.5597C35.1207 38.5649 35.2816 38.57 35.4373 38.5545C35.4529 38.5545 35.4529 38.5389 35.4425 38.5389Z" fill="#363E49"/>
<path d="M35.0221 38.6272C34.8924 38.596 34.7626 38.5753 34.6277 38.5493C34.5654 38.5389 34.4979 38.5286 34.4356 38.5182C34.3785 38.5078 34.3007 38.4818 34.2436 38.4974C34.2176 38.5026 34.2176 38.5337 34.2384 38.5493C34.2851 38.5805 34.363 38.5805 34.4201 38.5908C34.4875 38.6012 34.555 38.6116 34.6225 38.622C34.7522 38.6427 34.882 38.6583 35.0117 38.6687C35.0429 38.6739 35.0481 38.6324 35.0221 38.6272Z" fill="#363E49"/>
<path d="M34.8041 38.7153C34.6588 38.679 34.5083 38.6531 34.3578 38.6271C34.2851 38.6167 34.2125 38.6012 34.1398 38.5908C34.0723 38.5804 33.9997 38.5648 33.927 38.5752C33.9062 38.5804 33.9062 38.6115 33.9218 38.6167C33.9841 38.6479 34.0619 38.6531 34.1294 38.6634C34.2073 38.6738 34.2851 38.6842 34.3578 38.6946C34.5031 38.7153 34.6536 38.7361 34.7989 38.7413C34.8197 38.7413 34.8197 38.7205 34.8041 38.7153Z" fill="#363E49"/>
<path d="M37.4563 38.0977C37.6224 38.2015 37.7989 38.2845 37.9701 38.3728C38.1414 38.461 38.3075 38.5492 38.4892 38.6219C38.5255 38.6375 38.5463 38.5804 38.5151 38.5648C38.3438 38.4662 38.1674 38.3883 37.9909 38.3053C37.8196 38.2222 37.6484 38.134 37.4719 38.0717C37.4511 38.0665 37.4407 38.0925 37.4563 38.0977Z" fill="#363E49"/>
<path d="M36.792 38.1393C37.0151 38.1912 37.2331 38.2639 37.4407 38.3521C37.5445 38.3936 37.6483 38.4455 37.747 38.4974C37.8404 38.5493 37.9338 38.6168 38.0324 38.6583C38.0532 38.6687 38.0687 38.6324 38.0532 38.622C37.9753 38.5493 37.8611 38.4974 37.7677 38.4455C37.6691 38.3936 37.5705 38.3469 37.4719 38.3106C37.2539 38.2223 37.0307 38.1652 36.8023 38.1237C36.7816 38.1133 36.7764 38.1341 36.792 38.1393Z" fill="#363E49"/>
<path d="M36.2937 38.1289C36.4858 38.1808 36.6778 38.2431 36.8646 38.3158C36.9633 38.3521 37.0567 38.3988 37.1501 38.4455C37.2331 38.487 37.3162 38.5389 37.4044 38.5701C37.42 38.5753 37.4304 38.5545 37.42 38.5441C37.3473 38.4767 37.2539 38.4299 37.1605 38.3884C37.0722 38.3469 36.9892 38.3106 36.8958 38.2742C36.7037 38.2016 36.5013 38.1445 36.2989 38.1133C36.2833 38.1082 36.2781 38.1237 36.2937 38.1289Z" fill="#363E49"/>
<path d="M35.0844 38.3364C35.2505 38.3468 35.4166 38.3572 35.5775 38.3831C35.6553 38.3987 35.7332 38.4143 35.811 38.435C35.8837 38.4558 35.9615 38.4869 36.0394 38.4973C36.0705 38.5025 36.0705 38.461 36.055 38.4454C35.9875 38.3987 35.8941 38.378 35.8162 38.3572C35.7384 38.3364 35.6553 38.3209 35.5723 38.3053C35.4062 38.2845 35.2453 38.2793 35.0844 38.3053C35.0636 38.3157 35.0688 38.3364 35.0844 38.3364Z" fill="#363E49"/>
<path d="M35.51 38.2119C35.7176 38.2067 35.9304 38.2274 36.138 38.2638C36.2366 38.2845 36.3404 38.3105 36.4339 38.3416C36.5273 38.3728 36.6259 38.4247 36.7245 38.4454C36.7453 38.4506 36.7712 38.4195 36.7505 38.4039C36.6726 38.3416 36.5688 38.3105 36.4754 38.2793C36.3716 38.243 36.2626 38.2171 36.1536 38.1963C35.9408 38.1548 35.7228 38.1496 35.51 38.1755C35.4892 38.1807 35.4841 38.2119 35.51 38.2119Z" fill="#363E49"/>
<path d="M34.6017 38.404C34.6588 38.4299 34.7263 38.4299 34.7886 38.4403C34.8612 38.4455 34.9339 38.4559 35.0065 38.4611C35.074 38.4663 35.1467 38.4767 35.2142 38.4767C35.2868 38.4767 35.3595 38.4818 35.4321 38.4818C35.4581 38.4818 35.4685 38.4403 35.4373 38.4351C35.3699 38.4196 35.3024 38.4144 35.2297 38.404C35.1623 38.3936 35.0896 38.3936 35.0169 38.3884C34.9495 38.3832 34.8768 38.378 34.8093 38.3728C34.7418 38.3677 34.6692 38.3573 34.6017 38.3728C34.5913 38.378 34.5861 38.3988 34.6017 38.404Z" fill="#363E49"/>
<path d="M34.3734 41.7879C34.4045 41.845 34.4772 41.8865 34.5342 41.9228C34.5965 41.9643 34.664 42.0007 34.7367 42.0318C34.8041 42.063 34.8716 42.0889 34.9443 42.1045C35.0169 42.1252 35.0948 42.146 35.1674 42.146C35.2038 42.146 35.2142 42.0837 35.1778 42.0785C35.1104 42.063 35.0377 42.063 34.9702 42.0422C34.9027 42.0266 34.8301 42.0007 34.7678 41.9747C34.7055 41.9488 34.6432 41.9176 34.5861 41.8813C34.555 41.8605 34.5239 41.8398 34.4979 41.819C34.472 41.7983 34.4408 41.7723 34.4097 41.7567C34.3837 41.7516 34.363 41.7671 34.3734 41.7879Z" fill="#363E49"/>
<path d="M34.555 41.928C34.5758 41.9799 34.6432 42.011 34.6848 42.037C34.7419 42.0681 34.8041 42.0993 34.8664 42.12C34.9287 42.1408 34.991 42.1564 35.0533 42.1719C35.1155 42.1823 35.1882 42.1979 35.2505 42.1875C35.2868 42.1823 35.2868 42.1252 35.2505 42.1148C35.1934 42.1045 35.1259 42.1045 35.0688 42.0941C35.0066 42.0837 34.9495 42.0681 34.8924 42.0474C34.8353 42.0266 34.7782 42.0058 34.7211 41.9747C34.6951 41.9591 34.664 41.9487 34.6381 41.9332C34.6173 41.9228 34.5913 41.9072 34.5654 41.9072C34.5602 41.9124 34.555 41.9228 34.555 41.928Z" fill="#363E49"/>
<path d="M34.4875 42.3277C34.6225 42.4004 34.7989 42.4056 34.9546 42.4107C35.1207 42.4107 35.2816 42.39 35.4425 42.3433C35.4892 42.3277 35.4685 42.255 35.4218 42.2706C35.2712 42.3173 35.1155 42.3485 34.9546 42.3537C34.882 42.3537 34.8041 42.3536 34.7315 42.3433C34.6536 42.3329 34.5758 42.3173 34.4927 42.3121C34.4823 42.3173 34.4772 42.3277 34.4875 42.3277Z" fill="#363E49"/>
<path d="M34.7107 42.3952C34.8301 42.4522 34.9754 42.4574 35.1052 42.4522C35.2453 42.4471 35.3802 42.4211 35.51 42.3744C35.5515 42.3588 35.5359 42.2862 35.4892 42.3069C35.3647 42.3536 35.2349 42.3848 35.1052 42.3952C34.9754 42.4055 34.8457 42.3848 34.7159 42.3796C34.7003 42.3744 34.6951 42.39 34.7107 42.3952Z" fill="#363E49"/>
<path d="M35.1882 42.748C35.2453 42.748 35.3076 42.748 35.3647 42.7325C35.427 42.7169 35.484 42.7013 35.5411 42.6754C35.5982 42.6494 35.6501 42.6235 35.6968 42.5871C35.7436 42.556 35.8058 42.5145 35.8318 42.4626C35.8422 42.4366 35.8214 42.4107 35.7903 42.421C35.7643 42.4314 35.7436 42.4522 35.7228 42.4729C35.702 42.4885 35.6813 42.5093 35.6605 42.5248C35.6138 42.556 35.5671 42.5871 35.5152 42.6131C35.4633 42.639 35.4114 42.6598 35.3595 42.6702C35.3024 42.6857 35.2453 42.7013 35.1882 42.7117C35.1674 42.7169 35.1674 42.748 35.1882 42.748Z" fill="#363E49"/>
<path d="M35.427 42.7377C35.5152 42.7377 35.5982 42.7117 35.6813 42.6702C35.7591 42.6287 35.837 42.5768 35.8941 42.5041C35.92 42.473 35.8785 42.4263 35.8474 42.4574C35.7903 42.5197 35.728 42.5716 35.6553 42.6183C35.5827 42.6598 35.5048 42.691 35.427 42.7169C35.4114 42.7221 35.4166 42.7377 35.427 42.7377Z" fill="#363E49"/>
<path d="M36.7556 42.6494C36.6207 42.6235 36.4702 42.6442 36.33 42.6287C36.1743 42.6131 36.0238 42.5768 35.8733 42.5301C35.5723 42.4314 35.3076 42.2809 35.0688 42.0785C35.0169 42.037 34.9443 42.1045 34.9962 42.1512C35.2297 42.3692 35.5256 42.5352 35.8318 42.6235C35.9823 42.6702 36.1432 42.6961 36.2989 42.7065C36.4442 42.7169 36.6207 42.7273 36.7556 42.665C36.766 42.665 36.766 42.6494 36.7556 42.6494Z" fill="#363E49"/>
<path d="M35.1467 42.0162C35.6034 42.2861 36.1069 42.4522 36.6259 42.4937C37.1449 42.5248 37.6795 42.4314 38.157 42.1875C38.1777 42.1771 38.2037 42.1875 38.2141 42.2082C38.2245 42.229 38.2193 42.2498 38.2037 42.2601C37.7573 42.5975 37.1812 42.7636 36.6155 42.7376C36.0498 42.7273 35.4685 42.5197 35.0636 42.1252C35.0377 42.0992 35.0377 42.0577 35.0636 42.0318C35.0844 42.0058 35.1207 42.0006 35.1467 42.0162Z" fill="#363E49"/>
<path d="M57.781 47.8241C56.3018 44.7827 53.359 42.4004 52.7725 39.0631C52.4715 37.3556 52.84 35.5857 52.6168 33.8678C52.2691 31.1897 50.4681 28.8229 48.1636 27.4216C45.854 26.0202 43.233 25.304 40.3421 25.5427V32.674C41.5721 32.0408 42.6361 32.5599 43.5755 33.5771C44.515 34.5892 44.9302 35.9802 45.1637 37.3452C45.3973 38.7102 45.4855 40.1064 45.9059 41.4247C46.3263 42.743 47.1516 44.0146 48.4232 44.5595C48.3609 45.9453 47.9976 47.0249 47.6291 47.8293L57.781 47.8241Z" fill="#363E49"/>
<path d="M48.2571 44.5284C49.2847 45.0007 50.3695 45.4056 51.1843 46.2204C51.8954 46.9315 52.3469 47.9332 52.0718 48.9401C51.9369 49.4331 51.6359 49.838 51.1999 50.1027C50.7535 50.3726 50.2449 50.5179 49.8037 50.7982C49.0252 51.3016 48.5062 52.267 48.8436 53.1856C49.0096 53.6424 49.3626 54.0161 49.8453 54.1406C50.3124 54.26 50.8314 54.1354 51.1584 53.7721C51.2518 53.6683 51.1013 53.5178 51.0079 53.6216C50.6964 53.9538 50.1982 54.042 49.7778 53.8811C49.3314 53.715 49.0512 53.2687 48.9837 52.8068C48.911 52.3241 49.0875 51.8362 49.3937 51.4625C49.7207 51.0629 50.1671 50.8397 50.6342 50.6321C51.0805 50.4348 51.5373 50.2272 51.8539 49.8432C52.1341 49.511 52.3002 49.0958 52.3573 48.665C52.4871 47.7204 52.0718 46.8225 51.4283 46.153C50.5926 45.2862 49.43 44.7879 48.309 44.4143C48.2363 44.3987 48.1948 44.4973 48.2571 44.5284Z" fill="#BA96D6"/>
<path d="M41.0843 29.2797C41.4839 29.1863 41.8991 29.1966 42.3039 29.233C42.8126 29.2797 43.316 29.3731 43.8091 29.4925C44.8835 29.7572 45.9371 30.1361 46.9232 30.6395C48.8591 31.6205 50.5356 33.3021 51.0701 35.456C51.3867 36.7276 51.2674 38.0615 51.4854 39.3486C51.6982 40.5995 52.3314 41.6375 53.0787 42.6392C53.8106 43.6201 54.6202 44.5855 55.0251 45.7585C55.2275 46.345 55.3157 46.9678 55.2119 47.5802C55.1133 48.1667 54.8745 48.7117 54.5424 49.2048C53.8521 50.2324 52.7985 50.9331 51.7189 51.504C51.2103 51.7739 50.5978 51.9815 50.2397 52.4538C49.9387 52.8483 49.8712 53.4503 50.3124 53.7669C50.494 53.8967 50.7172 53.9434 50.93 53.8707C51.0598 53.824 51.0027 53.6216 50.8729 53.6631C50.6082 53.7513 50.3331 53.5645 50.2501 53.3102C50.1515 53.0143 50.3176 52.6822 50.5252 52.4746C50.738 52.2566 51.0182 52.1164 51.2933 51.9815C51.5684 51.8466 51.8435 51.7064 52.1134 51.5559C53.1566 50.9798 54.1531 50.248 54.8071 49.2307C55.4455 48.2342 55.6583 47.0664 55.3313 45.9246C54.9887 44.736 54.2258 43.7499 53.4888 42.7793C52.731 41.7828 52.0148 40.7603 51.7604 39.5095C51.4957 38.2224 51.6203 36.8885 51.3452 35.6013C50.8937 33.4682 49.3211 31.7139 47.4474 30.6707C46.5132 30.1464 45.4959 29.7572 44.4682 29.4613C43.5444 29.1966 42.5427 28.9683 41.5773 29.0565C41.4009 29.0721 41.2244 29.1032 41.0531 29.1499C40.9649 29.1759 41.0012 29.3005 41.0843 29.2797Z" fill="#BA96D6"/>
<path d="M49.1913 44.8606C49.373 45.0214 49.5546 45.2135 49.7155 45.4003C49.8868 45.5976 50.0269 45.8155 50.1463 46.0491C50.385 46.5162 50.5252 47.0456 50.5148 47.5698C50.5044 48.1148 50.2916 48.6857 49.7726 48.9296C49.3107 49.1476 48.6982 48.9193 48.6204 48.3795C48.6048 48.2549 48.418 48.3068 48.4335 48.4314C48.4906 48.8414 48.8488 49.1476 49.2484 49.2099C49.674 49.2722 50.0944 49.0386 50.3539 48.7065C50.956 47.9331 50.7328 46.7498 50.3072 45.9505C50.1878 45.7221 50.0373 45.5093 49.8712 45.3121C49.7778 45.2031 49.6792 45.0993 49.5754 45.0059C49.4716 44.9125 49.3626 44.8606 49.2484 44.7879C49.2017 44.7619 49.1498 44.8242 49.1913 44.8606Z" fill="#BA96D6"/>
<path d="M48.5218 48.421C48.3972 48.4054 48.2778 48.6597 48.2259 48.748C48.1377 48.8985 48.0598 49.0594 48.0028 49.2255C47.8938 49.5524 47.8678 49.9106 47.9716 50.2479C48.0598 50.5438 48.2415 50.8136 48.501 50.9901C48.636 51.0835 48.7917 51.1406 48.9526 51.1718C49.046 51.1925 49.1446 51.2029 49.2432 51.2185C49.347 51.2392 49.4456 51.2808 49.5494 51.2756C49.6169 51.2756 49.6584 51.1873 49.6065 51.1406C49.4871 51.0316 49.3055 51.0264 49.155 51.0005C48.9941 50.9745 48.8332 50.9486 48.6879 50.8655C48.4283 50.7254 48.2519 50.4659 48.1585 50.1908C48.0598 49.8898 48.0806 49.568 48.174 49.267C48.2259 49.0957 48.2986 48.9348 48.3868 48.7791C48.4335 48.6909 48.5892 48.5352 48.5477 48.4314C48.5321 48.4262 48.527 48.421 48.5218 48.421Z" fill="#BA96D6"/>
<path d="M48.9941 31.9474C50.0114 33.3539 50.5148 35.1549 50.2397 36.8832C50.084 37.8538 49.7207 38.7777 49.6117 39.7534C49.5235 40.5371 49.648 41.2845 49.9854 41.9956C50.5978 43.2723 51.6774 44.2429 52.4819 45.3899C52.8763 45.9557 53.2137 46.5681 53.3434 47.248C53.4992 48.0525 53.3279 48.8829 52.923 49.5836C52.4819 50.3465 51.8072 50.8759 51.0182 51.2393C50.2449 51.5922 49.347 51.9555 49.0564 52.8326C48.9941 53.0195 48.9733 53.2115 48.9993 53.4087C49.0148 53.5229 49.1965 53.5281 49.1861 53.4087C49.0564 52.3863 50.1255 51.8361 50.9041 51.4988C51.3193 51.3171 51.7293 51.1355 52.0874 50.8604C52.404 50.6164 52.6843 50.3258 52.9127 49.9988C53.3746 49.3448 53.6445 48.5456 53.6185 47.7411C53.5926 47.0508 53.3486 46.3916 53.0061 45.8C52.2847 44.5595 51.174 43.5993 50.4266 42.3744C50.0373 41.7361 49.7778 41.025 49.7622 40.2724C49.7467 39.2551 50.1255 38.2846 50.3331 37.3036C50.6809 35.6376 50.3902 33.7691 49.4301 32.347C49.3211 32.1861 49.2017 32.0356 49.0719 31.8903C49.0356 31.8488 48.9629 31.9059 48.9941 31.9474Z" fill="#BA96D6"/>
<path d="M49.1602 29.1966C49.0252 29.0513 48.8487 28.9475 48.6878 28.8333C48.5062 28.7087 48.3193 28.5842 48.1325 28.4648C47.6965 28.1949 47.2502 27.9458 46.7831 27.7278C45.662 27.1984 44.4682 26.8455 43.2382 26.6846C42.361 26.5704 41.4735 26.5548 40.5912 26.6223C40.4614 26.6327 40.4614 26.8351 40.5912 26.8247C42.0392 26.7105 43.5029 26.8143 44.9042 27.2036C45.9578 27.4942 46.9595 27.9354 47.8989 28.4856C48.1117 28.6101 48.3245 28.7399 48.5321 28.8748C48.7242 28.9942 48.911 29.1395 49.1238 29.2329C49.1498 29.2485 49.1809 29.2174 49.1602 29.1966Z" fill="#BA96D6"/>
<path d="M46.7727 43.1842C46.5599 42.6236 46.4457 42.0423 46.4405 41.4455C46.4353 40.8434 46.5236 40.2465 46.6377 39.6549C46.8661 38.4767 47.1879 37.2829 47.053 36.0736C46.944 35.0616 46.5651 34.0858 45.9682 33.2658C45.3661 32.4353 44.5305 31.771 43.6171 31.3091C42.5894 30.7849 41.4683 30.6707 40.3524 30.9613C40.2227 30.9976 40.2746 31.2053 40.4095 31.1637C41.406 30.8835 42.4077 30.9406 43.3472 31.3765C44.2762 31.8021 45.143 32.4561 45.7554 33.2761C46.3627 34.0806 46.7623 35.0512 46.8765 36.0529C47.0166 37.2622 46.6948 38.4404 46.4717 39.6133C46.2537 40.7759 46.0876 42.1409 46.7 43.2153C46.7208 43.2516 46.7883 43.2309 46.7727 43.1842Z" fill="#BA96D6"/>
<path d="M22.9031 47.8241C24.3823 44.7827 27.3251 42.4004 27.9116 39.0631C28.2126 37.3556 27.8441 35.5857 28.0673 33.8678C28.415 31.1897 30.2108 28.8229 32.5205 27.4216C34.8301 26.0202 37.4511 25.304 40.3421 25.5427V32.674C39.112 32.0408 38.048 32.5599 37.1086 33.5771C36.1692 34.5892 35.7539 35.9802 35.5204 37.3452C35.2868 38.7102 35.1986 40.1064 34.7782 41.4247C34.3578 42.743 33.5325 44.0146 32.261 44.5595C32.3232 45.9453 32.6865 47.0249 33.0551 47.8293L22.9031 47.8241Z" fill="#363E49"/>
<path d="M32.3803 44.4193C31.363 44.7619 30.3302 45.1927 29.5205 45.9141C28.8251 46.5318 28.3008 47.3829 28.306 48.3379C28.3112 48.7791 28.4202 49.2255 28.6538 49.6043C28.9029 50.004 29.2714 50.2739 29.6918 50.4763C30.1537 50.6995 30.6468 50.8604 31.0361 51.2029C31.3994 51.5247 31.6796 51.9762 31.716 52.4693C31.7523 52.9779 31.5343 53.5333 31.0828 53.8032C30.6416 54.0627 30.0292 54.0056 29.6814 53.6267C29.588 53.5229 29.4375 53.6734 29.5309 53.7772C30.1434 54.4623 31.2541 54.2392 31.7056 53.4918C32.209 52.651 31.8769 51.6129 31.1658 51.0109C30.7662 50.6735 30.2783 50.5022 29.8164 50.2791C29.3545 50.0559 28.9704 49.76 28.7472 49.2877C28.3008 48.3483 28.6174 47.2688 29.2506 46.5006C30.0811 45.5041 31.2956 45.0525 32.4374 44.5283C32.4841 44.4972 32.4426 44.3986 32.3803 44.4193Z" fill="#BA96D6"/>
<path d="M39.6362 29.1499C38.7954 28.9111 37.8456 29.0772 37.01 29.2641C35.9408 29.5028 34.8976 29.8661 33.9062 30.3332C31.9755 31.2415 30.2835 32.7882 29.5621 34.8331C29.1365 36.0321 29.178 37.3036 29.0638 38.5545C29.0067 39.2032 28.8925 39.8468 28.6538 40.4541C28.4202 41.0302 28.0881 41.5648 27.7299 42.0734C27.0241 43.0699 26.1988 43.9938 25.6746 45.1097C25.4203 45.6494 25.2439 46.2204 25.2023 46.8172C25.166 47.3985 25.275 47.9798 25.5034 48.5144C25.9549 49.5992 26.8165 50.44 27.7818 51.0836C28.3009 51.4313 28.8562 51.7168 29.4167 51.997C29.6866 52.132 29.9669 52.2721 30.1745 52.4953C30.3769 52.7081 30.5326 53.0454 30.4185 53.3413C30.325 53.5852 30.0603 53.7565 29.806 53.6683C29.6763 53.6215 29.6192 53.8292 29.7489 53.8759C30.2108 54.0419 30.6572 53.6319 30.6831 53.1804C30.7143 52.5991 30.2316 52.1787 29.7697 51.9244C29.2247 51.6233 28.659 51.369 28.1296 51.0368C27.6054 50.7099 27.1071 50.331 26.6763 49.8846C25.8563 49.0231 25.3113 47.8708 25.4463 46.6615C25.5812 45.4159 26.3286 44.3311 27.0604 43.3554C27.787 42.39 28.5759 41.4298 28.9652 40.2672C29.3856 39.0216 29.2974 37.6929 29.4427 36.4057C29.5725 35.2587 29.9721 34.1999 30.6416 33.2553C31.2852 32.347 32.1364 31.5893 33.0862 31.0132C34.0152 30.4526 35.0377 30.0374 36.0757 29.7208C37.0203 29.4302 38.0376 29.181 39.0393 29.2225C39.2262 29.2277 39.413 29.2485 39.5999 29.29C39.6829 29.3004 39.7192 29.1758 39.6362 29.1499Z" fill="#BA96D6"/>
<path d="M31.4357 44.7879C31.3423 44.845 31.2489 44.8865 31.1658 44.9592C31.0672 45.037 30.979 45.1304 30.8959 45.2187C30.7402 45.39 30.5949 45.5768 30.4755 45.7792C30.2264 46.184 30.0603 46.6408 29.998 47.1183C29.9358 47.601 29.9669 48.12 30.216 48.5508C30.434 48.9193 30.8285 49.2099 31.2696 49.2203C31.7264 49.2307 32.1831 48.8933 32.2454 48.4314C32.261 48.3068 32.0741 48.2549 32.0585 48.3795C31.9807 48.9193 31.3682 49.1476 30.9063 48.9296C30.3873 48.6857 30.1745 48.1096 30.1641 47.5698C30.1537 47.0456 30.2939 46.511 30.5326 46.0491C30.652 45.8155 30.7973 45.5976 30.9634 45.4003C31.1243 45.2135 31.306 45.0214 31.4876 44.8606C31.5291 44.8242 31.4824 44.7619 31.4357 44.7879Z" fill="#BA96D6"/>
<path d="M32.1468 48.4314C32.1053 48.5352 32.2558 48.6909 32.3077 48.7791C32.3907 48.9296 32.4582 49.0853 32.5101 49.2462C32.6087 49.5524 32.6295 49.8846 32.5309 50.196C32.4426 50.4659 32.2713 50.7202 32.0222 50.8604C31.8717 50.9434 31.7056 50.9745 31.5395 51.0005C31.389 51.0264 31.2022 51.0316 31.088 51.1406C31.0361 51.1873 31.0776 51.2704 31.1451 51.2756C31.2437 51.2808 31.3319 51.2392 31.4253 51.2237C31.5291 51.2029 31.633 51.1925 31.7368 51.1718C31.8976 51.1406 32.0534 51.0835 32.1883 50.9901C32.4426 50.8136 32.6295 50.5438 32.7177 50.2479C32.8163 49.9157 32.7904 49.5576 32.6866 49.2255C32.6295 49.0594 32.5568 48.8985 32.4634 48.748C32.4115 48.6597 32.2921 48.4054 32.1675 48.421C32.152 48.421 32.1468 48.4262 32.1468 48.4314Z" fill="#BA96D6"/>
<path d="M31.6122 31.8903C31.0516 32.5131 30.6883 33.302 30.4652 34.1013C30.2368 34.9214 30.1486 35.7933 30.242 36.6445C30.351 37.6202 30.7143 38.5493 30.8596 39.5198C30.9842 40.3503 30.8752 41.1599 30.5119 41.9125C29.8839 43.2049 28.7732 44.1754 27.9635 45.3484C27.5742 45.9141 27.2524 46.5318 27.1227 47.2117C26.9774 47.985 27.1071 48.7791 27.4549 49.485C27.8078 50.196 28.3995 50.8448 29.1209 51.2029C29.9306 51.6026 31.0101 51.8776 31.4046 52.7859C31.4928 52.9883 31.5188 53.1959 31.4928 53.4139C31.4772 53.5333 31.6641 53.5281 31.6797 53.4139C31.7887 52.5316 31.0257 51.8932 30.3146 51.5455C29.8891 51.3379 29.4531 51.1718 29.0482 50.9175C28.6901 50.6995 28.3787 50.4192 28.1088 50.0974C27.5846 49.459 27.2628 48.6442 27.2732 47.8137C27.2836 47.0975 27.5483 46.4228 27.9116 45.8207C28.6434 44.6114 29.723 43.6564 30.4496 42.4419C30.8077 41.8399 31.062 41.1807 31.0932 40.4748C31.1399 39.4887 30.8129 38.5441 30.5845 37.6047C30.3665 36.712 30.3043 35.8141 30.4496 34.9006C30.5897 34.039 30.8908 33.2086 31.3423 32.4612C31.4461 32.2847 31.5655 32.1135 31.6849 31.9474C31.7212 31.9059 31.6485 31.8488 31.6122 31.8903Z" fill="#BA96D6"/>
<path d="M31.5551 29.2381C31.7367 29.1603 31.9028 29.0357 32.0689 28.9319C32.2506 28.8177 32.4374 28.7035 32.6243 28.5893C33.055 28.3298 33.491 28.0963 33.9478 27.8835C35.0688 27.3645 36.2678 27.0167 37.4978 26.8714C38.3594 26.7676 39.2314 26.7624 40.0929 26.8299C40.2227 26.8402 40.2227 26.6378 40.0929 26.6274C38.6293 26.5185 37.1449 26.6378 35.7332 27.0375C34.6692 27.3385 33.6571 27.8004 32.7125 28.3713C32.4893 28.5063 32.2765 28.6464 32.0585 28.7918C31.8769 28.9163 31.6797 29.0357 31.5239 29.1966C31.5032 29.2173 31.5291 29.2485 31.5551 29.2381Z" fill="#BA96D6"/>
<path d="M33.9789 43.2153C34.5187 42.2706 34.446 41.0925 34.2851 40.0544C34.0983 38.8555 33.7246 37.6773 33.7713 36.4525C33.8128 35.4404 34.145 34.4491 34.6951 33.6031C35.2661 32.7259 36.0861 32.0408 36.9996 31.5426C37.4771 31.2831 38.0013 31.0858 38.5411 31.0132C39.1224 30.9353 39.7088 31.0028 40.2694 31.1637C40.3991 31.2 40.4562 30.9924 40.3265 30.9613C39.3403 30.7069 38.3386 30.7537 37.3992 31.1533C36.4598 31.5529 35.5671 32.2017 34.9235 32.9906C34.2799 33.7795 33.8388 34.7293 33.6727 35.731C33.4755 36.904 33.7142 38.0562 33.9478 39.2033C34.0827 39.8676 34.2125 40.5371 34.2332 41.2222C34.254 41.897 34.145 42.5561 33.9062 43.1893C33.8907 43.2256 33.9581 43.2568 33.9789 43.2153Z" fill="#BA96D6"/>
<path d="M40.3732 32.2951C40.4303 32.0408 40.4251 31.7709 40.4303 31.5114C40.4355 31.2311 40.4355 30.956 40.4355 30.6758C40.4355 30.1308 40.4407 29.5858 40.4407 29.0357C40.4407 28.4907 40.4459 27.9457 40.4459 27.3956C40.4459 27.1153 40.4355 26.8402 40.4303 26.56C40.4303 26.4302 40.4303 26.3005 40.4303 26.1759C40.4303 26.1136 40.4355 26.0461 40.4303 25.9839C40.4303 25.9164 40.3991 25.8541 40.3991 25.7918C40.3991 25.7243 40.2953 25.7243 40.2953 25.7918C40.2953 25.8437 40.2694 25.9008 40.2642 25.9527C40.259 26.0254 40.2642 26.1032 40.2642 26.1759C40.2642 26.3056 40.2642 26.4354 40.259 26.56C40.2538 26.8402 40.2434 27.1153 40.2434 27.3956C40.2434 27.9405 40.2383 28.4855 40.2383 29.0357C40.2383 29.5806 40.2331 30.1256 40.2331 30.6758C40.2331 30.956 40.2331 31.2311 40.2331 31.5114C40.2331 31.7709 40.2331 32.0408 40.285 32.2951C40.2953 32.3366 40.3628 32.3366 40.3732 32.2951Z" fill="#BA96D6"/>
<path d="M43.7935 51.914C43.2382 52.1371 42.7295 52.4589 42.1742 52.6821C41.6033 52.9105 41.0064 53.0766 40.3888 53.0869C39.1587 53.1129 37.9961 52.5731 36.9425 51.9866C36.8439 51.9295 36.7505 52.0801 36.8543 52.1423C37.6951 52.6406 38.593 53.0766 39.5687 53.2323C40.5237 53.3828 41.4528 53.2115 42.3299 52.8326C42.8437 52.6094 43.3835 52.3499 43.8402 52.023C43.8869 51.9866 43.861 51.888 43.7935 51.914Z" fill="#363E49"/>
<path d="M32.2142 27.4631C32.261 29.4458 32.9772 31.4129 34.3786 32.8454C34.9183 33.3955 35.5256 33.8834 36.2055 34.2467C36.9529 34.6463 37.7625 34.8955 38.5982 35.046C39.0912 35.1342 39.5895 35.1861 40.0877 35.2121C40.2279 35.2225 40.3576 35.2225 40.4978 35.2121C40.9389 35.1757 41.3749 35.1083 41.8109 35.0252C43.2693 34.745 44.7693 34.2415 45.9163 33.2658C47.4163 31.989 48.2363 30.1257 48.4854 28.2053C48.5166 27.9562 48.5425 27.7123 48.5581 27.4631C48.5685 27.2815 48.283 27.2815 48.2726 27.4631C48.2104 28.4181 48.0339 29.3627 47.6861 30.2555C47.328 31.1793 46.7779 31.9734 46.1031 32.6948C45.0859 33.7744 43.6119 34.3401 42.1949 34.6671C41.7071 34.7813 41.2088 34.8643 40.7106 34.9214C40.2746 34.9681 39.849 34.937 39.413 34.8903C38.5566 34.802 37.7003 34.6256 36.9062 34.2934C36.2107 34.008 35.5671 33.5979 34.9962 33.1049C34.2955 32.4976 33.6986 31.7762 33.273 30.9509C32.8319 30.0946 32.5776 29.1655 32.4374 28.2157C32.4011 27.9666 32.3648 27.7175 32.3388 27.4683C32.3232 27.3905 32.2142 27.3853 32.2142 27.4631Z" fill="#EAE1F9"/>
<path d="M44.0323 34.3246C44.3073 34.1533 44.7641 34.1896 45.1066 34.745C45.4492 35.3055 44.9717 35.783 44.7848 35.8712C44.598 35.9647 44.0582 36.0477 43.7624 35.4975C43.4665 34.9474 43.7105 34.527 44.0323 34.3246Z" fill="#EAE1F9"/>
<path d="M47.0945 31.9111C47.3332 31.6879 47.7848 31.6308 48.2311 32.1135C48.6775 32.5962 48.3038 33.1567 48.1377 33.2813C47.9716 33.4059 47.4578 33.5979 47.0633 33.1152C46.6585 32.6325 46.8194 32.1706 47.0945 31.9111Z" fill="#EAE1F9"/>
<path d="M48.1636 29.1603C48.3297 28.88 48.7501 28.7035 49.3107 29.0409C49.8712 29.3783 49.6688 30.0218 49.5442 30.1931C49.4197 30.3592 48.9837 30.6862 48.4647 30.3333C47.9457 29.9803 47.9716 29.4873 48.1636 29.1603Z" fill="#EAE1F9"/>
<path d="M36.6259 34.3246C36.3508 34.1533 35.8941 34.1896 35.5515 34.745C35.209 35.3055 35.6865 35.783 35.8733 35.8712C36.0602 35.9647 36.5999 36.0477 36.8958 35.4975C37.1968 34.9474 36.9477 34.527 36.6259 34.3246Z" fill="#EAE1F9"/>
<path d="M33.5637 31.9111C33.3249 31.6879 32.8734 31.6308 32.427 32.1135C31.9807 32.5962 32.3544 33.1567 32.5205 33.2813C32.6865 33.4059 33.1952 33.5979 33.5948 33.1152C33.9997 32.6325 33.844 32.1706 33.5637 31.9111Z" fill="#EAE1F9"/>
<path d="M32.4945 29.1603C32.3284 28.88 31.908 28.7035 31.3475 29.0409C30.787 29.3783 30.9894 30.0218 31.1139 30.1931C31.2385 30.3592 31.6745 30.6862 32.1935 30.3333C32.7125 29.9803 32.6866 29.4873 32.4945 29.1603Z" fill="#EAE1F9"/>
<path d="M38.6085 35.2588C38.6916 35.3263 38.8006 35.3523 38.8836 35.4249C38.977 35.5132 39.0238 35.6325 39.0497 35.7519C39.1068 36.0374 39.086 36.3436 39.0912 36.6342C39.0964 36.9508 39.1016 37.2674 39.0964 37.584C39.0964 37.7501 39.0912 37.911 39.0912 38.0719C39.086 38.238 39.0705 38.3626 39.221 38.4612C39.2677 38.4923 39.3404 38.4923 39.3923 38.4612C39.5635 38.3626 39.5324 38.1809 39.5324 38.0096C39.5376 37.8176 39.5376 37.6204 39.5376 37.4283C39.5376 37.0494 39.5272 36.6706 39.5116 36.2917C39.4961 35.9803 39.5013 35.6377 39.3352 35.3574C39.2158 35.155 38.8732 34.8696 38.6345 35.0512C38.5774 35.1031 38.5359 35.2017 38.6085 35.2588Z" fill="#EAE1F9"/>
<path d="M39.304 36.3384C39.5843 36.3384 39.6258 35.8246 39.766 35.6533C39.823 35.5858 39.9528 35.482 40.0462 35.5339C40.15 35.591 40.1396 35.8142 40.15 35.9128C40.2175 36.6809 40.2019 37.4595 40.1293 38.2276C40.1189 38.3107 40.2019 38.4197 40.285 38.4352C40.3057 38.4404 40.3213 38.4404 40.3421 38.4404C40.4666 38.4508 40.5445 38.3366 40.5549 38.2276C40.6016 37.7501 40.6223 37.2674 40.612 36.7899C40.6068 36.5564 40.5912 36.3176 40.5704 36.0841C40.5549 35.8869 40.5497 35.6637 40.4718 35.4768C40.3213 35.0979 39.8957 35.046 39.5999 35.2952C39.4494 35.4249 39.3715 35.5962 39.3092 35.783C39.2625 35.9284 39.1535 36.1567 39.2314 36.3021C39.2521 36.3228 39.2781 36.3384 39.304 36.3384Z" fill="#EAE1F9"/>
<path d="M40.4044 36.1879C40.4926 36.1723 40.5082 36.0997 40.5445 36.027C40.586 35.9232 40.6171 35.809 40.6846 35.7156C40.7832 35.5755 40.9805 35.4976 41.0583 35.6897C41.1362 35.8765 41.0946 36.1204 41.0843 36.3125C41.0739 36.5824 41.0635 36.8471 41.0531 37.1169C41.0376 37.61 40.9597 38.1498 41.0791 38.6325C41.1465 38.9127 41.541 39.5667 41.8939 39.2864C41.9355 39.2553 41.9458 39.1878 41.9303 39.1411C41.8939 39.0114 41.7797 38.9854 41.6915 38.9076C41.6137 38.8349 41.5566 38.7415 41.5254 38.6429C41.432 38.3885 41.4528 38.1135 41.458 37.854C41.4735 37.2311 41.5099 36.6083 41.4995 35.9907C41.4943 35.7883 41.4683 35.5651 41.3438 35.399C41.2036 35.2122 40.9753 35.1499 40.7573 35.2277C40.5289 35.3056 40.3784 35.4976 40.3057 35.7208C40.2746 35.8142 40.1916 36.2294 40.4044 36.1879Z" fill="#EAE1F9"/>
<path d="M41.3853 37.065C41.4839 36.9145 41.4735 36.7121 41.6033 36.5771C41.6708 36.5044 41.8005 36.4474 41.8784 36.5408C41.9718 36.6498 41.9562 36.8678 41.951 36.9975C41.9458 37.1792 41.9095 37.3556 41.8524 37.5321C41.7434 37.8695 41.5306 38.1705 41.2555 38.3937C41.1206 38.5027 40.9805 38.5909 40.8248 38.6739C40.6639 38.757 40.4874 38.7881 40.3213 38.866C40.1656 38.9386 40.2642 39.1462 40.3992 39.1618C40.5808 39.1826 40.7677 39.1151 40.9389 39.058C41.1102 39.0009 41.2867 38.9127 41.4372 38.8089C41.7486 38.5857 42.0081 38.2847 42.169 37.9369C42.3351 37.5788 42.4233 37.1792 42.387 36.7847C42.3559 36.4266 42.1586 36.0321 41.7382 36.0944C41.541 36.1256 41.3697 36.2605 41.2763 36.4318C41.1829 36.6031 41.1102 36.8522 41.1621 37.0442C41.1881 37.1428 41.3282 37.1532 41.3853 37.065Z" fill="#EAE1F9"/>
<path d="M51.5165 14.5241C51.558 14.4981 52.2276 15.4894 52.1964 15.5154C52.1653 15.5413 51.0494 15.1261 51.0442 15.0898C51.039 15.0586 52.1237 14.768 52.1601 14.7939C52.1912 14.8199 51.4438 15.7074 51.4127 15.6867C51.3816 15.6607 51.475 14.55 51.5165 14.5241Z" fill="#BA96D6"/>
<path d="M39.9632 13.2629C40.0047 13.2525 40.2746 14.2594 40.2434 14.2698C40.2123 14.2802 39.413 13.621 39.4182 13.5951C39.4234 13.5691 40.3992 13.6366 40.4199 13.6677C40.4407 13.6989 39.5739 14.2179 39.5532 14.1867C39.5272 14.1608 39.9217 13.2733 39.9632 13.2629Z" fill="#BA96D6"/>
<path d="M37.0359 19.6883C37.0671 19.6623 37.7418 20.389 37.7158 20.4149C37.6951 20.4357 36.7297 20.2385 36.7193 20.2125C36.7141 20.1866 37.5601 19.8129 37.5913 19.8284C37.6224 19.844 37.119 20.6641 37.093 20.6537C37.0671 20.6381 37.0048 19.7143 37.0359 19.6883Z" fill="#BA96D6"/>
<path d="M32.3181 16.0707C32.3596 16.0395 33.1589 17.0153 33.1277 17.0412C33.0966 17.0672 31.8873 16.7454 31.8769 16.7091C31.8717 16.6727 32.9772 16.2627 33.0135 16.2887C33.0499 16.3146 32.3544 17.3163 32.3181 17.2956C32.2869 17.28 32.2765 16.107 32.3181 16.0707Z" fill="#BA96D6"/>
<path d="M27.7351 14.7576C27.7715 14.7576 27.7507 15.6295 27.7248 15.6295C27.6988 15.6295 27.2109 14.9185 27.2213 14.8977C27.2317 14.8769 27.9946 15.1572 28.005 15.1884C28.0154 15.2195 27.2006 15.4271 27.1902 15.4011C27.1798 15.3752 27.6988 14.7576 27.7351 14.7576Z" fill="#BA96D6"/>
<path d="M34.4668 23.7263C34.5135 23.7159 34.8145 24.8941 34.7782 24.9096C34.7419 24.92 33.818 24.1415 33.8232 24.1051C33.8336 24.074 34.965 24.1674 34.991 24.2038C35.0118 24.2401 33.9945 24.8318 33.9737 24.8006C33.9426 24.7695 34.4149 23.7366 34.4668 23.7263Z" fill="#BA96D6"/>
<path d="M46.4509 16.3562C46.4768 16.351 46.6429 17.0258 46.6222 17.031C46.6014 17.0361 46.0772 16.5898 46.0824 16.569C46.0876 16.5483 46.7364 16.6105 46.7467 16.6313C46.7571 16.6521 46.1758 16.9842 46.1654 16.9687C46.1499 16.9531 46.4249 16.3666 46.4509 16.3562Z" fill="#BA96D6"/>
<path d="M42.3195 16.6313C42.3507 16.6105 42.8904 17.3787 42.8645 17.3994C42.8385 17.4202 41.9614 17.1088 41.9562 17.0828C41.951 17.0569 42.797 16.8181 42.823 16.8389C42.8489 16.8596 42.278 17.5603 42.2521 17.5447C42.2313 17.524 42.2884 16.6572 42.3195 16.6313Z" fill="#BA96D6"/>
<path d="M38.9822 8.00002C39.029 7.99483 39.1639 9.18857 39.1276 9.19895C39.0912 9.20414 38.292 8.31662 38.3023 8.28548C38.3127 8.25434 39.413 8.49827 39.4286 8.53979C39.4442 8.58132 38.3698 9.01729 38.3542 8.98615C38.3335 8.94982 38.9355 8.00521 38.9822 8.00002Z" fill="#BA96D6"/>
<path d="M38.8421 9.27156C38.7487 9.34422 38.7643 9.49474 38.7746 9.6193C38.8058 9.89957 38.8732 10.1798 38.9303 10.4549C39.0601 11.1037 39.195 11.7525 39.33 12.4012C39.3507 12.5102 39.3767 12.6192 39.3975 12.7282C39.4026 12.7594 39.4078 12.7905 39.4182 12.8216C39.4286 12.858 39.4442 12.9306 39.4286 12.858C39.4753 13.0915 39.8386 12.9929 39.7867 12.7594C39.7971 12.8113 39.7919 12.8113 39.7919 12.7801C39.7867 12.7386 39.7815 12.6971 39.7711 12.6556C39.7504 12.5673 39.7348 12.4791 39.7141 12.3857C39.6518 12.0898 39.5895 11.7992 39.5272 11.5033C39.3923 10.8753 39.2833 10.2266 39.1068 9.60892C39.086 9.54664 38.9719 9.16776 38.8421 9.27156Z" fill="#BA96D6"/>
<path d="M33.3301 17.3008C33.3301 17.332 33.3198 17.3164 33.3457 17.2749C33.3198 17.3164 33.3301 17.3631 33.3613 17.3994C33.3457 17.3787 33.3872 17.4358 33.3976 17.4513C33.4288 17.4928 33.4599 17.5344 33.4962 17.5707C33.5793 17.6537 33.6675 17.7264 33.7557 17.7991C34.0101 18.0119 34.2696 18.2143 34.5291 18.4219C35.0689 18.8527 35.6034 19.2783 36.1484 19.7039C36.2366 19.7765 36.3249 19.844 36.4183 19.9167C36.4546 19.9426 36.491 19.9738 36.5273 19.9997C36.5636 20.0257 36.5532 20.0153 36.5221 19.9893C36.7089 20.1346 36.9736 19.8751 36.7868 19.7246C35.8837 19.0136 34.991 18.2869 34.0671 17.6018C33.953 17.5136 33.8388 17.4254 33.7142 17.3475C33.6416 17.3008 33.5378 17.2645 33.491 17.2385C33.4495 17.2178 33.4028 17.223 33.3665 17.2541C33.3769 17.2437 33.4236 17.2282 33.3924 17.2333C33.3509 17.2385 33.325 17.2697 33.3301 17.3008Z" fill="#BA96D6"/>
<path d="M40.4199 14.6434C40.3836 14.7368 40.5133 14.9133 40.5549 14.986C40.6535 15.152 40.7521 15.3129 40.8611 15.4738C41.0894 15.8164 41.323 16.1537 41.5514 16.4963C41.6033 16.5741 41.6552 16.6468 41.7071 16.7247C41.8368 16.9167 42.1534 16.735 42.0185 16.543C41.6344 15.9773 41.2607 15.4012 40.8351 14.8614C40.7677 14.7783 40.6431 14.5656 40.5185 14.5656C40.4718 14.5656 40.4355 14.5967 40.4199 14.6434Z" fill="#BA96D6"/>
<path d="M41.8316 17.4876C41.6863 17.5291 41.5514 17.607 41.4164 17.6797C41.0946 17.8457 40.778 18.0222 40.4614 18.2039C39.7556 18.6139 39.0549 19.0239 38.349 19.4339C38.183 19.5326 38.0169 19.626 37.8508 19.7246C37.6847 19.8232 37.8352 20.0879 38.0065 19.9893C38.4528 19.7246 38.8992 19.4547 39.3456 19.19C40.041 18.7748 40.7573 18.3803 41.4268 17.9236C41.5825 17.8198 41.7538 17.7212 41.8887 17.5862C41.9251 17.5447 41.8835 17.4721 41.8316 17.4876Z" fill="#BA96D6"/>
<path d="M36.7245 20.7523C36.6363 20.8198 36.574 20.9132 36.5065 21.0014C36.3456 21.209 36.2003 21.4218 36.0602 21.6398C35.7332 22.1433 35.4114 22.6467 35.0844 23.1502C35.0066 23.2695 34.9287 23.3889 34.8561 23.5083C34.7523 23.6744 35.0118 23.8249 35.1208 23.664C35.3232 23.3474 35.5204 23.0256 35.7176 22.7038C36.029 22.2055 36.3664 21.7125 36.6363 21.1883C36.6986 21.0689 36.7816 20.9443 36.8076 20.8146C36.8179 20.7731 36.7712 20.7212 36.7245 20.7523Z" fill="#BA96D6"/>
<path d="M31.7627 16.3095C31.6641 16.242 31.5447 16.2109 31.4357 16.1694C31.171 16.0707 30.9011 15.9825 30.6261 15.9047C30.0136 15.723 29.396 15.5413 28.7836 15.3649C28.6434 15.3234 28.4981 15.2818 28.358 15.2403C28.1711 15.1884 28.0881 15.4791 28.2749 15.531C28.6642 15.6451 29.0586 15.7489 29.4531 15.8579C30.0655 16.0292 30.678 16.2264 31.3008 16.351C31.4409 16.377 31.5914 16.4289 31.7368 16.4185C31.7939 16.4133 31.8094 16.3406 31.7627 16.3095Z" fill="#BA96D6"/>
<path d="M51.0442 15.3234C50.9041 15.3286 50.7639 15.3701 50.629 15.4012C50.3072 15.4739 49.9854 15.5673 49.6688 15.6607C48.9422 15.8787 48.2156 16.0915 47.4889 16.3095C47.3228 16.3614 47.1568 16.4081 46.9907 16.46C46.8038 16.5171 46.8817 16.8129 47.0737 16.7507C47.5305 16.6105 47.9872 16.4704 48.4387 16.3251C49.1602 16.1019 49.892 15.8995 50.5978 15.6296C50.7587 15.5673 50.9404 15.5154 51.0753 15.4272C51.1221 15.4012 51.1013 15.3234 51.0442 15.3234Z" fill="#BA96D6"/>
<path d="M43.342 17.1451C43.4198 17.1763 43.5029 17.1659 43.5859 17.1711C43.7831 17.1763 43.9752 17.1659 44.1672 17.1503C44.6136 17.114 45.0651 17.0776 45.5115 17.0361C45.6153 17.0257 45.7191 17.0206 45.8229 17.0102C46.0149 16.9894 46.0201 16.6884 45.8229 16.704C45.5426 16.7299 45.2572 16.761 44.9769 16.7922C44.5305 16.8389 44.0686 16.8597 43.6326 16.9531C43.534 16.9738 43.4198 16.9842 43.3316 17.0361C43.2849 17.0673 43.2953 17.1244 43.342 17.1451Z" fill="#BA96D6"/>
</svg>
